<svg width="36" height="36" viewBox="0 0 36 36" fill="none" xmlns="http://www.w3.org/2000/svg">
<path d="M34.1594 19.9444L31.8216 18.5921C31.132 18.1917 31.132 17.1949 31.8216 16.7945L34.1594 15.4422C35.1998 14.8416 35.8403 13.7262 35.8403 12.5251V1.66162C35.8403 0.505414 34.906 -0.430176 33.7514 -0.430176H1.77646C0.621819 -0.430176 -0.3125 0.505414 -0.3125 1.66162V33.6841C-0.3125 34.8403 0.621819 35.7759 1.77646 35.7759H33.7555C34.9101 35.7759 35.8444 34.8403 35.8444 33.6841V22.8615C35.8403 21.6604 35.1998 20.545 34.1594 19.9444Z" fill="#1717DC"/>
<path d="M33.7548 -0.430176C34.9094 -0.430176 35.8438 0.505414 35.8438 1.66162V12.5251C35.8438 13.7303 35.2032 14.8416 34.1628 15.4422L31.825 16.7945C31.1354 17.1949 31.1354 18.1917 31.825 18.5921L34.1628 19.9444C35.2032 20.545 35.8438 21.6604 35.8438 22.8615V33.68C35.8438 34.8363 34.9094 35.7719 33.7548 35.7719L14.5707 18.8618C13.8567 18.2326 13.8567 17.1172 14.5707 16.484L33.7548 -0.430176Z" fill="#289BD6"/>
</svg>
