<svg width="197" height="37" viewBox="0 0 197 37" fill="none" xmlns="http://www.w3.org/2000/svg">
<path d="M21.5687 29.2351L20.1652 25.0515H10.1366L8.61476 29.2351H0.691406L12.2827 0.313477H18.0967L29.5696 29.2351H21.5687ZM15.2488 9.34253L15.1305 9.30168L12.1644 19.1887H18.215L15.2488 9.34253Z" fill="white"/>
<path d="M31.4863 36.4664V7.54484H37.5737V9.92671H37.692C39.4097 7.77772 41.7883 6.80127 44.4811 6.80127C50.646 6.80127 55.0197 11.8428 55.0197 18.6044C55.0197 24.7777 50.6868 29.9786 44.4811 29.9786C41.9434 29.9786 39.7198 29.1982 37.9613 27.2821V36.4664H31.4863ZM48.5407 18.4083C48.5407 15.3605 46.1988 12.8601 43.0776 12.8601C40.1114 12.8601 37.692 15.2829 37.692 18.4083C37.692 21.4561 40.0339 23.9197 43.1184 23.9197C46.1988 23.9197 48.5407 21.4194 48.5407 18.4083Z" fill="white"/>
<path d="M57.9102 36.4664V7.54484H63.9975V9.92671H64.1158C65.8335 7.77772 68.2121 6.80127 70.9049 6.80127C77.0698 6.80127 81.4436 11.8428 81.4436 18.6044C81.4436 24.7777 77.1106 29.9786 70.9049 29.9786C68.3672 29.9786 66.1436 29.1982 64.3851 27.2821V36.4664H57.9102ZM74.9645 18.4083C74.9645 15.3605 72.6226 12.8601 69.5014 12.8601C66.5353 12.8601 64.1158 15.2829 64.1158 18.4083C64.1158 21.4561 66.4577 23.9197 69.5422 23.9197C72.6226 23.9197 74.9645 21.4194 74.9645 18.4083Z" fill="white"/>
<path d="M84.6055 29.2351V0.313477H93.8548C95.9234 0.313477 97.4452 0.431958 98.4611 0.664834C101.741 1.4084 104.471 3.94961 104.471 7.85539C104.471 10.319 103.3 12.5047 101.113 13.7182C104.275 14.8131 105.874 17.1173 105.874 20.4389C105.874 23.213 104.704 25.7542 102.517 27.2781C100.252 28.8796 98.7712 29.231 94.2016 29.231H84.6055V29.2351ZM94.5974 11.2954C96.4334 11.2954 97.4085 10.5151 97.4085 8.99118C97.4085 7.46727 96.4742 6.80132 94.6382 6.80132H91.672V11.2954H94.5974ZM95.4583 22.7472C97.5268 22.7472 98.8161 21.8484 98.8161 19.9731C98.8161 18.294 97.6859 17.4728 95.4991 17.4728H91.672V22.7472H95.4583Z" fill="white"/>
<path d="M108.766 29.235V7.54484H114.853V9.84909H114.93C116.061 7.54484 117.856 6.80127 120.357 6.80127V13.3259C116.493 13.3667 115.245 14.813 115.245 17.2725V29.2309H108.766V29.235Z" fill="white"/>
<path d="M132.536 29.901C125.939 29.901 120.867 25.0147 120.867 18.3716C120.867 11.6509 126.057 6.84216 132.536 6.84216C139.056 6.84216 144.205 11.7285 144.205 18.294C144.205 25.0923 139.052 29.901 132.536 29.901ZM137.726 18.3716C137.726 15.479 135.539 12.901 132.495 12.901C129.647 12.901 127.342 15.4014 127.342 18.3716C127.342 21.3418 129.607 23.8421 132.532 23.8421C135.58 23.8421 137.726 21.2641 137.726 18.3716Z" fill="white"/>
<path d="M163.487 29.2351V26.89H163.41C162.198 28.8837 160.015 29.9378 156.931 29.9378C150.374 29.9378 146.082 24.8962 146.082 18.3307C146.082 11.8429 150.493 6.80132 156.816 6.80132C159.313 6.80132 161.345 7.54489 163.177 9.3793V0.313477H169.656V29.2351H163.487ZM163.524 18.294C163.524 15.2829 161.223 12.8602 158.02 12.8602C154.976 12.8602 152.557 15.1277 152.557 18.294C152.557 21.5787 154.858 23.883 157.983 23.883C161.145 23.883 163.524 21.497 163.524 18.294Z" fill="white"/>
<path d="M189.832 29.2351V26.89H189.754C188.816 28.8061 186.241 29.9786 183.394 29.9786C176.992 29.9786 172.545 24.9371 172.545 18.3716C172.545 11.9614 177.188 6.80542 183.394 6.80542C186.046 6.80542 188.506 7.85949 189.754 9.85324H189.832V7.54899H196.311V29.2392H189.832V29.2351ZM189.832 18.3716C189.832 15.3238 187.372 12.8602 184.328 12.8602C181.362 12.8602 179.02 15.3238 179.02 18.4492C179.02 21.4603 181.399 23.9198 184.405 23.9198C187.453 23.9198 189.832 21.497 189.832 18.3716Z" fill="white"/>
<path d="M18.0957 0.313477L29.5686 29.2351H21.5678" fill="white"/>
<path d="M31.4863 36.4664V7.54484H37.5737V9.92671H37.692C39.4097 7.77772 41.7883 6.80127 44.4811 6.80127C50.646 6.80127 55.0197 11.8428 55.0197 18.6044C55.0197 24.7777 50.6868 29.9786 44.4811 29.9786C41.9434 29.9786 39.7198 29.1982 37.9613 27.2821V36.4664H31.4863ZM48.5407 18.4083C48.5407 15.3605 46.1988 12.8601 43.0776 12.8601C40.1114 12.8601 37.692 15.2829 37.692 18.4083C37.692 21.4561 40.0339 23.9197 43.1184 23.9197C46.1988 23.9197 48.5407 21.4194 48.5407 18.4083Z" fill="white"/>
<path d="M57.9102 36.4664V7.54484H63.9975V9.92671H64.1158C65.8335 7.77772 68.2121 6.80127 70.9049 6.80127C77.0698 6.80127 81.4436 11.8428 81.4436 18.6044C81.4436 24.7777 77.1106 29.9786 70.9049 29.9786C68.3672 29.9786 66.1436 29.1982 64.3851 27.2821V36.4664H57.9102ZM74.9645 18.4083C74.9645 15.3605 72.6226 12.8601 69.5014 12.8601C66.5353 12.8601 64.1158 15.2829 64.1158 18.4083C64.1158 21.4561 66.4577 23.9197 69.5422 23.9197C72.6226 23.9197 74.9645 21.4194 74.9645 18.4083Z" fill="white"/>
<path d="M84.6055 29.2351V0.313477H93.8548C95.9234 0.313477 97.4452 0.431958 98.4611 0.664834C101.741 1.4084 104.471 3.94961 104.471 7.85539C104.471 10.319 103.3 12.5047 101.113 13.7182C104.275 14.8131 105.874 17.1173 105.874 20.4389C105.874 23.213 104.704 25.7542 102.517 27.2781C100.252 28.8796 98.7712 29.231 94.2016 29.231H84.6055V29.2351ZM94.5974 11.2954C96.4334 11.2954 97.4085 10.5151 97.4085 8.99118C97.4085 7.46727 96.4742 6.80132 94.6382 6.80132H91.672V11.2954H94.5974ZM95.4583 22.7472C97.5268 22.7472 98.8161 21.8484 98.8161 19.9731C98.8161 18.294 97.6859 17.4728 95.4991 17.4728H91.672V22.7472H95.4583Z" fill="white"/>
<path d="M108.766 29.235V7.54484H114.853V9.84909H114.93C116.061 7.54484 117.856 6.80127 120.357 6.80127V13.3259C116.493 13.3667 115.245 14.813 115.245 17.2725V29.2309H108.766V29.235Z" fill="white"/>
<path d="M132.536 29.901C125.939 29.901 120.867 25.0147 120.867 18.3716C120.867 11.6509 126.057 6.84216 132.536 6.84216C139.056 6.84216 144.205 11.7285 144.205 18.294C144.205 25.0923 139.052 29.901 132.536 29.901ZM137.726 18.3716C137.726 15.479 135.539 12.901 132.495 12.901C129.647 12.901 127.342 15.4014 127.342 18.3716C127.342 21.3418 129.607 23.8421 132.532 23.8421C135.58 23.8421 137.726 21.2641 137.726 18.3716Z" fill="white"/>
<path d="M163.487 29.2351V26.89H163.41C162.198 28.8837 160.015 29.9378 156.931 29.9378C150.374 29.9378 146.082 24.8962 146.082 18.3307C146.082 11.8429 150.493 6.80132 156.816 6.80132C159.313 6.80132 161.345 7.54489 163.177 9.3793V0.313477H169.656V29.2351H163.487ZM163.524 18.294C163.524 15.2829 161.223 12.8602 158.02 12.8602C154.976 12.8602 152.557 15.1277 152.557 18.294C152.557 21.5787 154.858 23.883 157.983 23.883C161.145 23.883 163.524 21.497 163.524 18.294Z" fill="white"/>
<path d="M189.287 29.2348V26.8897H189.209C188.271 28.8058 185.697 29.9784 182.849 29.9784C176.447 29.9784 172 24.9368 172 18.3714C172 11.9611 176.643 6.80518 182.849 6.80518C185.501 6.80518 187.961 7.85925 189.209 9.85299H189.287V7.54875H195.766V29.2389H189.287V29.2348ZM189.287 18.3714C189.287 15.3235 186.827 12.86 183.783 12.86C180.817 12.86 178.475 15.3235 178.475 18.449C178.475 21.46 180.854 23.9195 183.861 23.9195C186.908 23.9195 189.287 21.4968 189.287 18.3714Z" fill="white"/>
<path d="M132.536 29.901C125.939 29.901 120.867 25.0147 120.867 18.3716C120.867 11.6509 126.057 6.84216 132.536 6.84216C139.056 6.84216 144.205 11.7285 144.205 18.294C144.205 25.0923 139.052 29.901 132.536 29.901ZM137.726 18.3716C137.726 15.479 135.539 12.901 132.495 12.901C129.647 12.901 127.342 15.4014 127.342 18.3716C127.342 21.3418 129.607 23.8421 132.532 23.8421C135.58 23.8421 137.726 21.2641 137.726 18.3716Z" fill="white"/>
</svg>
