<svg width="196" height="37" viewBox="0 0 196 37" fill="none" xmlns="http://www.w3.org/2000/svg">
<path d="M21.5687 29.2346L20.1652 25.051H10.1366L8.61476 29.2346H0.691406L12.2827 0.312988H18.0967L29.5696 29.2346H21.5687ZM15.2488 9.34204L15.1305 9.30119L12.1644 19.1882H18.215L15.2488 9.34204Z" fill="black"/>
<path d="M31.4863 36.4659V7.54435H37.5737V9.92622H37.692C39.4097 7.77723 41.7883 6.80078 44.4811 6.80078C50.646 6.80078 55.0197 11.8423 55.0197 18.6039C55.0197 24.7772 50.6868 29.9781 44.4811 29.9781C41.9434 29.9781 39.7198 29.1977 37.9613 27.2816V36.4659H31.4863ZM48.5407 18.4078C48.5407 15.36 46.1988 12.8596 43.0776 12.8596C40.1114 12.8596 37.692 15.2824 37.692 18.4078C37.692 21.4556 40.0339 23.9192 43.1184 23.9192C46.1988 23.9192 48.5407 21.4189 48.5407 18.4078Z" fill="black"/>
<path d="M57.9102 36.4659V7.54435H63.9975V9.92622H64.1158C65.8335 7.77723 68.2121 6.80078 70.9049 6.80078C77.0698 6.80078 81.4436 11.8423 81.4436 18.6039C81.4436 24.7772 77.1106 29.9781 70.9049 29.9781C68.3672 29.9781 66.1436 29.1977 64.3851 27.2816V36.4659H57.9102ZM74.9645 18.4078C74.9645 15.36 72.6226 12.8596 69.5014 12.8596C66.5353 12.8596 64.1158 15.2824 64.1158 18.4078C64.1158 21.4556 66.4577 23.9192 69.5422 23.9192C72.6226 23.9192 74.9645 21.4189 74.9645 18.4078Z" fill="black"/>
<path d="M84.6055 29.2346V0.312988H93.8548C95.9234 0.312988 97.4452 0.431469 98.4611 0.664346C101.741 1.40791 104.471 3.94912 104.471 7.85491C104.471 10.3185 103.3 12.5043 101.113 13.7177C104.275 14.8126 105.874 17.1168 105.874 20.4384C105.874 23.2125 104.704 25.7537 102.517 27.2776C100.252 28.8791 98.7712 29.2305 94.2016 29.2305H84.6055V29.2346ZM94.5974 11.2949C96.4334 11.2949 97.4085 10.5146 97.4085 8.99069C97.4085 7.46678 96.4742 6.80084 94.6382 6.80084H91.672V11.2949H94.5974ZM95.4583 22.7467C97.5268 22.7467 98.8161 21.8479 98.8161 19.9726C98.8161 18.2935 97.6859 17.4723 95.4991 17.4723H91.672V22.7467H95.4583Z" fill="black"/>
<path d="M108.766 29.2345V7.54435H114.853V9.8486H114.93C116.061 7.54435 117.856 6.80078 120.357 6.80078V13.3254C116.493 13.3663 115.245 14.8125 115.245 17.272V29.2304H108.766V29.2345Z" fill="black"/>
<path d="M132.536 29.9006C125.939 29.9006 120.867 25.0143 120.867 18.3712C120.867 11.6505 126.057 6.8418 132.536 6.8418C139.056 6.8418 144.205 11.7281 144.205 18.2936C144.205 25.0919 139.052 29.9006 132.536 29.9006ZM137.726 18.3712C137.726 15.4786 135.539 12.9007 132.495 12.9007C129.647 12.9007 127.342 15.401 127.342 18.3712C127.342 21.3414 129.607 23.8418 132.532 23.8418C135.58 23.8418 137.726 21.2638 137.726 18.3712Z" fill="black"/>
<path d="M163.487 29.2346V26.8895H163.41C162.198 28.8832 160.015 29.9373 156.931 29.9373C150.374 29.9373 146.082 24.8957 146.082 18.3302C146.082 11.8424 150.493 6.80084 156.816 6.80084C159.313 6.80084 161.345 7.54441 163.177 9.37882V0.312988H169.656V29.2346H163.487ZM163.524 18.2935C163.524 15.2824 161.223 12.8597 158.02 12.8597C154.976 12.8597 152.557 15.1272 152.557 18.2935C152.557 21.5783 154.858 23.8825 157.983 23.8825C161.145 23.8825 163.524 21.4965 163.524 18.2935Z" fill="black"/>
<path d="M189.832 29.2346V26.8895H189.754C188.816 28.8056 186.241 29.9782 183.394 29.9782C176.992 29.9782 172.545 24.9366 172.545 18.3711C172.545 11.9609 177.188 6.80493 183.394 6.80493C186.046 6.80493 188.506 7.859 189.754 9.85275H189.832V7.5485H196.311V29.2387H189.832V29.2346ZM189.832 18.3711C189.832 15.3233 187.372 12.8597 184.328 12.8597C181.362 12.8597 179.02 15.3233 179.02 18.4487C179.02 21.4598 181.399 23.9193 184.405 23.9193C187.453 23.9193 189.832 21.4966 189.832 18.3711Z" fill="black"/>
<path d="M18.0957 0.312988L29.5686 29.2346H21.5678" fill="black"/>
<path d="M31.4863 36.4659V7.54435H37.5737V9.92622H37.692C39.4097 7.77723 41.7883 6.80078 44.4811 6.80078C50.646 6.80078 55.0197 11.8423 55.0197 18.6039C55.0197 24.7772 50.6868 29.9781 44.4811 29.9781C41.9434 29.9781 39.7198 29.1977 37.9613 27.2816V36.4659H31.4863ZM48.5407 18.4078C48.5407 15.36 46.1988 12.8596 43.0776 12.8596C40.1114 12.8596 37.692 15.2824 37.692 18.4078C37.692 21.4556 40.0339 23.9192 43.1184 23.9192C46.1988 23.9192 48.5407 21.4189 48.5407 18.4078Z" fill="black"/>
<path d="M57.9102 36.4659V7.54435H63.9975V9.92622H64.1158C65.8335 7.77723 68.2121 6.80078 70.9049 6.80078C77.0698 6.80078 81.4436 11.8423 81.4436 18.6039C81.4436 24.7772 77.1106 29.9781 70.9049 29.9781C68.3672 29.9781 66.1436 29.1977 64.3851 27.2816V36.4659H57.9102ZM74.9645 18.4078C74.9645 15.36 72.6226 12.8596 69.5014 12.8596C66.5353 12.8596 64.1158 15.2824 64.1158 18.4078C64.1158 21.4556 66.4577 23.9192 69.5422 23.9192C72.6226 23.9192 74.9645 21.4189 74.9645 18.4078Z" fill="black"/>
<path d="M84.6055 29.2346V0.312988H93.8548C95.9234 0.312988 97.4452 0.431469 98.4611 0.664346C101.741 1.40791 104.471 3.94912 104.471 7.85491C104.471 10.3185 103.3 12.5043 101.113 13.7177C104.275 14.8126 105.874 17.1168 105.874 20.4384C105.874 23.2125 104.704 25.7537 102.517 27.2776C100.252 28.8791 98.7712 29.2305 94.2016 29.2305H84.6055V29.2346ZM94.5974 11.2949C96.4334 11.2949 97.4085 10.5146 97.4085 8.99069C97.4085 7.46678 96.4742 6.80084 94.6382 6.80084H91.672V11.2949H94.5974ZM95.4583 22.7467C97.5268 22.7467 98.8161 21.8479 98.8161 19.9726C98.8161 18.2935 97.6859 17.4723 95.4991 17.4723H91.672V22.7467H95.4583Z" fill="black"/>
<path d="M108.766 29.2345V7.54435H114.853V9.8486H114.93C116.061 7.54435 117.856 6.80078 120.357 6.80078V13.3254C116.493 13.3663 115.245 14.8125 115.245 17.272V29.2304H108.766V29.2345Z" fill="black"/>
<path d="M132.536 29.9006C125.939 29.9006 120.867 25.0143 120.867 18.3712C120.867 11.6505 126.057 6.8418 132.536 6.8418C139.056 6.8418 144.205 11.7281 144.205 18.2936C144.205 25.0919 139.052 29.9006 132.536 29.9006ZM137.726 18.3712C137.726 15.4786 135.539 12.9007 132.495 12.9007C129.647 12.9007 127.342 15.401 127.342 18.3712C127.342 21.3414 129.607 23.8418 132.532 23.8418C135.58 23.8418 137.726 21.2638 137.726 18.3712Z" fill="black"/>
<path d="M163.487 29.2346V26.8895H163.41C162.198 28.8832 160.015 29.9373 156.931 29.9373C150.374 29.9373 146.082 24.8957 146.082 18.3302C146.082 11.8424 150.493 6.80084 156.816 6.80084C159.313 6.80084 161.345 7.54441 163.177 9.37882V0.312988H169.656V29.2346H163.487ZM163.524 18.2935C163.524 15.2824 161.223 12.8597 158.02 12.8597C154.976 12.8597 152.557 15.1272 152.557 18.2935C152.557 21.5783 154.858 23.8825 157.983 23.8825C161.145 23.8825 163.524 21.4965 163.524 18.2935Z" fill="black"/>
<path d="M189.287 29.2343V26.8892H189.209C188.271 28.8054 185.697 29.9779 182.849 29.9779C176.447 29.9779 172 24.9363 172 18.3709C172 11.9606 176.643 6.80469 182.849 6.80469C185.501 6.80469 187.961 7.85876 189.209 9.8525H189.287V7.54826H195.766V29.2384H189.287V29.2343ZM189.287 18.3709C189.287 15.3231 186.827 12.8595 183.783 12.8595C180.817 12.8595 178.475 15.3231 178.475 18.4485C178.475 21.4595 180.854 23.919 183.861 23.919C186.908 23.919 189.287 21.4963 189.287 18.3709Z" fill="black"/>
<path d="M132.536 29.9006C125.939 29.9006 120.867 25.0143 120.867 18.3712C120.867 11.6505 126.057 6.8418 132.536 6.8418C139.056 6.8418 144.205 11.7281 144.205 18.2936C144.205 25.0919 139.052 29.9006 132.536 29.9006ZM137.726 18.3712C137.726 15.4786 135.539 12.9007 132.495 12.9007C129.647 12.9007 127.342 15.401 127.342 18.3712C127.342 21.3414 129.607 23.8418 132.532 23.8418C135.58 23.8418 137.726 21.2638 137.726 18.3712Z" fill="black"/>
</svg>
