<svg width="659" height="439" viewBox="0 0 659 439" fill="none" xmlns="http://www.w3.org/2000/svg">
<path d="M140.638 160.674C141.054 160.418 141.533 160.282 142.021 160.282C142.509 160.282 142.988 160.418 143.404 160.674C143.641 160.814 143.878 160.955 144.115 161.078L144.853 161.455C145.296 161.656 145.675 161.976 145.948 162.379C146.22 162.781 146.376 163.252 146.398 163.738L146.503 167.145L157.592 166.802L157.487 163.396C157.475 162.907 157.6 162.425 157.846 162.004C158.093 161.582 158.452 161.237 158.883 161.008C159.367 160.74 159.835 160.447 160.288 160.13C160.685 159.85 161.152 159.685 161.637 159.654C162.122 159.623 162.606 159.727 163.036 159.954L166.03 161.561L171.298 151.771L168.286 150.138C167.857 149.905 167.501 149.558 167.257 149.135C167.014 148.712 166.893 148.229 166.908 147.741C166.908 147.188 166.908 146.635 166.855 146.09C166.808 145.604 166.897 145.114 167.113 144.675C167.328 144.236 167.662 143.866 168.076 143.606L170.973 141.85L165.117 132.42L162.211 134.22C161.796 134.475 161.319 134.609 160.832 134.609C160.345 134.609 159.868 134.475 159.454 134.22C159.225 134.079 158.988 133.939 158.742 133.807L158.014 133.447C157.568 133.245 157.187 132.923 156.914 132.517C156.641 132.11 156.487 131.636 156.468 131.147L156.372 127.74L145.274 128.083L145.388 131.481C145.401 131.97 145.278 132.454 145.031 132.878C144.785 133.301 144.425 133.647 143.992 133.877C143.508 134.145 143.04 134.438 142.587 134.755C142.189 135.037 141.72 135.203 141.234 135.234C140.747 135.265 140.261 135.16 139.83 134.931L136.836 133.333L131.568 143.114L134.562 144.712C134.992 144.944 135.348 145.292 135.591 145.715C135.835 146.138 135.956 146.621 135.941 147.109C135.941 147.659 135.958 148.212 135.993 148.768C136.041 149.255 135.952 149.745 135.736 150.184C135.52 150.623 135.187 150.993 134.773 151.253L131.884 153.009L137.749 162.43L140.638 160.674ZM143.421 143.114C144.27 141.529 145.57 140.231 147.157 139.385C148.743 138.539 150.545 138.183 152.334 138.361C154.124 138.54 155.82 139.245 157.208 140.388C158.596 141.531 159.614 143.059 160.133 144.781C160.652 146.503 160.649 148.339 160.123 150.059C159.598 151.779 158.574 153.304 157.181 154.441C155.789 155.579 154.09 156.278 152.3 156.449C150.511 156.621 148.71 156.258 147.127 155.406C145.01 154.262 143.433 152.327 142.739 150.024C142.045 147.721 142.29 145.237 143.421 143.114Z" fill="#DBDBDB"/>
<path d="M503.076 180.051C503.371 180.233 503.61 180.494 503.765 180.804C503.92 181.115 503.986 181.462 503.954 181.807C503.954 181.992 503.954 182.185 503.954 182.378C503.954 182.571 503.954 182.764 503.954 182.958C503.979 183.295 503.91 183.632 503.755 183.933C503.6 184.234 503.365 184.486 503.076 184.661L501.013 185.855L504.893 192.589L506.966 191.395C507.262 191.227 507.6 191.145 507.941 191.157C508.282 191.169 508.613 191.276 508.897 191.465C509.221 191.675 509.555 191.869 509.898 192.045C510.204 192.197 510.462 192.431 510.643 192.721C510.825 193.011 510.922 193.345 510.925 193.687V196.066H518.696V193.687C518.699 193.345 518.796 193.011 518.978 192.721C519.159 192.431 519.417 192.197 519.723 192.045C520.066 191.869 520.4 191.675 520.724 191.465C521.008 191.276 521.339 191.169 521.68 191.157C522.021 191.145 522.358 191.227 522.655 191.395L524.727 192.589L528.608 185.855L526.536 184.661C526.247 184.483 526.012 184.23 525.857 183.928C525.703 183.626 525.634 183.287 525.658 182.949C525.658 182.764 525.658 182.571 525.658 182.378C525.658 182.185 525.658 181.992 525.658 181.807C525.625 181.462 525.69 181.114 525.845 180.804C526.001 180.493 526.24 180.233 526.536 180.051L528.599 178.866L524.719 172.132L522.655 173.317C522.358 173.488 522.019 173.573 521.676 173.563C521.334 173.552 521.001 173.445 520.715 173.256C520.393 173.044 520.058 172.85 519.714 172.676C519.408 172.524 519.15 172.29 518.969 172C518.788 171.711 518.69 171.376 518.687 171.034V168.655H510.917V171.034C510.913 171.376 510.816 171.711 510.635 172C510.453 172.29 510.195 172.524 509.889 172.676C509.546 172.852 509.212 173.046 508.888 173.256C508.603 173.445 508.27 173.552 507.927 173.563C507.584 173.573 507.245 173.488 506.948 173.317L504.885 172.132L501.004 178.866L503.076 180.051ZM514.806 175.969C516.067 175.967 517.3 176.339 518.35 177.039C519.399 177.738 520.218 178.733 520.701 179.898C521.185 181.062 521.313 182.344 521.068 183.581C520.823 184.818 520.216 185.955 519.325 186.847C518.434 187.74 517.298 188.348 516.062 188.594C514.825 188.841 513.543 188.715 512.378 188.233C511.212 187.751 510.216 186.934 509.515 185.885C508.815 184.837 508.441 183.604 508.441 182.343C508.441 180.654 509.111 179.034 510.304 177.839C511.498 176.644 513.117 175.971 514.806 175.969Z" fill="#DBDBDB"/>
<path d="M541.937 246.455C541.937 252.442 543.712 258.295 547.039 263.274C550.365 268.252 555.093 272.132 560.625 274.424C566.157 276.715 572.244 277.314 578.116 276.146C583.989 274.978 589.383 272.095 593.617 267.861C597.85 263.627 600.734 258.233 601.902 252.361C603.07 246.488 602.47 240.401 600.179 234.869C597.888 229.338 594.007 224.61 589.029 221.283C584.051 217.957 578.198 216.181 572.21 216.181C568.234 216.181 564.298 216.964 560.625 218.486C556.952 220.007 553.615 222.237 550.803 225.048C547.992 227.859 545.762 231.196 544.241 234.869C542.72 238.542 541.937 242.479 541.937 246.455ZM558.074 246.455C558.072 243.656 558.901 240.92 560.454 238.593C562.008 236.266 564.217 234.451 566.802 233.38C569.387 232.308 572.231 232.027 574.976 232.573C577.721 233.118 580.242 234.465 582.221 236.444C584.199 238.423 585.546 240.944 586.092 243.689C586.637 246.433 586.357 249.278 585.285 251.863C584.213 254.448 582.399 256.657 580.072 258.21C577.744 259.764 575.008 260.592 572.21 260.59C568.461 260.59 564.865 259.101 562.214 256.45C559.563 253.799 558.074 250.204 558.074 246.455Z" fill="#EBEBEB"/>
<path d="M566.389 217.437H578.031L577.39 209.192H567.038L566.389 217.437Z" fill="#EBEBEB"/>
<path d="M588.549 221.361L596.785 229.597L602.158 223.311L594.836 215.988L588.549 221.361Z" fill="#EBEBEB"/>
<path d="M601.447 239.799V251.442L609.692 250.801V240.449L601.447 239.799Z" fill="#EBEBEB"/>
<path d="M597.523 261.96L589.296 270.196L595.574 275.569L602.896 268.247L597.523 261.96Z" fill="#EBEBEB"/>
<path d="M579.085 274.858H567.442L568.083 283.102H578.435L579.085 274.858Z" fill="#EBEBEB"/>
<path d="M556.924 270.933L548.688 262.706L543.315 268.984L550.637 276.307L556.924 270.933Z" fill="#EBEBEB"/>
<path d="M544.026 252.495V240.853L535.782 241.494V251.846L544.026 252.495Z" fill="#EBEBEB"/>
<path d="M547.951 230.335L556.177 222.099L549.9 216.726L542.577 224.048L547.951 230.335Z" fill="#EBEBEB"/>
<path d="M55.9629 100.584C55.9629 106.571 57.7384 112.424 61.0649 117.403C64.3914 122.381 69.1194 126.261 74.6512 128.553C80.1829 130.844 86.2699 131.444 92.1424 130.275C98.0149 129.107 103.409 126.224 107.643 121.99C111.877 117.756 114.76 112.362 115.928 106.49C117.096 100.617 116.497 94.5303 114.205 88.9985C111.914 83.4668 108.034 78.7387 103.055 75.4122C98.0769 72.0857 92.2239 70.3102 86.2363 70.3102C78.2073 70.3102 70.5071 73.4998 64.8298 79.1771C59.1524 84.8545 55.9629 92.5547 55.9629 100.584ZM72.1005 100.584C72.0988 97.7854 72.9271 95.0495 74.4807 92.7221C76.0342 90.3947 78.2432 88.5804 80.8282 87.5087C83.4131 86.437 86.2578 86.1562 89.0024 86.7017C91.747 87.2472 94.2682 88.5945 96.2468 90.5732C98.2255 92.5519 99.5728 95.073 100.118 97.8176C100.664 100.562 100.383 103.407 99.3113 105.992C98.2397 108.577 96.4253 110.786 94.0979 112.339C91.7705 113.893 89.0346 114.721 86.2363 114.719C82.4873 114.719 78.8918 113.23 76.2408 110.579C73.5898 107.928 72.1005 104.333 72.1005 100.584Z" fill="#EBEBEB"/>
<path d="M80.416 71.5658H92.0583L91.4174 63.3301H81.0657L80.416 71.5658Z" fill="#EBEBEB"/>
<path d="M102.576 75.4904L110.812 83.7261L116.185 77.4396L108.863 70.1171L102.576 75.4904Z" fill="#EBEBEB"/>
<path d="M115.475 93.9285V105.571L123.719 104.93V94.5782L115.475 93.9285Z" fill="#EBEBEB"/>
<path d="M111.549 116.089L103.322 124.325L109.6 129.698L116.922 122.376L111.549 116.089Z" fill="#EBEBEB"/>
<path d="M93.112 128.987H81.4697L82.1107 137.231H92.4623L93.112 128.987Z" fill="#EBEBEB"/>
<path d="M70.9508 125.062L62.7152 116.835L57.3418 123.113L64.6643 130.436L70.9508 125.062Z" fill="#EBEBEB"/>
<path d="M58.053 106.624V94.9821L49.8086 95.623V105.975L58.053 106.624Z" fill="#EBEBEB"/>
<path d="M61.9778 84.4636L70.2047 76.228L63.927 70.8546L56.6045 78.1771L61.9778 84.4636Z" fill="#EBEBEB"/>
<path d="M374.817 135.976C369.549 136.064 356.16 136.283 351.032 136.336L343.016 136.38H342.621V135.976V126.151V125.712H343.06L358.961 125.774C362.92 125.774 370.901 125.888 374.861 125.949H375.072V126.151L374.87 135.976H374.817ZM374.817 135.976L374.615 126.151L374.817 126.353C370.849 126.414 362.885 126.493 358.917 126.529L343.016 126.59L343.455 126.151V135.976L343.051 135.572H350.953C355.993 135.633 369.655 135.853 374.87 135.941L374.817 135.976Z" fill="#EBEBEB"/>
<path d="M357.082 148.382C351.814 148.47 338.416 148.689 333.297 148.742L325.281 148.786H324.877V148.382V138.557V138.118H325.316L341.217 138.18C345.168 138.18 353.157 138.294 357.117 138.355H357.319V138.557L357.082 148.382ZM357.082 148.382L356.871 138.557L357.082 138.759C353.113 138.821 345.141 138.9 341.181 138.935L325.281 138.996L325.72 138.557L325.676 148.382L325.281 147.978H333.183C338.223 148.04 351.893 148.259 357.108 148.347L357.082 148.382Z" fill="#EBEBEB"/>
<path d="M392.553 138.54H360.752V148.364H392.553V138.54Z" fill="#EBEBEB"/>
<path d="M258.632 219.5C253.364 219.588 239.966 219.807 234.847 219.86L226.831 219.904H226.427V219.5V209.675V209.236H226.866L242.766 209.298C246.726 209.298 254.707 209.412 258.667 209.473H258.869V209.675L258.632 219.5ZM258.632 219.5L258.421 209.675L258.632 209.877C254.663 209.939 246.691 210.018 242.731 210.053L226.831 210.114L227.27 209.675L227.182 219.5L226.787 219.096L234.689 219.14C239.728 219.193 253.399 219.412 258.614 219.5H258.632Z" fill="#EBEBEB"/>
<path d="M589.111 55.8496C583.843 55.9374 570.454 56.1569 565.326 56.2184H557.31H556.915V55.8145V45.9897V45.5507H557.354L573.255 45.6121C577.214 45.6121 585.195 45.735 589.155 45.7877H589.366V45.9897L589.164 55.8145L589.111 55.8496ZM589.111 55.8496L588.909 46.0248L589.111 46.2355C585.143 46.2882 577.179 46.376 573.211 46.4023L557.31 46.4638L557.749 46.0248V55.8496L557.345 55.4545H565.247C570.287 55.5072 583.949 55.7267 589.164 55.8145L589.111 55.8496Z" fill="#EBEBEB"/>
<path d="M606.847 58.4133H575.046V68.2382H606.847V58.4133Z" fill="#EBEBEB"/>
<path d="M84.4541 55.8584C79.1861 55.955 65.7878 56.1745 60.669 56.2271H52.6529H52.249V55.8233V46.0072V45.5594H52.688L68.5535 45.656C72.5045 45.656 80.4943 45.7789 84.4541 45.8316H84.656V46.0336L84.4541 55.8496V55.8584ZM84.4541 55.8584L84.2433 46.0423L84.4541 46.2443C80.4855 46.297 72.5133 46.3848 68.5535 46.4199L52.6529 46.4726L53.0919 46.0423V55.8584L52.6968 55.4633H60.5988C65.6385 55.516 79.309 55.7443 84.5243 55.8233L84.4541 55.8584Z" fill="#EBEBEB"/>
<path d="M70.3885 350.436C75.6565 350.348 89.2128 350.129 94.3052 350.067H102.207L101.803 350.471V340.646L102.242 341.085L86.3417 341.024C82.3819 341.024 74.4009 340.901 70.4411 340.848L70.6431 340.646L70.4411 350.471L70.3885 350.436ZM70.3885 350.436L70.1865 340.611V340.409H70.3972C74.3658 340.366 82.3293 340.269 86.2978 340.243L102.198 340.181H102.637V340.62V350.445V350.849H102.242H94.2262C89.1601 350.796 75.674 350.577 70.4411 350.489L70.3885 350.436Z" fill="#EBEBEB"/>
<path d="M52.6441 362.816H84.4453V352.991H52.6441V362.816Z" fill="#EBEBEB"/>
<path d="M575.046 350.445C580.314 350.357 593.87 350.138 598.971 350.076H606.873L606.478 350.48V340.655L606.917 341.094L591.016 341.033C587.057 341.033 579.076 340.91 575.116 340.857L575.327 340.655L575.116 350.48L575.046 350.445ZM575.046 350.445L574.844 340.664V340.462H575.046C579.014 340.409 586.986 340.313 590.946 340.287L606.847 340.225H607.286V340.664V350.489V350.893H606.882L598.866 350.849C593.8 350.796 580.314 350.577 575.081 350.489L575.046 350.445Z" fill="#EBEBEB"/>
<path d="M588.497 363.115H490.046V409.271H588.497V363.115Z" fill="#EBEBEB"/>
<path opacity="0.1" d="M588.505 363.115H555.905V409.271H588.505V363.115Z" fill="#020100"/>
<path opacity="0.1" d="M588.497 363.115H490.046V373.255L588.497 368.189V363.115Z" fill="#020100"/>
<path d="M592.764 354.361H485.771V365.933H592.764V354.361Z" fill="#EBEBEB"/>
<path opacity="0.1" d="M592.773 354.361H557.345V365.933H592.773V354.361Z" fill="#020100"/>
<path d="M534.386 372.175H511.566V379.252H534.386V372.175Z" fill="#A6A6A6"/>
<path d="M544.632 301.663H481.319V347.556H544.632V301.663Z" fill="#EBEBEB"/>
<path d="M503.691 296.904H481.319V301.663H504.973L503.691 296.904Z" fill="#EBEBEB"/>
<g opacity="0.3">
<path d="M544.632 301.663H481.319V347.556H544.632V301.663Z" fill="black"/>
<path d="M503.691 296.904H481.319V301.663H504.973L503.691 296.904Z" fill="black"/>
</g>
<path d="M501.812 298.766H483.514V301.532H501.812V298.766Z" fill="white"/>
<path d="M544.632 347.556H481.319L480.863 304.508H544.175L544.632 347.556Z" fill="#EBEBEB"/>
<path d="M503.182 300.144H480.81L480.863 304.508H504.516L503.182 300.144Z" fill="#EBEBEB"/>
<g opacity="0.1">
<path d="M544.632 347.556H481.319L480.863 304.508H544.175L544.632 347.556Z" fill="black"/>
<path d="M503.182 300.144H480.81L480.863 304.508H504.516L503.182 300.144Z" fill="black"/>
</g>
<path d="M536.475 305.123H473.163V351.016H536.475V305.123Z" fill="#EBEBEB"/>
<path d="M495.534 300.364H473.163V305.123H496.816L495.534 300.364Z" fill="#EBEBEB"/>
<g opacity="0.2">
<path d="M536.475 305.123H473.163V351.016H536.475V305.123Z" fill="white"/>
<path d="M495.534 300.364H473.163V305.123H496.816L495.534 300.364Z" fill="white"/>
</g>
<path d="M493.655 302.225H475.357V304.991H493.655V302.225Z" fill="white"/>
<path d="M536.475 351.016H473.163L472.697 307.967H536.01L536.475 351.016Z" fill="#EBEBEB"/>
<path d="M495.025 303.604H472.653L472.697 307.967H496.351L495.025 303.604Z" fill="#EBEBEB"/>
<g opacity="0.4">
<path d="M536.475 351.016H473.163L472.697 307.967H536.01L536.475 351.016Z" fill="white"/>
<path d="M495.025 303.604H472.653L472.697 307.967H496.351L495.025 303.604Z" fill="white"/>
</g>
<path d="M568.953 308.213H470.502V354.37H568.953V308.213Z" fill="#DBDBDB"/>
<path d="M568.961 308.213H536.361V354.37H568.961V308.213Z" fill="#C7C7C7"/>
<path opacity="0.1" d="M568.961 308.213H470.502V318.354L568.961 313.279V308.213Z" fill="#020100"/>
<path d="M514.841 317.265H492.022V324.342H514.841V317.265Z" fill="#A6A6A6"/>
<path d="M587.532 304.905L482.679 284.576L480.481 295.917L585.334 316.245L587.532 304.905Z" fill="#DBDBDB"/>
<path d="M590.001 303.57L555.196 296.962L553.037 308.331L587.843 314.939L590.001 303.57Z" fill="#C7C7C7"/>
<path d="M345.537 72.6106L317.678 127.038L309.837 114.904L216.936 174.968L199.411 147.864L292.304 87.8088L284.463 75.6836L345.537 72.6106Z" fill="#EBEBEB"/>
<path d="M164.37 170.525L181.886 197.629L179.533 199.148L161.999 172.044L164.37 170.525Z" fill="#EBEBEB"/>
<path d="M176.644 162.588L194.169 189.683L186.144 194.881L168.628 167.777L176.644 162.588Z" fill="#EBEBEB"/>
<path d="M193.933 151.411L211.457 178.506L199.069 186.522L181.544 159.41L193.933 151.411Z" fill="#EBEBEB"/>
<path d="M193.546 229.904L177.452 261.319L172.93 254.321L119.328 288.976L109.214 273.339L162.825 238.676L158.303 231.678L193.546 229.904Z" fill="#DBDBDB"/>
<path d="M106.053 275.385L116.159 291.022L109.012 295.649L98.8975 280.003L106.053 275.385Z" fill="#DBDBDB"/>
<path d="M95.3172 282.128L90.6855 285.106L100.746 300.756L105.378 297.778L95.3172 282.128Z" fill="#DBDBDB"/>
<path d="M88.9849 286.412L99.0995 302.058L97.7386 302.936L87.624 287.29L88.9849 286.412Z" fill="#DBDBDB"/>
<path d="M166.24 337.784C159.962 328.425 151.314 315.562 145.317 306.176L148.777 303.92C154.721 313.191 163.369 326.669 169.058 335.94L169.102 336.011H169.032L166.24 337.714V337.784ZM166.24 337.784L168.944 335.94V336.054C162.956 327.274 154.185 313.824 148.303 304.789L148.917 304.921L146.16 306.677L146.292 306.088C152.139 315.132 160.48 328.477 166.266 337.775L166.24 337.784Z" fill="#EBEBEB"/>
<path d="M358.917 190.921C358.461 191.492 326.975 254.049 326.598 254.55L326.378 254.207L317.265 240.159C319.021 239.94 209.455 310.031 209.885 310.075L209.543 310.294L209.315 309.952L188.98 278.484L188.752 278.133L189.103 277.913C189.191 278.203 297.642 207.331 296.922 208.701L287.843 194.653L287.624 194.31C287.966 194.31 358.531 191 358.917 190.965V190.921ZM358.917 190.921C358.917 190.693 287.018 195.311 288.229 194.354L297.352 208.402C297.958 208.85 189.648 278.247 189.56 278.581L189.683 278.01L210.008 309.469L209.438 309.346C209.798 309.416 317.511 239.106 317.686 239.852L326.774 253.944C325.342 254.822 359.26 190.825 358.917 190.904V190.921Z" fill="#EBEBEB"/>
<path d="M162.931 295.342C166.39 300.531 175.135 313.639 178.454 318.679L183.607 326.581L183.827 326.915L183.484 327.143L174.186 333.183L173.826 333.421L173.581 333.052C170.227 327.784 161.649 314.473 158.444 309.39L153.448 301.488L153.334 301.321L153.501 301.215L162.931 295.342ZM162.931 295.342L153.72 301.532L153.782 301.251L158.944 309.065C162.237 314.008 170.973 327.424 174.318 332.578L173.712 332.446L183.045 326.467L182.931 327.02L177.857 319.188C174.669 314.175 166.126 300.548 162.869 295.342H162.931Z" fill="#EBEBEB"/>
<path d="M182.957 282.365C189.103 291.619 197.682 304.42 203.626 313.622L203.836 313.947L203.511 314.157L189.156 323.49L188.787 323.736L188.55 323.359L178.427 307.555C174.994 302.287 171.64 296.878 168.242 291.54L182.957 282.321V282.365ZM182.957 282.365C179.445 284.753 172.272 289.503 168.725 291.874L168.795 291.531C172.22 296.746 175.688 301.944 179.077 307.186L189.27 322.885L188.664 322.753L203.072 313.499L202.958 314.043C197.128 304.973 188.77 291.645 182.94 282.365H182.957Z" fill="#EBEBEB"/>
<path d="M52.5566 409.271C230.141 408.735 429.359 408.727 606.943 409.271C429.359 409.815 230.141 409.807 52.5566 409.271Z" fill="#263238"/>
<path d="M96.2896 223.416C96.2896 223.416 72.6626 220.115 78.1852 191.597C78.1852 191.597 104.578 197.55 96.2896 223.416Z" fill="#FAC514"/>
<path opacity="0.1" d="M96.2896 223.416C96.2896 223.416 72.6626 220.115 78.1852 191.597C78.1852 191.597 104.578 197.55 96.2896 223.416Z" fill="black"/>
<path d="M95.0953 217.463C94.63 216.023 94.0856 214.61 93.4886 213.214C93.4886 213.029 93.4886 212.854 93.4271 212.678C93.4271 212.283 93.3569 211.888 93.3305 211.501C93.2603 210.623 93.2076 209.798 93.1549 208.946C93.0584 207.243 92.9442 205.531 92.9179 203.828C92.9179 203.74 92.7774 203.74 92.7774 203.828C92.7774 205.531 92.7774 207.234 92.7774 208.946C92.7774 209.824 92.8564 210.65 92.9179 211.501C92.9179 211.686 92.9179 211.879 92.9179 212.063C91.5954 209.224 90.011 206.514 88.1855 203.968C87.4013 202.838 86.5602 201.747 85.6656 200.702C84.7174 199.622 83.7252 198.595 82.777 197.532C82.7155 197.462 82.6102 197.532 82.6716 197.638C84.3702 199.516 85.8954 201.543 87.2284 203.696C87.9484 204.785 88.6274 205.897 89.2654 207.032L89.0459 206.945C88.7649 206.83 88.4928 206.708 88.1679 206.602L86.2451 205.873C84.972 205.399 83.7077 204.943 82.4433 204.46C82.3643 204.46 82.3116 204.565 82.3907 204.592C83.6462 205.092 84.893 205.619 86.1309 206.154L87.9572 206.945L88.8352 207.322C89.0363 207.423 89.2484 207.499 89.4673 207.55C89.9415 208.428 90.4156 209.306 90.8458 210.184C91.9489 212.39 92.9136 214.663 93.7344 216.989C93.7959 217.147 93.8486 217.314 93.9012 217.472C93.2813 217.114 92.6357 216.803 91.9696 216.541L89.52 215.426C87.8694 214.671 86.2187 213.898 84.6296 212.994C84.5505 212.95 84.4803 213.082 84.5681 213.126C86.1836 214.004 87.7816 214.952 89.4059 215.839C90.2136 216.278 91.0302 216.717 91.8643 217.112C92.5545 217.518 93.304 217.815 94.0856 217.99C94.8748 220.151 95.3938 222.401 95.6309 224.689C95.8943 227.911 95.868 231.169 95.9382 234.4C95.9382 234.452 96.026 234.452 96.026 234.4C96.2631 231.467 96.3948 228.508 96.4123 225.558C96.4097 222.807 95.965 220.073 95.0953 217.463Z" fill="#263238"/>
<path d="M91.461 200.693C91.2331 202.36 91.1537 204.043 91.224 205.724H91.2942C91.3908 204.056 91.4084 202.388 91.6015 200.728C91.6103 200.641 91.4698 200.605 91.461 200.693Z" fill="#263238"/>
<path d="M84.7006 202.124C83.6451 201.719 82.6283 201.22 81.6628 200.632C81.5925 200.579 81.5135 200.711 81.5925 200.755C82.5384 201.393 83.5741 201.887 84.6655 202.221C84.6774 202.222 84.6894 202.22 84.6996 202.214C84.7098 202.207 84.7176 202.198 84.7217 202.187C84.7258 202.175 84.7259 202.163 84.7221 202.152C84.7183 202.14 84.7107 202.131 84.7006 202.124Z" fill="#263238"/>
<path d="M97.0799 268.668C97.0799 266.034 97.0097 263.444 96.9834 260.836C96.9307 252.162 96.8604 243.496 96.7024 234.83C96.5795 227.946 96.4185 221.063 96.2195 214.179C96.217 214.162 96.2111 214.145 96.202 214.13C96.193 214.115 96.181 214.102 96.1668 214.091C96.1668 212.213 96.1668 210.334 96.1668 208.455C96.1668 208.455 96.1142 208.384 96.0527 208.384C95.9912 208.384 95.9385 208.384 95.9385 208.463C95.9385 210.342 95.9385 212.224 95.9385 214.109C95.9237 214.117 95.9111 214.128 95.9018 214.142C95.8926 214.155 95.8871 214.171 95.8859 214.188C95.5434 226.48 95.2274 238.684 95.1571 250.941C95.1571 253.426 95.1571 255.919 95.1571 258.413C95.0752 266.391 95.0459 274.378 95.0693 282.374C95.0693 283.647 95.0693 284.911 95.0693 286.184C95.0693 293.498 95.1396 300.803 95.1484 308.134C95.1484 308.529 95.5786 308.722 96.0264 308.74C96.4741 308.757 97.1239 308.555 97.1239 308.108C97.1239 300.048 97.1765 291.988 97.1765 283.928C97.0799 278.853 97.0799 273.769 97.0799 268.668Z" fill="#263238"/>
<path d="M87.1762 260.766C87.1762 260.766 75.8149 252.346 65.033 258.035C54.2512 263.725 52.5566 285.657 52.5566 285.657C52.5566 285.657 68.3606 287.914 78.3611 278.423C87.9752 269.274 87.1762 260.766 87.1762 260.766Z" fill="#FAC514"/>
<path d="M90.2753 261.275C88.1864 260.444 85.9242 260.142 83.6903 260.397C83.2322 260.315 82.7684 260.268 82.3031 260.257L80.6964 260.134L77.3863 259.906C75.1474 259.739 72.8997 259.598 70.6608 259.37C70.6453 259.375 70.6319 259.385 70.6224 259.399C70.6129 259.412 70.6078 259.428 70.6078 259.445C70.6078 259.461 70.6129 259.477 70.6224 259.49C70.6319 259.504 70.6453 259.514 70.6608 259.519C72.8734 259.8 75.0508 260.116 77.2985 260.336C78.4399 260.45 79.5813 260.573 80.7315 260.652L81.5568 260.731C81.2232 260.81 80.8807 260.889 80.5559 260.985C78.7705 261.503 77.0434 262.203 75.402 263.075C74.524 263.233 73.646 263.488 72.768 263.698C71.3632 264.023 69.9584 264.392 68.5624 264.752C65.8055 265.481 63.0749 266.289 60.3355 267.088C60.2477 267.088 60.3355 267.246 60.3794 267.228C63.1188 266.552 65.8669 265.937 68.6063 265.288L72.6012 264.331L73.646 264.085C70.5943 265.978 67.8669 268.349 65.5684 271.109C63.3531 273.825 61.4697 276.796 59.958 279.959C59.958 280.047 60.037 280.126 60.0809 280.038C61.9469 276.786 64.2283 273.79 66.8679 271.126C66.824 271.276 66.7713 271.425 66.7274 271.574C66.5079 272.25 66.3059 272.917 66.0952 273.585C65.6738 274.919 65.2172 276.263 64.8485 277.606C64.8485 277.694 64.9538 277.72 64.9889 277.606C65.4631 276.307 65.9196 274.972 66.3762 273.699L67.0522 271.776L67.3947 270.784L67.5 270.477C68.7688 269.248 70.1149 268.101 71.53 267.044C73.4019 265.664 75.4257 264.503 77.5619 263.584C77.5619 263.786 77.4917 263.979 77.4478 264.164C77.3336 264.682 77.2195 265.2 77.1141 265.718C76.8946 266.798 76.6839 267.878 76.4732 268.958C76.043 271.153 75.7796 273.348 75.3669 275.578C75.3669 275.666 75.4898 275.701 75.5074 275.578C76.0166 273.365 76.6751 271.188 77.1668 268.975C77.4126 267.869 77.6585 266.754 77.8955 265.648L78.2116 264.085C78.2643 263.795 78.3346 263.505 78.3697 263.207L78.9843 262.952C81.9695 261.855 85.262 261.047 88.4403 261.662C89.9432 261.941 91.3537 262.588 92.5468 263.544C93.7399 264.499 94.6787 265.735 95.2799 267.14C95.3765 267.386 95.7716 267.237 95.7102 266.982C95.0517 264.357 92.7689 262.329 90.2753 261.275Z" fill="#263238"/>
<path d="M72.882 270.643C72.5542 272.083 72.2352 273.523 71.925 274.963C71.5625 276.342 71.2956 277.744 71.126 279.16C71.126 279.222 71.205 279.222 71.2226 279.16C71.6365 277.775 71.9591 276.364 72.1884 274.937C72.4693 273.515 72.7415 272.092 73.0225 270.67C73.04 270.591 72.8995 270.556 72.882 270.643Z" fill="#263238"/>
<path d="M61.8896 274.305C60.4497 275.033 59.0449 275.868 57.4996 276.473C57.4871 276.474 57.4751 276.479 57.4648 276.486C57.4545 276.493 57.4463 276.503 57.4411 276.514C57.4358 276.525 57.4337 276.538 57.4349 276.55C57.4361 276.563 57.4406 276.575 57.448 276.585C57.4554 276.595 57.4653 276.603 57.4768 276.608C57.4882 276.613 57.5008 276.615 57.5133 276.613C57.5257 276.612 57.5375 276.607 57.5474 276.599C57.5574 276.592 57.5651 276.582 57.5698 276.57C59.0715 275.911 60.537 275.173 61.9598 274.357C61.9598 274.357 61.9598 274.287 61.8896 274.305Z" fill="#263238"/>
<path d="M89.7308 245.296C89.7308 245.296 75.8496 246.174 69.3876 237.025C62.9255 227.876 64.3742 214.794 64.3742 214.794C64.3742 214.794 78.9665 216.55 84.7526 223.144C90.5386 229.737 89.7308 245.296 89.7308 245.296Z" fill="#FAC514"/>
<path d="M96.2552 259.01C95.7723 257.526 95.1752 256.06 94.6133 254.62C94.0514 253.18 93.4983 251.837 92.8573 250.467C91.6163 247.667 90.2271 244.936 88.6956 242.284C87.721 240.598 86.6674 238.956 85.5875 237.341C85.5875 237.095 85.5172 236.849 85.4733 236.603C85.4119 236.173 85.3504 235.725 85.2802 235.313C85.1485 234.435 84.9904 233.557 84.8412 232.679C84.5251 230.765 84.13 228.859 83.8227 226.937C83.8227 226.849 83.6647 226.849 83.6822 226.937C83.9632 228.824 84.1476 230.73 84.4197 232.626C84.5427 233.557 84.6656 234.496 84.8061 235.427L84.9641 236.428C82.849 233.33 80.5566 230.358 78.0981 227.525C77.7645 227.139 77.4221 226.761 77.0884 226.383C77.0884 226.278 77.0006 226.173 76.9567 226.067C76.8514 225.804 76.7548 225.541 76.6582 225.277C76.4475 224.724 76.2543 224.171 76.0524 223.618C75.6661 222.529 75.3149 221.432 75.0164 220.316C75.0164 220.229 74.8583 220.264 74.8847 220.316C75.1568 221.449 75.4554 222.591 75.7627 223.714C75.9295 224.259 76.1051 224.794 76.2982 225.33C76.2982 225.418 76.3597 225.505 76.3948 225.602C74.6388 223.662 72.7687 221.8 70.8985 219.957C70.8846 219.944 70.8661 219.937 70.8472 219.938C70.8282 219.939 70.8104 219.947 70.7976 219.961C70.7848 219.975 70.778 219.993 70.7789 220.012C70.7797 220.031 70.788 220.049 70.802 220.062C74.3909 223.816 77.6789 227.847 80.6356 232.117C80.299 232.007 79.9559 231.919 79.6083 231.853C78.5371 231.643 77.466 231.493 76.386 231.362C74.1208 231.072 71.8643 230.782 69.6079 230.431C69.5201 230.431 69.485 230.554 69.6079 230.572C71.759 230.993 73.8925 231.45 76.0348 231.968C77.0445 232.196 78.0542 232.398 79.0639 232.6C79.8921 232.776 80.7076 233.008 81.5048 233.293C81.7331 233.609 81.9613 233.925 82.1808 234.25C83.1993 235.734 84.1827 237.253 85.1397 238.772L83.7173 238.5C82.6462 238.289 81.575 238.096 80.4951 237.92C78.3791 237.569 76.2543 237.2 74.1647 236.726C74.1461 236.726 74.1282 236.734 74.115 236.747C74.1019 236.76 74.0945 236.778 74.0945 236.797C74.0945 236.815 74.1019 236.833 74.115 236.846C74.1282 236.859 74.1461 236.867 74.1647 236.867C76.2895 237.367 78.3879 237.947 80.4951 238.509C81.5136 238.781 82.5408 239.027 83.5681 239.255L85.1134 239.589C85.3175 239.643 85.5261 239.678 85.7367 239.694C87.7679 242.989 89.6673 246.352 91.435 249.782C92.2076 251.292 92.9539 252.817 93.6739 254.357C94.4202 255.937 95.0523 257.544 95.7372 259.142C95.8601 259.484 96.3605 259.352 96.2552 259.01Z" fill="#263238"/>
<path d="M82.04 227.086C81.7766 225.76 81.4956 224.452 81.162 223.117C81.162 223.03 81.004 223.073 81.0303 223.117C81.2937 224.417 81.5395 225.751 81.7766 227.033C81.974 228.342 82.2378 229.64 82.5668 230.923C82.4815 229.633 82.3055 228.351 82.04 227.086Z" fill="#263238"/>
<path d="M73.9364 226.7C73.2955 226.375 72.6106 226.12 71.9434 225.822L70.8898 225.409L70.3542 225.198C70.1487 225.137 69.9512 225.051 69.7659 224.944C69.6606 224.865 69.5903 225.049 69.6957 225.067C69.9041 225.119 70.1048 225.199 70.2927 225.304L70.8195 225.541L71.8292 225.988C72.4975 226.301 73.1835 226.573 73.8837 226.805C73.9628 226.866 74.0154 226.735 73.9364 226.7Z" fill="#263238"/>
<path d="M103.946 234.426C103.946 234.426 112.358 218.683 125.176 216.251C137.995 213.819 145.783 226.972 145.783 226.972C145.783 226.972 136.459 238.886 124.711 240.967C112.963 243.048 103.946 234.426 103.946 234.426Z" fill="#FAC514"/>
<path d="M133.71 223.284C130.38 222.842 127.002 222.884 123.684 223.407L124.245 223.1L127.09 221.642C129.034 220.562 131.033 219.583 133.078 218.71C133.087 218.721 133.1 218.729 133.114 218.733C133.128 218.737 133.142 218.737 133.156 218.732C133.17 218.727 133.182 218.718 133.19 218.707C133.199 218.695 133.203 218.68 133.203 218.666C133.203 218.651 133.199 218.637 133.19 218.625C133.182 218.613 133.17 218.604 133.156 218.6C133.142 218.595 133.128 218.594 133.114 218.598C133.1 218.602 133.087 218.611 133.078 218.622C131.076 219.553 129.004 220.378 126.994 221.256C125.993 221.713 125.001 222.195 124.026 222.713C123.394 223.047 122.7 223.363 122.077 223.767C119.27 224.33 116.542 225.235 113.955 226.463L115.553 224.707C116.747 223.398 117.915 222.029 119.223 220.843C119.294 220.782 119.223 220.685 119.118 220.747C117.783 221.958 116.37 223.082 115.07 224.347C114.438 224.961 113.841 225.593 113.253 226.252C112.963 226.577 112.665 226.91 112.375 227.261C107.984 229.612 104.169 232.907 101.204 236.909C98.2387 240.911 96.1977 245.52 95.2275 250.406C95.2275 250.493 95.3417 250.546 95.368 250.458C97.1667 244.473 100.39 239.014 104.763 234.549C109.465 229.748 115.387 226.321 121.892 224.636C125.753 223.654 129.745 223.292 133.719 223.565C133.756 223.564 133.792 223.548 133.817 223.521C133.843 223.494 133.856 223.458 133.855 223.42C133.854 223.383 133.838 223.348 133.811 223.322C133.784 223.297 133.748 223.283 133.71 223.284Z" fill="#263238"/>
<path opacity="0.1" d="M145.748 226.981C145.748 226.981 136.423 238.886 124.676 240.967C115.729 242.547 108.362 237.885 105.36 235.585L104.71 234.523C104.71 234.523 110.768 229.421 122.217 226.48C133.666 223.539 145.748 226.981 145.748 226.981Z" fill="black"/>
<path d="M126.282 217.691C125.3 218.261 124.35 218.886 123.437 219.561C122.55 220.236 121.727 220.992 120.979 221.818C120.965 221.832 120.957 221.851 120.957 221.871C120.957 221.89 120.965 221.909 120.979 221.923C120.993 221.937 121.012 221.945 121.032 221.945C121.051 221.945 121.07 221.937 121.084 221.923C121.962 221.186 122.788 220.448 123.666 219.755C124.523 219.052 125.423 218.404 126.361 217.814C126.377 217.804 126.389 217.787 126.393 217.768C126.397 217.749 126.393 217.73 126.383 217.713C126.372 217.697 126.356 217.685 126.337 217.681C126.318 217.677 126.298 217.681 126.282 217.691Z" fill="#263238"/>
<path d="M133.298 220.378C132.824 220.58 132.341 220.747 131.867 220.949L130.444 221.537C130.339 221.581 130.391 221.748 130.497 221.704L131.919 221.124C132.393 220.931 132.859 220.712 133.342 220.518C133.421 220.448 133.385 220.308 133.298 220.378Z" fill="#263238"/>
<path d="M102.269 254.137C102.269 254.137 104.516 269.713 116.229 275.156C127.941 280.6 142.209 275.156 142.209 275.156C142.209 275.156 136.59 241.45 102.269 254.137Z" fill="#FAC514"/>
<path d="M134.141 265.024C133.061 264.901 131.99 264.717 130.918 264.524L129.347 264.225C129.083 264.173 128.802 264.111 128.522 264.067C128.214 263.769 127.898 263.47 127.573 263.189C125.356 261.237 122.96 259.496 120.418 257.991C119.031 257.174 117.597 256.438 116.124 255.788H116.344L120.198 255.954C122.771 256.077 125.334 256.13 127.907 256.297C128.003 256.297 127.995 256.156 127.907 256.156C125.326 255.981 122.762 255.7 120.189 255.472L116.44 255.138L114.509 254.971L114.017 254.918C113.35 254.673 112.674 254.436 111.998 254.225C108.804 253.13 105.37 252.941 102.076 253.68C99.1348 254.436 96.1935 256.358 95.4297 259.466C95.4297 259.572 95.5702 259.651 95.6141 259.546C96.7116 256.912 99.5914 255.638 102.19 255.103C103.928 254.769 105.709 254.734 107.458 254.997C107.584 255.799 107.783 256.586 108.055 257.351C108.38 258.448 108.696 259.546 109.03 260.634C109.697 262.82 110.426 265.024 111.076 267.184C111.083 267.199 111.096 267.211 111.112 267.217C111.127 267.223 111.144 267.224 111.16 267.219C111.176 267.213 111.19 267.202 111.198 267.188C111.207 267.174 111.21 267.157 111.207 267.14C110.663 264.954 110.206 262.75 109.68 260.564C109.425 259.484 109.153 258.413 108.881 257.342C108.735 256.589 108.538 255.847 108.292 255.12C109.317 255.305 110.331 255.546 111.33 255.84C113.126 256.377 114.886 257.028 116.598 257.79C116.765 258.896 117.02 259.993 117.274 261.091C117.59 262.469 117.95 263.83 118.381 265.173C118.386 265.187 118.395 265.199 118.406 265.207C118.418 265.215 118.432 265.219 118.446 265.219C118.461 265.219 118.475 265.215 118.487 265.207C118.498 265.199 118.507 265.187 118.512 265.173L118.46 264.919C118.196 263.646 117.915 262.373 117.652 261.1C117.432 260.072 117.23 259.045 117.011 258.018C118.468 258.676 119.891 259.387 121.278 260.186C121.278 260.503 121.383 260.827 121.427 261.117C121.515 261.653 121.612 262.18 121.708 262.715C121.928 263.918 122.165 265.112 122.455 266.297C122.984 268.596 123.656 270.86 124.465 273.075C124.456 273.088 124.452 273.104 124.452 273.119C124.452 273.135 124.456 273.15 124.465 273.163L124.527 273.242C124.579 273.295 124.658 273.242 124.65 273.163C124.105 270.854 123.491 268.571 122.981 266.253C122.727 265.094 122.472 263.944 122.244 262.741C122.121 262.162 122.016 261.582 121.91 260.985C121.91 260.819 121.849 260.643 121.822 260.467C123.402 261.391 124.926 262.405 126.388 263.505C128.928 265.4 131.28 267.535 133.412 269.88C133.491 269.967 133.658 269.88 133.579 269.739C132.709 268.555 131.777 267.418 130.787 266.332C130.198 265.7 129.593 265.094 128.969 264.497H129.162C129.707 264.594 130.26 264.673 130.813 264.752C131.893 264.893 132.982 264.998 134.062 265.121C134.202 265.156 134.237 265.042 134.141 265.024Z" fill="#263238"/>
<path d="M125.914 270.31C125.914 270.169 125.87 270.038 125.853 269.906C125.835 269.774 125.73 269.564 125.703 269.397C125.457 268.361 125.256 267.307 125.071 266.253C125.071 266.183 124.939 266.201 124.939 266.253C125.008 267.647 125.304 269.021 125.817 270.319C125.817 270.319 125.905 270.319 125.896 270.319L125.914 270.31Z" fill="#263238"/>
<path d="M116.115 270.055C116.113 270.038 116.104 270.022 116.091 270.011C116.078 270 116.062 269.994 116.045 269.994C115.711 268.615 115.395 267.237 115.114 265.841C114.965 265.112 114.815 264.383 114.675 263.655C114.596 263.26 114.526 262.864 114.455 262.469C114.425 262.121 114.339 261.78 114.201 261.46C114.196 261.446 114.187 261.435 114.175 261.426C114.163 261.418 114.149 261.414 114.135 261.414C114.121 261.414 114.107 261.418 114.095 261.426C114.083 261.435 114.074 261.446 114.069 261.46C114.059 262.167 114.16 262.873 114.368 263.549C114.508 264.313 114.657 265.068 114.824 265.823C115.167 267.36 115.544 268.896 115.983 270.406C115.983 270.485 116.141 270.468 116.132 270.406C116.124 270.345 116.124 270.169 116.115 270.055Z" fill="#263238"/>
<path d="M133.079 260.546C130.936 260.248 128.803 259.941 126.66 259.668C126.564 259.668 126.529 259.8 126.66 259.809C128.794 260.125 130.936 260.388 133.079 260.687C133.131 260.696 133.166 260.555 133.079 260.546Z" fill="#263238"/>
<path d="M96.2724 217.612C96.2724 217.612 89.1079 186.18 122.885 173.458C122.885 173.458 132.244 214.838 96.2724 217.612Z" fill="#FAC514"/>
<path d="M103.559 199.789L103.928 199.561L105.833 198.498L109.749 196.303C112.33 194.863 114.877 193.362 117.467 191.913C117.555 191.913 117.467 191.746 117.396 191.79C114.762 193.204 112.128 194.521 109.494 195.908L105.622 197.954L104.042 198.832C105.166 196.698 106.378 194.6 107.695 192.58C109.451 189.894 111.391 187.312 113.41 184.819C113.498 184.705 113.349 184.556 113.244 184.661C110.281 187.541 107.659 190.752 105.429 194.231C105.429 194.126 105.429 194.012 105.429 193.906C105.429 193.125 105.482 192.343 105.5 191.562C105.5 190.025 105.447 188.489 105.5 186.952C105.5 186.865 105.359 186.865 105.359 186.952C105.289 188.463 105.113 189.964 105.025 191.474C105.025 192.229 104.946 192.984 104.929 193.731C104.929 194.143 104.876 194.609 104.929 195.056C104.226 196.163 103.559 197.284 102.927 198.419C101.798 200.468 100.793 202.582 99.9155 204.75C99.9155 203.968 99.8277 203.187 99.7838 202.405C99.6872 200.649 99.4765 198.972 99.3975 197.243C99.3975 197.155 99.257 197.155 99.257 197.243C99.257 198.999 99.257 200.684 99.257 202.405C99.257 203.283 99.3097 204.161 99.3711 204.987L99.4238 205.952C98.3504 208.758 97.499 211.644 96.8776 214.583C96.294 217.726 95.872 220.897 95.6133 224.083C95.6133 224.083 95.6133 224.083 95.6572 224.083C95.9974 221.214 96.5849 218.379 97.4132 215.61C97.8258 214.127 98.2912 212.652 98.7477 211.22C100.153 210.553 101.496 209.728 102.857 208.973C104.218 208.218 105.684 207.436 107.089 206.655C109.907 205.11 112.726 203.538 115.632 202.177C115.711 202.177 115.632 202.01 115.553 202.054C112.611 203.389 109.644 204.688 106.773 206.102C105.333 206.83 103.91 207.603 102.506 208.393C101.338 209.052 100.135 209.71 98.9936 210.474C99.3184 209.5 99.6609 208.525 100.038 207.559C101.08 204.911 102.255 202.318 103.559 199.789Z" fill="#263238"/>
<path d="M100.715 192.598C100.715 192.501 100.566 192.51 100.575 192.598C100.689 194.354 100.75 196.189 100.943 197.971C100.943 197.992 100.952 198.012 100.966 198.027C100.981 198.042 101.001 198.05 101.022 198.05C101.043 198.05 101.063 198.042 101.078 198.027C101.093 198.012 101.101 197.992 101.101 197.971C101.04 196.172 100.847 194.389 100.715 192.598Z" fill="#263238"/>
<path d="M116.906 198.604C114.798 199.482 112.665 200.263 110.558 201.141C110.496 201.141 110.558 201.264 110.558 201.238C112.7 200.439 114.798 199.569 116.923 198.735C117.037 198.709 116.993 198.568 116.906 198.604Z" fill="#263238"/>
<path d="M120.118 184.099C118.054 185.053 116.049 186.129 114.113 187.321C114.099 187.337 114.09 187.356 114.088 187.377C114.086 187.398 114.091 187.419 114.102 187.436C114.113 187.454 114.129 187.468 114.149 187.476C114.168 187.483 114.189 187.485 114.209 187.479C116.167 186.329 118.16 185.232 120.197 184.222C120.276 184.187 120.197 184.064 120.118 184.099Z" fill="#263238"/>
<path d="M119.61 285.596H70.8984V336.941H119.61V285.596Z" fill="#455A64"/>
<path d="M70.0375 303.762H67.5439V409.271H70.0375V303.762Z" fill="#263238"/>
<path d="M122.701 303.762H120.207V409.271H122.701V303.762Z" fill="#263238"/>
<path d="M97.6947 303.762H95.2012V409.271H97.6947V303.762Z" fill="#263238"/>
<path d="M121.453 333.649H68.791V340.761H121.453V333.649Z" fill="#263238"/>
<path d="M114.219 408.902C143.491 404.021 219.719 388.094 241.362 377.479C361.385 319.636 418.718 119.347 419.429 117.389H516.062C515.342 119.303 503.954 152.087 455.752 243.61C425.953 297.993 382.825 334.246 331.954 364.028C244.584 415.136 114.219 408.902 114.219 408.902Z" fill="#FAC514"/>
<g opacity="0.1">
<path d="M114.219 408.902C143.491 404.021 219.719 388.094 241.362 377.479C361.385 319.636 418.718 119.347 419.429 117.389H516.062C515.342 119.303 503.954 152.087 455.752 243.61C425.953 297.993 382.825 334.246 331.954 364.028C244.584 415.136 114.219 408.902 114.219 408.902Z" fill="black"/>
</g>
<path d="M396.978 107.353L419.429 117.389C418.814 119.022 388.901 273.146 297.387 347.126C233.17 399.033 192.071 411.22 52.5566 409.148V382.035C131.287 382.035 187.453 379.489 238.693 352.754C354.334 292.427 396.803 107.801 396.978 107.353Z" fill="#FAC514"/>
<path d="M396.979 107.353H501.127L516.062 117.389H419.429L396.979 107.353Z" fill="#FAC514"/>
<path d="M476.306 42.8201L544.026 128.451L384.423 128.021L476.306 42.8201Z" fill="#FAC514"/>
<g opacity="0.1">
<path d="M476.306 42.8201L544.026 128.451L384.423 128.021L476.306 42.8201Z" fill="black"/>
</g>
<path d="M384.423 128.021L361.209 117.389L453.092 32.1875L476.306 42.8201L384.423 128.021Z" fill="#FAC514"/>
<path d="M555.695 107.265C555.289 111.164 553.807 114.873 551.415 117.978C549.023 121.083 545.814 123.462 542.148 124.849C538.483 126.236 534.503 126.577 530.655 125.833C526.806 125.089 523.24 123.29 520.355 120.637L509.74 122.191L515.008 113.042C513.796 110.065 513.278 106.85 513.494 103.642C513.71 100.434 514.655 97.3177 516.256 94.5297C517.858 91.7417 520.074 89.3556 522.736 87.5525C525.398 85.7495 528.436 84.5771 531.619 84.1244C534.802 83.6718 538.047 83.9507 541.106 84.9402C544.165 85.9296 546.958 87.6034 549.274 89.8344C551.589 92.0654 553.365 94.7948 554.467 97.8152C555.569 100.836 555.968 104.068 555.633 107.265H555.695Z" fill="white"/>
<path d="M555.695 107.265C555.285 111.163 553.808 114.872 551.427 117.986C550.829 118.757 550.187 119.492 549.505 120.189C548.802 120.866 548.057 121.496 547.275 122.077C544.132 124.448 540.394 125.901 536.475 126.274C535.5 126.365 534.52 126.385 533.543 126.335C532.559 126.307 531.578 126.205 530.61 126.028C526.713 125.31 523.092 123.523 520.153 120.865L520.399 120.944L509.863 122.56L509.099 122.683L509.485 122.007L514.753 112.841V113.201C513.209 109.416 512.781 105.268 513.52 101.248C514.259 97.2277 516.134 93.5033 518.924 90.5153C521.713 87.5274 525.3 85.401 529.26 84.3876C533.22 83.3743 537.387 83.5164 541.269 84.7972C544.327 85.8328 547.114 87.5398 549.426 89.7931C551.722 92.0428 553.48 94.7836 554.565 97.8097C555.651 100.836 556.037 104.069 555.695 107.265ZM555.695 107.265C556.034 104.078 555.636 100.856 554.532 97.8466C553.428 94.8375 551.648 92.1223 549.328 89.9104C547.008 87.6985 544.211 86.0491 541.153 85.0895C538.095 84.1299 534.858 83.8857 531.69 84.3758C528.552 84.8421 525.563 86.0226 522.954 87.8263C520.369 89.6416 518.21 91.9962 516.624 94.7274C515.065 97.4685 514.149 100.528 513.946 103.674C513.745 106.82 514.252 109.97 515.429 112.893L515.509 113.078L515.412 113.253L510.082 122.384L509.705 121.822L520.276 120.339H520.425L520.531 120.435C523.355 123.081 526.86 124.887 530.654 125.651C531.6 125.842 532.56 125.959 533.525 126.002C534.49 126.068 535.458 126.068 536.422 126.002C538.353 125.854 540.253 125.438 542.068 124.764C543.894 124.099 545.612 123.17 547.169 122.007C547.95 121.433 548.695 120.811 549.399 120.146C550.086 119.459 550.729 118.728 551.322 117.959C553.739 114.866 555.252 111.165 555.695 107.265Z" fill="#263238"/>
<path d="M531.664 117.143L522.629 108.003L525.658 105L530.935 110.347L541.901 93.1558L545.501 95.4562L531.664 117.143Z" fill="#FAC514"/>
<path d="M412.045 409.534C414.029 410.175 470.564 409.447 472.697 408.051C473.514 407.533 473.891 399.271 474.058 389.314V388.998C474.058 386.943 468.79 352.473 468.79 352.473L430.975 352.851L437.533 389.068V389.683C437.533 389.683 416.022 399.648 413.827 401.43C411.632 403.213 410.061 408.902 412.045 409.534Z" fill="#AD6359"/>
<path d="M474.058 388.998V389.314C473.891 399.279 473.514 407.524 472.697 408.051C470.564 409.438 414.029 410.175 412.054 409.534C410.078 408.893 411.738 403.204 413.897 401.43C416.057 399.657 437.603 389.692 437.603 389.692V389.059L436.611 383.598H473.443C473.821 386.496 474.067 388.55 474.058 388.998Z" fill="#EBEBEB"/>
<path d="M412.045 409.534C413.063 409.859 428.42 409.824 443.433 409.534C446.454 409.473 449.456 409.403 452.319 409.324C463.021 409.034 471.872 408.586 472.688 408.051C473.505 407.515 473.874 399.525 474.04 389.735C474.04 389.595 474.04 389.463 474.04 389.323C474.04 389.182 474.04 389.103 474.04 388.998H473.996L437.56 389.068V389.692C437.56 389.692 416.049 399.648 413.854 401.43C411.659 403.213 410.061 408.902 412.045 409.534Z" fill="#FAC514"/>
<path d="M412.659 407.339C422.186 406.979 460.642 406.461 470.089 406.804C470.168 406.804 470.168 406.865 470.089 406.865C460.651 407.427 422.194 407.655 412.659 407.489C412.457 407.489 412.457 407.339 412.659 407.339Z" fill="#263238"/>
<path d="M433.521 389.226C437.261 388.471 441.853 388.989 444.759 391.623C444.873 391.728 444.759 391.886 444.601 391.851C441.002 390.736 437.293 390.015 433.538 389.7C433.507 389.701 433.476 389.696 433.447 389.686C433.418 389.675 433.391 389.658 433.368 389.637C433.345 389.616 433.327 389.59 433.314 389.562C433.301 389.534 433.294 389.503 433.293 389.472C433.291 389.441 433.296 389.41 433.307 389.381C433.318 389.351 433.335 389.325 433.356 389.302C433.377 389.279 433.403 389.261 433.431 389.248C433.459 389.235 433.49 389.227 433.521 389.226Z" fill="#263238"/>
<path d="M430.834 390.886C434.574 390.139 439.175 390.657 442.073 393.291C442.187 393.397 442.073 393.555 441.914 393.511C438.316 392.404 434.611 391.683 430.86 391.36C430.798 391.363 430.736 391.342 430.689 391.3C430.642 391.258 430.614 391.199 430.61 391.136C430.607 391.073 430.628 391.011 430.67 390.964C430.712 390.917 430.771 390.889 430.834 390.886Z" fill="#263238"/>
<path d="M428.148 392.554C431.888 391.807 436.489 392.326 439.386 394.96C439.5 395.056 439.386 395.214 439.228 395.179C435.63 394.073 431.924 393.352 428.174 393.028C428.111 393.031 428.049 393.01 428.002 392.968C427.956 392.926 427.927 392.867 427.924 392.804C427.92 392.741 427.942 392.679 427.984 392.633C428.026 392.586 428.085 392.557 428.148 392.554Z" fill="#263238"/>
<path d="M433.521 388.954H475.252C475.252 388.954 462.389 304.666 462.714 303.015C462.872 302.137 521.163 214.574 521.163 214.574H477.728C477.728 214.574 428.736 277.22 423.222 292.997C419.218 304.499 433.521 388.954 433.521 388.954Z" fill="#263238"/>
<path d="M457.49 299.793C458.096 297.352 459.492 295.192 460.774 293.059C463.68 288.256 513.761 218.85 514.463 217.709C514.516 217.621 514.657 217.665 514.613 217.709C512.628 221.879 463.144 289.52 460.071 295.956C458.904 298.415 457.894 300.689 457.947 303.446C458.095 306.213 458.388 308.971 458.825 311.708C459.188 314.476 459.553 317.239 459.922 319.996C460.671 325.527 461.447 331.05 462.249 336.564C463.87 347.644 465.553 358.722 467.297 369.796C467.517 371.175 467.745 372.553 467.973 373.923C467.973 374.054 467.798 374.107 467.771 373.975C465.787 362.904 463.856 351.832 462.179 340.708C460.502 329.584 458.983 318.442 457.508 307.282C457.033 304.809 457.027 302.269 457.49 299.793Z" fill="#455A64"/>
<path d="M470.327 379.068C464.181 379.068 465.937 378.954 459.887 379.024C456.902 379.024 437.314 379.287 434.539 379.902C434.478 379.902 434.478 380.034 434.539 380.042C437.34 380.516 456.919 379.893 459.905 379.788C465.989 379.586 464.242 379.568 470.327 379.287C470.441 379.296 470.441 379.068 470.327 379.068Z" fill="#37474F"/>
<path d="M606.171 408.99C604.195 409.666 547.661 409.965 545.501 408.612C544.675 408.103 544.149 399.832 543.806 389.902C543.806 389.797 543.806 389.692 543.806 389.586C543.727 387.54 529.626 353.43 529.626 353.43L566.581 353.132L580.27 388.954V389.577C580.27 389.577 601.965 399.139 604.186 400.877C606.408 402.616 608.137 408.323 606.171 408.99Z" fill="#AD6359"/>
<path d="M606.171 408.99C604.195 409.666 547.661 409.965 545.501 408.612C544.675 408.103 544.149 399.832 543.806 389.902C543.806 389.797 543.806 389.692 543.806 389.586C543.806 389.481 541.076 382.747 541.067 382.448L577.548 382.053L580.278 388.989V389.613C580.278 389.613 601.974 399.174 604.195 400.912C606.416 402.651 608.137 408.323 606.171 408.99Z" fill="#EBEBEB"/>
<path d="M606.171 408.99C604.195 409.666 547.661 409.965 545.501 408.612C544.675 408.103 544.149 399.832 543.806 389.902C543.806 389.797 543.806 389.692 543.806 389.586L580.278 388.989V389.613C580.278 389.613 601.974 399.174 604.195 400.912C606.416 402.651 608.137 408.323 606.171 408.99Z" fill="#FAC514"/>
<path d="M605.521 406.804C595.986 406.619 557.521 406.804 548.091 407.322C548.012 407.322 548.012 407.374 548.091 407.383C557.53 407.77 595.995 407.295 605.521 406.953C605.723 406.953 605.723 406.804 605.521 406.804Z" fill="#263238"/>
<path d="M584.37 389.068C580.621 388.392 576.038 388.989 573.184 391.702C573.07 391.807 573.184 391.966 573.342 391.93C576.92 390.75 580.614 389.958 584.361 389.569C584.428 389.57 584.492 389.544 584.54 389.498C584.587 389.452 584.615 389.389 584.616 389.323C584.617 389.256 584.592 389.192 584.546 389.145C584.5 389.097 584.436 389.069 584.37 389.068Z" fill="#263238"/>
<path d="M587.048 390.71C583.29 390.025 578.707 390.622 575.853 393.344C575.739 393.441 575.897 393.599 576.012 393.563C579.579 392.373 583.265 391.569 587.004 391.167C587.056 391.158 587.103 391.133 587.139 391.095C587.175 391.056 587.197 391.007 587.202 390.955C587.207 390.903 587.195 390.851 587.167 390.806C587.139 390.762 587.097 390.728 587.048 390.71Z" fill="#263238"/>
<path d="M589.761 392.308C586.003 391.623 581.42 392.229 578.567 394.942C578.461 395.047 578.61 395.197 578.733 395.162C582.308 393.983 585.999 393.194 589.743 392.808C589.81 392.811 589.874 392.787 589.923 392.741C589.972 392.696 590 392.633 590.002 392.567C590.005 392.501 589.981 392.436 589.935 392.388C589.89 392.339 589.827 392.31 589.761 392.308Z" fill="#263238"/>
<path d="M482.293 214.61C482.293 214.61 487.5 246.34 487.851 247.359C487.851 247.359 489.792 248.237 493.277 249.888L535.421 388.849L582.096 389.015L526.72 214.61H482.293Z" fill="#263238"/>
<path d="M486.157 246.376C490.207 248.065 494.102 250.104 497.799 252.469C497.824 252.489 497.842 252.517 497.849 252.548C497.856 252.58 497.852 252.613 497.837 252.642C497.823 252.67 497.799 252.693 497.77 252.707C497.74 252.72 497.707 252.723 497.676 252.715C493.752 250.801 489.774 248.966 485.92 246.841C485.867 246.805 485.829 246.751 485.814 246.689C485.798 246.627 485.805 246.561 485.834 246.504C485.863 246.447 485.912 246.403 485.971 246.379C486.031 246.356 486.097 246.354 486.157 246.376Z" fill="#455A64"/>
<path d="M487.658 228.201C488.299 231.994 488.651 235.848 489.081 239.676L489.397 242.433C489.419 243.279 489.645 244.108 490.055 244.848C490.881 246.13 492.356 246.727 493.699 247.315C493.848 247.377 493.787 247.622 493.62 247.57C492.178 247.224 490.847 246.52 489.748 245.524C488.528 244.233 488.563 242.275 488.378 240.616C487.845 236.504 487.552 232.365 487.5 228.219C487.483 228.122 487.641 228.096 487.658 228.201Z" fill="#455A64"/>
<path d="M492.277 229.36C492.408 232.099 492.716 234.839 492.944 237.56C493.058 238.913 493.155 240.256 493.234 241.608C493.313 242.96 493.48 244.383 493.436 245.761C493.436 245.849 493.286 245.875 493.269 245.761C493.041 244.462 493.014 243.127 492.9 241.792C492.786 240.458 492.698 239.027 492.619 237.639C492.461 234.883 492.391 232.099 492.136 229.342C492.18 229.272 492.268 229.281 492.277 229.36Z" fill="#455A64"/>
<path d="M498.238 255.718C501.469 263.62 535.992 376.53 536.369 377.514C536.369 377.593 536.273 377.637 536.238 377.566C531.619 368.532 502.154 266.649 499.204 258.711L498.097 255.761C498.08 255.691 498.203 255.638 498.238 255.718Z" fill="#455A64"/>
<path d="M535.088 381.052C536.44 380.868 537.836 380.868 539.197 380.771C540.558 380.675 541.927 380.657 543.297 380.622C546.036 380.56 548.776 380.525 551.515 380.49C556.947 380.432 562.385 380.402 567.828 380.402C570.928 380.402 574.036 380.569 577.135 380.639C577.147 380.635 577.16 380.634 577.172 380.636C577.185 380.638 577.197 380.642 577.207 380.65C577.217 380.657 577.226 380.667 577.231 380.678C577.237 380.689 577.24 380.701 577.24 380.714C577.24 380.727 577.237 380.739 577.231 380.75C577.226 380.761 577.217 380.771 577.207 380.778C577.197 380.786 577.185 380.79 577.172 380.792C577.16 380.794 577.147 380.793 577.135 380.789C574.405 380.903 571.665 381.07 568.926 381.175C566.187 381.28 563.456 381.289 560.717 381.333C555.194 381.412 549.68 381.5 544.166 381.482C542.63 381.482 541.102 381.482 539.566 381.43C538.029 381.377 536.545 381.43 535.07 381.21C534.974 381.175 535.009 381.052 535.088 381.052Z" fill="#455A64"/>
<path d="M497.834 167.812C489.133 160.49 476.508 143.369 474.278 136.845C471.398 128.443 467.473 99.9691 470.546 96.94C472.249 95.2718 492.197 99.574 493.172 101.962C494.147 104.35 492.645 128.969 492.812 130.866C492.979 132.762 500.714 151.192 505.201 160.042C510.434 170.393 503.506 172.589 497.834 167.812Z" fill="#AD6359"/>
<path d="M469.765 105.36C469.062 103.73 468.896 101.919 469.291 100.189C470.055 97.4317 472.214 94.6133 471.819 92.8748C471.196 90.1091 468.957 85.5787 470.063 84.6919C472.32 82.8481 474.822 84.446 477.43 89.6438C478.106 90.9959 479.001 94.3411 479.958 94.5869C481.627 95.0259 482.592 92.1198 483.005 89.4155C483.822 84.1475 483.945 76.4387 487.509 75.7275C488.861 75.4641 489.327 77.422 489.414 79.8014C489.827 76.3948 490.626 73.0408 492.11 72.6808C492.494 72.5912 492.897 72.6523 493.237 72.8517C493.577 73.051 493.827 73.3733 493.936 73.752C494.034 73.3591 494.247 73.0042 494.547 72.7322C494.847 72.4602 495.221 72.2835 495.622 72.2243C496.992 72.1101 497.835 73.392 498.344 75.1392C498.471 75.0133 498.627 74.9197 498.798 74.8663C498.969 74.8128 499.151 74.8011 499.327 74.8319C502.962 75.2007 503.454 88.52 501.908 91.7247C498.695 98.0285 494.63 103.86 489.827 109.056C484.805 110.154 469.765 105.36 469.765 105.36Z" fill="#AD6359"/>
<path d="M487.57 95.0523C488.824 92.9352 489.592 90.5661 489.818 88.1161C490.055 85.2362 489.511 82.3564 489.458 79.4853C489.458 79.4063 489.335 79.4151 489.335 79.4853C489.432 80.8901 489.335 82.3125 489.414 83.7173C489.493 85.1221 489.519 86.483 489.414 87.8615C489.323 90.3655 488.663 92.8158 487.482 95.0259L487.57 95.0523Z" fill="#263238"/>
<path d="M492.127 96.3079C493.348 93.7781 494.307 91.1304 494.99 88.4059C495.631 85.4207 495.209 82.3389 494.84 79.3361C494.624 77.5391 494.363 75.7422 494.059 73.9452C494.059 73.875 493.927 73.875 493.936 73.9452C494.34 77.0094 494.656 80.0912 494.876 83.1818C495.102 86.0485 494.756 88.9316 493.857 91.6632C493.348 93.2261 492.716 94.745 492.101 96.2552C492.075 96.3166 492.119 96.3342 492.127 96.3079Z" fill="#263238"/>
<path d="M496.877 96.4659C498.098 94.1041 499.178 92.0759 499.511 89.3804C499.808 86.2847 499.716 83.1642 499.239 80.0912C499.011 78.4318 498.73 76.7899 498.423 75.1393C498.423 75.0778 498.291 75.1393 498.3 75.1393C498.91 78.8223 499.279 82.5412 499.406 86.2723C499.494 88.0463 499.308 89.8233 498.853 91.5403C498.313 93.2207 497.634 94.8535 496.825 96.422C496.825 96.422 496.869 96.4747 496.877 96.4659Z" fill="#263238"/>
<path d="M494.34 110.268L468.333 113.569C468.333 113.569 472.091 134.035 473.918 138.864C475.744 143.693 491.75 165.371 498.352 169.594C504.955 173.818 509.766 170.472 506.254 160.814C502.742 151.156 494.735 132.806 494.313 130.822C493.892 128.838 494.34 110.268 494.34 110.268Z" fill="#455A64"/>
<path d="M502.286 150.691L485.156 155.511C482.996 152.763 480.924 149.962 479.159 147.434L498.677 141.938C499.836 144.712 501.083 147.741 502.286 150.691Z" fill="#37474F"/>
<path d="M492.654 117.073C489.142 117.67 474.436 119.61 471.231 119.821C471.012 119.821 470.95 119.698 471.178 119.654C478.273 118.357 485.434 117.449 492.628 116.932C492.716 116.923 492.751 117.055 492.654 117.073Z" fill="#263238"/>
<path opacity="0.1" d="M498.326 169.568C493.602 166.565 484.059 154.642 478.343 146.275L502.927 152.263C504.209 155.415 505.385 158.409 506.281 160.823C509.802 170.42 504.946 173.765 498.326 169.568Z" fill="black"/>
<path d="M530.25 226.744C530.25 226.744 468.448 225.593 468.334 225.47C468.22 225.347 476.569 171.912 484.822 156.986C487.922 151.367 498.712 151.78 502.76 154.932C512.883 162.808 530.417 223.153 530.25 226.744Z" fill="#455A64"/>
<path d="M528.178 217.744L469.729 216.866C470.063 214.926 470.449 212.731 470.88 210.351L526.308 211.15C527.019 213.591 527.651 215.804 528.178 217.744Z" fill="#37474F"/>
<path d="M529.275 221.923L469.044 221.045C469.15 220.413 469.264 219.711 469.396 218.964L528.74 219.842C528.933 220.58 529.117 221.256 529.275 221.923Z" fill="#37474F"/>
<path d="M487.14 161.649C489.845 162.527 497.826 158.137 499.757 153.913C499.889 153.624 499.248 150.709 498.633 147.126C498.273 144.958 497.913 142.526 497.755 140.287L483.962 144.721C484.967 147.463 485.633 150.317 485.946 153.22C485.978 153.526 485.978 153.835 485.946 154.142C485.946 154.186 485.946 154.238 485.946 154.3C485.744 156.065 484.023 160.674 487.14 161.649Z" fill="#AD6359"/>
<path d="M497.044 140.48C496.781 143.544 495.288 153.474 487.386 154.238C486.901 154.281 486.413 154.281 485.929 154.238C485.929 154.177 485.929 154.124 485.929 154.08C485.956 153.773 485.956 153.465 485.929 153.158C485.621 150.258 484.958 147.406 483.953 144.668L497.044 140.48Z" fill="#263238"/>
<path d="M503.199 128.653C503.366 133.877 497.053 147.091 492.759 149.26C486.613 152.412 478.325 150.621 476.13 143.614C473.996 136.819 482.557 119.742 487.149 117.959C493.936 115.343 502.97 120.953 503.199 128.653Z" fill="#AD6359"/>
<path opacity="0.3" d="M499.011 141.358C497.035 145.081 494.691 148.321 492.768 149.26C486.569 152.412 478.325 150.621 476.13 143.615C475.366 141.174 475.972 137.407 477.289 133.491C478.035 136.239 481.819 135.317 481.819 135.317L483.417 135.941C484.172 139.198 489.159 140.331 492.197 139.532C494.401 138.979 497.149 135.186 497.149 135.186L499.011 141.358Z" fill="#263238"/>
<path d="M499.59 140.102C497.387 139.98 496.956 137.881 496.755 136.459C496.368 133.491 499.775 128.768 499.389 125.335C499.29 124.321 498.851 123.371 498.143 122.639C497.435 121.907 496.5 121.437 495.49 121.305C493.673 121.234 490.802 122.683 489.616 122.183C488.431 121.682 489.037 118.916 488.185 118.671C486.324 118.03 482.786 122.112 481.75 124.053C481.75 124.053 485.112 114.755 494.34 117.029C503.34 119.197 503.998 125.949 503.84 128.838C503.594 134.281 499.59 140.102 499.59 140.102Z" fill="#263238"/>
<path d="M487.008 133.263C487.008 133.263 487.008 133.342 487.008 133.377C486.543 134.255 486.131 135.317 486.807 136.011C486.807 136.011 486.807 136.072 486.807 136.055C485.893 135.431 486.42 134.009 487.008 133.263Z" fill="#263238"/>
<path d="M488.255 132.727C489.73 133.324 488.422 136.239 487.061 135.677C485.7 135.115 487.017 132.227 488.255 132.727Z" fill="#263238"/>
<path d="M482.039 130.822C482.039 130.822 481.942 130.822 481.934 130.875C481.556 131.753 480.968 132.771 480.02 132.701C480.02 132.701 480.02 132.701 480.02 132.754C481.064 133.07 481.828 131.761 482.039 130.822Z" fill="#263238"/>
<path d="M481.644 129.531C480.239 128.776 478.826 131.63 480.125 132.332C481.424 133.035 482.829 130.164 481.644 129.531Z" fill="#263238"/>
<path d="M490.836 130.822C490.405 130.754 489.977 130.663 489.554 130.55C489.09 130.522 488.648 130.339 488.299 130.032C488.209 129.913 488.161 129.768 488.161 129.619C488.161 129.47 488.209 129.325 488.299 129.207C488.514 129 488.78 128.854 489.071 128.785C489.361 128.715 489.664 128.724 489.95 128.811C490.554 128.9 491.103 129.214 491.486 129.689C491.565 129.801 491.611 129.934 491.617 130.071C491.624 130.208 491.591 130.344 491.522 130.463C491.454 130.582 491.353 130.679 491.232 130.743C491.11 130.806 490.973 130.834 490.836 130.822Z" fill="#263238"/>
<path d="M481.1 127.609C481.495 127.791 481.899 127.953 482.311 128.091C482.715 128.324 483.184 128.417 483.646 128.355C483.787 128.307 483.908 128.214 483.99 128.09C484.073 127.966 484.112 127.818 484.102 127.67C484.039 127.38 483.899 127.111 483.697 126.894C483.494 126.676 483.237 126.516 482.952 126.432C482.404 126.169 481.777 126.122 481.196 126.3C481.063 126.345 480.947 126.428 480.861 126.538C480.775 126.649 480.723 126.783 480.713 126.922C480.703 127.062 480.734 127.202 480.803 127.324C480.871 127.446 480.975 127.545 481.1 127.609Z" fill="#263238"/>
<path d="M481.951 138.004C482.116 138.661 482.445 139.266 482.908 139.76C483.168 140.028 483.506 140.206 483.874 140.269C484.673 140.401 484.989 139.751 485.112 139.128C485.176 138.795 485.196 138.456 485.173 138.118C484.115 138.424 482.986 138.384 481.951 138.004Z" fill="#263238"/>
<path d="M482.908 139.786C483.168 140.054 483.506 140.233 483.874 140.296C484.673 140.427 484.989 139.778 485.112 139.154C484.727 138.995 484.3 138.971 483.9 139.086C483.5 139.201 483.15 139.448 482.908 139.786Z" fill="#FF9CBD"/>
<path d="M485.718 138.145C484.822 137.527 484.209 136.579 484.011 135.509C483.814 134.439 484.048 133.334 484.664 132.438C485.096 131.801 485.699 131.3 486.403 130.99C487.107 130.68 487.884 130.574 488.645 130.684C489.406 130.795 490.121 131.117 490.707 131.615C491.294 132.112 491.729 132.765 491.962 133.497C492.196 134.23 492.218 135.014 492.028 135.759C491.837 136.504 491.44 137.181 490.883 137.711C490.326 138.242 489.631 138.605 488.878 138.759C488.124 138.913 487.343 138.852 486.622 138.584C486.305 138.472 486.001 138.325 485.718 138.145ZM485.112 132.745C484.708 133.321 484.484 134.004 484.469 134.708C484.454 135.412 484.647 136.104 485.026 136.697C485.404 137.291 485.95 137.759 486.595 138.042C487.239 138.324 487.953 138.41 488.646 138.287C489.339 138.164 489.98 137.838 490.487 137.35C490.995 136.863 491.346 136.235 491.497 135.548C491.648 134.861 491.592 134.144 491.335 133.489C491.078 132.833 490.633 132.269 490.055 131.867C489.815 131.696 489.552 131.56 489.274 131.463C488.541 131.197 487.743 131.179 486.999 131.411C486.255 131.642 485.608 132.111 485.156 132.745H485.112Z" fill="#263238"/>
<path d="M478.009 134.194C476.508 133.43 476.121 131.173 477.131 129.154C477.58 128.235 478.304 127.48 479.203 126.994C479.576 126.759 480.003 126.625 480.442 126.604C480.882 126.583 481.32 126.677 481.713 126.876C482.105 127.075 482.44 127.373 482.683 127.74C482.927 128.106 483.071 128.53 483.102 128.969C483.239 129.984 483.055 131.015 482.575 131.919C481.609 133.834 479.721 134.843 478.246 134.308L478.009 134.194ZM479.458 127.477C478.665 127.914 478.028 128.586 477.632 129.4C476.754 131.156 477.026 133.078 478.255 133.711C479.484 134.343 481.214 133.421 482.101 131.674C482.529 130.866 482.695 129.946 482.575 129.04C482.539 128.692 482.421 128.357 482.23 128.064C482.04 127.77 481.781 127.527 481.477 127.354L481.284 127.266C480.982 127.172 480.663 127.142 480.349 127.179C480.034 127.215 479.731 127.317 479.458 127.477Z" fill="#263238"/>
<path d="M484.568 132.92L485.077 132.71C484.761 131.955 483.795 130.682 482.443 131.182L482.627 131.7C483.839 131.243 484.541 132.85 484.568 132.92Z" fill="#263238"/>
<path d="M500.389 142.139H500.96C500.96 141.885 500.907 139.62 499.906 138.891C498.906 138.162 492.101 135.493 491.811 135.379L491.609 135.888C493.585 136.67 498.862 138.803 499.59 139.33C500.319 139.857 500.389 141.516 500.389 142.139Z" fill="#263238"/>
<path d="M496.228 137.381C496.228 137.381 500.67 133.825 502.374 135.537C504.077 137.249 499.819 143.044 497.176 143.237C496.838 143.283 496.494 143.261 496.165 143.171C495.836 143.082 495.529 142.926 495.262 142.715C494.994 142.503 494.772 142.24 494.609 141.94C494.446 141.641 494.346 141.311 494.313 140.972L496.228 137.381Z" fill="#AD6359"/>
<path d="M501.109 137.17C501.109 137.17 501.109 137.231 501.109 137.24C499.239 137.425 497.905 138.715 496.816 140.138C496.963 140 497.137 139.895 497.328 139.831C497.519 139.767 497.722 139.746 497.922 139.767C498.122 139.789 498.315 139.854 498.488 139.957C498.661 140.06 498.809 140.2 498.923 140.366C498.923 140.366 498.923 140.462 498.853 140.436C498.59 140.265 498.281 140.178 497.968 140.186C497.655 140.194 497.351 140.296 497.097 140.48C496.665 140.801 496.271 141.169 495.92 141.578C495.797 141.7 495.552 141.578 495.657 141.384C496.228 139.207 498.756 136.713 501.109 137.17Z" fill="#263238"/>
<path d="M489.362 171.86C477.359 169.577 453.943 159.357 450.291 156.688C442.634 151.104 426.988 123.64 428.341 119.224C429.069 116.792 449.922 115.905 452.047 117.582C454.171 119.259 463.461 139.848 464.646 141.525C465.831 143.202 489.414 158.971 494.603 163.475C503.945 171.623 497.176 173.352 489.362 171.86Z" fill="#AD6359"/>
<path d="M450.607 125.176C450.607 125.176 454.997 117.274 457.631 112.006C459.088 109.056 461.143 103.762 461.213 101.102C461.336 97.1243 459.281 80.4072 455.216 80.8199C451.537 81.1886 455.12 95.3244 455.12 95.3244C455.12 95.3244 452.767 80.7409 448.412 82.0052C444.057 83.2695 450.247 98.6872 450.247 98.6872C450.247 98.6872 447.49 83.7612 443.223 85.763C439.992 87.282 444.803 101.567 444.803 101.567C444.803 101.567 442.345 88.7482 438.947 90.153C435.198 91.7159 438.815 105.193 438.815 105.193C430.799 110.25 427.586 113.789 428.279 120.119C428.341 121.164 450.607 125.176 450.607 125.176Z" fill="#AD6359"/>
<path d="M456.621 101.514C456.402 99.7584 456.2 98.0024 455.831 96.3517C455.462 94.7011 455.032 92.9627 454.514 91.3032C453.868 89.129 452.985 87.0326 451.88 85.0519C453.636 88.7044 455.014 94.7713 455.392 96.4659C455.769 98.1604 456.217 99.8374 456.586 101.532C456.568 101.576 456.621 101.558 456.621 101.514Z" fill="#263238"/>
<path d="M450.51 102.954C450.141 100.768 449.852 98.5643 449.386 96.4044C448.921 94.2445 448.166 91.233 447.56 89.1082C447.507 88.9502 447.253 88.9502 447.297 89.1082C447.823 91.2505 448.447 94.3762 448.947 96.5098C449.448 98.6433 450.036 100.794 450.457 102.963C450.466 103.007 450.519 102.989 450.51 102.954Z" fill="#263238"/>
<path d="M445.488 105.132C445.006 101.762 444.177 98.4521 443.012 95.2542C442.959 95.0962 442.88 95.2015 442.924 95.3683C443.802 98.6433 444.531 101.198 445.382 105.149C445.382 105.211 445.496 105.202 445.488 105.132Z" fill="#263238"/>
<path d="M430.105 129.751L456.516 121.779C456.516 121.779 463.707 139.233 464.848 140.787C465.989 142.341 491.592 159.059 496.702 163.255C501.812 167.452 500.969 175.31 489.994 173.212C480.529 171.403 454.874 160.92 450.08 157.715C445.286 154.51 430.105 129.751 430.105 129.751Z" fill="#455A64"/>
<path d="M484.506 154.598L474.682 168.444C471.679 167.329 468.597 166.126 465.656 164.932L476.754 149.304C479.274 151.016 481.951 152.842 484.506 154.598Z" fill="#37474F"/>
<path d="M435.882 134.931C439.5 133.956 454.153 129.417 457.253 128.214C457.472 128.135 457.472 127.977 457.253 128.039C446.339 130.673 439.368 133.649 435.865 134.791C435.759 134.817 435.795 134.957 435.882 134.931Z" fill="#263238"/>
<path d="M476.016 168.918C480.338 169.885 484.551 171.289 488.589 173.107C484.267 172.14 480.055 170.736 476.016 168.918Z" fill="#263238"/>
<path d="M484.094 171.658C485.051 172.185 486.368 172.834 487.272 173.414C486.646 173.371 486.037 173.192 485.488 172.888C484.939 172.585 484.463 172.165 484.094 171.658Z" fill="#263238"/>
<path d="M496.702 163.255C494.238 162.022 491.995 160.391 490.064 158.426C492.528 159.659 494.771 161.29 496.702 163.255Z" fill="#263238"/>
</svg>
