<svg width="235" height="275" viewBox="0 0 235 275" fill="none" xmlns="http://www.w3.org/2000/svg">
<rect y="0.262695" width="234.623" height="274.654" rx="16" fill="#EAF5FB"/>
<path d="M31.8818 142.524L28.4618 144.516L28.4618 145.836L31.8818 145.836L31.8818 146.928L23.5178 146.928L23.5178 144.228C23.5178 143.596 23.6258 143.064 23.8418 142.632C24.0578 142.192 24.3498 141.864 24.7178 141.648C25.0858 141.432 25.5058 141.324 25.9778 141.324C26.5538 141.324 27.0618 141.492 27.5018 141.828C27.9418 142.156 28.2338 142.652 28.3778 143.316L31.8818 141.216L31.8818 142.524ZM27.5858 145.836L27.5858 144.228C27.5858 143.636 27.4418 143.192 27.1538 142.896C26.8578 142.6 26.4658 142.452 25.9778 142.452C25.4818 142.452 25.0978 142.6 24.8258 142.896C24.5538 143.184 24.4178 143.628 24.4178 144.228L24.4178 145.836L27.5858 145.836ZM28.3418 133.627C28.5498 133.627 28.7698 133.639 29.0018 133.663L29.0018 138.919C29.6498 138.879 30.1578 138.659 30.5258 138.259C30.8858 137.851 31.0658 137.359 31.0658 136.783C31.0658 136.311 30.9578 135.919 30.7418 135.607C30.5178 135.287 30.2218 135.063 29.8538 134.935L29.8538 133.759C30.4858 133.935 31.0018 134.287 31.4018 134.815C31.7938 135.343 31.9898 135.999 31.9898 136.783C31.9898 137.407 31.8498 137.967 31.5698 138.463C31.2898 138.951 30.8938 139.335 30.3818 139.615C29.8618 139.895 29.2618 140.035 28.5818 140.035C27.9018 140.035 27.3058 139.899 26.7938 139.627C26.2818 139.355 25.8898 138.975 25.6178 138.487C25.3378 137.991 25.1978 137.423 25.1978 136.783C25.1978 136.159 25.3338 135.607 25.6058 135.127C25.8778 134.647 26.2538 134.279 26.7338 134.023C27.2058 133.759 27.7418 133.627 28.3418 133.627ZM28.1138 134.755C27.6978 134.755 27.3418 134.847 27.0458 135.031C26.7418 135.215 26.5138 135.467 26.3618 135.787C26.2018 136.099 26.1218 136.447 26.1218 136.831C26.1218 137.383 26.2978 137.855 26.6498 138.247C27.0018 138.631 27.4898 138.851 28.1138 138.907L28.1138 134.755ZM30.8738 129.737L25.3058 127.697L25.3058 126.533L31.8818 129.113L31.8818 130.385L25.3058 132.965L25.3058 131.789L30.8738 129.737ZM28.3418 119.459C28.5498 119.459 28.7698 119.471 29.0018 119.495L29.0018 124.751C29.6498 124.711 30.1578 124.491 30.5258 124.091C30.8858 123.683 31.0658 123.191 31.0658 122.615C31.0658 122.143 30.9578 121.751 30.7418 121.439C30.5178 121.119 30.2218 120.895 29.8538 120.767L29.8538 119.591C30.4858 119.767 31.0018 120.119 31.4018 120.647C31.7938 121.175 31.9898 121.831 31.9898 122.615C31.9898 123.239 31.8498 123.799 31.5698 124.295C31.2898 124.783 30.8938 125.167 30.3818 125.447C29.8618 125.727 29.2618 125.867 28.5818 125.867C27.9018 125.867 27.3058 125.731 26.7938 125.459C26.2818 125.187 25.8898 124.807 25.6178 124.319C25.3378 123.823 25.1978 123.255 25.1978 122.615C25.1978 121.991 25.3338 121.439 25.6058 120.959C25.8778 120.479 26.2538 120.111 26.7338 119.855C27.2058 119.591 27.7418 119.459 28.3418 119.459ZM28.1138 120.587C27.6978 120.587 27.3418 120.679 27.0458 120.863C26.7418 121.047 26.5138 121.299 26.3618 121.619C26.2018 121.931 26.1218 122.279 26.1218 122.663C26.1218 123.215 26.2978 123.687 26.6498 124.079C27.0018 124.463 27.4898 124.683 28.1138 124.739L28.1138 120.587ZM25.1858 114.813C25.1858 114.013 25.4298 113.365 25.9178 112.869C26.3978 112.373 27.0938 112.125 28.0058 112.125L31.8818 112.125L31.8818 113.205L28.1618 113.205C27.5058 113.205 27.0058 113.369 26.6618 113.697C26.3098 114.025 26.1338 114.473 26.1338 115.041C26.1338 115.617 26.3138 116.077 26.6738 116.421C27.0338 116.757 27.5578 116.925 28.2458 116.925L31.8818 116.925L31.8818 118.017L25.3058 118.017L25.3058 116.925L26.2418 116.925C25.9058 116.709 25.6458 116.417 25.4618 116.049C25.2778 115.673 25.1858 115.261 25.1858 114.813ZM25.3058 104.51L31.8818 104.51L31.8818 105.602L30.9098 105.602C31.2458 105.81 31.5098 106.102 31.7018 106.478C31.8858 106.846 31.9778 107.254 31.9778 107.702C31.9778 108.214 31.8738 108.674 31.6658 109.082C31.4498 109.49 31.1298 109.814 30.7058 110.054C30.2818 110.286 29.7658 110.402 29.1578 110.402L25.3058 110.402L25.3058 109.322L29.0138 109.322C29.6618 109.322 30.1618 109.158 30.5138 108.83C30.8578 108.502 31.0298 108.054 31.0298 107.486C31.0298 106.902 30.8498 106.442 30.4898 106.106C30.1298 105.77 29.6058 105.602 28.9178 105.602L25.3058 105.602L25.3058 104.51ZM28.3418 96.6658C28.5498 96.6658 28.7698 96.6778 29.0018 96.7018L29.0018 101.958C29.6498 101.918 30.1578 101.698 30.5258 101.298C30.8858 100.89 31.0658 100.398 31.0658 99.8218C31.0658 99.3498 30.9578 98.9578 30.7418 98.6458C30.5178 98.3258 30.2218 98.1018 29.8538 97.9738L29.8538 96.7978C30.4858 96.9738 31.0018 97.3258 31.4018 97.8538C31.7938 98.3818 31.9898 99.0378 31.9898 99.8218C31.9898 100.446 31.8498 101.006 31.5698 101.502C31.2898 101.99 30.8938 102.374 30.3818 102.654C29.8618 102.934 29.2618 103.074 28.5818 103.074C27.9018 103.074 27.3058 102.938 26.7938 102.666C26.2818 102.394 25.8898 102.014 25.6178 101.526C25.3378 101.03 25.1978 100.462 25.1978 99.8218C25.1978 99.1978 25.3338 98.6458 25.6058 98.1658C25.8778 97.6858 26.2538 97.3178 26.7338 97.0618C27.2058 96.7978 27.7418 96.6658 28.3418 96.6658ZM28.1138 97.7938C27.6978 97.7938 27.3418 97.8858 27.0458 98.0698C26.7418 98.2538 26.5138 98.5058 26.3618 98.8258C26.2018 99.1378 26.1218 99.4858 26.1218 99.8698C26.1218 100.422 26.2978 100.894 26.6498 101.286C27.0018 101.67 27.4898 101.89 28.1138 101.946L28.1138 97.7938Z" fill="#1E2E4A"/>
<path d="M85.103 159.636L82.679 168H81.455L79.511 161.268L77.495 168L76.283 168.012L73.943 159.636H75.107L76.931 166.728L78.947 159.636H80.171L82.091 166.704L83.927 159.636H85.103ZM86.862 160.356C86.654 160.356 86.478 160.284 86.334 160.14C86.19 159.996 86.118 159.82 86.118 159.612C86.118 159.404 86.19 159.228 86.334 159.084C86.478 158.94 86.654 158.868 86.862 158.868C87.062 158.868 87.23 158.94 87.366 159.084C87.51 159.228 87.582 159.404 87.582 159.612C87.582 159.82 87.51 159.996 87.366 160.14C87.23 160.284 87.062 160.356 86.862 160.356ZM87.39 161.424V168H86.298V161.424H87.39ZM90.5831 162.324V166.2C90.5831 166.52 90.6511 166.748 90.7871 166.884C90.9231 167.012 91.1591 167.076 91.4951 167.076H92.2991V168H91.3151C90.7071 168 90.2511 167.86 89.9471 167.58C89.6431 167.3 89.4911 166.84 89.4911 166.2V162.324H88.6391V161.424H89.4911V159.768H90.5831V161.424H92.2991V162.324H90.5831ZM96.8862 161.304C97.3822 161.304 97.8302 161.412 98.2302 161.628C98.6302 161.836 98.9422 162.152 99.1662 162.576C99.3982 163 99.5142 163.516 99.5142 164.124V168H98.4342V164.28C98.4342 163.624 98.2702 163.124 97.9422 162.78C97.6142 162.428 97.1662 162.252 96.5982 162.252C96.0222 162.252 95.5622 162.432 95.2182 162.792C94.8822 163.152 94.7142 163.676 94.7142 164.364V168H93.6222V159.12H94.7142V162.36C94.9302 162.024 95.2262 161.764 95.6022 161.58C95.9862 161.396 96.4142 161.304 96.8862 161.304ZM104.166 168.108C103.55 168.108 102.99 167.968 102.486 167.688C101.99 167.408 101.598 167.012 101.31 166.5C101.03 165.98 100.89 165.38 100.89 164.7C100.89 164.028 101.034 163.436 101.322 162.924C101.618 162.404 102.018 162.008 102.522 161.736C103.026 161.456 103.59 161.316 104.214 161.316C104.838 161.316 105.402 161.456 105.906 161.736C106.41 162.008 106.806 162.4 107.094 162.912C107.39 163.424 107.538 164.02 107.538 164.7C107.538 165.38 107.386 165.98 107.082 166.5C106.786 167.012 106.382 167.408 105.87 167.688C105.358 167.968 104.79 168.108 104.166 168.108ZM104.166 167.148C104.558 167.148 104.926 167.056 105.27 166.872C105.614 166.688 105.89 166.412 106.098 166.044C106.314 165.676 106.422 165.228 106.422 164.7C106.422 164.172 106.318 163.724 106.11 163.356C105.902 162.988 105.63 162.716 105.294 162.54C104.958 162.356 104.594 162.264 104.202 162.264C103.802 162.264 103.434 162.356 103.098 162.54C102.77 162.716 102.506 162.988 102.306 163.356C102.106 163.724 102.006 164.172 102.006 164.7C102.006 165.236 102.102 165.688 102.294 166.056C102.494 166.424 102.758 166.7 103.086 166.884C103.414 167.06 103.774 167.148 104.166 167.148ZM114.806 161.424V168H113.714V167.028C113.506 167.364 113.214 167.628 112.838 167.82C112.47 168.004 112.062 168.096 111.614 168.096C111.102 168.096 110.642 167.992 110.234 167.784C109.826 167.568 109.502 167.248 109.262 166.824C109.03 166.4 108.914 165.884 108.914 165.276V161.424H109.994V165.132C109.994 165.78 110.158 166.28 110.486 166.632C110.814 166.976 111.262 167.148 111.83 167.148C112.414 167.148 112.874 166.968 113.21 166.608C113.546 166.248 113.714 165.724 113.714 165.036V161.424H114.806ZM117.982 162.324V166.2C117.982 166.52 118.05 166.748 118.186 166.884C118.322 167.012 118.558 167.076 118.894 167.076H119.698V168H118.714C118.106 168 117.65 167.86 117.346 167.58C117.042 167.3 116.89 166.84 116.89 166.2V162.324H116.038V161.424H116.89V159.768H117.982V161.424H119.698V162.324H117.982ZM72.7323 179.14H69.0843L68.4123 181H67.2603L70.2843 172.684H71.5443L74.5563 181H73.4043L72.7323 179.14ZM72.4203 178.252L70.9083 174.028L69.3963 178.252H72.4203ZM76.9662 175.636C77.1822 175.26 77.5022 174.948 77.9262 174.7C78.3582 174.444 78.8582 174.316 79.4262 174.316C80.0102 174.316 80.5382 174.456 81.0102 174.736C81.4902 175.016 81.8662 175.412 82.1382 175.924C82.4102 176.428 82.5462 177.016 82.5462 177.688C82.5462 178.352 82.4102 178.944 82.1382 179.464C81.8662 179.984 81.4902 180.388 81.0102 180.676C80.5382 180.964 80.0102 181.108 79.4262 181.108C78.8662 181.108 78.3702 180.984 77.9382 180.736C77.5142 180.48 77.1902 180.164 76.9662 179.788V184.12H75.8742V174.424H76.9662V175.636ZM81.4302 177.688C81.4302 177.192 81.3302 176.76 81.1302 176.392C80.9302 176.024 80.6582 175.744 80.3142 175.552C79.9782 175.36 79.6062 175.264 79.1982 175.264C78.7982 175.264 78.4262 175.364 78.0822 175.564C77.7462 175.756 77.4742 176.04 77.2662 176.416C77.0662 176.784 76.9662 177.212 76.9662 177.7C76.9662 178.196 77.0662 178.632 77.2662 179.008C77.4742 179.376 77.7462 179.66 78.0822 179.86C78.4262 180.052 78.7982 180.148 79.1982 180.148C79.6062 180.148 79.9782 180.052 80.3142 179.86C80.6582 179.66 80.9302 179.376 81.1302 179.008C81.3302 178.632 81.4302 178.192 81.4302 177.688ZM85.0756 175.636C85.2916 175.26 85.6116 174.948 86.0356 174.7C86.4676 174.444 86.9676 174.316 87.5356 174.316C88.1196 174.316 88.6476 174.456 89.1196 174.736C89.5996 175.016 89.9756 175.412 90.2476 175.924C90.5196 176.428 90.6556 177.016 90.6556 177.688C90.6556 178.352 90.5196 178.944 90.2476 179.464C89.9756 179.984 89.5996 180.388 89.1196 180.676C88.6476 180.964 88.1196 181.108 87.5356 181.108C86.9756 181.108 86.4796 180.984 86.0476 180.736C85.6236 180.48 85.2996 180.164 85.0756 179.788V184.12H83.9836V174.424H85.0756V175.636ZM89.5396 177.688C89.5396 177.192 89.4396 176.76 89.2396 176.392C89.0396 176.024 88.7676 175.744 88.4236 175.552C88.0876 175.36 87.7156 175.264 87.3076 175.264C86.9076 175.264 86.5356 175.364 86.1916 175.564C85.8556 175.756 85.5836 176.04 85.3756 176.416C85.1756 176.784 85.0756 177.212 85.0756 177.7C85.0756 178.196 85.1756 178.632 85.3756 179.008C85.5836 179.376 85.8556 179.66 86.1916 179.86C86.5356 180.052 86.9076 180.148 87.3076 180.148C87.7156 180.148 88.0876 180.052 88.4236 179.86C88.7676 179.66 89.0396 179.376 89.2396 179.008C89.4396 178.632 89.5396 178.192 89.5396 177.688ZM96.2809 176.692C96.5849 176.74 96.8609 176.864 97.1089 177.064C97.3649 177.264 97.5649 177.512 97.7089 177.808C97.8609 178.104 97.9369 178.42 97.9369 178.756C97.9369 179.18 97.8289 179.564 97.6129 179.908C97.3969 180.244 97.0809 180.512 96.6649 180.712C96.2569 180.904 95.7729 181 95.2129 181H92.0929V172.636H95.0929C95.6609 172.636 96.1449 172.732 96.5449 172.924C96.9449 173.108 97.2449 173.36 97.4449 173.68C97.6449 174 97.7449 174.36 97.7449 174.76C97.7449 175.256 97.6089 175.668 97.3369 175.996C97.0729 176.316 96.7209 176.548 96.2809 176.692ZM93.1849 176.248H95.0209C95.5329 176.248 95.9289 176.128 96.2089 175.888C96.4889 175.648 96.6289 175.316 96.6289 174.892C96.6289 174.468 96.4889 174.136 96.2089 173.896C95.9289 173.656 95.5249 173.536 94.9969 173.536H93.1849V176.248ZM95.1169 180.1C95.6609 180.1 96.0849 179.972 96.3889 179.716C96.6929 179.46 96.8449 179.104 96.8449 178.648C96.8449 178.184 96.6849 177.82 96.3649 177.556C96.0449 177.284 95.6169 177.148 95.0809 177.148H93.1849V180.1H95.1169ZM100.544 175.492C100.736 175.116 101.008 174.824 101.36 174.616C101.72 174.408 102.156 174.304 102.668 174.304V175.432H102.38C101.156 175.432 100.544 176.096 100.544 177.424V181H99.4523V174.424H100.544V175.492ZM106.797 181.108C106.181 181.108 105.621 180.968 105.117 180.688C104.621 180.408 104.229 180.012 103.941 179.5C103.661 178.98 103.521 178.38 103.521 177.7C103.521 177.028 103.665 176.436 103.953 175.924C104.249 175.404 104.649 175.008 105.153 174.736C105.657 174.456 106.221 174.316 106.845 174.316C107.469 174.316 108.033 174.456 108.537 174.736C109.041 175.008 109.437 175.4 109.725 175.912C110.021 176.424 110.169 177.02 110.169 177.7C110.169 178.38 110.017 178.98 109.713 179.5C109.417 180.012 109.013 180.408 108.501 180.688C107.989 180.968 107.421 181.108 106.797 181.108ZM106.797 180.148C107.189 180.148 107.557 180.056 107.901 179.872C108.245 179.688 108.521 179.412 108.729 179.044C108.945 178.676 109.053 178.228 109.053 177.7C109.053 177.172 108.949 176.724 108.741 176.356C108.533 175.988 108.261 175.716 107.925 175.54C107.589 175.356 107.225 175.264 106.833 175.264C106.433 175.264 106.065 175.356 105.729 175.54C105.401 175.716 105.137 175.988 104.937 176.356C104.737 176.724 104.637 177.172 104.637 177.7C104.637 178.236 104.733 178.688 104.925 179.056C105.125 179.424 105.389 179.7 105.717 179.884C106.045 180.06 106.405 180.148 106.797 180.148ZM111.197 177.688C111.197 177.016 111.333 176.428 111.605 175.924C111.877 175.412 112.249 175.016 112.721 174.736C113.201 174.456 113.737 174.316 114.329 174.316C114.841 174.316 115.317 174.436 115.757 174.676C116.197 174.908 116.533 175.216 116.765 175.6V172.12H117.869V181H116.765V179.764C116.549 180.156 116.229 180.48 115.805 180.736C115.381 180.984 114.885 181.108 114.317 181.108C113.733 181.108 113.201 180.964 112.721 180.676C112.249 180.388 111.877 179.984 111.605 179.464C111.333 178.944 111.197 178.352 111.197 177.688ZM116.765 177.7C116.765 177.204 116.665 176.772 116.465 176.404C116.265 176.036 115.993 175.756 115.649 175.564C115.313 175.364 114.941 175.264 114.533 175.264C114.125 175.264 113.753 175.36 113.417 175.552C113.081 175.744 112.813 176.024 112.613 176.392C112.413 176.76 112.313 177.192 112.313 177.688C112.313 178.192 112.413 178.632 112.613 179.008C112.813 179.376 113.081 179.66 113.417 179.86C113.753 180.052 114.125 180.148 114.533 180.148C114.941 180.148 115.313 180.052 115.649 179.86C115.993 179.66 116.265 179.376 116.465 179.008C116.665 178.632 116.765 178.196 116.765 177.7ZM119.306 177.688C119.306 177.016 119.442 176.428 119.714 175.924C119.986 175.412 120.358 175.016 120.83 174.736C121.31 174.456 121.842 174.316 122.426 174.316C123.002 174.316 123.502 174.44 123.926 174.688C124.35 174.936 124.666 175.248 124.874 175.624V174.424H125.978V181H124.874V179.776C124.658 180.16 124.334 180.48 123.902 180.736C123.478 180.984 122.982 181.108 122.414 181.108C121.83 181.108 121.302 180.964 120.83 180.676C120.358 180.388 119.986 179.984 119.714 179.464C119.442 178.944 119.306 178.352 119.306 177.688ZM124.874 177.7C124.874 177.204 124.774 176.772 124.574 176.404C124.374 176.036 124.102 175.756 123.758 175.564C123.422 175.364 123.05 175.264 122.642 175.264C122.234 175.264 121.862 175.36 121.526 175.552C121.19 175.744 120.922 176.024 120.722 176.392C120.522 176.76 120.422 177.192 120.422 177.688C120.422 178.192 120.522 178.632 120.722 179.008C120.922 179.376 121.19 179.66 121.526 179.86C121.862 180.052 122.234 180.148 122.642 180.148C123.05 180.148 123.422 180.052 123.758 179.86C124.102 179.66 124.374 179.376 124.574 179.008C124.774 178.632 124.874 178.196 124.874 177.7Z" fill="#1E2E4A"/>
<path d="M173.964 159.636L171.54 168H170.316L168.372 161.268L166.356 168L165.144 168.012L162.804 159.636H163.968L165.792 166.728L167.808 159.636H169.032L170.952 166.704L172.788 159.636H173.964ZM175.723 160.356C175.515 160.356 175.339 160.284 175.195 160.14C175.051 159.996 174.979 159.82 174.979 159.612C174.979 159.404 175.051 159.228 175.195 159.084C175.339 158.94 175.515 158.868 175.723 158.868C175.923 158.868 176.091 158.94 176.227 159.084C176.371 159.228 176.443 159.404 176.443 159.612C176.443 159.82 176.371 159.996 176.227 160.14C176.091 160.284 175.923 160.356 175.723 160.356ZM176.251 161.424V168H175.159V161.424H176.251ZM179.444 162.324V166.2C179.444 166.52 179.512 166.748 179.648 166.884C179.784 167.012 180.02 167.076 180.356 167.076H181.16V168H180.176C179.568 168 179.112 167.86 178.808 167.58C178.504 167.3 178.352 166.84 178.352 166.2V162.324H177.5V161.424H178.352V159.768H179.444V161.424H181.16V162.324H179.444ZM185.748 161.304C186.244 161.304 186.692 161.412 187.092 161.628C187.492 161.836 187.804 162.152 188.028 162.576C188.26 163 188.376 163.516 188.376 164.124V168H187.296V164.28C187.296 163.624 187.132 163.124 186.804 162.78C186.476 162.428 186.028 162.252 185.46 162.252C184.884 162.252 184.424 162.432 184.08 162.792C183.744 163.152 183.576 163.676 183.576 164.364V168H182.484V159.12H183.576V162.36C183.792 162.024 184.088 161.764 184.464 161.58C184.848 161.396 185.276 161.304 185.748 161.304ZM151.732 179.14H148.084L147.412 181H146.26L149.284 172.684H150.544L153.556 181H152.404L151.732 179.14ZM151.42 178.252L149.908 174.028L148.396 178.252H151.42ZM155.966 175.636C156.182 175.26 156.502 174.948 156.926 174.7C157.358 174.444 157.858 174.316 158.426 174.316C159.01 174.316 159.538 174.456 160.01 174.736C160.49 175.016 160.866 175.412 161.138 175.924C161.41 176.428 161.546 177.016 161.546 177.688C161.546 178.352 161.41 178.944 161.138 179.464C160.866 179.984 160.49 180.388 160.01 180.676C159.538 180.964 159.01 181.108 158.426 181.108C157.866 181.108 157.37 180.984 156.938 180.736C156.514 180.48 156.19 180.164 155.966 179.788V184.12H154.874V174.424H155.966V175.636ZM160.43 177.688C160.43 177.192 160.33 176.76 160.13 176.392C159.93 176.024 159.658 175.744 159.314 175.552C158.978 175.36 158.606 175.264 158.198 175.264C157.798 175.264 157.426 175.364 157.082 175.564C156.746 175.756 156.474 176.04 156.266 176.416C156.066 176.784 155.966 177.212 155.966 177.7C155.966 178.196 156.066 178.632 156.266 179.008C156.474 179.376 156.746 179.66 157.082 179.86C157.426 180.052 157.798 180.148 158.198 180.148C158.606 180.148 158.978 180.052 159.314 179.86C159.658 179.66 159.93 179.376 160.13 179.008C160.33 178.632 160.43 178.192 160.43 177.688ZM164.076 175.636C164.292 175.26 164.612 174.948 165.036 174.7C165.468 174.444 165.968 174.316 166.536 174.316C167.12 174.316 167.648 174.456 168.12 174.736C168.6 175.016 168.976 175.412 169.248 175.924C169.52 176.428 169.656 177.016 169.656 177.688C169.656 178.352 169.52 178.944 169.248 179.464C168.976 179.984 168.6 180.388 168.12 180.676C167.648 180.964 167.12 181.108 166.536 181.108C165.976 181.108 165.48 180.984 165.048 180.736C164.624 180.48 164.3 180.164 164.076 179.788V184.12H162.984V174.424H164.076V175.636ZM168.54 177.688C168.54 177.192 168.44 176.76 168.24 176.392C168.04 176.024 167.768 175.744 167.424 175.552C167.088 175.36 166.716 175.264 166.308 175.264C165.908 175.264 165.536 175.364 165.192 175.564C164.856 175.756 164.584 176.04 164.376 176.416C164.176 176.784 164.076 177.212 164.076 177.7C164.076 178.196 164.176 178.632 164.376 179.008C164.584 179.376 164.856 179.66 165.192 179.86C165.536 180.052 165.908 180.148 166.308 180.148C166.716 180.148 167.088 180.052 167.424 179.86C167.768 179.66 168.04 179.376 168.24 179.008C168.44 178.632 168.54 178.192 168.54 177.688ZM175.281 176.692C175.585 176.74 175.861 176.864 176.109 177.064C176.365 177.264 176.565 177.512 176.709 177.808C176.861 178.104 176.937 178.42 176.937 178.756C176.937 179.18 176.829 179.564 176.613 179.908C176.397 180.244 176.081 180.512 175.665 180.712C175.257 180.904 174.773 181 174.213 181H171.093V172.636H174.093C174.661 172.636 175.145 172.732 175.545 172.924C175.945 173.108 176.245 173.36 176.445 173.68C176.645 174 176.745 174.36 176.745 174.76C176.745 175.256 176.609 175.668 176.337 175.996C176.073 176.316 175.721 176.548 175.281 176.692ZM172.185 176.248H174.021C174.533 176.248 174.929 176.128 175.209 175.888C175.489 175.648 175.629 175.316 175.629 174.892C175.629 174.468 175.489 174.136 175.209 173.896C174.929 173.656 174.525 173.536 173.997 173.536H172.185V176.248ZM174.117 180.1C174.661 180.1 175.085 179.972 175.389 179.716C175.693 179.46 175.845 179.104 175.845 178.648C175.845 178.184 175.685 177.82 175.365 177.556C175.045 177.284 174.617 177.148 174.081 177.148H172.185V180.1H174.117ZM179.544 175.492C179.736 175.116 180.008 174.824 180.36 174.616C180.72 174.408 181.156 174.304 181.668 174.304V175.432H181.38C180.156 175.432 179.544 176.096 179.544 177.424V181H178.452V174.424H179.544V175.492ZM185.797 181.108C185.181 181.108 184.621 180.968 184.117 180.688C183.621 180.408 183.229 180.012 182.941 179.5C182.661 178.98 182.521 178.38 182.521 177.7C182.521 177.028 182.665 176.436 182.953 175.924C183.249 175.404 183.649 175.008 184.153 174.736C184.657 174.456 185.221 174.316 185.845 174.316C186.469 174.316 187.033 174.456 187.537 174.736C188.041 175.008 188.437 175.4 188.725 175.912C189.021 176.424 189.169 177.02 189.169 177.7C189.169 178.38 189.017 178.98 188.713 179.5C188.417 180.012 188.013 180.408 187.501 180.688C186.989 180.968 186.421 181.108 185.797 181.108ZM185.797 180.148C186.189 180.148 186.557 180.056 186.901 179.872C187.245 179.688 187.521 179.412 187.729 179.044C187.945 178.676 188.053 178.228 188.053 177.7C188.053 177.172 187.949 176.724 187.741 176.356C187.533 175.988 187.261 175.716 186.925 175.54C186.589 175.356 186.225 175.264 185.833 175.264C185.433 175.264 185.065 175.356 184.729 175.54C184.401 175.716 184.137 175.988 183.937 176.356C183.737 176.724 183.637 177.172 183.637 177.7C183.637 178.236 183.733 178.688 183.925 179.056C184.125 179.424 184.389 179.7 184.717 179.884C185.045 180.06 185.405 180.148 185.797 180.148ZM190.197 177.688C190.197 177.016 190.333 176.428 190.605 175.924C190.877 175.412 191.249 175.016 191.721 174.736C192.201 174.456 192.737 174.316 193.329 174.316C193.841 174.316 194.317 174.436 194.757 174.676C195.197 174.908 195.533 175.216 195.765 175.6V172.12H196.869V181H195.765V179.764C195.549 180.156 195.229 180.48 194.805 180.736C194.381 180.984 193.885 181.108 193.317 181.108C192.733 181.108 192.201 180.964 191.721 180.676C191.249 180.388 190.877 179.984 190.605 179.464C190.333 178.944 190.197 178.352 190.197 177.688ZM195.765 177.7C195.765 177.204 195.665 176.772 195.465 176.404C195.265 176.036 194.993 175.756 194.649 175.564C194.313 175.364 193.941 175.264 193.533 175.264C193.125 175.264 192.753 175.36 192.417 175.552C192.081 175.744 191.813 176.024 191.613 176.392C191.413 176.76 191.313 177.192 191.313 177.688C191.313 178.192 191.413 178.632 191.613 179.008C191.813 179.376 192.081 179.66 192.417 179.86C192.753 180.052 193.125 180.148 193.533 180.148C193.941 180.148 194.313 180.052 194.649 179.86C194.993 179.66 195.265 179.376 195.465 179.008C195.665 178.632 195.765 178.196 195.765 177.7ZM198.306 177.688C198.306 177.016 198.442 176.428 198.714 175.924C198.986 175.412 199.358 175.016 199.83 174.736C200.31 174.456 200.842 174.316 201.426 174.316C202.002 174.316 202.502 174.44 202.926 174.688C203.35 174.936 203.666 175.248 203.874 175.624V174.424H204.978V181H203.874V179.776C203.658 180.16 203.334 180.48 202.902 180.736C202.478 180.984 201.982 181.108 201.414 181.108C200.83 181.108 200.302 180.964 199.83 180.676C199.358 180.388 198.986 179.984 198.714 179.464C198.442 178.944 198.306 178.352 198.306 177.688ZM203.874 177.7C203.874 177.204 203.774 176.772 203.574 176.404C203.374 176.036 203.102 175.756 202.758 175.564C202.422 175.364 202.05 175.264 201.642 175.264C201.234 175.264 200.862 175.36 200.526 175.552C200.19 175.744 199.922 176.024 199.722 176.392C199.522 176.76 199.422 177.192 199.422 177.688C199.422 178.192 199.522 178.632 199.722 179.008C199.922 179.376 200.19 179.66 200.526 179.86C200.862 180.052 201.234 180.148 201.642 180.148C202.05 180.148 202.422 180.052 202.758 179.86C203.102 179.66 203.374 179.376 203.574 179.008C203.774 178.632 203.874 178.196 203.874 177.7Z" fill="#1E2E4A"/>
<path d="M87.2927 226.636L84.5687 231.844V235H83.4767V231.844L80.7407 226.636H81.9527L84.0167 230.872L86.0807 226.636H87.2927ZM91.3125 235.108C90.6965 235.108 90.1365 234.968 89.6325 234.688C89.1365 234.408 88.7445 234.012 88.4565 233.5C88.1765 232.98 88.0365 232.38 88.0365 231.7C88.0365 231.028 88.1805 230.436 88.4685 229.924C88.7645 229.404 89.1645 229.008 89.6685 228.736C90.1725 228.456 90.7365 228.316 91.3605 228.316C91.9845 228.316 92.5485 228.456 93.0525 228.736C93.5565 229.008 93.9525 229.4 94.2405 229.912C94.5365 230.424 94.6845 231.02 94.6845 231.7C94.6845 232.38 94.5325 232.98 94.2285 233.5C93.9325 234.012 93.5285 234.408 93.0165 234.688C92.5045 234.968 91.9365 235.108 91.3125 235.108ZM91.3125 234.148C91.7045 234.148 92.0725 234.056 92.4165 233.872C92.7605 233.688 93.0365 233.412 93.2445 233.044C93.4605 232.676 93.5685 232.228 93.5685 231.7C93.5685 231.172 93.4645 230.724 93.2565 230.356C93.0485 229.988 92.7765 229.716 92.4405 229.54C92.1045 229.356 91.7405 229.264 91.3485 229.264C90.9485 229.264 90.5805 229.356 90.2445 229.54C89.9165 229.716 89.6525 229.988 89.4525 230.356C89.2525 230.724 89.1525 231.172 89.1525 231.7C89.1525 232.236 89.2485 232.688 89.4405 233.056C89.6405 233.424 89.9045 233.7 90.2325 233.884C90.5605 234.06 90.9205 234.148 91.3125 234.148ZM101.952 228.424V235H100.86V234.028C100.652 234.364 100.36 234.628 99.9843 234.82C99.6163 235.004 99.2083 235.096 98.7603 235.096C98.2483 235.096 97.7883 234.992 97.3803 234.784C96.9723 234.568 96.6483 234.248 96.4083 233.824C96.1763 233.4 96.0603 232.884 96.0603 232.276V228.424H97.1403V232.132C97.1403 232.78 97.3043 233.28 97.6323 233.632C97.9603 233.976 98.4083 234.148 98.9763 234.148C99.5603 234.148 100.02 233.968 100.356 233.608C100.692 233.248 100.86 232.724 100.86 232.036V228.424H101.952ZM104.888 229.492C105.08 229.116 105.352 228.824 105.704 228.616C106.064 228.408 106.5 228.304 107.012 228.304V229.432H106.724C105.5 229.432 104.888 230.096 104.888 231.424V235H103.796V228.424H104.888V229.492ZM115.876 235L113.884 231.58H112.564V235H111.472V226.636H114.172C114.804 226.636 115.336 226.744 115.768 226.96C116.208 227.176 116.536 227.468 116.752 227.836C116.968 228.204 117.076 228.624 117.076 229.096C117.076 229.672 116.908 230.18 116.572 230.62C116.244 231.06 115.748 231.352 115.084 231.496L117.184 235H115.876ZM112.564 230.704H114.172C114.764 230.704 115.208 230.56 115.504 230.272C115.8 229.976 115.948 229.584 115.948 229.096C115.948 228.6 115.8 228.216 115.504 227.944C115.216 227.672 114.772 227.536 114.172 227.536H112.564V230.704ZM124.773 231.46C124.773 231.668 124.761 231.888 124.737 232.12H119.481C119.521 232.768 119.741 233.276 120.141 233.644C120.549 234.004 121.041 234.184 121.617 234.184C122.089 234.184 122.481 234.076 122.793 233.86C123.113 233.636 123.337 233.34 123.465 232.972H124.641C124.465 233.604 124.113 234.12 123.585 234.52C123.057 234.912 122.401 235.108 121.617 235.108C120.993 235.108 120.433 234.968 119.937 234.688C119.449 234.408 119.065 234.012 118.785 233.5C118.505 232.98 118.365 232.38 118.365 231.7C118.365 231.02 118.501 230.424 118.773 229.912C119.045 229.4 119.425 229.008 119.913 228.736C120.409 228.456 120.977 228.316 121.617 228.316C122.241 228.316 122.793 228.452 123.273 228.724C123.753 228.996 124.121 229.372 124.377 229.852C124.641 230.324 124.773 230.86 124.773 231.46ZM123.645 231.232C123.645 230.816 123.553 230.46 123.369 230.164C123.185 229.86 122.933 229.632 122.613 229.48C122.301 229.32 121.953 229.24 121.569 229.24C121.017 229.24 120.545 229.416 120.153 229.768C119.769 230.12 119.549 230.608 119.493 231.232H123.645ZM128.662 233.992L130.702 228.424H131.866L129.286 235H128.014L125.434 228.424H126.61L128.662 233.992ZM138.941 231.46C138.941 231.668 138.929 231.888 138.905 232.12H133.649C133.689 232.768 133.909 233.276 134.309 233.644C134.717 234.004 135.209 234.184 135.785 234.184C136.257 234.184 136.649 234.076 136.961 233.86C137.281 233.636 137.505 233.34 137.633 232.972H138.809C138.633 233.604 138.281 234.12 137.753 234.52C137.225 234.912 136.569 235.108 135.785 235.108C135.161 235.108 134.601 234.968 134.105 234.688C133.617 234.408 133.233 234.012 132.953 233.5C132.673 232.98 132.533 232.38 132.533 231.7C132.533 231.02 132.669 230.424 132.941 229.912C133.213 229.4 133.593 229.008 134.081 228.736C134.577 228.456 135.145 228.316 135.785 228.316C136.409 228.316 136.961 228.452 137.441 228.724C137.921 228.996 138.289 229.372 138.545 229.852C138.809 230.324 138.941 230.86 138.941 231.46ZM137.813 231.232C137.813 230.816 137.721 230.46 137.537 230.164C137.353 229.86 137.101 229.632 136.781 229.48C136.469 229.32 136.121 229.24 135.737 229.24C135.185 229.24 134.713 229.416 134.321 229.768C133.937 230.12 133.717 230.608 133.661 231.232H137.813ZM143.586 228.304C144.386 228.304 145.034 228.548 145.53 229.036C146.026 229.516 146.274 230.212 146.274 231.124V235H145.194V231.28C145.194 230.624 145.03 230.124 144.702 229.78C144.374 229.428 143.926 229.252 143.358 229.252C142.782 229.252 142.322 229.432 141.978 229.792C141.642 230.152 141.474 230.676 141.474 231.364V235H140.382V228.424H141.474V229.36C141.69 229.024 141.982 228.764 142.35 228.58C142.726 228.396 143.138 228.304 143.586 228.304ZM153.89 228.424V235H152.798V234.028C152.59 234.364 152.298 234.628 151.922 234.82C151.554 235.004 151.146 235.096 150.698 235.096C150.186 235.096 149.726 234.992 149.318 234.784C148.91 234.568 148.586 234.248 148.346 233.824C148.114 233.4 147.998 232.884 147.998 232.276V228.424H149.078V232.132C149.078 232.78 149.242 233.28 149.57 233.632C149.898 233.976 150.346 234.148 150.914 234.148C151.498 234.148 151.958 233.968 152.294 233.608C152.63 233.248 152.798 232.724 152.798 232.036V228.424H153.89ZM161.734 231.46C161.734 231.668 161.722 231.888 161.698 232.12H156.442C156.482 232.768 156.702 233.276 157.102 233.644C157.51 234.004 158.002 234.184 158.578 234.184C159.05 234.184 159.442 234.076 159.754 233.86C160.074 233.636 160.298 233.34 160.426 232.972H161.602C161.426 233.604 161.074 234.12 160.546 234.52C160.018 234.912 159.362 235.108 158.578 235.108C157.954 235.108 157.394 234.968 156.898 234.688C156.41 234.408 156.026 234.012 155.746 233.5C155.466 232.98 155.326 232.38 155.326 231.7C155.326 231.02 155.462 230.424 155.734 229.912C156.006 229.4 156.386 229.008 156.874 228.736C157.37 228.456 157.938 228.316 158.578 228.316C159.202 228.316 159.754 228.452 160.234 228.724C160.714 228.996 161.082 229.372 161.338 229.852C161.602 230.324 161.734 230.86 161.734 231.46ZM160.606 231.232C160.606 230.816 160.514 230.46 160.33 230.164C160.146 229.86 159.894 229.632 159.574 229.48C159.262 229.32 158.914 229.24 158.53 229.24C157.978 229.24 157.506 229.416 157.114 229.768C156.73 230.12 156.51 230.608 156.454 231.232H160.606Z" fill="#1E2E4A"/>
<path d="M86.1825 251L84.1905 247.58H82.8705V251H81.7785V242.636H84.4785C85.1105 242.636 85.6425 242.744 86.0745 242.96C86.5145 243.176 86.8425 243.468 87.0585 243.836C87.2745 244.204 87.3825 244.624 87.3825 245.096C87.3825 245.672 87.2145 246.18 86.8785 246.62C86.5505 247.06 86.0545 247.352 85.3905 247.496L87.4905 251H86.1825ZM82.8705 246.704H84.4785C85.0705 246.704 85.5145 246.56 85.8105 246.272C86.1065 245.976 86.2545 245.584 86.2545 245.096C86.2545 244.6 86.1065 244.216 85.8105 243.944C85.5225 243.672 85.0785 243.536 84.4785 243.536H82.8705V246.704ZM95.0793 247.46C95.0793 247.668 95.0673 247.888 95.0433 248.12H89.7873C89.8273 248.768 90.0473 249.276 90.4473 249.644C90.8553 250.004 91.3473 250.184 91.9233 250.184C92.3953 250.184 92.7873 250.076 93.0993 249.86C93.4193 249.636 93.6433 249.34 93.7713 248.972H94.9473C94.7713 249.604 94.4193 250.12 93.8913 250.52C93.3633 250.912 92.7073 251.108 91.9233 251.108C91.2993 251.108 90.7393 250.968 90.2433 250.688C89.7553 250.408 89.3713 250.012 89.0913 249.5C88.8113 248.98 88.6713 248.38 88.6713 247.7C88.6713 247.02 88.8073 246.424 89.0793 245.912C89.3513 245.4 89.7313 245.008 90.2193 244.736C90.7153 244.456 91.2833 244.316 91.9233 244.316C92.5473 244.316 93.0993 244.452 93.5793 244.724C94.0593 244.996 94.4273 245.372 94.6833 245.852C94.9473 246.324 95.0793 246.86 95.0793 247.46ZM93.9513 247.232C93.9513 246.816 93.8593 246.46 93.6753 246.164C93.4913 245.86 93.2393 245.632 92.9193 245.48C92.6073 245.32 92.2593 245.24 91.8753 245.24C91.3233 245.24 90.8513 245.416 90.4593 245.768C90.0753 246.12 89.8553 246.608 89.7993 247.232H93.9513ZM98.9687 249.992L101.009 244.424H102.173L99.5927 251H98.3207L95.7407 244.424H96.9167L98.9687 249.992ZM109.247 247.46C109.247 247.668 109.235 247.888 109.211 248.12H103.955C103.995 248.768 104.215 249.276 104.615 249.644C105.023 250.004 105.515 250.184 106.091 250.184C106.563 250.184 106.955 250.076 107.267 249.86C107.587 249.636 107.811 249.34 107.939 248.972H109.115C108.939 249.604 108.587 250.12 108.059 250.52C107.531 250.912 106.875 251.108 106.091 251.108C105.467 251.108 104.907 250.968 104.411 250.688C103.923 250.408 103.539 250.012 103.259 249.5C102.979 248.98 102.839 248.38 102.839 247.7C102.839 247.02 102.975 246.424 103.247 245.912C103.519 245.4 103.899 245.008 104.387 244.736C104.883 244.456 105.451 244.316 106.091 244.316C106.715 244.316 107.267 244.452 107.747 244.724C108.227 244.996 108.595 245.372 108.851 245.852C109.115 246.324 109.247 246.86 109.247 247.46ZM108.119 247.232C108.119 246.816 108.027 246.46 107.843 246.164C107.659 245.86 107.407 245.632 107.087 245.48C106.775 245.32 106.427 245.24 106.043 245.24C105.491 245.24 105.019 245.416 104.627 245.768C104.243 246.12 104.023 246.608 103.967 247.232H108.119ZM113.893 244.304C114.693 244.304 115.341 244.548 115.837 245.036C116.333 245.516 116.581 246.212 116.581 247.124V251H115.501V247.28C115.501 246.624 115.337 246.124 115.009 245.78C114.681 245.428 114.233 245.252 113.665 245.252C113.089 245.252 112.629 245.432 112.285 245.792C111.949 246.152 111.781 246.676 111.781 247.364V251H110.689V244.424H111.781V245.36C111.997 245.024 112.289 244.764 112.657 244.58C113.033 244.396 113.445 244.304 113.893 244.304ZM124.196 244.424V251H123.104V250.028C122.896 250.364 122.604 250.628 122.228 250.82C121.86 251.004 121.452 251.096 121.004 251.096C120.492 251.096 120.032 250.992 119.624 250.784C119.216 250.568 118.892 250.248 118.652 249.824C118.42 249.4 118.304 248.884 118.304 248.276V244.424H119.384V248.132C119.384 248.78 119.548 249.28 119.876 249.632C120.204 249.976 120.652 250.148 121.22 250.148C121.804 250.148 122.264 249.968 122.6 249.608C122.936 249.248 123.104 248.724 123.104 248.036V244.424H124.196ZM132.04 247.46C132.04 247.668 132.028 247.888 132.004 248.12H126.748C126.788 248.768 127.008 249.276 127.408 249.644C127.816 250.004 128.308 250.184 128.884 250.184C129.356 250.184 129.748 250.076 130.06 249.86C130.38 249.636 130.604 249.34 130.732 248.972H131.908C131.732 249.604 131.38 250.12 130.852 250.52C130.324 250.912 129.668 251.108 128.884 251.108C128.26 251.108 127.7 250.968 127.204 250.688C126.716 250.408 126.332 250.012 126.052 249.5C125.772 248.98 125.632 248.38 125.632 247.7C125.632 247.02 125.768 246.424 126.04 245.912C126.312 245.4 126.692 245.008 127.18 244.736C127.676 244.456 128.244 244.316 128.884 244.316C129.508 244.316 130.06 244.452 130.54 244.724C131.02 244.996 131.388 245.372 131.644 245.852C131.908 246.324 132.04 246.86 132.04 247.46ZM130.912 247.232C130.912 246.816 130.82 246.46 130.636 246.164C130.452 245.86 130.2 245.632 129.88 245.48C129.568 245.32 129.22 245.24 128.836 245.24C128.284 245.24 127.812 245.416 127.42 245.768C127.036 246.12 126.816 246.608 126.76 247.232H130.912ZM139.393 244.316C139.961 244.316 140.457 244.44 140.881 244.688C141.313 244.936 141.633 245.248 141.841 245.624V244.424H142.945V251.144C142.945 251.744 142.817 252.276 142.561 252.74C142.305 253.212 141.937 253.58 141.457 253.844C140.985 254.108 140.433 254.24 139.801 254.24C138.937 254.24 138.217 254.036 137.641 253.628C137.065 253.22 136.725 252.664 136.621 251.96H137.701C137.821 252.36 138.069 252.68 138.445 252.92C138.821 253.168 139.273 253.292 139.801 253.292C140.401 253.292 140.889 253.104 141.265 252.728C141.649 252.352 141.841 251.824 141.841 251.144V249.764C141.625 250.148 141.305 250.468 140.881 250.724C140.457 250.98 139.961 251.108 139.393 251.108C138.809 251.108 138.277 250.964 137.797 250.676C137.325 250.388 136.953 249.984 136.681 249.464C136.409 248.944 136.273 248.352 136.273 247.688C136.273 247.016 136.409 246.428 136.681 245.924C136.953 245.412 137.325 245.016 137.797 244.736C138.277 244.456 138.809 244.316 139.393 244.316ZM141.841 247.7C141.841 247.204 141.741 246.772 141.541 246.404C141.341 246.036 141.069 245.756 140.725 245.564C140.389 245.364 140.017 245.264 139.609 245.264C139.201 245.264 138.829 245.36 138.493 245.552C138.157 245.744 137.889 246.024 137.689 246.392C137.489 246.76 137.389 247.192 137.389 247.688C137.389 248.192 137.489 248.632 137.689 249.008C137.889 249.376 138.157 249.66 138.493 249.86C138.829 250.052 139.201 250.148 139.609 250.148C140.017 250.148 140.389 250.052 140.725 249.86C141.069 249.66 141.341 249.376 141.541 249.008C141.741 248.632 141.841 248.196 141.841 247.7ZM145.882 245.492C146.074 245.116 146.346 244.824 146.698 244.616C147.058 244.408 147.494 244.304 148.006 244.304V245.432H147.718C146.494 245.432 145.882 246.096 145.882 247.424V251H144.79V244.424H145.882V245.492ZM152.135 251.108C151.519 251.108 150.959 250.968 150.455 250.688C149.959 250.408 149.567 250.012 149.279 249.5C148.999 248.98 148.859 248.38 148.859 247.7C148.859 247.028 149.003 246.436 149.291 245.924C149.587 245.404 149.987 245.008 150.491 244.736C150.995 244.456 151.559 244.316 152.183 244.316C152.807 244.316 153.371 244.456 153.875 244.736C154.379 245.008 154.775 245.4 155.063 245.912C155.359 246.424 155.507 247.02 155.507 247.7C155.507 248.38 155.355 248.98 155.051 249.5C154.755 250.012 154.351 250.408 153.839 250.688C153.327 250.968 152.759 251.108 152.135 251.108ZM152.135 250.148C152.527 250.148 152.895 250.056 153.239 249.872C153.583 249.688 153.859 249.412 154.067 249.044C154.283 248.676 154.391 248.228 154.391 247.7C154.391 247.172 154.287 246.724 154.079 246.356C153.871 245.988 153.599 245.716 153.263 245.54C152.927 245.356 152.563 245.264 152.171 245.264C151.771 245.264 151.403 245.356 151.067 245.54C150.739 245.716 150.475 245.988 150.275 246.356C150.075 246.724 149.975 247.172 149.975 247.7C149.975 248.236 150.071 248.688 150.263 249.056C150.463 249.424 150.727 249.7 151.055 249.884C151.383 250.06 151.743 250.148 152.135 250.148ZM165.703 244.424L163.651 251H162.523L160.939 245.78L159.355 251H158.227L156.163 244.424H157.279L158.791 249.944L160.423 244.424H161.539L163.135 249.956L164.623 244.424H165.703ZM168.118 245.324V249.2C168.118 249.52 168.186 249.748 168.322 249.884C168.458 250.012 168.694 250.076 169.03 250.076H169.834V251H168.85C168.242 251 167.786 250.86 167.482 250.58C167.178 250.3 167.026 249.84 167.026 249.2V245.324H166.174V244.424H167.026V242.768H168.118V244.424H169.834V245.324H168.118ZM174.421 244.304C174.917 244.304 175.365 244.412 175.765 244.628C176.165 244.836 176.477 245.152 176.701 245.576C176.933 246 177.049 246.516 177.049 247.124V251H175.969V247.28C175.969 246.624 175.805 246.124 175.477 245.78C175.149 245.428 174.701 245.252 174.133 245.252C173.557 245.252 173.097 245.432 172.753 245.792C172.417 246.152 172.249 246.676 172.249 247.364V251H171.157V242.12H172.249V245.36C172.465 245.024 172.761 244.764 173.137 244.58C173.521 244.396 173.949 244.304 174.421 244.304Z" fill="#1E2E4A"/>
<rect x="66.3818" y="227" width="8" height="8" fill="#1717DD"/>
<rect x="66.3818" y="243" width="8" height="8" fill="#289CD7"/>
<g clip-path="url(#clip0_782_27878)">
<path d="M27.0483 74.6537L27.0483 89.3337C27.0483 90.067 27.6483 90.667 28.3816 90.667C29.1149 90.667 29.7149 90.067 29.7149 89.3337L29.7149 74.6537L32.1016 74.6537C32.7016 74.6537 32.9949 73.9337 32.5683 73.5203L28.8483 69.8137C28.5816 69.5603 28.1683 69.5603 27.9016 69.8137L24.1816 73.5203C23.7549 73.9337 24.0616 74.6537 24.6483 74.6537L27.0483 74.6537V74.6537Z" fill="#1D2F4A"/>
</g>
<line x1="64.3818" y1="147.75" x2="207.382" y2="147.75" stroke="#C4C4C4" stroke-width="0.5"/>
<line x1="64.3818" y1="105.75" x2="207.382" y2="105.75" stroke="#C4C4C4" stroke-width="0.5"/>
<line x1="64.3818" y1="126.75" x2="207.382" y2="126.75" stroke="#C4C4C4" stroke-width="0.5"/>
<line x1="64.3818" y1="84.75" x2="207.382" y2="84.75" stroke="#C4C4C4" stroke-width="0.5"/>
<line x1="64.3818" y1="63.75" x2="207.382" y2="63.75" stroke="#C4C4C4" stroke-width="0.5"/>
<line x1="64.3818" y1="42.75" x2="207.382" y2="42.75" stroke="#C4C4C4" stroke-width="0.5"/>
<rect x="64.3818" y="106" width="64" height="42" fill="#1717DD"/>
<rect x="143.382" y="64" width="64" height="84" fill="#1717DD"/>
<rect x="64.3818" y="106" width="64" height="16" fill="#289CD7"/>
<rect x="143.382" y="64" width="64" height="42" fill="#289CD7"/>
<defs>
<clipPath id="clip0_782_27878">
<rect width="31" height="32" fill="white" transform="translate(12.3818 95) rotate(-90)"/>
</clipPath>
</defs>
</svg>
