<svg width="523" height="523" viewBox="0 0 523 523" fill="none" xmlns="http://www.w3.org/2000/svg">
<path d="M69.7371 415.461H162.036L162.036 287.734H69.7371L69.7371 415.461Z" fill="#EBEBEB"/>
<path d="M65.2704 287.734H166.513V282.995H65.2704V287.734Z" fill="#DBDBDB"/>
<path d="M33.4303 287.734H65.2705V282.995H33.4303V287.734Z" fill="#EBEBEB"/>
<path d="M38.4719 415.461H69.7473L69.7473 287.734H38.4719L38.4719 415.461Z" fill="#DBDBDB"/>
<path d="M152.12 346.854H79.6633V305.892H152.12V346.854ZM79.9457 346.592H151.879V306.154H79.9248L79.9457 346.592Z" fill="#C7C7C7"/>
<path d="M111.901 325.975H126.001V317.869H111.901V325.975Z" fill="#C7C7C7"/>
<path d="M121.964 325.494H107.602V318.35H121.964V325.494ZM107.864 325.233H121.702V318.612H107.864V325.233Z" fill="#C7C7C7"/>
<path d="M152.12 398.285H79.6633V357.313H152.12V398.285ZM79.9457 398.024H151.879V357.575H79.9248L79.9457 398.024Z" fill="#C7C7C7"/>
<path d="M111.901 377.397H126.001V369.29H111.901V377.397Z" fill="#C7C7C7"/>
<path d="M121.964 376.916H107.602V369.782H121.964V376.916ZM107.864 376.654H121.702V370.043H107.864V376.654Z" fill="#C7C7C7"/>
<path d="M108.316 112.038C124.153 108.346 134 92.5151 130.309 76.6776C126.617 60.8401 110.786 50.9937 94.9485 54.685C79.111 58.3764 69.2646 74.2076 72.956 90.0451C76.6473 105.883 92.4785 115.729 108.316 112.038Z" fill="#EBEBEB"/>
<path d="M122.845 103.881C133.817 92.9095 133.817 75.1203 122.845 64.1483C111.873 53.1763 94.0837 53.1763 83.1117 64.1483C72.1397 75.1203 72.1397 92.9095 83.1117 103.881C94.0837 114.853 111.873 114.853 122.845 103.881Z" fill="#DBDBDB"/>
<path d="M116.208 106.266C128.567 98.7046 132.457 82.556 124.896 70.1966C117.335 57.8372 101.186 53.9474 88.8269 61.5084C76.4675 69.0694 72.5777 85.2181 80.1387 97.5775C87.6997 109.937 103.848 113.827 116.208 106.266Z" fill="white"/>
<path opacity="0.5" d="M128.71 78.45C116.723 85.7092 97.0166 97.6231 86.0022 104.161C82.894 101.532 80.4348 98.2205 78.8162 94.4851L115.227 60.668C118.639 62.4648 121.615 64.9886 123.944 68.0611C126.274 71.1336 127.901 74.68 128.71 78.45Z" fill="#EBEBEB"/>
<path opacity="0.5" d="M129.286 84.9352C129.185 87.8605 128.599 90.7486 127.549 93.481L94.7153 109.014C93.2733 108.54 91.8737 107.945 90.5312 107.236C100.479 101.462 118.606 91.0752 129.286 84.9352Z" fill="#EBEBEB"/>
<path d="M103.24 59.6011H102.728V63.5863H103.24V59.6011Z" fill="#C7C7C7"/>
<path d="M90.9998 62.7303L90.5559 62.9866L92.5485 66.4379L92.9924 66.1816L90.9998 62.7303Z" fill="#C7C7C7"/>
<path d="M81.966 71.5691L81.7097 72.0129L85.1611 74.0056L85.4173 73.5617L81.966 71.5691Z" fill="#C7C7C7"/>
<path d="M82.5504 83.7532H78.5652V84.2657H82.5504V83.7532Z" fill="#C7C7C7"/>
<path d="M85.1587 94.0052L81.7078 95.9984L81.9641 96.4422L85.4151 94.449L85.1587 94.0052Z" fill="#C7C7C7"/>
<path d="M92.5449 101.565L90.5547 105.018L90.9987 105.274L92.989 101.821L92.5449 101.565Z" fill="#C7C7C7"/>
<path d="M103.24 104.433H102.728V108.418H103.24V104.433Z" fill="#C7C7C7"/>
<path d="M113.415 101.57L112.971 101.827L114.963 105.278L115.407 105.022L113.415 101.57Z" fill="#C7C7C7"/>
<path d="M120.801 94.013L120.545 94.4568L123.996 96.45L124.252 96.0062L120.801 94.013Z" fill="#C7C7C7"/>
<path d="M127.392 83.7532H123.407V84.2657H127.392V83.7532Z" fill="#C7C7C7"/>
<path d="M123.992 71.5971L120.541 73.5903L120.797 74.0342L124.248 72.0409L123.992 71.5971Z" fill="#C7C7C7"/>
<path d="M114.955 62.7376L112.965 66.1899L113.409 66.446L115.399 62.9936L114.955 62.7376Z" fill="#C7C7C7"/>
<path d="M103.366 61.4001L104.223 85.7929L101.734 85.7615L102.686 61.4001H103.366Z" fill="#C7C7C7"/>
<path d="M118.554 75.5108L102.142 85.9812L100.949 83.7846L118.229 74.9146L118.554 75.5108Z" fill="#A6A6A6"/>
<path d="M103.826 84.0147C103.826 84.2394 103.737 84.4549 103.578 84.6138C103.419 84.7727 103.203 84.862 102.979 84.862C102.754 84.862 102.538 84.7727 102.38 84.6138C102.221 84.4549 102.131 84.2394 102.131 84.0147C102.131 83.79 102.221 83.5745 102.38 83.4156C102.538 83.2567 102.754 83.1675 102.979 83.1675C103.203 83.1675 103.419 83.2567 103.578 83.4156C103.737 83.5745 103.826 83.79 103.826 84.0147Z" fill="#C7C7C7"/>
<path d="M428.326 114.704L436.349 119.683L437.866 117.225C438.087 116.877 438.398 116.596 438.767 116.412C439.135 116.228 439.547 116.147 439.958 116.179C440.427 116.223 440.899 116.24 441.37 116.232C441.785 116.218 442.196 116.321 442.556 116.528C442.916 116.735 443.212 117.038 443.41 117.403L444.77 119.945L453.085 115.478L451.725 112.937C451.532 112.57 451.443 112.158 451.469 111.744C451.495 111.331 451.634 110.933 451.872 110.594C452.145 110.209 452.393 109.807 452.615 109.391C452.814 109.026 453.109 108.723 453.469 108.514C453.829 108.306 454.239 108.2 454.654 108.209L457.541 108.303L457.834 98.8888L455.01 98.7842C454.594 98.7684 454.19 98.6366 453.844 98.4038C453.499 98.1709 453.225 97.8462 453.054 97.4663C452.96 97.2571 452.855 97.0583 452.74 96.8491C452.625 96.6399 452.52 96.4412 452.405 96.2424C452.188 95.8904 452.073 95.4848 452.073 95.0709C452.073 94.6571 452.188 94.2514 452.405 93.8994L453.933 91.4308L445.92 86.4519L444.32 88.91C444.101 89.2594 443.789 89.5418 443.42 89.7263C443.052 89.9108 442.639 89.9903 442.228 89.956C441.761 89.9301 441.293 89.9301 440.826 89.956C440.411 89.9704 440 89.8684 439.639 89.6613C439.279 89.4543 438.983 89.1506 438.786 88.7845L437.427 86.2427L429.059 90.7091L430.429 93.2509C430.624 93.6173 430.712 94.0308 430.684 94.4447C430.657 94.8587 430.514 95.2567 430.272 95.5939C430.011 95.9809 429.759 96.3784 429.54 96.7864C429.343 97.1536 429.049 97.4588 428.688 97.6676C428.328 97.8764 427.916 97.9806 427.5 97.9683L424.676 97.8324L424.383 107.246L427.27 107.33C427.685 107.348 428.086 107.48 428.43 107.713C428.773 107.946 429.045 108.27 429.216 108.648C429.32 108.857 429.425 109.066 429.54 109.265C429.655 109.464 429.759 109.673 429.875 109.872C430.092 110.226 430.207 110.633 430.207 111.049C430.207 111.464 430.092 111.871 429.875 112.225L428.326 114.704ZM434.289 106.723C433.562 105.377 433.251 103.846 433.395 102.323C433.539 100.801 434.132 99.355 435.098 98.1692C436.064 96.9834 437.36 96.1109 438.822 95.662C440.285 95.2132 441.847 95.2082 443.312 95.6477C444.777 96.0872 446.079 96.9514 447.052 98.131C448.026 99.3106 448.628 100.753 448.782 102.274C448.935 103.796 448.634 105.329 447.916 106.68C447.199 108.03 446.096 109.138 444.749 109.861C443.854 110.341 442.873 110.64 441.863 110.74C440.853 110.841 439.833 110.741 438.861 110.447C437.89 110.152 436.986 109.669 436.201 109.025C435.416 108.38 434.767 107.588 434.289 106.692V106.723Z" fill="#EBEBEB"/>
<path d="M456.6 73.2827L459.905 79.0148L461.652 77.9688C461.905 77.8228 462.194 77.7503 462.486 77.7596C462.778 77.7688 463.061 77.8594 463.305 78.0211C463.577 78.2011 463.86 78.3652 464.152 78.5127C464.414 78.6423 464.634 78.8419 464.789 79.0893C464.945 79.3367 465.028 79.6223 465.031 79.9143V81.9331H471.641V79.9457C471.642 79.6545 471.723 79.3692 471.877 79.1217C472.03 78.8741 472.249 78.6741 472.51 78.5441C472.802 78.3976 473.085 78.2303 473.367 78.0525C473.608 77.8905 473.89 77.7997 474.181 77.7905C474.471 77.7812 474.758 77.8539 475.009 78.0002L476.767 79.0462L480.114 73.2827L478.346 72.2367C478.096 72.0894 477.892 71.8753 477.757 71.6185C477.622 71.3616 477.562 71.0722 477.583 70.7828C477.583 70.6154 477.583 70.4585 477.583 70.2911C477.583 70.1238 477.583 69.9669 477.583 69.81C477.562 69.5206 477.622 69.2311 477.757 68.9743C477.892 68.7174 478.096 68.5033 478.346 68.356L480.114 67.31L476.809 61.5884L475.051 62.6344C474.797 62.7766 474.508 62.8459 474.216 62.8348C473.925 62.8238 473.642 62.7327 473.399 62.5717C473.126 62.3916 472.843 62.2275 472.551 62.08C472.281 61.9551 472.053 61.7561 471.891 61.506C471.73 61.256 471.644 60.9654 471.641 60.6679V58.6805H465.031V60.6679C465.027 60.9571 464.944 61.2397 464.791 61.485C464.638 61.7303 464.421 61.9289 464.162 62.0591C463.867 62.2065 463.581 62.3707 463.305 62.5507C463.063 62.7109 462.782 62.8015 462.492 62.8125C462.203 62.8236 461.916 62.7547 461.662 62.6135L459.905 61.5675L456.6 67.2891L458.357 68.3351C458.606 68.4842 458.808 68.6986 458.943 68.955C459.077 69.2115 459.139 69.5 459.121 69.7891C459.121 69.9564 459.121 70.1133 459.121 70.2807C459.121 70.448 459.121 70.6049 459.121 70.7723C459.142 71.0629 459.08 71.3536 458.943 71.6108C458.806 71.868 458.599 72.0813 458.347 72.2262L456.6 73.2827ZM462.876 70.3225C462.876 69.2504 463.194 68.2025 463.79 67.3112C464.386 66.42 465.232 65.7255 466.223 65.3157C467.214 64.9059 468.304 64.7992 469.355 65.0091C470.406 65.219 471.372 65.7361 472.129 66.4949C472.887 67.2537 473.402 68.2202 473.61 69.2719C473.817 70.3236 473.709 71.4134 473.297 72.4033C472.885 73.3931 472.189 74.2386 471.297 74.8327C470.404 75.4269 469.356 75.7429 468.284 75.7408C466.855 75.7298 465.489 75.1537 464.483 74.1385C463.478 73.1232 462.915 71.7514 462.918 70.3225H462.876Z" fill="#EBEBEB"/>
<path d="M54.4756 199.556L57.7809 205.278L59.5382 204.232C59.7902 204.087 60.0779 204.016 60.3683 204.027C60.6588 204.038 60.9402 204.131 61.1804 204.294C61.4629 204.472 61.7453 204.629 62.0382 204.786C62.2971 204.915 62.5152 205.114 62.6685 205.359C62.8217 205.605 62.904 205.888 62.9063 206.177V208.206H69.5275V206.177C69.5299 205.888 69.6122 205.605 69.7654 205.359C69.9186 205.114 70.1368 204.915 70.3957 204.786C70.6886 204.629 70.971 204.472 71.2534 204.294C71.4937 204.131 71.7751 204.038 72.0655 204.027C72.3559 204.016 72.6436 204.087 72.8956 204.232L74.6529 205.278L77.9478 199.556L76.1905 198.51C75.9413 198.359 75.7384 198.143 75.6037 197.885C75.469 197.626 75.4079 197.336 75.427 197.046C75.427 196.889 75.427 196.721 75.427 196.564C75.427 196.407 75.427 196.24 75.427 196.073C75.4087 195.784 75.4703 195.495 75.6049 195.239C75.7396 194.982 75.9422 194.768 76.1905 194.619L77.9478 193.573L74.6529 187.841L72.8956 188.887C72.6426 189.033 72.3538 189.105 72.0619 189.096C71.7699 189.087 71.4863 188.996 71.243 188.834C70.9702 188.654 70.6873 188.49 70.3957 188.343C70.1352 188.213 69.916 188.013 69.7627 187.765C69.6093 187.518 69.5279 187.232 69.5275 186.941V184.922H62.9063V186.941C62.9059 187.232 62.8245 187.518 62.6712 187.765C62.5179 188.013 62.2987 188.213 62.0382 188.343C61.7465 188.49 61.4636 188.654 61.1909 188.834C60.9476 188.996 60.664 189.087 60.372 189.096C60.08 189.105 59.7913 189.033 59.5382 188.887L57.7809 187.841L54.4756 193.573L56.2433 194.619C56.4933 194.766 56.6972 194.98 56.8322 195.237C56.9671 195.494 57.0276 195.783 57.0069 196.073C57.0069 196.23 57.0069 196.397 57.0069 196.564C57.0069 196.732 57.0069 196.889 57.0069 197.046C57.0261 197.337 56.9639 197.629 56.8272 197.887C56.6906 198.146 56.4848 198.361 56.2329 198.51L54.4756 199.556ZM60.8039 196.648C60.8039 195.576 61.1219 194.528 61.7178 193.637C62.3136 192.745 63.1604 192.051 64.1511 191.641C65.1418 191.231 66.2317 191.125 67.2831 191.335C68.3344 191.545 69.2998 192.062 70.0572 192.82C70.8145 193.579 71.3297 194.546 71.5376 195.597C71.7455 196.649 71.6367 197.739 71.225 198.729C70.8133 199.719 70.1172 200.564 69.2248 201.158C68.3324 201.752 67.2838 202.068 66.2117 202.066C65.5007 202.066 64.7966 201.926 64.1398 201.654C63.483 201.381 62.8864 200.982 62.3841 200.479C61.8818 199.975 61.4837 199.378 61.2125 198.721C60.9414 198.063 60.8025 197.359 60.8039 196.648Z" fill="#EBEBEB"/>
<path d="M30.7837 415.45L88.4601 415.199L146.147 415.105L261.5 414.938L376.863 415.105L434.54 415.199L492.216 415.45L434.54 415.712L376.863 415.806L261.5 415.973L146.147 415.795L88.4601 415.712L30.7837 415.45Z" fill="#263238"/>
<path d="M184.744 487.917C257.094 487.917 315.745 480.846 315.745 472.123C315.745 463.399 257.094 456.328 184.744 456.328C112.395 456.328 53.7434 463.399 53.7434 472.123C53.7434 480.846 112.395 487.917 184.744 487.917Z" fill="#EBEBEB"/>
<path d="M270.077 458.179C346.864 458.179 409.111 451.108 409.111 442.385C409.111 433.662 346.864 426.59 270.077 426.59C193.291 426.59 131.043 433.662 131.043 442.385C131.043 451.108 193.291 458.179 270.077 458.179Z" fill="#EBEBEB"/>
<path d="M448.493 268.969C448.493 268.969 427.939 266.082 432.74 241.26C432.74 241.26 455.721 246.417 448.493 268.969Z" fill="#1717DD"/>
<path opacity="0.1" d="M448.493 268.969C448.493 268.969 427.939 266.082 432.74 241.26C432.74 241.26 455.721 246.417 448.493 268.969Z" fill="black"/>
<path d="M447.458 263.78C447.054 262.526 446.586 261.294 446.056 260.088C446.056 259.921 446.056 259.764 446.004 259.617C446.004 259.272 445.951 258.927 445.92 258.571C445.868 257.829 445.815 257.086 445.774 256.343C445.69 254.858 445.585 253.383 445.564 251.898C445.564 251.881 445.558 251.865 445.546 251.853C445.534 251.842 445.518 251.835 445.502 251.835C445.485 251.835 445.469 251.842 445.457 251.853C445.445 251.865 445.439 251.881 445.439 251.898C445.439 253.383 445.439 254.868 445.439 256.354C445.439 257.1 445.481 257.843 445.564 258.582V259.073C444.412 256.601 443.033 254.24 441.443 252.023C440.744 251.033 439.993 250.08 439.194 249.168C438.378 248.226 437.51 247.337 436.684 246.406C436.684 246.354 436.537 246.406 436.6 246.5C438.072 248.122 439.395 249.873 440.554 251.73C441.182 252.672 441.767 253.645 442.332 254.628L442.144 254.555L441.412 254.262L439.728 253.624L436.422 252.389C436.36 252.389 436.307 252.484 436.422 252.505C437.468 252.944 438.598 253.404 439.675 253.875L441.265 254.555L442.071 254.889C442.244 254.972 442.427 255.035 442.615 255.078C443.033 255.82 443.441 256.573 443.818 257.337C444.774 259.257 445.613 261.235 446.328 263.257L446.485 263.686C445.944 263.374 445.381 263.102 444.801 262.87L442.709 261.898C441.265 261.239 439.832 260.569 438.452 259.806C438.378 259.806 438.326 259.879 438.389 259.921C439.801 260.695 441.192 261.511 442.573 262.274C443.284 262.661 443.995 263.038 444.717 263.383C445.317 263.742 445.97 264.003 446.652 264.157C447.337 266.04 447.786 268 447.991 269.994C448.221 272.797 448.2 275.632 448.263 278.445C448.263 278.498 448.336 278.445 448.336 278.445C448.545 275.893 448.661 273.309 448.671 270.757C448.641 268.382 448.231 266.026 447.458 263.78Z" fill="#263238"/>
<path d="M444.288 249.189C444.091 250.637 444.025 252.1 444.09 253.561H444.152C444.236 252.107 444.246 250.663 444.414 249.22C444.424 249.136 444.299 249.105 444.288 249.189Z" fill="#263238"/>
<path d="M438.41 250.433C437.492 250.082 436.609 249.644 435.774 249.126C435.701 249.126 435.638 249.199 435.711 249.241C436.533 249.795 437.432 250.225 438.378 250.517C438.378 250.517 438.462 250.454 438.41 250.433Z" fill="#263238"/>
<path d="M449.152 308.371C449.152 306.101 449.152 303.832 449.068 301.551C449.068 294.01 448.964 286.468 448.828 278.916C448.723 272.926 448.584 266.936 448.409 260.946C448.409 260.946 448.409 260.893 448.357 260.872C448.357 259.241 448.357 257.598 448.357 255.967C448.357 255.967 448.305 255.904 448.253 255.904C448.2 255.904 448.158 255.904 448.158 255.967V260.883C448.158 260.883 448.158 260.883 448.158 260.956C447.855 271.615 447.594 282.284 447.531 292.943C447.531 295.108 447.531 297.284 447.531 299.449C447.454 306.422 447.426 313.375 447.447 320.306C447.447 321.415 447.447 322.513 447.447 323.622C447.447 329.982 447.51 336.352 447.51 342.711C447.51 343.046 447.897 343.224 448.294 343.234C448.692 343.245 449.246 343.067 449.246 342.68C449.246 335.661 449.246 328.653 449.246 321.635C449.173 317.21 449.184 312.754 449.152 308.371Z" fill="#263238"/>
<path d="M440.564 301.468C440.564 301.468 430.68 294.146 421.287 299.093C411.894 304.041 410.429 323.151 410.429 323.151C410.429 323.151 424.215 325.118 432.897 316.875C441.265 308.884 440.564 301.468 440.564 301.468Z" fill="#1717DD"/>
<path d="M443.263 301.918C441.443 301.201 439.474 300.946 437.531 301.175C437.131 301.099 436.725 301.061 436.318 301.06L434.927 300.955C433.964 300.872 433.002 300.819 432.04 300.746C430.094 300.6 428.138 300.485 426.192 300.286C426.119 300.286 426.109 300.401 426.192 300.411C428.128 300.652 430.042 300.934 431.977 301.123C433.023 301.227 433.964 301.332 434.958 301.395L435.68 301.468C435.387 301.541 435.094 301.604 434.801 301.687C433.25 302.138 431.749 302.748 430.324 303.507C429.54 303.654 428.776 303.863 428.002 304.051C426.778 304.334 425.565 304.648 424.351 304.972C421.946 305.599 419.571 306.311 417.186 307.001C417.113 307.001 417.186 307.137 417.186 307.116C419.561 306.541 421.956 305.997 424.341 305.432C425.502 305.16 426.663 304.888 427.824 304.595L428.734 304.386C426.074 306.03 423.7 308.097 421.705 310.505C419.772 312.867 418.128 315.451 416.81 318.204C416.81 318.277 416.883 318.35 416.925 318.277C418.545 315.441 420.532 312.832 422.835 310.516C422.835 310.641 422.741 310.777 422.699 310.913C422.521 311.488 422.333 312.074 422.155 312.66C421.789 313.821 421.412 314.982 421.109 316.154C421.109 316.237 421.203 316.258 421.234 316.154C421.653 315.024 422.04 313.894 422.448 312.754C422.636 312.2 422.835 311.645 423.033 311.08C423.128 310.798 423.232 310.505 423.326 310.212L423.421 309.951C424.523 308.875 425.697 307.876 426.935 306.959C428.561 305.764 430.315 304.753 432.165 303.947L432.071 304.459C431.977 304.909 431.872 305.359 431.778 305.809C431.59 306.75 431.402 307.681 431.224 308.622C430.847 310.537 430.617 312.472 430.261 314.386C430.261 314.47 430.366 314.501 430.376 314.386C430.826 312.461 431.422 310.568 431.82 308.643C432.04 307.681 432.259 306.708 432.458 305.746C432.552 305.296 432.636 304.836 432.73 304.386C432.791 304.138 432.836 303.887 432.866 303.633C433.054 303.56 433.222 303.476 433.41 303.413C436.001 302.298 438.846 301.907 441.642 302.284C442.949 302.528 444.176 303.092 445.215 303.924C446.253 304.756 447.07 305.831 447.594 307.053C447.677 307.263 448.022 307.137 447.97 306.917C447.628 305.775 447.025 304.729 446.208 303.861C445.391 302.993 444.382 302.328 443.263 301.918Z" fill="#263238"/>
<path d="M428.127 310.076C427.845 311.321 427.563 312.576 427.291 313.831C426.972 315.033 426.741 316.257 426.6 317.492C426.6 317.492 426.663 317.492 426.674 317.492C427.041 316.286 427.324 315.056 427.521 313.811L428.243 310.097C428.263 310.024 428.138 309.993 428.127 310.076Z" fill="#263238"/>
<path d="M418.557 313.256C417.301 313.894 416.078 314.626 414.76 315.149C414.749 315.15 414.74 315.154 414.731 315.159C414.723 315.165 414.716 315.173 414.711 315.181C414.706 315.19 414.703 315.2 414.703 315.211C414.702 315.221 414.705 315.231 414.709 315.24C414.714 315.249 414.721 315.257 414.729 315.263C414.737 315.269 414.747 315.273 414.757 315.274C414.767 315.275 414.777 315.274 414.787 315.271C414.797 315.267 414.805 315.262 414.812 315.254C416.104 314.672 417.364 314.023 418.588 313.308C418.588 313.308 418.588 313.246 418.557 313.256Z" fill="#263238"/>
<path d="M442.792 288.016C442.792 288.016 430.701 288.78 425.084 280.809C419.467 272.839 420.722 261.458 420.722 261.458C420.722 261.458 433.42 263.006 438.504 268.78C443.587 274.554 442.792 288.016 442.792 288.016Z" fill="#1717DD"/>
<path d="M448.462 299.941C448.043 298.644 447.531 297.367 447.039 296.102C446.548 294.836 446.066 293.675 445.533 292.472C444.453 290.039 443.244 287.665 441.914 285.359C441.056 283.884 440.146 282.462 439.205 281.05C439.205 280.841 439.142 280.631 439.111 280.412C439.079 280.192 438.995 279.659 438.943 279.293C438.818 278.529 438.682 277.765 438.556 277.002C438.284 275.328 437.939 273.665 437.667 272.002C437.667 271.918 437.531 271.918 437.542 272.002C437.793 273.655 437.949 275.307 438.19 276.96C438.295 277.776 438.41 278.581 438.525 279.397C438.577 279.69 438.619 279.983 438.671 280.265C436.821 277.574 434.823 274.986 432.688 272.514L431.809 271.531C431.809 271.437 431.726 271.343 431.694 271.249C431.663 271.155 431.517 270.789 431.433 270.558C431.255 270.077 431.077 269.596 430.91 269.115C430.565 268.174 430.261 267.211 430.01 266.238C430.01 266.165 429.864 266.238 429.885 266.238C430.125 267.284 430.387 268.215 430.68 269.199C430.816 269.669 430.973 270.14 431.14 270.6L431.224 270.841C429.676 269.157 428.086 267.525 426.443 265.925C426.431 265.912 426.414 265.905 426.396 265.905C426.379 265.905 426.362 265.912 426.349 265.925C426.337 265.937 426.33 265.954 426.33 265.972C426.33 265.989 426.337 266.006 426.349 266.019C429.475 269.275 432.34 272.773 434.916 276.479C434.623 276.385 434.32 276.311 434.027 276.249C433.096 276.071 432.155 275.935 431.213 275.82C429.247 275.569 427.28 275.318 425.324 275.014C425.241 275.014 425.209 275.119 425.324 275.129C427.197 275.506 429.048 275.924 430.91 276.353C431.789 276.552 432.667 276.719 433.556 276.897C434.266 277.054 434.965 277.257 435.648 277.504C435.837 277.786 436.046 278.058 436.234 278.341C437.123 279.627 437.97 280.945 438.807 282.274L437.573 282.033C436.642 281.855 435.701 281.688 434.759 281.531C432.918 281.228 431.077 280.903 429.257 280.485C429.248 280.481 429.237 280.479 429.227 280.48C429.216 280.481 429.206 280.484 429.198 280.49C429.189 280.496 429.182 280.503 429.177 280.513C429.172 280.522 429.169 280.532 429.169 280.542C429.169 280.553 429.172 280.563 429.177 280.572C429.182 280.581 429.189 280.589 429.198 280.595C429.206 280.601 429.216 280.604 429.227 280.605C429.237 280.606 429.248 280.604 429.257 280.6C431.098 281.039 432.939 281.541 434.77 282.033C435.659 282.263 436.548 282.483 437.437 282.682L438.786 282.974C438.975 282.974 439.163 283.058 439.33 283.069C441.098 285.924 442.751 288.863 444.288 291.845C444.986 293.162 445.634 294.491 446.234 295.83C446.882 297.2 447.437 298.602 448.033 300.014C448.117 300.359 448.566 300.202 448.462 299.941Z" fill="#263238"/>
<path d="M436.088 272.159C435.857 271.008 435.617 269.858 435.366 268.707C435.366 268.623 435.23 268.707 435.24 268.707C435.47 269.837 435.69 270.966 435.899 272.106C436.068 273.247 436.295 274.378 436.579 275.496C436.497 274.373 436.333 273.258 436.088 272.159Z" fill="#263238"/>
<path d="M429.037 271.824C428.483 271.542 427.887 271.322 427.301 271.092L426.391 270.736L425.92 270.548C425.741 270.493 425.568 270.416 425.408 270.318C425.314 270.255 425.261 270.412 425.356 270.422C425.534 270.476 425.706 270.55 425.868 270.642L426.328 270.841L427.207 271.238C427.789 271.507 428.386 271.741 428.996 271.939C429.069 271.96 429.111 271.855 429.037 271.824Z" fill="#263238"/>
<path d="M455.167 278.508C455.167 278.508 462.489 264.847 473.607 262.724C484.726 260.601 491.546 272.065 491.546 272.065C491.546 272.065 483.429 282.431 473.22 284.24C463.012 286.05 455.167 278.508 455.167 278.508Z" fill="#1717DD"/>
<path d="M481.066 268.822C478.168 268.428 475.229 268.463 472.342 268.927L472.834 268.655L475.302 267.389C477.018 266.5 478.743 265.548 480.532 264.837C480.542 264.841 480.552 264.843 480.562 264.842C480.573 264.841 480.583 264.838 480.592 264.832C480.6 264.826 480.607 264.818 480.612 264.809C480.617 264.8 480.62 264.79 480.62 264.779C480.62 264.769 480.617 264.759 480.612 264.749C480.607 264.74 480.6 264.733 480.592 264.727C480.583 264.721 480.573 264.718 480.562 264.717C480.552 264.716 480.542 264.718 480.532 264.722C478.796 265.527 476.986 266.207 475.239 267.013C474.361 267.41 473.503 267.828 472.656 268.289C472.112 268.571 471.505 268.853 470.961 269.199C468.516 269.69 466.141 270.48 463.89 271.552C464.35 271.04 464.821 270.506 465.281 270.035C466.327 268.895 467.373 267.703 468.472 266.667C468.534 266.615 468.472 266.531 468.388 266.584C467.216 267.63 465.993 268.623 464.863 269.722C464.309 270.255 463.817 270.768 463.273 271.374C463.022 271.653 462.771 271.946 462.52 272.253C458.7 274.304 455.382 277.174 452.803 280.659C450.224 284.144 448.449 288.157 447.604 292.409C447.604 292.483 447.698 292.524 447.719 292.409C449.287 287.201 452.098 282.452 455.909 278.571C460 274.391 465.153 271.407 470.815 269.941C474.175 269.089 477.649 268.775 481.107 269.01C481.16 269.084 481.16 268.874 481.066 268.822Z" fill="#263238"/>
<path opacity="0.1" d="M491.557 272.065C491.557 272.065 483.43 282.431 473.221 284.24C465.428 285.621 459.016 281.552 456.411 279.554L455.857 278.634C455.857 278.634 461.087 274.188 471.087 271.625C481.086 269.063 491.557 272.065 491.557 272.065Z" fill="black"/>
<path d="M474.601 263.979C473.748 264.475 472.924 265.02 472.133 265.611C471.357 266.197 470.639 266.855 469.988 267.577C469.926 267.64 469.988 267.724 470.083 267.661C470.815 267.023 471.557 266.385 472.331 265.778C473.074 265.162 473.857 264.596 474.674 264.084C474.737 264.042 474.674 263.937 474.601 263.979Z" fill="#263238"/>
<path d="M480.71 266.291C480.302 266.469 479.873 266.615 479.465 266.782L478.231 267.295C478.137 267.295 478.179 267.483 478.231 267.441L479.476 266.939L480.71 266.416C480.825 266.385 480.783 266.259 480.71 266.291Z" fill="#263238"/>
<path d="M453.702 295.704C453.702 295.704 455.658 309.302 465.857 313.999C476.055 318.695 488.471 313.999 488.471 313.999C488.471 313.999 483.586 284.669 453.702 295.704Z" fill="#1717DD"/>
<path d="M481.452 305.181C480.511 305.076 479.57 304.92 478.639 304.752L477.268 304.491L476.557 304.344L475.731 303.581C473.789 301.876 471.688 300.363 469.455 299.062C468.246 298.352 467 297.71 465.721 297.137H465.909L469.267 297.284C471.505 297.388 473.743 297.441 475.982 297.587C476.055 297.587 476.055 297.462 475.982 297.462C473.743 297.305 471.505 297.064 469.267 296.865L466.003 296.572L464.329 296.426H463.901C463.315 296.206 462.729 296.008 462.143 295.819C459.362 294.866 456.371 294.703 453.503 295.349C450.941 295.997 448.378 297.681 447.719 300.38C447.719 300.474 447.845 300.547 447.876 300.453C448.838 298.194 451.338 297.054 453.608 296.583C455.129 296.29 456.689 296.258 458.221 296.489C458.322 297.201 458.494 297.902 458.733 298.581C459.016 299.533 459.298 300.495 459.591 301.447C460.166 303.351 460.804 305.233 461.359 307.137C461.359 307.154 461.365 307.17 461.377 307.181C461.389 307.193 461.405 307.2 461.422 307.2C461.438 307.2 461.454 307.193 461.466 307.181C461.478 307.17 461.484 307.154 461.484 307.137C461.014 305.233 460.616 303.309 460.156 301.405C459.926 300.474 459.696 299.543 459.455 298.602C459.326 297.95 459.155 297.307 458.943 296.677C459.837 296.832 460.721 297.041 461.589 297.305C463.164 297.768 464.708 298.33 466.212 298.989C466.359 299.961 466.578 300.913 466.798 301.865C467.08 303.068 467.384 304.25 467.771 305.422C467.771 305.495 467.896 305.422 467.886 305.422C467.875 305.422 467.886 305.275 467.886 305.202C467.656 304.093 467.415 302.995 467.175 301.886C466.986 300.987 466.819 300.097 466.62 299.198C467.886 299.773 469.131 300.39 470.334 301.081C470.334 301.363 470.428 301.646 470.469 301.897C470.543 302.357 470.626 302.828 470.71 303.288C470.909 304.334 471.118 305.38 471.369 306.426C471.825 308.427 472.409 310.398 473.116 312.325C473.116 312.325 473.116 312.377 473.116 312.398L473.179 312.472C473.179 312.524 473.294 312.472 473.283 312.409C472.813 310.401 472.237 308.403 471.829 306.384C471.61 305.338 471.39 304.376 471.181 303.361L470.898 301.844C470.898 301.708 470.846 301.551 470.825 301.394C474.566 303.603 477.951 306.364 480.867 309.585C480.94 309.668 481.086 309.585 481.013 309.47C480.257 308.438 479.447 307.446 478.586 306.499C478.074 305.955 477.54 305.453 476.997 304.899H477.174C477.645 304.982 478.126 305.055 478.607 305.118C479.549 305.244 480.49 305.338 481.442 305.443C481.494 305.317 481.526 305.191 481.452 305.181Z" fill="#263238"/>
<path d="M474.288 309.783L474.225 309.428C474.225 309.281 474.12 309.135 474.099 308.988C473.89 308.089 473.712 307.168 473.545 306.258C473.545 306.196 473.44 306.258 473.44 306.258C473.503 307.475 473.765 308.672 474.214 309.804H474.288V309.783Z" fill="#263238"/>
<path d="M465.752 309.616C465.752 309.616 465.752 309.564 465.689 309.553C465.407 308.361 465.135 307.158 464.884 305.945C464.758 305.317 464.622 304.679 464.497 304.041L464.309 302.995C464.284 302.689 464.21 302.388 464.089 302.106C464.084 302.095 464.076 302.085 464.066 302.078C464.056 302.072 464.044 302.068 464.031 302.068C464.019 302.068 464.007 302.072 463.997 302.078C463.987 302.085 463.979 302.095 463.974 302.106C463.968 302.722 464.056 303.336 464.235 303.926C464.361 304.585 464.486 305.244 464.633 305.903C464.926 307.242 465.274 308.57 465.679 309.888C465.679 309.961 465.825 309.951 465.815 309.888L465.752 309.616Z" fill="#263238"/>
<path d="M480.522 301.248C478.66 300.997 476.798 300.725 474.936 300.495C474.852 300.495 474.821 300.61 474.936 300.621C476.787 300.892 478.66 301.123 480.522 301.374C480.564 301.415 480.595 301.248 480.522 301.248Z" fill="#263238"/>
<path d="M448.483 263.916C448.483 263.916 442.207 236.553 471.641 225.476C471.641 225.476 479.79 261.5 448.483 263.916Z" fill="#1717DD"/>
<path d="M452.353 242.139C452.353 242.055 452.217 242.065 452.227 242.139C452.332 243.697 452.384 245.277 452.552 246.814C452.547 246.825 452.546 246.837 452.547 246.849C452.548 246.861 452.552 246.873 452.559 246.882C452.566 246.892 452.575 246.9 452.585 246.906C452.596 246.912 452.608 246.915 452.62 246.915C452.632 246.915 452.643 246.912 452.654 246.906C452.665 246.9 452.674 246.892 452.68 246.882C452.687 246.873 452.691 246.861 452.692 246.849C452.694 246.837 452.692 246.825 452.688 246.814C452.635 245.256 452.468 243.718 452.353 242.139Z" fill="#263238"/>
<path d="M466.443 247.369C464.602 248.101 462.75 248.812 460.92 249.576C460.92 249.576 460.92 249.68 460.92 249.659C462.782 248.958 464.612 248.205 466.463 247.484C466.474 247.486 466.484 247.485 466.494 247.482C466.503 247.479 466.512 247.474 466.52 247.467C466.527 247.459 466.532 247.451 466.535 247.441C466.538 247.431 466.539 247.421 466.537 247.411C466.535 247.401 466.531 247.391 466.525 247.383C466.519 247.375 466.51 247.369 466.501 247.365C466.492 247.361 466.482 247.359 466.471 247.359C466.461 247.36 466.451 247.363 466.443 247.369Z" fill="#263238"/>
<path d="M469.235 234.743C467.437 235.571 465.691 236.508 464.005 237.547C463.911 237.599 464.005 237.735 464.089 237.683C465.794 236.689 467.53 235.727 469.319 234.848C469.382 234.817 469.309 234.712 469.235 234.743Z" fill="#263238"/>
<path d="M468.796 323.089H426.391V367.784H468.796V323.089Z" fill="#37474F"/>
<path d="M425.638 338.904H423.473V415.461H425.638V338.904Z" fill="#263238"/>
<path d="M471.484 338.904H469.319V415.461H471.484V338.904Z" fill="#263238"/>
<path d="M449.717 338.904H447.552V415.461H449.717V338.904Z" fill="#263238"/>
<path d="M470.396 364.918H424.561V371.11H470.396V364.918Z" fill="#263238"/>
<path d="M295.37 382.229L300.6 441.851H148.93C148.93 441.851 164.693 322.733 164.693 321.676C164.693 320.62 123.428 284.146 129.767 206.721C137.612 110.332 207.171 69.7577 275.161 69.7577C343.151 69.7577 395.566 117.288 407.94 184.682L432.762 285.558L400.179 290.118C400.179 290.118 398.777 358.433 381.267 375.953C363.757 393.474 295.37 382.229 295.37 382.229Z" fill="#1717DD"/>
<g opacity="0.6">
<path d="M295.37 382.229L300.6 441.851H148.93C148.93 441.851 164.693 322.733 164.693 321.676C164.693 320.62 123.428 284.146 129.767 206.721C137.612 110.332 207.171 69.7577 275.161 69.7577C343.151 69.7577 395.566 117.288 407.94 184.682L432.762 285.558L400.179 290.118C400.179 290.118 398.777 358.433 381.267 375.953C363.757 393.474 295.37 382.229 295.37 382.229Z" fill="white"/>
</g>
<path d="M271.96 300.913C252.856 300.924 234.105 295.764 217.696 285.979C201.288 276.195 187.834 262.152 178.761 245.339L178.259 244.419L180.1 243.425L180.602 244.346C191.579 264.683 209.029 280.776 230.186 290.076C251.343 299.375 274.998 301.349 297.404 295.685C319.81 290.021 339.685 277.042 353.881 258.806C368.077 240.569 375.782 218.116 375.775 195.006C375.775 193.458 375.775 191.868 375.66 190.173C374.683 167.542 366.254 145.868 351.686 128.522L351.017 127.717L352.627 126.378L353.297 127.183C368.159 144.879 376.757 166.991 377.752 190.079C377.826 191.774 377.867 193.426 377.867 195.006C377.876 208.916 375.142 222.692 369.823 235.545C364.503 248.398 356.702 260.076 346.866 269.912C337.03 279.748 325.352 287.549 312.499 292.868C299.646 298.188 285.87 300.921 271.96 300.913Z" fill="#1717DD"/>
<path d="M169.452 221.804L169.201 220.758C167.824 215.263 166.89 209.667 166.408 204.022C166.157 201.062 166.031 198.018 166.031 194.995C166.032 175.837 171.23 157.039 181.07 140.601C190.91 124.164 205.025 110.703 221.91 101.653C238.796 92.6034 257.82 88.3033 276.956 89.2109C296.093 90.1185 314.624 96.1998 330.578 106.807L331.456 107.382L330.295 109.119L329.427 108.543C313.788 98.1471 295.621 92.1872 276.863 91.2985C258.104 90.4098 239.456 94.6256 222.903 103.497C206.351 112.368 192.515 125.563 182.868 141.675C173.222 157.788 168.126 176.216 168.123 194.995C168.123 197.955 168.249 200.937 168.5 203.844C168.97 209.383 169.883 214.874 171.23 220.267L171.481 221.313L169.452 221.804Z" fill="#1717DD"/>
<path d="M242.275 281.981L241.291 281.635C223.191 275.164 207.55 263.225 196.533 247.473C194.518 244.598 192.677 241.604 191.02 238.509C183.839 225.133 180.08 210.188 180.079 195.006C180.079 192.412 180.194 189.776 180.414 187.161L180.508 186.115L182.6 186.293L182.517 187.339C182.297 189.891 182.182 192.474 182.182 195.006C182.178 209.841 185.851 224.446 192.872 237.515C194.491 240.539 196.29 243.462 198.259 246.27C209.022 261.668 224.304 273.339 241.992 279.669L242.986 280.014L242.275 281.981Z" fill="#1717DD"/>
<path d="M271.96 286.886H270.914V284.794H271.96C288.436 284.806 304.596 280.274 318.664 271.699C330.017 264.752 339.7 255.388 347.021 244.272C348.704 241.731 350.25 239.102 351.655 236.396C358.33 223.623 361.794 209.417 361.749 195.006C361.746 187.06 360.691 179.15 358.611 171.481C355.277 159.021 349.266 147.437 340.996 137.539C332.935 127.862 322.928 119.99 311.625 114.434C300.322 108.878 287.976 105.763 275.391 105.29C274.868 105.29 274.345 105.29 273.864 105.29L273.759 104.244V105.29C272.42 105.29 271.05 105.29 269.711 105.29H268.665C268.111 105.29 267.619 105.29 267.096 105.353C266.385 105.353 265.694 105.426 265.004 105.489H264.471C263.937 105.489 263.425 105.573 262.954 105.636H262.724L261.678 105.74L260.632 105.876C259.931 105.97 259.324 106.044 258.728 106.138L258.142 106.232C257.546 106.315 257.023 106.399 256.49 106.504C255.444 106.671 254.481 106.87 253.508 107.079C252.368 107.309 251.228 107.571 250.109 107.853C245.052 109.12 240.116 110.832 235.36 112.968C223.642 118.23 213.186 125.938 204.693 135.576C196.201 145.214 189.87 156.558 186.125 168.845L185.822 169.891L183.813 169.285L184.117 168.291C188.715 153.118 197.163 139.395 208.64 128.457C220.117 117.519 234.231 109.74 249.607 105.876C250.747 105.583 251.908 105.322 253.08 105.081C254.126 104.872 255.098 104.663 256.123 104.495C256.646 104.391 257.169 104.307 257.776 104.223L258.362 104.129C259.031 104.025 259.648 103.941 260.266 103.868L261.469 103.711L262.389 103.627C262.518 103.612 262.647 103.612 262.776 103.627C263.289 103.564 263.822 103.523 264.293 103.481H264.868C265.558 103.418 266.27 103.376 266.96 103.334C267.493 103.334 268.006 103.334 268.571 103.272H269.617C270.987 103.272 272.389 103.272 273.801 103.272H273.926C274.46 103.272 274.972 103.272 275.516 103.272C288.392 103.758 301.02 106.948 312.582 112.633C324.145 118.319 334.381 126.373 342.628 136.273C354.189 150.18 361.391 167.188 363.334 185.169C365.276 203.149 361.872 221.303 353.548 237.358C352.107 240.128 350.522 242.82 348.799 245.423C341.304 256.794 331.398 266.375 319.783 273.487C305.378 282.268 288.83 286.904 271.96 286.886Z" fill="#1717DD"/>
<path d="M196.271 209.336L195.089 208.478C191.568 188.416 196.023 167.772 207.505 150.948C212.129 144.213 217.775 138.242 224.241 133.25L225.068 132.601L226.344 134.265L225.517 134.903C219.21 139.768 213.704 145.592 209.2 152.162C198.254 168.242 193.878 187.903 196.972 207.108L209.2 205.319C208.653 201.909 208.377 198.46 208.374 195.006C208.373 190.416 208.864 185.84 209.838 181.355L210.068 180.309L212.16 180.749L211.94 181.795C210.17 189.77 209.985 198.016 211.396 206.062L210.528 207.286L196.271 209.336ZM219.346 163.05L217.568 161.931L218.122 161.042C222.236 154.533 227.495 148.824 233.645 144.191L234.482 143.564L235.737 145.227L234.9 145.865C228.957 150.331 223.878 155.843 219.911 162.13L219.346 163.05ZM240.779 125.729L239.387 125.196L233.875 112.497L234.408 111.117C243.14 107.209 252.429 104.692 261.939 103.659C265.267 103.301 268.612 103.123 271.96 103.125C273.215 103.125 274.345 103.125 275.433 103.198H276.479L276.384 105.29H275.338C274.292 105.29 273.194 105.217 271.97 105.217C268.7 105.217 265.432 105.391 262.18 105.74C253.23 106.713 244.477 109.029 236.218 112.612L240.894 123.428C257.517 116.24 276.117 115.035 293.528 120.018L294.574 120.3L293.989 122.319L292.943 122.026C275.658 117.083 257.183 118.406 240.779 125.761V125.729Z" fill="#1717DD"/>
<path d="M271.96 273.006C259.867 273.041 247.935 270.232 237.128 264.805C225.761 259.115 215.947 250.747 208.53 240.423C201.666 230.926 197.064 219.985 195.079 208.436L195.957 207.223L209.2 205.319C208.653 201.909 208.377 198.46 208.374 195.006C208.373 190.416 208.864 185.84 209.838 181.356L210.068 180.31L212.16 180.749L211.94 181.795C210.17 189.77 209.985 198.016 211.396 206.062L210.528 207.286L197.338 209.2C199.369 220.044 203.777 230.304 210.246 239.241C217.464 249.295 227.02 257.441 238.09 262.975C247.743 267.785 258.31 270.487 269.087 270.9C279.864 271.313 290.606 269.428 300.599 265.37L301.572 264.973L302.357 266.918L301.394 267.305C292.047 271.102 282.049 273.039 271.96 273.006ZM319.95 256.511L318.643 254.879L319.459 254.23C324.021 250.572 328.145 246.398 331.749 241.793C342.235 228.437 347.926 211.944 347.91 194.964C347.913 184.991 345.95 175.116 342.133 165.902C338.317 156.689 332.722 148.318 325.668 141.268C318.615 134.218 310.24 128.628 301.025 124.816C291.809 121.005 281.933 119.047 271.96 119.056C261.209 119.027 250.576 121.303 240.779 125.729L239.827 126.158L238.969 124.254L239.921 123.826C256.778 116.262 275.766 114.903 293.528 119.987C309.82 124.649 324.147 134.495 334.339 148.033C344.532 161.57 350.034 178.06 350.012 195.006C350.033 206.411 347.533 217.68 342.69 228.007C337.603 238.867 330.088 248.411 320.724 255.904L319.95 256.511ZM219.346 163.051L217.568 161.931L218.122 161.042C222.236 154.533 227.495 148.824 233.645 144.191L234.482 143.564L235.737 145.227L234.9 145.865C228.957 150.331 223.878 155.843 219.911 162.13L219.346 163.051Z" fill="#1717DD"/>
<path d="M271.96 258.634C267.93 258.631 263.91 258.25 259.952 257.494C247.348 255.066 235.771 248.886 226.741 239.764C217.71 230.642 211.647 219.004 209.346 206.376C207.856 198.087 208.009 189.586 209.796 181.355L210.026 180.309L212.118 180.749L211.899 181.795C210.142 189.773 209.971 198.018 211.397 206.062C212.896 214.347 216.102 222.23 220.811 229.21C225.336 235.997 231.166 241.816 237.961 246.329C244.756 250.841 252.381 253.958 260.391 255.496C264.221 256.205 268.108 256.555 272.002 256.542C287.484 256.54 302.396 250.704 313.766 240.196C325.136 229.689 332.129 215.282 333.35 199.849C333.475 198.259 333.538 196.627 333.538 195.006C333.571 186.671 331.895 178.417 328.613 170.755C325.332 163.093 320.514 156.184 314.459 150.457C309.824 146.042 304.531 142.376 298.769 139.589C285.151 133.002 269.585 131.659 255.04 135.817C240.496 139.974 227.991 149.341 219.911 162.13L219.346 163.019L217.568 161.931L218.122 161.042C222.236 154.533 227.495 148.824 233.645 144.191C242.992 137.154 254.097 132.826 265.741 131.682C277.385 130.538 289.12 132.622 299.658 137.706C305.618 140.588 311.095 144.377 315.892 148.94C322.148 154.858 327.126 161.995 330.519 169.91C333.912 177.826 335.647 186.352 335.62 194.964C335.62 196.637 335.557 198.322 335.431 199.964C334.17 215.92 326.938 230.813 315.178 241.671C303.419 252.529 287.997 258.553 271.991 258.54L271.96 258.634Z" fill="#1717DD"/>
<path d="M271.96 244.199C263.852 244.199 255.87 242.193 248.725 238.36C241.58 234.528 235.494 228.987 231.009 222.233C228.62 218.666 226.717 214.797 225.35 210.727C222.452 202.104 221.992 192.848 224.022 183.981C225.165 178.933 227.111 174.102 229.785 169.672C234.803 161.304 242.197 154.619 251.026 150.467C259.856 146.315 269.721 144.884 279.366 146.356L280.412 146.513L280.098 148.605L279.052 148.448C269.818 147.039 260.373 148.409 251.921 152.384C243.468 156.359 236.389 162.759 231.584 170.77C229.023 175.014 227.155 179.64 226.051 184.473C225.271 187.929 224.882 191.462 224.89 195.006C224.883 200.128 225.717 205.216 227.358 210.068C228.662 213.968 230.48 217.676 232.766 221.093C239.503 231.236 249.908 238.373 261.796 241.006C273.684 243.639 286.13 241.563 296.52 235.214C301.33 232.289 305.58 228.531 309.072 224.116C315.585 215.816 319.094 205.555 319.03 195.006C319.006 186.044 316.438 177.273 311.623 169.713C306.808 162.154 299.946 156.118 291.834 152.308L290.882 151.869L291.771 149.975L292.713 150.415C301.187 154.39 308.358 160.693 313.388 168.588C318.418 176.483 321.1 185.645 321.122 195.006C321.171 206.032 317.484 216.75 310.662 225.413C306.061 231.281 300.186 236.025 293.481 239.287C286.776 242.549 279.416 244.243 271.96 244.241V244.199Z" fill="#1717DD"/>
<path d="M271.96 230.789C263.582 230.787 255.471 227.844 249.042 222.474L248.237 221.804L249.575 220.204L250.381 220.873C256.439 225.923 264.074 228.691 271.96 228.697C278.095 228.69 284.112 227.012 289.365 223.844L290.265 223.3L291.311 225.099L290.422 225.633C284.847 228.99 278.467 230.772 271.96 230.789Z" fill="#1717DD"/>
<path d="M305.087 208.593L303.131 207.851L303.497 206.878C304.928 203.084 305.658 199.061 305.652 195.006C305.652 186.07 302.102 177.501 295.784 171.182C289.465 164.864 280.895 161.314 271.96 161.314C263.024 161.314 254.455 164.864 248.136 171.182C241.818 177.501 238.268 186.07 238.268 195.006C238.261 198.699 238.866 202.368 240.057 205.863L240.392 206.846L238.404 207.526L238.07 206.48C236.47 201.758 235.873 196.754 236.317 191.788C236.762 186.821 238.238 182.003 240.651 177.64C243.064 173.276 246.361 169.465 250.331 166.448C254.301 163.432 258.857 161.277 263.707 160.122C266.413 159.491 269.182 159.172 271.96 159.17C279.861 159.17 287.541 161.785 293.802 166.606C300.062 171.426 304.552 178.183 306.572 185.822C308.451 193.028 308.053 200.639 305.432 207.61L305.087 208.593Z" fill="#1717DD"/>
<path d="M260.847 147.036L258.841 147.627L263.229 162.517L265.235 161.926L260.847 147.036Z" fill="#1717DD"/>
<path d="M315.075 148.231L304.083 160.348L305.633 161.754L316.624 149.636L315.075 148.231Z" fill="#1717DD"/>
<path d="M309.542 223.283L308.35 225.002L321.957 234.438L323.149 232.719L309.542 223.283Z" fill="#1717DD"/>
<path d="M263.219 241.2L258.873 257.21L260.891 257.758L265.238 241.748L263.219 241.2Z" fill="#1717DD"/>
<path d="M295.843 251.689L293.92 252.513L300.428 267.682L302.35 266.857L295.843 251.689Z" fill="#1717DD"/>
<path d="M211.269 204.982L194.94 207.393L195.246 209.463L211.575 207.051L211.269 204.982Z" fill="#1717DD"/>
<path d="M235.703 244.605L224.847 256.548L226.395 257.955L237.251 246.012L235.703 244.605Z" fill="#1717DD"/>
<path d="M235.374 110.68L233.455 111.513L239.799 126.126L241.718 125.293L235.374 110.68Z" fill="#1717DD"/>
<path d="M232.149 220.238L218.434 229.46L219.602 231.196L233.316 221.974L232.149 220.238Z" fill="#1717DD"/>
<path d="M319.24 197.594L319.063 199.679L335.292 201.05L335.468 198.966L319.24 197.594Z" fill="#1717DD"/>
<path d="M278.43 228.019L276.401 228.527L280.172 243.596L282.201 243.088L278.43 228.019Z" fill="#1717DD"/>
<path d="M197.235 141.814L195.972 143.482L208.571 153.024L209.834 151.357L197.235 141.814Z" fill="#1717DD"/>
<path d="M224.175 183.002L223.796 185.059L238.424 187.755L238.803 185.697L224.175 183.002Z" fill="#1717DD"/>
<path d="M319.576 271.162L317.78 272.234L326.037 286.065L327.834 284.992L319.576 271.162Z" fill="#1717DD"/>
<path d="M352.109 235.46L351.173 237.332L365.59 244.541L366.526 242.67L352.109 235.46Z" fill="#1717DD"/>
<path d="M360.296 169.875L345.167 174.964L345.834 176.946L360.963 171.858L360.296 169.875Z" fill="#1717DD"/>
<path d="M336.34 235.449L335.135 237.16L348.168 246.339L349.373 244.629L336.34 235.449Z" fill="#1717DD"/>
<path d="M240.973 279.326L235.9 294.637L237.886 295.295L242.959 279.984L240.973 279.326Z" fill="#1717DD"/>
<path d="M377.675 188.975L361.981 190.337L362.162 192.421L377.856 191.059L377.675 188.975Z" fill="#1717DD"/>
<path d="M182.387 201.55L166.333 203.005L166.522 205.089L182.575 203.634L182.387 201.55Z" fill="#1717DD"/>
<path d="M359.297 135.021L345.539 143.439L346.631 145.224L360.389 136.806L359.297 135.021Z" fill="#1717DD"/>
<path d="M307.027 110.123L301.129 124.948L303.074 125.722L308.973 110.897L307.027 110.123Z" fill="#1717DD"/>
<path d="M273.006 278.529C265.103 278.502 257.238 277.447 249.607 275.391C212.056 265.475 191.481 231.459 188.249 203.98C187.255 195.612 188.531 185.393 189.075 181.031C189.2 180.1 189.284 179.358 189.284 179.159C188.991 178.793 185.801 177.946 183.468 177.318C178.991 176.136 177.192 175.571 176.952 174.818C175.801 170.498 186.983 127.863 229.252 107.309C245.939 99.107 264.583 95.7202 283.089 97.529C302.963 99.621 321.969 107.989 337.983 121.901C338.175 122.056 338.396 122.17 338.634 122.235C338.872 122.3 339.12 122.314 339.364 122.277C345.818 121.817 362.617 102.403 362.784 102.236L363.035 101.933L363.631 102.445L363.38 102.749C362.68 103.554 346.195 122.623 339.427 123.062C339.078 123.104 338.724 123.075 338.387 122.978C338.049 122.881 337.734 122.718 337.46 122.497C321.593 108.711 302.765 100.353 283.037 98.324C264.136 96.4473 245.095 100.062 228.197 108.736C211.299 117.41 197.261 130.773 187.767 147.224C179.504 161.325 177.192 172.695 177.715 174.63C178.019 175.069 181.418 175.979 183.667 176.575C188.709 177.914 190.069 178.395 190.069 179.169C190.069 179.42 189.995 180.069 189.859 181.146C189.315 185.477 188.05 195.602 189.023 203.897C192.223 231.093 212.61 264.816 249.816 274.648C264.401 278.674 279.795 278.747 294.418 274.857C305.411 271.866 312.513 267.379 314.135 266.04C315.013 265.307 313.151 262.546 311.656 260.328C310.16 258.111 308.685 255.946 308.988 254.691C309.028 254.517 309.105 254.355 309.213 254.214C309.321 254.073 309.459 253.957 309.616 253.875C321.687 247.18 331.258 235.047 336.571 219.765C341.665 205.121 342.251 188.813 338.161 175.09C328.538 142.758 297.765 123.522 261.563 127.235C227.568 130.719 208.771 164.337 208.771 167.663C208.834 168.134 210.57 169.306 218.499 172.234L219.88 172.747C220.358 172.126 220.798 171.476 221.198 170.801C224.409 165.749 232.955 152.329 249.544 144.651C264.743 137.633 280.161 138.595 285.045 140.677C285.84 141.011 286.29 141.377 286.426 141.775C286.75 142.716 286.28 144.913 285.736 147.413C285.077 150.488 284.167 154.735 285.286 155.247C285.809 155.519 286.405 155.802 287.064 156.126C293.769 159.348 307.723 166.063 312.848 184.096C318.36 203.51 306.656 220.779 302.848 222.024C299.25 223.227 289.648 212.767 288.57 211.564L288.309 211.271L288.884 210.738L289.146 211.03C291.991 214.168 299.94 222.139 302.608 221.271C305.474 220.329 317.712 204.106 312.095 184.305C307.064 166.607 293.832 160.247 286.729 156.816C286.06 156.503 285.453 156.21 284.93 155.938C283.267 155.101 284.094 151.283 284.93 147.245C285.401 145.038 285.903 142.758 285.642 142.015C285.642 141.921 285.37 141.681 284.7 141.388C280.077 139.421 264.627 138.522 249.837 145.352C233.446 152.915 224.995 166.199 221.815 171.188C220.497 173.28 220.193 173.751 219.723 173.51C219.566 173.427 218.98 173.207 218.227 172.935C210.664 170.142 207.987 168.751 207.987 167.632C207.987 164.243 227.034 129.976 261.489 126.43C298.099 122.675 329.187 142.12 338.893 174.839C343.025 188.709 342.439 205.173 337.293 219.995C331.906 235.476 322.21 247.745 309.982 254.513C309.92 254.543 309.865 254.587 309.821 254.641C309.778 254.696 309.747 254.759 309.731 254.827C309.511 255.747 310.986 257.965 312.283 259.847C314.218 262.713 316.049 265.412 314.605 266.604C314.448 266.793 298.811 278.529 273.006 278.529Z" fill="#263238"/>
<path d="M266.092 202.683C266.065 200.856 266.391 199.041 267.054 197.338C267.899 195.554 269.311 194.101 271.071 193.207C271.667 192.851 272.42 192.433 273.309 191.972C274.224 191.486 275.099 190.926 275.924 190.299C276.762 189.661 277.489 188.891 278.079 188.019C278.671 187.131 278.978 186.083 278.958 185.016C278.973 184.242 278.804 183.475 278.466 182.778C278.162 182.149 277.731 181.59 277.2 181.136C276.658 180.663 276.025 180.307 275.339 180.09C274.645 179.87 273.922 179.757 273.194 179.755C272.359 179.745 271.531 179.901 270.757 180.215C270.053 180.509 269.392 180.896 268.791 181.366C268.203 181.828 267.673 182.358 267.211 182.945C266.784 183.475 266.389 184.031 266.029 184.609L260.747 180.968C261.252 179.747 261.959 178.619 262.839 177.632C263.701 176.665 264.707 175.836 265.82 175.174C266.945 174.499 268.16 173.989 269.429 173.657C270.736 173.312 272.083 173.139 273.435 173.144C274.976 173.143 276.509 173.368 277.985 173.814C279.457 174.234 280.83 174.945 282.022 175.906C283.257 176.919 284.25 178.195 284.93 179.64C285.722 181.338 286.109 183.196 286.06 185.069C286.077 186.229 285.922 187.385 285.6 188.5C285.307 189.462 284.866 190.373 284.292 191.198C283.722 192.009 283.051 192.744 282.294 193.384C281.468 194.072 280.594 194.701 279.679 195.267C278.874 195.748 278.069 196.209 277.253 196.658C276.472 197.089 275.73 197.586 275.035 198.144C274.385 198.671 273.833 199.308 273.403 200.027C272.957 200.813 272.736 201.707 272.765 202.61L266.092 202.683ZM266.207 216.825V208.457H272.943V216.825H266.207Z" fill="#37474F"/>
<path d="M208.97 472.227C206.763 472.938 143.773 472.123 141.398 470.564C140.478 469.989 140.07 460.805 139.882 449.696V449.341C139.882 447.05 139.809 444.696 139.798 442.301C139.798 441.977 139.798 441.653 139.798 441.318C139.714 425.283 139.965 408.641 139.965 408.641L182.109 409.059L180.822 441.412V442.699L180.561 449.393V450.083C180.561 450.083 204.535 461.181 206.972 463.169C209.409 465.156 211.177 471.526 208.97 472.227Z" fill="#D3766A"/>
<path d="M190.046 454.413C189.88 454.413 189.797 454.319 189.786 454.267L190.046 454.413Z" fill="#1717DD"/>
<path d="M208.97 472.227C206.763 472.938 143.773 472.122 141.388 470.564C140.582 470.051 140.164 462.74 139.944 453.315C151.45 455.721 196.219 464.769 197.474 460.951C197.955 459.445 194.127 456.84 191.711 455.376C198.322 458.514 205.644 462.133 206.941 463.19C209.315 465.167 211.187 471.516 208.97 472.227Z" fill="#263238"/>
<path opacity="0.1" d="M169.452 472.122C155.279 471.788 142.497 471.244 141.44 470.564C140.635 470.051 140.216 462.74 139.997 453.315L146.702 454.686L169.452 472.122Z" fill="black"/>
<path d="M127.026 227.191C127.026 227.191 136.482 333.674 138.072 341.76C138.428 343.611 138.647 353.663 138.794 366.602C139.118 394.844 138.93 445.701 138.93 445.701H183.322C183.322 445.701 182.004 357.533 180.048 341.299C178.092 325.065 165.509 227.191 165.509 227.191H127.026Z" fill="#455A64"/>
<path d="M181.282 437.96C174.347 437.814 176.345 437.761 169.41 437.699C166.021 437.699 143.741 437.469 140.572 437.992C140.553 437.992 140.534 437.999 140.52 438.013C140.506 438.027 140.499 438.045 140.499 438.065C140.499 438.084 140.506 438.103 140.52 438.117C140.534 438.13 140.553 438.138 140.572 438.138C143.71 438.661 166.021 438.462 169.41 438.431C176.345 438.368 174.347 438.305 181.282 438.169C181.31 438.169 181.337 438.158 181.356 438.139C181.376 438.119 181.387 438.093 181.387 438.065C181.387 438.037 181.376 438.01 181.356 437.991C181.337 437.971 181.31 437.96 181.282 437.96Z" fill="#263238"/>
<path d="M147.319 387.564C147.263 381.121 147.214 374.681 147.172 368.244C147.172 361.968 147.172 355.755 146.837 349.531C146.241 336.906 143.699 324.501 141.859 312.032C140.018 299.564 138.522 287.022 137.141 274.481C135.603 260.454 134.244 246.323 132.842 232.212C132.842 232.107 132.685 232.118 132.696 232.212C134.788 257.316 137.12 282.42 140.603 307.461C141.468 313.674 142.413 319.877 143.438 326.07C144.484 332.346 145.53 338.622 146.001 344.898C146.471 351.174 146.566 357.324 146.628 363.548L146.817 382.857C146.953 397.145 147.099 419.153 147.235 433.452C147.235 433.724 147.664 433.713 147.664 433.452C147.486 420.774 147.413 400.315 147.319 387.564Z" fill="#263238"/>
<path d="M117.665 227.191C117.665 227.191 136.482 333.674 138.072 341.76C138.428 343.611 138.647 353.663 138.794 366.602L159.923 227.191H117.665Z" fill="#263238"/>
<path d="M157.413 475.982C155.153 476.537 92.3829 471.254 90.1235 469.539C89.2553 468.901 89.4855 459.707 90.1235 448.619C90.1235 448.504 90.1235 448.389 90.1235 448.274C90.2386 445.983 90.3746 443.629 90.5419 441.245C90.5419 440.92 90.5419 440.586 90.6047 440.261C91.6507 424.258 93.0837 407.678 93.0837 407.678L135.07 411.078L131.514 443.274L131.378 444.55L130.646 451.213L130.572 451.903C130.572 451.903 153.699 464.665 155.99 466.819C158.281 468.974 159.662 475.438 157.413 475.982Z" fill="#D3766A"/>
<path d="M157.402 475.982C155.153 476.537 92.3828 471.254 90.1234 469.539C89.3808 468.995 89.4331 462.217 89.8515 453.326C99.5688 455.815 146.43 467.593 147.863 463.723C148.166 462.907 147.172 461.694 145.771 460.501C150.624 463.315 155.007 465.941 155.938 466.777C158.26 468.964 159.661 475.428 157.402 475.982Z" fill="#263238"/>
<path d="M132.455 448.096L88.0942 446.213C88.0942 446.213 100.207 348.872 100.416 342.889C100.751 333.998 105.019 297.284 108.606 267.577C108.606 267.577 101.807 251.49 114.516 227.181H165.498C165.498 227.181 162.078 250.308 156.231 264.983C152.305 266.356 148.513 268.085 144.902 270.15C144.902 270.15 139.829 336.425 139.672 344.688C139.275 361.006 132.455 448.096 132.455 448.096Z" fill="#455A64"/>
<path d="M131.284 439.969C124.359 439.529 126.357 439.561 119.432 439.195C116.043 439.017 93.795 437.887 90.6047 438.274C90.5315 438.274 90.5315 438.4 90.6047 438.41C93.7427 439.069 116.023 439.822 119.412 439.937C126.336 440.157 124.349 440.021 131.284 440.167C131.305 440.16 131.323 440.147 131.336 440.129C131.349 440.111 131.356 440.09 131.356 440.068C131.356 440.046 131.349 440.024 131.336 440.007C131.323 439.989 131.305 439.975 131.284 439.969Z" fill="#263238"/>
<path d="M117.696 230.57C117.78 230.402 117.529 230.256 117.434 230.423C111.855 240.688 110.243 252.645 112.905 264.021C113.637 267.159 114.903 270.203 114.997 273.435C114.914 276.881 114.565 280.315 113.951 283.707C113.083 290.579 112.257 297.451 111.399 304.334C109.712 318.015 108.034 331.701 106.368 345.389C104.701 359.078 103.035 372.77 101.368 386.466C99.7257 400.064 98.0521 413.724 96.5145 427.375C96.3157 429.111 96.117 430.847 95.9287 432.605C95.9287 432.72 96.0961 432.772 96.117 432.605C97.9231 419.014 99.6664 405.416 101.347 391.811C103.028 378.206 104.746 364.608 106.504 351.017C108.205 337.398 109.903 323.782 111.598 310.17L114.213 289.742C114.631 286.343 115.05 282.933 115.458 279.533C115.986 276.477 115.986 273.353 115.458 270.297C114.788 267.295 113.711 264.429 113.167 261.395C112.637 258.423 112.389 255.408 112.424 252.389C112.486 246.421 113.605 240.51 115.729 234.932C116.336 233.457 116.985 232.003 117.696 230.57Z" fill="#263238"/>
<path d="M158.176 263.958C153.584 265.625 149.146 267.69 144.913 270.13C144.746 270.224 144.85 270.485 145.028 270.402C149.505 268.487 154.065 266.646 158.417 264.492C158.484 264.458 158.536 264.399 158.561 264.328C158.586 264.257 158.583 264.179 158.552 264.11C158.521 264.041 158.464 263.987 158.394 263.959C158.324 263.93 158.246 263.93 158.176 263.958Z" fill="#263238"/>
<path d="M159.599 233.258C159.599 233.112 159.316 233.07 159.316 233.258C159.319 238.246 159.068 243.232 158.563 248.195C158.365 250.496 156.471 263.226 152.517 262.295C151.848 262.138 151.471 261.479 151.398 260.475C151.415 259.157 151.595 257.847 151.932 256.573C152.371 253.906 152.727 251.239 152.978 248.54C153.443 243.531 153.391 238.487 152.821 233.488C152.813 233.46 152.795 233.435 152.772 233.417C152.748 233.399 152.72 233.389 152.69 233.389C152.66 233.389 152.632 233.399 152.608 233.417C152.584 233.435 152.567 233.46 152.559 233.488C152.678 240.433 152.273 247.378 151.346 254.262C150.844 257.577 149.181 262.556 152.643 263.069C156.105 263.582 158.448 255.234 158.919 252.954C159.997 246.446 160.226 239.825 159.599 233.258Z" fill="#263238"/>
<path d="M152.622 262.64C152.263 263.497 151.962 264.378 151.722 265.276C151.468 265.969 151.341 266.703 151.346 267.441C151.355 267.469 151.371 267.494 151.392 267.514C151.414 267.534 151.44 267.548 151.469 267.554C151.498 267.56 151.527 267.559 151.555 267.55C151.583 267.541 151.608 267.526 151.628 267.504C152.042 266.857 152.356 266.152 152.559 265.412C152.863 264.596 153.176 263.791 153.459 262.964C153.493 262.856 153.484 262.738 153.434 262.635C153.385 262.533 153.298 262.453 153.192 262.412C153.085 262.371 152.968 262.371 152.862 262.414C152.756 262.456 152.67 262.537 152.622 262.64Z" fill="#263238"/>
<path d="M169.212 172.391C169.219 172.501 169.185 172.609 169.118 172.696C169.05 172.783 168.953 172.842 168.846 172.862L167.036 172.977C165.415 168.793 163.657 165.383 164.118 166.701C164.808 168.761 165.192 170.91 165.258 173.082L161.67 173.27C160.258 165.812 158.448 160.289 158.532 161.994C158.992 168.877 158.532 171.084 158.103 173.448C149.463 173.856 138.124 174.264 129.924 174.379C128.972 170.268 128.146 165.801 127.999 166.115C126.968 168.759 126.477 171.583 126.556 174.42C123.941 174.42 121.859 174.421 120.583 174.326C120.583 174.326 119.976 170.864 119.882 169.724C119.648 166.801 119.96 163.861 120.803 161.053C121.776 158.241 123.045 155.541 124.589 152.998V152.936C125.527 151.236 126.261 149.431 126.775 147.559C127.119 146.208 127.343 144.829 127.445 143.438C127.832 138.354 130.687 133.951 135.468 132.601C144.495 124.087 153.543 127.654 156.273 134.181C156.534 134.808 156.796 135.541 157.047 136.336C157.978 139.275 158.804 143.093 159.567 146.043C159.842 147.201 160.191 148.34 160.613 149.452C163.03 154.808 168.239 157.779 169.212 172.391Z" fill="#263238"/>
<path d="M133.47 133.94C131.954 134.639 130.646 135.72 129.674 137.077C128.702 138.434 128.099 140.02 127.926 141.681C127.784 143.819 127.362 145.929 126.671 147.957C125.755 149.986 124.538 151.865 123.062 153.532C120.781 156.073 119.348 159.261 118.962 162.653C118.503 166.519 118.86 170.439 120.008 174.159C119.047 170.227 118.904 166.14 119.589 162.151C120.269 158.124 122.55 155.582 124.882 152.517C126.741 150.133 127.926 147.294 128.313 144.296C128.367 142.437 128.684 140.595 129.254 138.825C130.229 136.909 131.751 135.325 133.627 134.275C133.646 134.244 133.658 134.208 133.66 134.172C133.662 134.135 133.655 134.098 133.64 134.065C133.624 134.031 133.6 134.003 133.571 133.981C133.541 133.959 133.506 133.945 133.47 133.94Z" fill="#263238"/>
<path d="M166 155.143C163.793 152.266 161.482 149.808 160.184 146.231C159.003 142.978 158.323 139.526 157.12 136.273C157.12 136.221 157.026 136.273 157.046 136.273C158.898 142.047 159.264 147.883 162.998 152.737C165.149 155.241 166.963 158.016 168.396 160.99C169.746 164.313 170.456 167.862 170.488 171.45C170.483 171.464 170.481 171.479 170.483 171.494C170.485 171.509 170.491 171.523 170.5 171.535C170.508 171.548 170.52 171.558 170.533 171.564C170.547 171.571 170.561 171.575 170.576 171.575C170.592 171.575 170.606 171.571 170.62 171.564C170.633 171.558 170.645 171.548 170.653 171.535C170.662 171.523 170.668 171.509 170.67 171.494C170.672 171.479 170.67 171.464 170.665 171.45C171.209 165.622 169.544 159.802 166 155.143Z" fill="#263238"/>
<path d="M154.693 173.312C171.105 189.619 191.878 224.043 188.165 231.103C183.981 238.959 160.352 215.769 161.053 214.608C161.638 213.625 153.124 192.788 146.932 177.548C140.739 162.308 150.624 169.285 154.693 173.312Z" fill="#D3766A"/>
<path d="M154.693 173.312C171.105 189.619 191.878 224.043 188.165 231.103C183.981 238.959 160.352 215.769 161.053 214.608C161.638 213.625 153.124 192.788 146.932 177.548C140.739 162.308 150.624 169.285 154.693 173.312Z" fill="#1717DD"/>
<path d="M178.259 230.12C170.226 225.267 160.571 215.382 161.021 214.639C161.597 213.656 153.093 192.82 146.9 177.579C146.294 176.084 145.854 174.797 145.52 173.709L178.259 230.12Z" fill="#263238"/>
<path d="M108.638 235.716C110.51 236.511 166.262 231.208 167.684 230.58L160.132 206.062C160.132 206.062 165.362 199.2 162.172 191.418C160.268 186.701 148.292 171.921 147.214 171.063C142.905 167.601 138.595 167.255 134.662 168.971C132.936 169.693 130.917 170.498 129.704 172.213C116.849 190.372 108.638 235.716 108.638 235.716Z" fill="#1717DD"/>
<path d="M154.107 178.625C155.373 180.393 156.743 182.098 158.051 183.855C157.486 182.6 156.921 181.335 156.304 180.1C157.248 181.577 158.043 183.143 158.678 184.776C159.661 186.109 160.552 187.507 161.346 188.96C162.327 190.672 163.006 192.54 163.354 194.483C163.636 196.447 163.511 198.448 162.988 200.361C162.373 202.56 161.554 204.696 160.54 206.742C160.415 207.024 160.038 206.805 160.132 206.533C161.502 202.914 163.019 199.106 162.548 195.152C162.078 191.198 159.975 187.83 157.925 184.535C156.728 182.543 155.4 180.631 153.95 178.814C153.929 178.636 154.055 178.552 154.107 178.625Z" fill="#263238"/>
<path d="M136.66 170.854C136.963 171.837 142.099 177.966 146.628 177.475C148.093 177.307 147.549 169.232 147.549 169.232L147.643 168.626L148.982 160.153L138.773 154.473L137.298 153.731C137.298 153.731 137.089 156.074 136.848 158.961V159.379C136.848 159.546 136.848 159.693 136.796 159.85C136.796 160.289 136.723 160.728 136.691 161.178C136.66 161.628 136.639 161.848 136.629 162.224L136.566 163.27C136.429 165.797 136.461 168.331 136.66 170.854Z" fill="#D3766A"/>
<path d="M136.848 158.992C137.843 161.284 139.323 163.332 141.187 164.995C143.051 166.659 145.254 167.897 147.643 168.626L148.982 160.153L138.773 154.473L137.298 153.731C137.298 153.731 137.089 156.074 136.848 158.992Z" fill="#263238"/>
<path d="M160.038 145.258C163.459 159.902 155.059 163.626 151.89 164.358C149.024 165.027 139.16 166.931 134.244 152.695C129.328 138.459 135.07 132.235 141.566 130.363C148.061 128.491 156.66 130.593 160.038 145.258Z" fill="#D3766A"/>
<path d="M157.496 142.706C157.141 142.706 156.816 142.706 156.45 142.654C156.084 142.686 155.716 142.598 155.404 142.402C155.32 142.319 155.266 142.211 155.249 142.094C155.232 141.977 155.253 141.858 155.31 141.754C155.453 141.565 155.644 141.418 155.863 141.328C156.082 141.238 156.321 141.208 156.555 141.241C157.038 141.234 157.508 141.406 157.873 141.723C157.952 141.801 158.007 141.901 158.03 142.01C158.054 142.119 158.045 142.233 158.005 142.337C157.965 142.441 157.896 142.532 157.806 142.597C157.715 142.662 157.608 142.7 157.496 142.706Z" fill="#263238"/>
<path d="M147.831 146.712C148.187 146.712 148.522 146.712 148.877 146.649C149.247 146.678 149.615 146.582 149.923 146.377C150.01 146.298 150.067 146.192 150.086 146.076C150.105 145.961 150.085 145.842 150.028 145.739C149.884 145.55 149.691 145.403 149.47 145.315C149.249 145.227 149.008 145.2 148.773 145.237C148.289 145.23 147.82 145.41 147.465 145.739C147.385 145.816 147.329 145.914 147.305 146.022C147.28 146.13 147.288 146.243 147.327 146.347C147.366 146.45 147.434 146.54 147.524 146.605C147.614 146.67 147.721 146.707 147.831 146.712Z" fill="#263238"/>
<path d="M150.269 148.135C150.269 148.135 150.195 148.197 150.206 148.229C150.415 149.275 150.499 150.425 149.651 150.927C149.651 150.927 149.651 150.99 149.651 150.98C150.75 150.624 150.624 149.045 150.269 148.135Z" fill="#263238"/>
<path d="M149.17 147.245C147.528 147.423 147.999 150.697 149.515 150.53C151.032 150.362 150.551 147.099 149.17 147.245Z" fill="#263238"/>
<path d="M148.532 147.486C148.271 147.716 148.041 148.082 147.695 148.166C147.35 148.25 146.953 147.967 146.649 147.674C146.649 147.674 146.587 147.674 146.597 147.674C146.67 148.302 147.005 148.909 147.695 148.909C148.386 148.909 148.679 148.291 148.741 147.632C148.783 147.58 148.658 147.413 148.532 147.486Z" fill="#263238"/>
<path d="M155.718 146.963C155.718 146.963 155.802 146.963 155.812 147.036C155.917 148.082 156.21 149.212 157.172 149.421V149.484C156.032 149.473 155.655 147.946 155.718 146.963Z" fill="#263238"/>
<path d="M156.482 145.771C158.103 145.425 158.678 148.689 157.172 149.013C155.666 149.337 155.132 146.063 156.482 145.771Z" fill="#263238"/>
<path d="M157.203 145.875C157.486 146.001 157.8 146.262 158.114 146.231C158.427 146.199 158.668 145.791 158.835 145.415C158.835 145.415 158.888 145.415 158.898 145.415C159.024 146.032 158.898 146.712 158.354 146.942C157.81 147.172 157.308 146.681 157.078 146.084C157.026 146.011 157.088 145.823 157.203 145.875Z" fill="#263238"/>
<path d="M155.017 152.507C155.239 153.229 155.424 153.962 155.572 154.703C155.572 154.766 155.415 154.829 155.174 154.881C154.58 155.089 153.94 155.13 153.323 154.999C152.707 154.868 152.139 154.57 151.681 154.139C151.664 154.127 151.652 154.11 151.648 154.091C151.645 154.071 151.649 154.051 151.66 154.034C151.671 154.017 151.688 154.006 151.708 154.002C151.727 153.998 151.748 154.002 151.764 154.013C152.774 154.492 153.91 154.635 155.007 154.421C155.007 154.212 154.16 151.911 154.264 151.89C154.828 151.853 155.395 151.891 155.948 152.005C155.111 148.867 153.783 145.938 152.988 142.831C152.988 142.716 153.124 142.654 153.166 142.758C154.692 145.875 155.901 149.137 156.775 152.496C156.9 152.894 155.321 152.591 155.017 152.507Z" fill="#263238"/>
<path d="M134.401 153.501C135.33 152.956 136.101 152.178 136.638 151.245C137.176 150.311 137.461 149.254 137.465 148.176C140.003 146.806 142.132 144.789 143.637 142.329C143.553 142.643 143.009 144.944 142.695 146.105C152.109 143.553 154.463 136.011 154.463 136.011C156.428 137.536 158.02 139.49 159.118 141.723C159.118 141.723 158.71 135.865 155.383 132.183C154.302 130.893 152.893 129.916 151.306 129.355C149.718 128.794 148.009 128.669 146.356 128.993C143.952 128.617 141.491 128.893 139.23 129.793C136.968 130.693 134.99 132.183 133.501 134.108C127.842 141.367 134.401 153.501 134.401 153.501Z" fill="#263238"/>
<path d="M149.829 143.94C148.362 144.906 146.757 145.647 145.07 146.137C147.693 145.184 149.999 143.522 151.733 141.336C152.468 140.398 153.083 139.372 153.563 138.281C154.135 137.111 154.466 135.837 154.536 134.537C154.536 134.517 154.544 134.499 154.558 134.485C154.571 134.471 154.59 134.463 154.609 134.463C154.629 134.463 154.647 134.471 154.661 134.485C154.675 134.499 154.683 134.517 154.683 134.537C154.748 135.825 154.596 137.116 154.233 138.355C153.822 139.572 153.191 140.703 152.371 141.691C151.631 142.557 150.776 143.317 149.829 143.951" fill="#263238"/>
<path d="M136.869 153.281C136.869 153.281 132.957 149.097 131.012 150.551C129.066 152.005 132.476 158.406 135.081 158.919C135.41 159.016 135.756 159.046 136.098 159.006C136.439 158.966 136.769 158.857 137.068 158.686C137.366 158.515 137.626 158.285 137.833 158.011C138.04 157.736 138.189 157.422 138.271 157.088L136.869 153.281Z" fill="#D3766A"/>
<path d="M132.037 152.36V152.423C132.89 152.71 133.674 153.17 134.34 153.775C135.006 154.38 135.54 155.116 135.907 155.938C135.78 155.787 135.622 155.665 135.445 155.578C135.268 155.492 135.074 155.444 134.877 155.437C134.68 155.43 134.484 155.465 134.301 155.538C134.118 155.612 133.952 155.723 133.815 155.865C133.815 155.865 133.815 155.969 133.878 155.948C134.17 155.808 134.498 155.76 134.818 155.813C135.138 155.865 135.434 156.015 135.666 156.241C136.058 156.626 136.408 157.05 136.712 157.507C136.817 157.653 137.078 157.507 136.995 157.36C136.608 155.101 134.442 152.245 132.037 152.36Z" fill="#263238"/>
<path d="M135.196 132.842C136.618 132.309 137.968 124.348 132.738 120.552C127.508 116.755 120.792 121.095 123.606 127.622C125.384 131.733 132.173 133.961 135.196 132.842Z" fill="#263238"/>
<path d="M125.416 120.07C123.865 121.363 122.799 123.145 122.393 125.122C122.185 126.043 122.222 127.002 122.501 127.903C122.78 128.804 123.291 129.617 123.983 130.258C125.464 131.564 127.271 132.442 129.213 132.8C130.197 133.011 131.198 133.133 132.204 133.166C133.224 133.243 134.249 133.13 135.227 132.832C134.305 133.346 133.279 133.65 132.225 133.721C131.183 133.844 130.129 133.844 129.087 133.721C126.919 133.486 124.878 132.579 123.25 131.127C122.428 130.348 121.832 129.361 121.525 128.271C121.25 127.183 121.271 126.042 121.587 124.966C121.861 123.933 122.342 122.967 123 122.126C123.658 121.284 124.48 120.585 125.416 120.07Z" fill="#263238"/>
<path d="M188.123 231.218C184.065 236.145 174.065 236.365 148.94 239.283C145.467 239.68 136.022 215.915 139.704 215.298C144.359 214.514 162.569 212.474 163.919 212.495C175.31 212.662 190.864 227.871 188.123 231.218Z" fill="#D3766A"/>
<path d="M145.059 214.566C145.059 214.566 134.453 215.34 129.003 217.463C123.399 219.828 118.447 223.509 114.568 228.195C110.384 233.248 103.732 248.362 107.748 251.03C111.378 253.456 117.403 237.662 117.403 237.662C117.403 237.662 108.606 252.755 113.522 254.858C118.439 256.96 124.38 238.247 124.38 238.247C124.38 238.247 115.698 253.937 121.106 255.329C125.196 256.375 131.566 239.701 131.566 239.701C131.566 239.701 124.244 253.299 128.355 254.502C132.957 255.883 139.767 240.904 139.767 240.904C150.885 242.306 156.743 238.425 160.582 235.162C161.481 234.304 145.059 214.566 145.059 214.566Z" fill="#D3766A"/>
<path d="M119.799 232.212C118.753 233.948 117.571 235.695 116.661 237.526C115.751 239.356 114.841 241.208 114.077 243.111C113.029 245.582 112.267 248.165 111.807 250.81C112.968 246.176 116.232 239.586 117.163 237.766C118.094 235.946 118.951 234.074 119.882 232.243C119.893 232.212 119.819 232.212 119.799 232.212Z" fill="#263238"/>
<path d="M126.451 235.507C125.144 237.777 123.763 239.994 122.56 242.327C121.357 244.659 120.468 246.961 119.422 249.356C119.349 249.544 119.422 249.523 119.558 249.356C120.688 246.992 121.911 244.9 123.073 242.567C124.234 240.235 125.301 237.829 126.535 235.538C126.566 235.496 126.472 235.476 126.451 235.507Z" fill="#263238"/>
<path d="M132.664 237.285C130.583 240.73 128.859 244.379 127.518 248.174C127.445 248.352 127.612 248.31 127.696 248.174C129.338 244.523 130.593 241.647 132.79 237.4C132.842 237.296 132.717 237.212 132.664 237.285Z" fill="#263238"/>
<path d="M141.628 214.357L160.896 240.214C160.896 240.214 186.198 236.459 188.406 230.8C190.613 225.141 173.939 211.899 163.95 212.411C153.961 212.924 141.628 214.357 141.628 214.357Z" fill="#1717DD"/>
<path d="M165.425 235.779C162.643 232.526 151.754 218.792 149.599 215.664C149.453 215.445 149.547 215.298 149.735 215.507C158.302 225.057 162.977 232.338 165.54 235.664C165.613 235.748 165.488 235.863 165.425 235.779Z" fill="#263238"/>
<path d="M122.664 179.107C112.654 191.512 101.744 209.932 99.7885 224.974C98.8366 232.296 110.813 240.444 115.698 238.729C127.204 234.701 143.72 224.336 150.593 217.055C153.009 214.482 132.581 193.05 130.551 196.23C128.522 199.409 127.267 201.282 125.457 202.391C124.579 202.934 129.212 195.361 133.187 181.753C138.606 163.176 126.294 174.609 122.664 179.107Z" fill="#D3766A"/>
<path d="M152.026 165.843C152.026 165.843 148.982 161.074 152.402 159.264C155.823 157.454 158.061 162.653 158.061 162.653L152.026 165.843Z" fill="#FF85BF"/>
<path d="M157.971 162.452L151.934 165.648L170.553 200.813L176.59 197.617L157.971 162.452Z" fill="#1717DD"/>
<path opacity="0.2" d="M157.971 162.452L151.934 165.648L170.553 200.813L176.59 197.617L157.971 162.452Z" fill="black"/>
<path d="M158.367 161.996L151.323 165.726L152.062 167.122L159.106 163.392L158.367 161.996Z" fill="#37474F"/>
<path d="M159.181 163.538L152.136 167.268L152.876 168.664L159.92 164.934L159.181 163.538Z" fill="#37474F"/>
<path d="M176.575 197.621V203.165V204.985L175.059 203.939L170.498 200.832L170.644 199.64L171.69 200.194L171.837 199.001L172.883 199.556L173.019 198.363L174.065 198.918L174.201 197.725L175.247 198.28L175.383 197.087L176.575 197.621Z" fill="white"/>
<path d="M176.607 203.154L176.628 204.985L175.111 203.949L176.607 203.154Z" fill="#37474F"/>
<path d="M167.58 172.925C169.274 175.927 161.502 179.494 161.502 179.494C162.989 179.605 164.391 180.23 165.467 181.261C167.266 183.176 165.059 186.837 165.059 186.837C166.576 187.273 167.928 188.155 168.939 189.368C170.488 191.376 168.793 195.393 168.793 195.393C169.965 196.562 170.678 198.114 170.801 199.765C170.948 204.19 165.038 207.579 161.795 210.403C158.323 213.426 151.89 215.968 149.243 218.154L129.61 197.893C129.61 197.893 138.511 181.094 145.122 177.035C148.814 174.787 164.975 168.322 167.58 172.925Z" fill="#D3766A"/>
<path d="M161.398 179.441C156.806 180.487 152.486 182.653 148.344 184.766C148.25 184.818 148.344 184.964 148.417 184.912C152.517 182.757 157.297 181.638 161.471 179.682C161.503 179.672 161.53 179.65 161.545 179.621C161.561 179.591 161.564 179.557 161.555 179.525C161.545 179.493 161.523 179.466 161.494 179.451C161.464 179.435 161.43 179.432 161.398 179.441Z" fill="#263238"/>
<path d="M164.787 186.596C163.768 186.937 162.798 187.408 161.9 187.998C160.917 188.562 159.944 189.148 158.982 189.755C157.043 190.947 155.139 192.192 153.271 193.489C153.187 193.552 153.271 193.688 153.344 193.636C155.279 192.443 157.224 191.282 159.201 190.173C160.185 189.619 161.178 189.065 162.182 188.531C163.154 188.079 164.073 187.521 164.923 186.868C164.949 186.845 164.967 186.814 164.974 186.78C164.981 186.746 164.976 186.71 164.961 186.679C164.945 186.648 164.919 186.623 164.888 186.608C164.857 186.593 164.821 186.589 164.787 186.596Z" fill="#263238"/>
<path d="M168.709 195.435C167.792 195.755 166.936 196.229 166.178 196.836C165.31 197.401 164.442 197.966 163.563 198.52C161.806 199.629 160.059 200.738 158.27 201.784C158.187 201.847 158.27 201.983 158.344 201.93C160.164 200.884 162.005 199.838 163.814 198.792C164.714 198.269 165.592 197.746 166.481 197.202C167.336 196.79 168.108 196.227 168.762 195.539C168.769 195.536 168.775 195.531 168.78 195.525C168.785 195.519 168.789 195.513 168.791 195.505C168.793 195.498 168.794 195.49 168.794 195.483C168.793 195.475 168.791 195.468 168.788 195.461C168.784 195.454 168.78 195.448 168.774 195.443C168.768 195.438 168.761 195.434 168.754 195.431C168.747 195.429 168.739 195.428 168.731 195.429C168.724 195.429 168.716 195.431 168.709 195.435Z" fill="#263238"/>
<path d="M143.835 177.966C145.73 176.102 148.15 174.865 150.77 174.421C150.885 174.421 150.875 174.421 150.77 174.504C148.327 175.368 146.007 176.546 143.867 178.008C143.867 178.008 143.804 177.998 143.835 177.966Z" fill="#263238"/>
<path d="M151.21 221.145L130.29 195.341L125.97 201.439C125.97 201.439 131.681 189.368 133.94 181.565C136.2 173.762 137.005 164.525 125.656 175.289C114.537 185.749 98.8994 215.947 98.596 224.681C98.2927 233.415 108.784 239.931 114.401 239.534C120.018 239.137 151.21 221.145 151.21 221.145Z" fill="#1717DD"/>
<path d="M144.787 222.955C141.859 219.461 130.363 204.765 128.051 201.418C127.894 201.188 128.051 201.031 128.198 201.25C137.246 211.48 142.183 219.263 144.934 222.829C144.986 222.924 144.861 223.039 144.787 222.955Z" fill="#263238"/>
<path d="M106.514 223.018C108.031 220.926 109.746 219.012 111.389 217.045C113.031 215.079 114.694 213.102 116.42 211.187C118.146 209.273 119.976 207.411 121.796 205.549L125.374 201.868C126.273 200.958 126.336 201.198 125.468 202.213C124.6 203.227 122.926 205.058 122.089 206.031C120.447 207.955 118.826 209.901 117.131 211.794C115.437 213.687 113.69 215.549 111.901 217.422C110.112 219.294 108.449 221.281 106.608 223.112C106.587 223.185 106.441 223.101 106.514 223.018Z" fill="#263238"/>
<path d="M128.731 194.462C129.777 192.171 131.064 189.901 131.974 187.527C131.974 187.433 132.162 187.527 132.12 187.579C131.472 189.138 130.907 190.717 130.311 192.328L130.447 192.14C130.897 191.554 131.325 190.958 131.744 190.351C131.807 190.267 131.922 190.351 131.869 190.445C131.472 191.059 131.085 191.687 130.708 192.328C130.426 192.845 130.097 193.335 129.725 193.792C129.589 194.138 129.453 194.483 129.296 194.838C128.293 197.161 127.125 199.408 125.803 201.564C125.785 201.594 125.756 201.615 125.723 201.624C125.69 201.634 125.654 201.63 125.624 201.614C125.593 201.598 125.57 201.571 125.558 201.539C125.547 201.506 125.548 201.47 125.562 201.439C126.566 199.075 127.612 196.753 128.731 194.462Z" fill="#263238"/>
<path d="M130.122 195.184C130.217 195.069 130.729 195.738 130.97 196.094C130.97 196.146 130.97 196.167 130.876 196.094C130.781 196.02 130.499 195.822 130.332 195.654C129.662 196.7 126.022 201.533 125.782 201.732C125.541 201.93 125.593 201.732 125.656 201.585C125.897 201.052 129.317 196.24 130.122 195.184Z" fill="#263238"/>
<path d="M122.57 236.396C129.892 232.212 137.371 228.185 144.955 224.451C147.047 223.405 149.013 222.296 151.063 221.208C150.865 221.041 149.181 218.802 149.128 218.719H149.191C149.39 218.917 151.607 221.177 151.754 221.417C151.9 221.658 144.087 225.675 140.415 227.693C136.744 229.712 132.915 231.605 129.129 233.478C126.974 234.545 124.809 235.591 122.633 236.616C122.604 236.624 122.573 236.62 122.546 236.606C122.52 236.591 122.5 236.566 122.492 236.537C122.484 236.508 122.487 236.477 122.502 236.45C122.517 236.424 122.541 236.404 122.57 236.396Z" fill="#263238"/>
<path d="M417.563 75.3642C415.764 90.5626 405.994 93.345 404.363 97.4035C403.519 99.9524 402.82 102.547 402.271 105.175H386.392C385.872 102.546 385.194 99.9512 384.363 97.4035C382.836 93.3241 373.014 90.5208 371.267 75.3119C370.106 65.3226 377.627 49.5594 394.436 49.5803C411.245 49.6013 418.724 65.3749 417.563 75.3642Z" fill="#1717DD"/>
<path d="M386.289 80.8161L385.271 81.005L389.959 106.274L390.977 106.085L386.289 80.8161Z" fill="white"/>
<path d="M402.523 80.8581L397.778 106.116L398.796 106.308L403.541 81.0493L402.523 80.8581Z" fill="white"/>
<path d="M394.394 89.4015C392.909 89.4015 391.622 88.0627 390.712 86.3995C390.547 86.6019 390.342 86.7683 390.11 86.8888C389.878 87.0093 389.624 87.0813 389.363 87.1003C386.936 87.1003 385.984 82.1528 385.943 81.9436L386.455 81.8494C386.706 83.1674 387.71 86.5878 389.374 86.5878C389.595 86.557 389.807 86.4796 389.997 86.3606C390.186 86.2416 390.348 86.0837 390.472 85.8974C389.775 84.5064 389.376 82.9851 389.3 81.431C389.3 80.0189 389.834 79.2135 390.775 79.2135C391.051 79.2056 391.324 79.2736 391.563 79.4101C391.803 79.5466 392.001 79.7464 392.135 79.9875C392.888 81.2846 392.334 83.8577 391.382 85.4895C391.277 85.6569 391.173 85.8242 391.068 85.9707C391.915 87.592 393.16 88.8785 394.405 88.8785C395.576 88.8785 396.601 87.8325 397.344 86.3995C396.373 85.1917 395.859 83.681 395.89 82.1318C395.89 80.3327 396.58 79.2135 397.679 79.2135C398.568 79.2135 399.091 80.1026 399.08 81.6402C399.027 83.2574 398.639 84.846 397.94 86.3054C398.353 86.6968 398.899 86.9173 399.467 86.9225C400.89 86.9225 402.166 83.4812 402.532 82.1528L403.034 82.2992C402.888 82.8222 401.538 87.4455 399.467 87.4455C398.818 87.4412 398.193 87.1993 397.71 86.7656C396.905 88.2614 395.775 89.4015 394.394 89.4015ZM397.668 79.7365C396.737 79.7365 396.403 81.0335 396.403 82.1318C396.393 83.4815 396.802 84.8009 397.574 85.9079C398.204 84.5694 398.56 83.1183 398.62 81.6402C398.62 81.0649 398.536 79.7365 397.721 79.7365H397.668ZM390.765 79.7365C389.97 79.7365 389.802 80.657 389.802 81.431C389.858 82.82 390.196 84.1831 390.796 85.4372L390.922 85.228C391.779 83.7427 392.302 81.3369 391.675 80.249C391.587 80.0859 391.455 79.9511 391.294 79.8603C391.133 79.7695 390.949 79.7266 390.765 79.7365Z" fill="white"/>
<path d="M404.18 104.511L384.578 104.49L384.574 108.318L404.176 108.339L404.18 104.511Z" fill="#455A64"/>
<path d="M404.175 108.967L384.573 108.946L384.569 112.774L404.171 112.795L404.175 108.967Z" fill="#455A64"/>
<path d="M404.17 113.412L384.568 113.392L384.564 117.22L404.166 117.24L404.17 113.412Z" fill="#455A64"/>
<path d="M394.342 42.8232C394.109 41.4691 394.001 40.0967 394.018 38.7229C394.001 37.3491 394.11 35.9767 394.342 34.6226C394.569 35.9701 394.674 37.3355 394.656 38.702C394.672 40.0822 394.567 41.4613 394.342 42.8232Z" fill="#263238"/>
<path d="M379.51 46.7143C378.63 45.6585 377.849 44.524 377.177 43.3252C376.477 42.1431 375.886 40.9003 375.409 39.6119C376.286 40.6697 377.067 41.8039 377.742 43.001C378.437 44.1852 379.029 45.4276 379.51 46.7143Z" fill="#263238"/>
<path d="M368.621 57.53C367.334 57.0495 366.092 56.458 364.907 55.7623C363.709 55.0902 362.574 54.3094 361.518 53.4297C362.807 53.9061 364.05 54.4977 365.232 55.1974C366.43 55.8695 367.565 56.6503 368.621 57.53Z" fill="#263238"/>
<path d="M364.583 72.2786C361.867 72.7109 359.099 72.7109 356.383 72.2786C359.099 71.8463 361.867 71.8463 364.583 72.2786Z" fill="#263238"/>
<path d="M368.474 87.1003C367.408 87.9817 366.263 88.7625 365.054 89.4329C363.872 90.1326 362.629 90.7243 361.341 91.2007C362.408 90.3338 363.553 89.567 364.761 88.9099C365.944 88.1998 367.186 87.5943 368.474 87.1003Z" fill="#263238"/>
<path d="M419.749 87.3514C422.319 88.3336 424.716 89.7176 426.852 91.4518C425.561 90.9799 424.318 90.3881 423.138 89.684C421.94 89.012 420.805 88.2312 419.749 87.3514Z" fill="#263238"/>
<path d="M423.787 72.5714C426.503 72.1391 429.271 72.1391 431.988 72.5714C429.271 73.0038 426.503 73.0038 423.787 72.5714Z" fill="#263238"/>
<path d="M419.896 57.7496C420.958 56.8839 422.091 56.1106 423.285 55.4379C424.467 54.7382 425.71 54.1466 426.998 53.6702C425.946 54.539 424.819 55.3126 423.63 55.9818C422.441 56.6829 421.191 57.2745 419.896 57.7496Z" fill="#263238"/>
<path d="M409.111 46.8607C409.592 45.5741 410.183 44.3316 410.879 43.1474C411.54 41.9484 412.307 40.8107 413.17 39.7479C412.693 41.0363 412.102 42.2791 411.402 43.4612C410.744 44.6619 409.977 45.7999 409.111 46.8607Z" fill="#263238"/>
</svg>
