<svg xmlns="http://www.w3.org/2000/svg" fill="none" viewBox="103.14 41.26 890.03 750.25">
<path d="M473.581 275.82L320.01 275.585C320.01 275.585 327.65 265.814 336.072 264.596C336.072 264.596 352.526 216.619 379.941 216.32C405.424 216.042 415.582 245.888 415.582 245.888C415.582 245.888 427.499 232.526 438.851 238.619C450.203 244.713 456.498 262.287 456.498 262.287C456.498 262.287 469.088 269.086 473.581 275.82Z" fill="#EBEBEB"/>
<path d="M795.725 248.929L989.93 249.207C989.93 249.207 989.93 237 963.21 234.562C963.21 234.562 938.855 181.113 901.542 188.232C878.317 192.658 866.4 224.043 866.4 224.043C866.4 224.043 848.883 199.307 834.839 204.075C820.795 208.842 812.417 235.246 812.417 235.246C812.417 235.246 797.939 242.024 795.725 248.929Z" fill="#EBEBEB"/>
<path d="M763.729 431.94L895.789 432.133C895.789 432.133 883.351 420.694 877.794 420.694C872.238 420.694 856.088 382.211 835.511 383.9C814.933 385.589 803.885 413.96 803.885 413.96C803.885 413.96 778.749 406.284 763.729 431.94Z" fill="#EBEBEB"/>
<path d="M744.062 101.558L856.935 101.729C856.935 101.729 851.334 94.5024 845.148 93.6045C845.148 93.6045 833.166 58.285 813.001 58.007C794.269 57.7291 786.715 79.6648 786.715 79.6648C786.715 79.6648 778.033 69.8087 769.763 74.2985C761.493 78.7882 756.739 91.6589 756.739 91.6589C756.739 91.6589 747.449 96.5977 744.062 101.558Z" fill="#EBEBEB"/>
<path d="M167.482 370.752L280.355 370.923C280.355 370.923 274.754 363.718 268.546 362.798C268.546 362.798 256.565 327.479 236.421 327.201C217.667 326.944 210.135 348.88 210.135 348.88C210.135 348.88 201.453 339.024 193.161 343.514C184.869 348.003 180.137 360.874 180.137 360.874C180.137 360.874 170.869 365.813 167.482 370.752Z" fill="#EBEBEB"/>
<path d="M103.145 383.13V791.507H979.336V554.575H903.321V645.504H883.742V594.043H787.106V675.543H774.3V353.84H690.297V536.745H647.232V602.081H634.186V561.011H557.824V683.582H535.488V583.951H465.638V508.224H418.166V465.122H363.228V656.344H344.734V446.094H254.241V560.327H241.739V467.089H149.965V383.13H103.145Z" fill="#EBEBEB"/>
<path d="M957.152 583.396H970.002V566.014H957.152V583.396Z" fill="white"/>
<path d="M934.861 583.396H947.711V566.014H934.861V583.396Z" fill="white"/>
<path d="M912.589 583.396H925.439V566.014H912.589V583.396Z" fill="white"/>
<path d="M957.152 609.565H970.002V592.184H957.152V609.565Z" fill="white"/>
<path d="M934.861 609.565H947.711V592.184H934.861V609.565Z" fill="white"/>
<path d="M912.589 609.565H925.439V592.184H912.589V609.565Z" fill="white"/>
<path d="M957.152 635.712H970.002V618.331H957.152V635.712Z" fill="white"/>
<path d="M934.861 635.712H947.711V618.331H934.861V635.712Z" fill="white"/>
<path d="M912.589 635.712H925.439V618.331H912.589V635.712Z" fill="white"/>
<path d="M957.152 661.86H970.002V644.479H957.152V661.86Z" fill="white"/>
<path d="M934.861 661.86H947.711V644.479H934.861V661.86Z" fill="white"/>
<path d="M912.589 661.86H925.439V644.479H912.589V661.86Z" fill="white"/>
<path d="M511.916 610.869H524.766V596.373H511.916V610.869Z" fill="white"/>
<path d="M489.623 610.869H502.473V596.373H489.623V610.869Z" fill="white"/>
<path d="M467.33 610.869H480.18V596.373H467.33V610.869Z" fill="white"/>
<path d="M511.916 632.676H524.766V618.18H511.916V632.676Z" fill="white"/>
<path d="M489.623 632.676H502.473V618.18H489.623V632.676Z" fill="white"/>
<path d="M467.33 632.676H480.18V618.18H467.33V632.676Z" fill="white"/>
<path d="M511.916 654.505H524.766V640.009H511.916V654.505Z" fill="white"/>
<path d="M489.623 654.505H502.473V640.009H489.623V654.505Z" fill="white"/>
<path d="M467.33 654.505H480.18V640.009H467.33V654.505Z" fill="white"/>
<path d="M511.916 676.313H524.766V661.817H511.916V676.313Z" fill="white"/>
<path d="M489.623 676.313H502.473V661.817H489.623V676.313Z" fill="white"/>
<path d="M467.33 676.313H480.18V661.817H467.33V676.313Z" fill="white"/>
<path d="M511.916 698.675H524.766V684.18H511.916V698.675Z" fill="white"/>
<path d="M489.623 698.675H502.473V684.18H489.623V698.675Z" fill="white"/>
<path d="M467.332 698.675H480.182V684.18H467.332V698.675Z" fill="white"/>
<path d="M511.916 721.039H524.766V706.543H511.916V721.039Z" fill="white"/>
<path d="M489.623 721.039H502.473V706.543H489.623V721.039Z" fill="white"/>
<path d="M467.33 721.039H480.18V706.543H467.33V721.039Z" fill="white"/>
<path d="M511.916 743.402H524.766V728.907H511.916V743.402Z" fill="white"/>
<path d="M489.623 743.402H502.473V728.907H489.623V743.402Z" fill="white"/>
<path d="M467.33 743.402H480.18V728.907H467.33V743.402Z" fill="white"/>
<path d="M511.916 765.766H524.766V751.27H511.916V765.766Z" fill="white"/>
<path d="M489.623 765.766H502.473V751.27H489.623V765.766Z" fill="white"/>
<path d="M467.33 765.766H480.18V751.27H467.33V765.766Z" fill="white"/>
<path d="M798.742 616.043H872.781V605.161H798.742V616.043Z" fill="white"/>
<path d="M798.742 637.145H872.781V626.263H798.742V637.145Z" fill="white"/>
<path d="M798.742 658.246H872.781V647.364H798.742V658.246Z" fill="white"/>
<path d="M798.742 679.328H872.781V668.445H798.742V679.328Z" fill="white"/>
<path d="M798.742 700.429H872.781V689.569H798.742V700.429Z" fill="white"/>
<path d="M798.742 721.531H872.781V710.648H798.742V721.531Z" fill="white"/>
<path d="M798.742 742.612H872.781V731.729H798.742V742.612Z" fill="white"/>
<path d="M798.742 763.713H872.781V752.831H798.742V763.713Z" fill="white"/>
<path d="M265.724 467.111H333.795V456.228H265.724V467.111Z" fill="white"/>
<path d="M265.724 488.212H333.795V477.33H265.724V488.212Z" fill="white"/>
<path d="M265.724 509.314H333.795V498.454H265.724V509.314Z" fill="white"/>
<path d="M265.724 530.395H333.795V519.534H265.724V530.395Z" fill="white"/>
<path d="M333.793 540.636H265.723V551.519H333.793V540.636Z" fill="white"/>
<path d="M265.724 572.6H333.795V561.717H265.724V572.6Z" fill="white"/>
<path d="M265.724 593.68H333.795V582.797H265.724V593.68Z" fill="white"/>
<path d="M265.724 614.782H333.795V603.899H265.724V614.782Z" fill="white"/>
<path d="M265.724 634.836H333.795V623.954H265.724V634.836Z" fill="white"/>
<path d="M265.724 654.869H333.795V643.986H265.724V654.869Z" fill="white"/>
<path d="M265.724 674.923H333.795V664.041H265.724V674.923Z" fill="white"/>
<path d="M265.724 694.956H333.795V684.095H265.724V694.956Z" fill="white"/>
<path d="M155.652 492.596H227.564V481.735H155.652V492.596Z" fill="white"/>
<path d="M155.652 513.697H227.564V502.814H155.652V513.697Z" fill="white"/>
<path d="M155.652 534.799H227.564V523.938H155.652V534.799Z" fill="white"/>
<path d="M155.652 555.879H227.564V544.997H155.652V555.879Z" fill="white"/>
<path d="M155.652 576.982H227.564V566.1H155.652V576.982Z" fill="white"/>
<path d="M155.652 598.084H227.564V587.223H155.652V598.084Z" fill="white"/>
<path d="M155.652 619.164H227.564V608.303H155.652V619.164Z" fill="white"/>
<path d="M155.652 640.266H227.564V629.384H155.652V640.266Z" fill="white"/>
<path d="M155.652 659.145H227.564V648.263H155.652V659.145Z" fill="white"/>
<path d="M155.652 678.044H227.564V667.162H155.652V678.044Z" fill="white"/>
<path d="M155.652 696.901H227.564V686.019H155.652V696.901Z" fill="white"/>
<path d="M588.993 581.344H611.85V570.846H588.993V581.344Z" fill="white"/>
<path d="M588.993 601.718H611.85V591.22H588.993V601.718Z" fill="white"/>
<path d="M588.993 622.071H611.85V611.574H588.993V622.071Z" fill="white"/>
<path d="M588.993 642.447H611.85V631.95H588.993V642.447Z" fill="white"/>
<path d="M588.993 662.844H611.85V652.346H588.993V662.844Z" fill="white"/>
<path d="M588.993 683.198H611.85V672.7H588.993V683.198Z" fill="white"/>
<path d="M588.993 703.572H611.85V693.075H588.993V703.572Z" fill="white"/>
<path d="M588.993 723.947H611.85V713.45H588.993V723.947Z" fill="white"/>
<path d="M557.889 581.344H580.746V570.846H557.889V581.344Z" fill="white"/>
<path d="M557.889 601.718H580.746V591.22H557.889V601.718Z" fill="white"/>
<path d="M557.889 622.071H580.746V611.574H557.889V622.071Z" fill="white"/>
<path d="M557.889 642.447H580.746V631.95H557.889V642.447Z" fill="white"/>
<path d="M557.889 662.844H580.746V652.346H557.889V662.844Z" fill="white"/>
<path d="M557.889 683.198H580.746V672.7H557.889V683.198Z" fill="white"/>
<path d="M557.889 703.572H580.746V693.074H557.889V703.572Z" fill="white"/>
<path d="M557.889 723.947H580.746V713.45H557.889V723.947Z" fill="white"/>
<path d="M737.747 381.399H761.559V364.851H737.747V381.399Z" fill="white"/>
<path d="M702.235 381.399H726.047V364.851H702.235V381.399Z" fill="white"/>
<path d="M737.747 405.708H761.559V389.16H737.747V405.708Z" fill="white"/>
<path d="M702.235 405.708H726.047V389.16H702.235V405.708Z" fill="white"/>
<path d="M737.747 430.038H761.559V413.49H737.747V430.038Z" fill="white"/>
<path d="M702.235 430.038H726.047V413.49H702.235V430.038Z" fill="white"/>
<path d="M737.747 454.368H761.559V437.82H737.747V454.368Z" fill="white"/>
<path d="M702.235 454.368H726.047V437.82H702.235V454.368Z" fill="white"/>
<path d="M737.747 478.677H761.559V462.129H737.747V478.677Z" fill="white"/>
<path d="M702.235 478.678H726.047V462.13H702.235V478.678Z" fill="white"/>
<path d="M737.747 503.008H761.559V486.46H737.747V503.008Z" fill="white"/>
<path d="M702.235 503.007H726.047V486.459H702.235V503.007Z" fill="white"/>
<path d="M737.747 527.337H761.559V510.789H737.747V527.337Z" fill="white"/>
<path d="M702.235 527.337H726.047V510.789H702.235V527.337Z" fill="white"/>
<path d="M737.747 551.646H761.559V535.098H737.747V551.646Z" fill="white"/>
<path d="M702.235 551.646H726.047V535.098H702.235V551.646Z" fill="white"/>
<path d="M658.237 560.476H682.049V543.928H658.237V560.476Z" fill="white"/>
<path d="M658.237 584.785H682.049V568.237H658.237V584.785Z" fill="white"/>
<path d="M658.237 609.116H682.049V592.568H658.237V609.116Z" fill="white"/>
<path d="M658.237 633.446H682.049V616.898H658.237V633.446Z" fill="white"/>
<path d="M658.237 657.754H682.049V641.206H658.237V657.754Z" fill="white"/>
<path d="M658.237 682.086H682.049V665.538H658.237V682.086Z" fill="white"/>
<path d="M737.747 575.678H761.559V559.13H737.747V575.678Z" fill="white"/>
<path d="M702.235 575.678H726.047V559.13H702.235V575.678Z" fill="white"/>
<path d="M658.237 706.095H682.049V689.547H658.237V706.095Z" fill="white"/>
<path d="M737.747 599.708H761.559V583.161H737.747V599.708Z" fill="white"/>
<path d="M702.235 599.708H726.047V583.161H702.235V599.708Z" fill="white"/>
<path d="M658.237 730.148H682.049V713.6H658.237V730.148Z" fill="white"/>
<path d="M737.747 623.74H761.559V607.192H737.747V623.74Z" fill="white"/>
<path d="M702.235 623.74H726.047V607.192H702.235V623.74Z" fill="white"/>
<path d="M658.237 754.178H682.049V737.63H658.237V754.178Z" fill="white"/>
<path d="M737.747 647.77H761.559V631.222H737.747V647.77Z" fill="white"/>
<path d="M702.235 647.77H726.047V631.222H702.235V647.77Z" fill="white"/>
<path d="M737.747 671.802H761.559V655.254H737.747V671.802Z" fill="white"/>
<path d="M702.235 671.802H726.047V655.254H702.235V671.802Z" fill="white"/>
<path d="M443.085 533.41H455.936V518.915H443.085V533.41Z" fill="white"/>
<path d="M420.793 533.41H433.643V518.915H420.793V533.41Z" fill="white"/>
<path d="M443.085 555.217H455.936V540.721H443.085V555.217Z" fill="white"/>
<path d="M420.793 555.217H433.643V540.721H420.793V555.217Z" fill="white"/>
<path d="M443.085 577.045H455.936V562.55H443.085V577.045Z" fill="white"/>
<path d="M420.793 577.045H433.643V562.55H420.793V577.045Z" fill="white"/>
<path d="M443.085 598.875H455.936V584.38H443.085V598.875Z" fill="white"/>
<path d="M420.793 598.875H433.643V584.38H420.793V598.875Z" fill="white"/>
<path d="M443.085 621.239H455.936V606.743H443.085V621.239Z" fill="white"/>
<path d="M420.793 621.239H433.643V606.743H420.793V621.239Z" fill="white"/>
<path d="M443.085 643.58H455.936V629.084H443.085V643.58Z" fill="white"/>
<path d="M420.793 643.58H433.643V629.084H420.793V643.58Z" fill="white"/>
<path d="M443.085 665.943H455.936V651.448H443.085V665.943Z" fill="white"/>
<path d="M420.793 665.943H433.643V651.448H420.793V665.943Z" fill="white"/>
<path d="M443.085 688.307H455.936V673.811H443.085V688.307Z" fill="white"/>
<path d="M420.793 688.307H433.643V673.811H420.793V688.307Z" fill="white"/>
<path d="M443.085 710.906H455.936V696.41H443.085V710.906Z" fill="white"/>
<path d="M420.793 710.906H433.643V696.41H420.793V710.906Z" fill="white"/>
<path d="M443.085 733.503H455.936V719.008H443.085V733.503Z" fill="white"/>
<path d="M420.793 733.503H433.643V719.008H420.793V733.503Z" fill="white"/>
<path d="M443.085 756.102H455.936V741.607H443.085V756.102Z" fill="white"/>
<path d="M420.793 756.102H433.643V741.607H420.793V756.102Z" fill="white"/>
<path d="M129.039 407.91H141.889V390.827H129.039V407.91Z" fill="white"/>
<path d="M106.726 407.91H119.598V390.827H106.726V407.91Z" fill="white"/>
<path d="M129.039 433.63H141.889V416.548H129.039V433.63Z" fill="white"/>
<path d="M106.726 433.63H119.598V416.548H106.726V433.63Z" fill="white"/>
<path d="M129.039 459.329H141.889V442.246H129.039V459.329Z" fill="white"/>
<path d="M106.726 459.329H119.598V442.246H106.726V459.329Z" fill="white"/>
<path d="M129.039 485.027H141.889V467.945H129.039V485.027Z" fill="white"/>
<path d="M106.726 485.027H119.598V467.945H106.726V485.027Z" fill="white"/>
<path d="M129.039 511.388H141.889V494.305H129.039V511.388Z" fill="white"/>
<path d="M106.726 511.388H119.598V494.305H106.726V511.388Z" fill="white"/>
<path d="M129.039 537.707H141.889V520.625H129.039V537.707Z" fill="white"/>
<path d="M106.726 537.707H119.598V520.625H106.726V537.707Z" fill="white"/>
<path d="M129.039 564.068H141.889V546.986H129.039V564.068Z" fill="white"/>
<path d="M106.726 564.068H119.598V546.986H106.726V564.068Z" fill="white"/>
<path d="M129.039 590.408H141.889V573.325H129.039V590.408Z" fill="white"/>
<path d="M106.726 590.408H119.598V573.325H106.726V590.408Z" fill="white"/>
<path d="M129.039 617.026H141.889V599.944H129.039V617.026Z" fill="white"/>
<path d="M106.726 617.026H119.598V599.944H106.726V617.026Z" fill="white"/>
<path d="M129.039 643.666H141.889V626.583H129.039V643.666Z" fill="white"/>
<path d="M106.726 643.666H119.598V626.583H106.726V643.666Z" fill="white"/>
<path d="M129.039 670.284H141.889V653.201H129.039V670.284Z" fill="white"/>
<path d="M106.726 670.284H119.598V653.201H106.726V670.284Z" fill="white"/>
<path d="M129.039 696.901H141.889V679.819H129.039V696.901Z" fill="white"/>
<path d="M106.726 696.901H119.598V679.819H106.726V696.901Z" fill="white"/>
<path d="M395.419 533.41H408.27V518.915H395.419V533.41Z" fill="white"/>
<path d="M373.127 533.41H385.977V518.915H373.127V533.41Z" fill="white"/>
<path d="M395.419 511.025H408.27V496.53H395.419V511.025Z" fill="white"/>
<path d="M373.127 511.025H385.977V496.53H373.127V511.025Z" fill="white"/>
<path d="M395.419 488.662H408.27V474.166H395.419V488.662Z" fill="white"/>
<path d="M373.127 488.662H385.977V474.166H373.127V488.662Z" fill="white"/>
<path d="M395.419 555.217H408.27V540.721H395.419V555.217Z" fill="white"/>
<path d="M373.127 555.217H385.977V540.721H373.127V555.217Z" fill="white"/>
<path d="M395.419 577.045H408.27V562.55H395.419V577.045Z" fill="white"/>
<path d="M373.127 577.045H385.977V562.55H373.127V577.045Z" fill="white"/>
<path d="M395.419 598.875H408.27V584.38H395.419V598.875Z" fill="white"/>
<path d="M373.127 598.875H385.977V584.38H373.127V598.875Z" fill="white"/>
<path d="M395.419 621.239H408.27V606.743H395.419V621.239Z" fill="white"/>
<path d="M373.127 621.239H385.977V606.743H373.127V621.239Z" fill="white"/>
<path d="M395.419 643.58H408.27V629.084H395.419V643.58Z" fill="white"/>
<path d="M373.127 643.58H385.977V629.084H373.127V643.58Z" fill="white"/>
<path d="M395.419 665.943H408.27V651.448H395.419V665.943Z" fill="white"/>
<path d="M373.127 665.943H385.977V651.448H373.127V665.943Z" fill="white"/>
<path d="M395.419 688.307H408.27V673.811H395.419V688.307Z" fill="white"/>
<path d="M373.127 688.307H385.977V673.811H373.127V688.307Z" fill="white"/>
<path d="M395.419 710.906H408.27V696.41H395.419V710.906Z" fill="white"/>
<path d="M373.127 710.906H385.977V696.41H373.127V710.906Z" fill="white"/>
<path d="M395.419 733.503H408.27V719.008H395.419V733.503Z" fill="white"/>
<path d="M373.127 733.503H385.977V719.008H373.127V733.503Z" fill="white"/>
<path d="M395.419 756.102H408.27V741.606H395.419V756.102Z" fill="white"/>
<path d="M373.127 756.102H385.977V741.606H373.127V756.102Z" fill="white"/>
<path d="M641.876 758.074C835.588 758.074 992.622 741.709 992.622 721.521C992.622 701.334 835.588 684.969 641.876 684.969C448.165 684.969 291.131 701.334 291.131 721.521C291.131 741.709 448.165 758.074 641.876 758.074Z" fill="#EBEBEB"/>
<path d="M993.16 614.933H290.574V626.99H993.16V614.933Z" fill="#C7C7C7"/>
<path d="M339.841 614.933C340.941 618.879 340.941 623.044 339.841 626.99C339.247 625.032 338.963 622.996 338.999 620.953C338.972 618.916 339.256 616.887 339.841 614.933Z" fill="#263238"/>
<path d="M394.749 614.933C395.333 616.887 395.617 618.916 395.591 620.953C395.626 622.996 395.342 625.032 394.749 626.99C393.649 623.044 393.649 618.879 394.749 614.933Z" fill="#263238"/>
<path d="M449.673 614.933C450.773 618.879 450.773 623.044 449.673 626.99C449.079 625.032 448.795 622.996 448.831 620.953C448.804 618.916 449.088 616.887 449.673 614.933Z" fill="#263238"/>
<path d="M504.581 614.933C505.166 616.887 505.449 618.916 505.423 620.953C505.458 622.996 505.174 625.032 504.581 626.99C503.481 623.044 503.481 618.879 504.581 614.933Z" fill="#263238"/>
<path d="M559.505 614.933C560.605 618.879 560.605 623.044 559.505 626.99C558.911 625.032 558.627 622.996 558.663 620.953C558.637 618.916 558.92 616.887 559.505 614.933Z" fill="#263238"/>
<path d="M614.413 614.933C614.998 616.887 615.281 618.916 615.255 620.953C615.29 622.996 615.006 625.032 614.413 626.99C613.313 623.044 613.313 618.879 614.413 614.933Z" fill="#263238"/>
<path d="M669.337 614.933C670.437 618.879 670.437 623.044 669.337 626.99C668.743 625.032 668.46 622.996 668.495 620.953C668.469 618.916 668.752 616.887 669.337 614.933Z" fill="#263238"/>
<path d="M724.245 614.933C724.83 616.887 725.113 618.916 725.087 620.953C725.122 622.996 724.838 625.032 724.245 626.99C723.145 623.044 723.145 618.879 724.245 614.933Z" fill="#263238"/>
<path d="M779.169 614.933C780.269 618.879 780.269 623.044 779.169 626.99C778.576 625.032 778.292 622.996 778.327 620.953C778.301 618.916 778.584 616.887 779.169 614.933Z" fill="#263238"/>
<path d="M834.077 614.933C834.662 616.887 834.945 618.916 834.919 620.953C834.954 622.996 834.67 625.032 834.077 626.99C832.977 623.044 832.977 618.879 834.077 614.933Z" fill="#263238"/>
<path d="M889.001 614.933C890.101 618.879 890.101 623.044 889.001 626.99C888.408 625.032 888.124 622.996 888.159 620.953C888.133 618.916 888.416 616.887 889.001 614.933Z" fill="#263238"/>
<path d="M943.909 614.933C944.494 616.887 944.777 618.916 944.751 620.953C944.786 622.996 944.502 625.032 943.909 626.99C942.809 623.044 942.809 618.879 943.909 614.933Z" fill="#263238"/>
<path d="M290.574 626.99L378.4 626.592L466.225 626.442L641.875 626.16L817.526 626.442L905.351 626.575L993.177 626.99L905.351 627.388L817.526 627.537L641.875 627.819L466.225 627.537L378.4 627.388L290.574 626.99Z" fill="#263238"/>
<path d="M929.26 506.419C938.504 487.712 954.685 478.093 972.903 483.4C991.121 488.707 993.95 513.75 980.345 520.068C966.74 526.387 953.136 507.929 945.946 504.147C938.756 500.366 929.26 506.419 929.26 506.419Z" fill="#1717DD"/>
<path d="M920.32 556.223C920.32 553.968 920.455 551.712 920.539 549.457C920.707 544.946 920.859 540.452 921.027 535.941C921.33 527.648 922.24 519.621 925.708 512.026C928.773 505.164 933.882 499.381 940.357 495.441C942.76 493.991 945.355 492.875 948.069 492.124C950.525 489.678 953.648 487.984 957.06 487.248C961.279 486.406 965.616 486.299 969.873 486.933C970.025 486.933 970.025 487.182 969.873 487.165C965.814 486.662 961.694 486.955 957.75 488.028C956.053 488.477 954.41 489.105 952.85 489.902C951.869 490.417 950.929 491.005 950.038 491.66C955.061 490.562 960.306 491.038 965.041 493.02C966.036 492.805 967.055 492.722 968.072 492.771C969.401 492.811 970.723 492.995 972.012 493.318C974.653 494.054 977.179 495.142 979.521 496.552C979.656 496.552 979.521 496.818 979.387 496.751C977.089 495.518 974.63 494.602 972.079 494.031C970.837 493.758 969.577 493.575 968.307 493.484C967.617 493.484 966.91 493.484 966.22 493.484C971.418 495.86 975.593 499.973 978.006 505.093C978.006 505.226 977.854 505.342 977.787 505.209C976.354 502.245 974.259 499.638 971.658 497.584C969.057 495.531 966.017 494.084 962.768 493.351C962.364 493.252 961.96 493.186 961.555 493.119C961.65 493.718 961.711 494.322 961.741 494.927C961.875 495.839 962.027 496.735 962.212 497.647C962.597 499.498 963.092 501.325 963.694 503.12C964.31 504.935 965.047 506.708 965.9 508.427C966.718 510.249 967.752 511.969 968.981 513.551C968.994 513.563 969.005 513.577 969.013 513.593C969.02 513.609 969.023 513.627 969.022 513.644C969.022 513.662 969.017 513.679 969.009 513.695C969 513.71 968.988 513.724 968.974 513.734C968.96 513.744 968.943 513.751 968.925 513.754C968.908 513.757 968.89 513.756 968.873 513.752C968.855 513.747 968.84 513.738 968.826 513.727C968.813 513.715 968.802 513.7 968.796 513.684C967.701 512.026 966.422 510.367 965.428 508.709C964.461 507.036 963.633 505.289 962.953 503.485C962.241 501.663 961.678 499.789 961.269 497.879C961.084 496.867 960.916 495.856 960.798 494.827C960.674 494.216 960.635 493.592 960.68 492.97C958.539 492.653 956.366 492.608 954.214 492.837C955.022 497.299 955.898 501.959 958.424 505.84C958.508 505.956 958.289 506.088 958.222 505.956C957.03 503.901 955.983 501.767 955.09 499.571C954.254 497.443 953.726 495.21 953.524 492.937C949.759 493.435 946.125 494.634 942.815 496.469C936.594 500.045 931.626 505.402 928.57 511.827C925.38 518.748 923.606 526.221 923.351 533.818C922.745 543.387 922.61 553.006 921.667 562.542C921.667 563.156 920.589 563.371 920.472 562.675C920.208 560.534 920.157 558.374 920.32 556.223Z" fill="#263238"/>
<path d="M941.686 493.898C942.293 493.17 942.995 492.523 943.774 491.975C944.531 491.361 945.306 490.764 946.131 490.217C947.728 489.137 949.498 488.329 951.367 487.828C951.519 487.828 951.586 488.027 951.367 488.061C949.479 488.526 947.712 489.38 946.181 490.565C945.407 491.129 944.666 491.726 943.942 492.339C943.307 493.01 942.595 493.605 941.82 494.114C941.795 494.114 941.769 494.107 941.747 494.095C941.725 494.082 941.706 494.064 941.692 494.043C941.679 494.021 941.671 493.997 941.67 493.971C941.669 493.946 941.674 493.921 941.686 493.898Z" fill="#263238"/>
<path d="M921.616 506.884C921.616 506.884 908.533 490.681 883.277 496.419C859.266 501.876 848.187 545.228 872.45 550.419C896.713 555.61 892.42 515.574 901.259 508.675C907.759 503.683 917.07 504.761 921.616 506.884Z" fill="#1717DD"/>
<path d="M863.761 520.102C865.406 518.68 867.144 517.367 868.964 516.172C870.682 515.015 872.551 514.094 874.521 513.435C875.505 511.966 876.602 510.575 877.804 509.273C880.033 506.911 882.61 504.893 885.448 503.286H884.691C883.35 503.219 882.007 503.219 880.667 503.286C877.977 503.457 875.341 504.109 872.888 505.209C872.736 505.209 872.635 505.044 872.77 504.994C875.27 503.931 877.886 503.152 880.566 502.672C881.866 502.445 883.185 502.334 884.506 502.34C885.213 502.34 885.92 502.34 886.627 502.473H887.031C889.348 501.328 891.788 500.444 894.305 499.836L893.615 499.654C892.376 499.381 891.122 499.181 889.86 499.057C887.345 498.772 884.804 498.811 882.3 499.173C882.274 499.163 882.252 499.146 882.236 499.124C882.22 499.102 882.212 499.075 882.212 499.048C882.212 499.021 882.22 498.995 882.236 498.972C882.252 498.95 882.274 498.933 882.3 498.924C884.83 498.626 887.381 498.526 889.927 498.625C892.071 498.691 894.202 498.963 896.292 499.438C897.811 499.167 899.346 498.995 900.889 498.924C909.695 498.559 919.292 501.793 924.714 508.875C930.136 515.956 931.196 525.459 932.156 534.133C933.655 546.131 933.993 558.242 933.166 570.304C933.166 571.017 932.089 570.884 932.072 570.304C931.735 560.071 931.365 549.855 930.388 539.655C929.934 534.945 929.428 530.219 928.62 525.542C928.042 521.527 926.874 517.616 925.152 513.933C923.265 510.167 920.297 507.029 916.615 504.911C912.917 502.822 908.793 501.57 904.542 501.246C900.732 500.943 896.898 501.297 893.211 502.291C893.328 503.021 893.328 503.766 893.211 504.496C893.136 505.422 892.95 506.335 892.655 507.216C892.381 508.052 892.032 508.863 891.611 509.637C891.14 510.483 890.55 511.296 890.028 512.059C889.944 512.192 889.742 512.059 889.826 511.926C890.876 510.446 891.552 508.74 891.796 506.951C891.949 506.112 892.05 505.264 892.099 504.413C892.099 503.783 892.099 503.136 892.099 502.49C888.092 503.709 884.352 505.655 881.071 508.228C880.464 508.709 879.858 509.223 879.286 509.754C880.118 510.513 880.838 511.384 881.424 512.341C882.293 513.588 883.048 514.909 883.68 516.288C884.849 519.057 885.63 521.969 886.004 524.945C886.004 525.094 885.785 525.127 885.768 524.945C885.308 522.07 884.339 519.297 882.906 516.752C882.238 515.491 881.49 514.272 880.667 513.104C880.229 512.507 879.791 511.91 879.336 511.346C879.084 511.031 878.814 510.715 878.579 510.384C875.61 513.254 873.187 516.624 871.423 520.334C872.62 521.568 873.614 522.978 874.369 524.514C875.276 526.117 876.069 527.779 876.743 529.489C877.964 532.806 878.971 536.196 879.757 539.639C879.757 539.654 879.754 539.669 879.748 539.683C879.742 539.697 879.734 539.71 879.723 539.721C879.712 539.732 879.699 539.74 879.685 539.746C879.67 539.752 879.655 539.755 879.639 539.755C879.624 539.755 879.609 539.752 879.594 539.746C879.58 539.74 879.567 539.732 879.556 539.721C879.545 539.71 879.536 539.697 879.531 539.683C879.525 539.669 879.522 539.654 879.522 539.639C878.747 536.189 877.543 532.847 875.935 529.688C875.177 528.129 874.386 526.603 873.544 525.078C872.671 523.674 871.878 522.224 871.17 520.733C869.487 524.364 868.511 528.273 868.291 532.259C868.291 532.29 868.278 532.319 868.256 532.341C868.234 532.363 868.204 532.375 868.173 532.375C868.142 532.375 868.112 532.363 868.09 532.341C868.067 532.319 868.055 532.29 868.055 532.259C868.526 526.014 870.463 519.962 873.713 514.58C872.18 515.226 870.631 515.857 869.133 516.653C867.232 517.638 865.467 518.859 863.879 520.285C863.812 520.384 863.644 520.202 863.761 520.102Z" fill="#263238"/>
<path d="M882.284 521.014C883.042 523.469 883.968 525.857 884.675 528.345C885.379 530.723 885.759 533.182 885.803 535.659H885.686C885.006 530.687 883.792 525.8 882.065 521.081C882.056 521.066 882.051 521.049 882.049 521.031C882.048 521.014 882.05 520.996 882.057 520.98C882.063 520.963 882.073 520.948 882.086 520.936C882.099 520.924 882.115 520.916 882.132 520.91C882.149 520.905 882.167 520.904 882.185 520.907C882.202 520.909 882.219 520.916 882.234 520.926C882.249 520.936 882.261 520.949 882.269 520.965C882.278 520.98 882.283 520.997 882.284 521.014Z" fill="#263238"/>
<path d="M866.287 514.928C867.284 513.981 868.419 513.187 869.655 512.573C870.904 512.011 872.199 511.556 873.527 511.213C873.662 511.213 873.713 511.428 873.527 511.461C872.221 511.79 870.968 512.298 869.806 512.971C868.635 513.581 867.509 514.274 866.439 515.044L866.287 514.928Z" fill="#263238"/>
<path d="M909.174 485.241C909.174 485.241 906.766 456.136 884.793 446.716C866.457 438.838 855.95 459.137 868.915 471.592C879.405 481.609 896.226 477.082 909.174 485.241Z" fill="#1717DD"/>
<path d="M872.99 452.354C876.332 453.68 879.593 455.197 882.756 456.898C885.38 458.406 887.91 460.067 890.333 461.874C889.979 461.144 889.659 460.364 889.289 459.651C888.716 458.546 888.093 457.44 887.42 456.334C886.069 454.133 884.446 452.105 882.587 450.298C882.469 450.198 882.587 450.032 882.756 450.132C884.59 451.946 886.279 453.898 887.807 455.969C888.559 457.037 889.25 458.144 889.878 459.286C890.529 460.317 891.027 461.434 891.36 462.603L891.612 462.769C895.442 465.789 898.956 469.178 902.102 472.886C902.102 472.604 901.967 472.305 901.9 472.057C901.479 470.63 901.041 469.221 900.57 467.827C899.631 464.837 898.295 461.982 896.596 459.336C896.512 459.203 896.731 459.087 896.815 459.22C898.531 461.881 900.067 464.651 901.412 467.512C902.017 468.908 902.523 470.343 902.927 471.808C903.249 472.764 903.486 473.746 903.634 474.743C904.594 475.937 905.537 477.131 906.429 478.375C915.858 491.643 920.59 507.597 921.718 523.601C922.046 528.37 922.131 533.153 921.971 537.93C921.935 542.75 921.502 547.559 920.674 552.309C920.674 552.624 920.135 552.525 920.152 552.226C920.253 548.03 920.708 543.834 920.775 539.639C920.842 535.443 920.775 531.197 920.371 527.001C919.689 518.626 918.098 510.347 915.623 502.307C913.07 494.073 909.309 486.251 904.459 479.088C903.533 478.906 902.624 478.657 901.715 478.442L898.347 477.579C896.241 477.045 894.193 476.306 892.235 475.373C892.206 475.358 892.185 475.332 892.175 475.301C892.166 475.27 892.169 475.236 892.185 475.208C892.2 475.179 892.227 475.158 892.258 475.148C892.29 475.139 892.324 475.142 892.353 475.158C894.29 476.2 896.39 476.917 898.566 477.281C900.25 477.612 902.068 477.828 903.803 478.226C902.234 475.932 900.548 473.718 898.751 471.592C894.564 471.962 890.344 471.654 886.258 470.68C884.083 470.163 881.945 469.504 879.86 468.706C877.671 467.877 875.583 466.799 873.411 465.92C873.242 465.837 873.411 465.605 873.512 465.705C877.445 467.813 881.736 469.196 886.174 469.784C890.073 470.391 894.013 470.712 897.96 470.746C896.394 468.988 894.778 467.264 893.06 465.655C887.331 459.97 880.445 455.545 872.855 452.669C872.771 452.553 872.838 452.288 872.99 452.354Z" fill="#263238"/>
<path d="M890.854 452.437C891.845 453.665 892.745 454.962 893.548 456.318C894.371 457.741 895.021 459.255 895.484 460.829C895.484 460.829 895.484 460.912 895.4 460.829C894.659 459.403 894.053 457.927 893.312 456.5C892.585 455.099 891.705 453.781 890.685 452.57C890.584 452.553 890.753 452.321 890.854 452.437Z" fill="#263238"/>
<path d="M870.43 462.123C871.863 462.898 873.376 463.521 874.942 463.98C876.445 464.467 877.974 464.871 879.522 465.191V465.324C877.907 465.149 876.315 464.804 874.774 464.295C873.252 463.729 871.767 463.07 870.329 462.322C870.177 462.255 870.295 462.04 870.43 462.123Z" fill="#263238"/>
<path d="M926.247 480C926.382 481.261 929.615 469.436 948.136 458.938C964.974 449.419 985.179 424.625 968.611 408.969C955.258 396.315 920.084 423.878 926.247 480Z" fill="#1717DD"/>
<path d="M913.468 547.782C913.734 535.475 914.718 523.193 916.414 510.997C917.878 499.788 920.507 488.756 924.261 478.077C925.641 474.229 927.224 470.448 928.942 466.733C928.815 465.282 928.815 463.822 928.942 462.371C929.026 460.514 929.211 458.656 929.379 456.799C929.548 454.941 929.75 453.084 929.969 451.226C930.188 449.369 930.592 447.528 930.676 445.687C930.676 445.672 930.679 445.657 930.685 445.643C930.691 445.629 930.699 445.616 930.71 445.605C930.721 445.594 930.734 445.586 930.749 445.58C930.763 445.574 930.778 445.571 930.794 445.571C930.809 445.571 930.825 445.574 930.839 445.58C930.853 445.586 930.866 445.594 930.877 445.605C930.888 445.616 930.897 445.629 930.903 445.643C930.909 445.657 930.912 445.672 930.912 445.687C930.535 447.63 930.31 449.598 930.238 451.575C930.103 453.366 929.985 455.157 929.935 456.965C929.884 458.772 929.935 460.563 929.935 462.355C929.935 463.018 929.935 463.698 929.935 464.395C931.619 460.762 933.555 457.18 935.576 453.697C934.313 446.118 935.946 438.191 937.529 430.761C937.529 430.612 937.781 430.761 937.748 430.844C936.983 434.714 936.577 438.644 936.535 442.586C936.535 445.704 936.535 448.822 936.62 451.939L937.967 449.701C940.374 445.836 943.018 442.039 945.678 438.357C945.462 436.556 945.524 434.733 945.863 432.95C946.168 430.953 946.619 428.98 947.21 427.046C947.794 425.105 948.48 423.195 949.265 421.324C950.073 419.401 951.134 417.593 951.908 415.653C951.908 415.503 952.228 415.652 952.127 415.752C951.149 417.578 950.37 419.502 949.803 421.49C949.19 423.357 948.684 425.256 948.288 427.179C947.901 429.103 947.581 431.043 947.295 432.983C947.126 434.277 947.008 435.604 946.773 436.897C950.752 431.629 955.101 426.641 959.788 421.971C959.889 421.855 960.058 421.971 959.94 422.137C952.889 430.025 946.598 438.542 941.149 447.578L940.56 448.589C941.57 447.959 942.748 447.462 943.708 446.931C945.51 445.936 947.311 444.957 949.13 443.995C950.948 443.034 952.649 442.121 954.383 441.16C955.293 440.679 956.185 440.164 957.094 439.7C958.187 439.232 959.24 438.677 960.243 438.042C960.377 437.942 960.529 438.158 960.378 438.241C958.593 439.203 957.01 440.645 955.326 441.723C953.642 442.801 951.824 443.863 950.022 444.858C946.655 446.666 943.136 447.976 939.92 449.833C937.664 453.731 935.592 457.711 933.673 461.774C935.643 460.53 937.663 459.353 939.701 458.225C941.014 457.495 942.344 456.782 943.675 456.086C944.999 455.481 946.252 454.736 947.412 453.863C947.53 453.764 947.699 453.863 947.581 454.029C945.413 455.941 943.015 457.584 940.442 458.922C938.051 460.298 935.643 461.625 933.168 462.819C931.181 467.098 929.379 471.476 927.797 475.904C919.967 497.713 917.105 520.848 915.724 543.901C915.32 550.75 915.118 557.6 915.017 564.466C914.916 571.332 915.303 578.164 915.286 585.014C915.286 585.213 914.949 585.263 914.916 585.014C914.091 578.927 913.939 572.758 913.67 566.638C913.4 560.519 913.333 554.017 913.468 547.782Z" fill="#263238"/>
<path d="M947.211 449.087C950.602 447.634 953.898 445.972 957.077 444.111C960.303 442.328 963.429 440.374 966.439 438.257C966.439 438.257 966.557 438.257 966.439 438.257C963.595 440.531 960.59 442.604 957.448 444.46C954.184 446.266 950.81 447.872 947.345 449.269C947.177 449.352 947.059 449.236 947.211 449.087Z" fill="#263238"/>
<path d="M941.821 424.442C942.108 423.38 942.444 422.336 942.798 421.291V421.175C943.034 420.594 943.269 419.997 943.522 419.417C943.522 419.417 943.522 419.268 943.606 419.201C943.69 419.135 943.69 418.986 943.741 418.869C943.791 418.753 943.825 418.869 943.741 418.869C943.657 418.869 943.623 419.284 943.556 419.483C943.53 419.596 943.496 419.707 943.454 419.815C942.229 423.883 941.312 428.035 940.71 432.237C940.71 432.369 940.474 432.369 940.491 432.237C940.68 429.602 941.126 426.992 941.821 424.442Z" fill="#263238"/>
<path d="M893.852 552.209L895.165 567.683L899.223 614.866H942.681L946.739 567.683L948.069 552.209H893.852Z" fill="#455A64"/>
<path d="M893.852 552.209L895.165 567.683H946.739L948.069 552.209H893.852Z" fill="#263238"/>
<path d="M889.574 560.85H952.328V546.007H889.574V560.85Z" fill="#455A64"/>
<path d="M831.131 78.8376H452.906C443.412 78.8376 435.715 86.4187 435.715 95.7705V669.662C435.715 679.014 443.412 686.595 452.906 686.595H831.131C840.625 686.595 848.322 679.014 848.322 669.662V95.7705C848.322 86.4187 840.625 78.8376 831.131 78.8376Z" fill="#455A64"/>
<path d="M830.895 121.758H453.344V644.868H830.895V121.758Z" fill="white"/>
<path d="M686.799 104.975V102.803C686.799 101.658 685.857 100.729 684.694 100.729H599.058C597.895 100.729 596.953 101.658 596.953 102.803V104.975C596.953 106.12 597.895 107.048 599.058 107.048H684.694C685.857 107.048 686.799 106.12 686.799 104.975Z" fill="#37474F"/>
<path d="M641.876 679.232C639.574 679.235 637.323 678.566 635.408 677.308C633.492 676.051 631.998 674.262 631.115 672.169C630.232 670.075 629.999 667.77 630.446 665.546C630.893 663.322 632 661.279 633.626 659.674C635.253 658.07 637.326 656.977 639.583 656.533C641.841 656.09 644.181 656.316 646.308 657.183C648.435 658.049 650.253 659.518 651.532 661.403C652.811 663.288 653.494 665.504 653.494 667.772C653.494 670.808 652.271 673.721 650.092 675.869C647.914 678.018 644.959 679.227 641.876 679.232Z" fill="#37474F"/>
<path opacity="0.6" d="M511.4 587.154C511.4 589.066 510.825 590.936 509.746 592.526C508.667 594.116 507.134 595.355 505.341 596.087C503.547 596.819 501.573 597.01 499.669 596.637C497.765 596.264 496.016 595.343 494.643 593.991C493.27 592.639 492.335 590.916 491.956 589.04C491.577 587.165 491.772 585.221 492.515 583.454C493.258 581.687 494.516 580.177 496.13 579.115C497.745 578.052 499.642 577.485 501.584 577.485C504.187 577.485 506.684 578.504 508.525 580.317C510.366 582.13 511.4 584.59 511.4 587.154Z" fill="#1717DD"/>
<path opacity="0.6" d="M523.322 568.646C523.322 569.577 523.041 570.488 522.516 571.262C521.99 572.037 521.243 572.641 520.37 572.997C519.496 573.354 518.534 573.447 517.607 573.265C516.679 573.083 515.827 572.635 515.158 571.976C514.49 571.317 514.034 570.478 513.85 569.564C513.665 568.651 513.76 567.704 514.122 566.843C514.484 565.982 515.097 565.247 515.883 564.729C516.669 564.212 517.594 563.936 518.54 563.936C519.808 563.936 521.024 564.432 521.921 565.315C522.818 566.198 523.322 567.396 523.322 568.646Z" fill="#1717DD"/>
<path opacity="0.6" d="M733.269 582.477C733.269 583.408 732.988 584.319 732.463 585.093C731.938 585.868 731.191 586.472 730.317 586.828C729.443 587.185 728.482 587.278 727.554 587.096C726.626 586.914 725.774 586.466 725.106 585.807C724.437 585.148 723.981 584.309 723.797 583.395C723.612 582.482 723.707 581.535 724.069 580.674C724.431 579.814 725.044 579.078 725.83 578.56C726.617 578.043 727.541 577.767 728.487 577.767C729.755 577.767 730.972 578.263 731.868 579.146C732.765 580.029 733.269 581.227 733.269 582.477Z" fill="#1717DD"/>
<path opacity="0.6" d="M829.025 625.481C829.025 626.413 828.744 627.323 828.219 628.098C827.693 628.872 826.947 629.476 826.073 629.833C825.199 630.189 824.238 630.282 823.31 630.101C822.382 629.919 821.53 629.47 820.862 628.812C820.193 628.153 819.737 627.314 819.553 626.4C819.368 625.486 819.463 624.539 819.825 623.679C820.187 622.818 820.8 622.082 821.586 621.565C822.373 621.047 823.297 620.771 824.243 620.771C825.511 620.771 826.727 621.267 827.624 622.151C828.521 623.034 829.025 624.232 829.025 625.481Z" fill="#1717DD"/>
<path opacity="0.6" d="M821.702 639.245C821.702 640.736 821.1 642.166 820.03 643.221C818.96 644.275 817.508 644.867 815.994 644.867H460.45C459.675 644.909 458.9 644.795 458.172 644.531C457.444 644.268 456.778 643.861 456.215 643.336C455.651 642.81 455.203 642.177 454.896 641.475C454.59 640.774 454.432 640.018 454.432 639.254C454.432 638.49 454.59 637.734 454.896 637.032C455.203 636.33 455.651 635.697 456.215 635.172C456.778 634.646 457.444 634.24 458.172 633.976C458.9 633.713 459.675 633.598 460.45 633.64C460.903 633.639 461.355 633.689 461.797 633.789C461.802 631.591 462.471 629.444 463.719 627.622C464.967 625.799 466.737 624.384 468.804 623.555C470.871 622.727 473.142 622.522 475.327 622.968C477.512 623.415 479.513 624.491 481.076 626.061H481.177C481.177 625.381 481.076 624.684 481.076 623.988C481.067 620.432 481.978 616.933 483.723 613.82C485.467 610.707 487.989 608.083 491.048 606.197C494.108 604.31 497.606 603.222 501.211 603.035C504.816 602.849 508.409 603.57 511.653 605.131C511.889 601.756 513.283 598.561 515.604 596.069C517.926 593.576 521.038 591.934 524.431 591.412C527.824 590.889 531.296 591.518 534.279 593.194C537.262 594.87 539.579 597.494 540.849 600.637C542.755 597.638 545.404 595.167 548.547 593.455C551.69 591.743 555.224 590.847 558.815 590.852C560.177 590.86 561.535 590.987 562.873 591.233C562.582 589.629 562.435 588.003 562.435 586.374C562.432 580.955 564.009 575.648 566.979 571.086C569.949 566.524 574.187 562.898 579.188 560.64C584.189 558.381 589.744 557.585 595.192 558.345C600.639 559.106 605.751 561.391 609.918 564.93C610.395 564.015 611.119 563.246 612.01 562.708C612.9 562.17 613.924 561.883 614.969 561.878C615.72 561.884 616.463 562.03 617.158 562.31L622.495 352.3H653.813L659.151 562.31C659.846 562.03 660.589 561.884 661.34 561.878C662.384 561.885 663.407 562.173 664.297 562.71C665.188 563.248 665.912 564.016 666.391 564.93C670.558 561.391 675.669 559.106 681.117 558.345C686.564 557.585 692.119 558.381 697.121 560.64C702.122 562.898 706.359 566.524 709.329 571.086C712.299 575.648 713.876 580.955 713.873 586.374C713.873 588.003 713.727 589.629 713.436 591.233C714.774 590.987 716.132 590.86 717.493 590.852C721.085 590.849 724.618 591.745 727.76 593.457C730.903 595.169 733.552 597.639 735.459 600.637C736.68 597.418 738.991 594.713 742.001 592.978C745.012 591.243 748.538 590.584 751.984 591.112C755.431 591.64 758.587 593.323 760.92 595.877C763.253 598.431 764.62 601.699 764.79 605.131C768.028 603.573 771.614 602.852 775.212 603.034C778.81 603.217 782.302 604.297 785.359 606.175C788.417 608.052 790.939 610.664 792.69 613.765C794.441 616.867 795.362 620.356 795.368 623.905C795.368 624.601 795.368 625.298 795.267 625.978H795.368C796.93 624.408 798.931 623.332 801.116 622.886C803.302 622.439 805.572 622.644 807.639 623.472C809.706 624.301 811.476 625.716 812.724 627.539C813.972 629.361 814.641 631.508 814.647 633.706C815.089 633.605 815.54 633.555 815.994 633.557C816.749 633.557 817.497 633.704 818.194 633.991C818.891 634.278 819.523 634.698 820.054 635.227C820.585 635.756 821.004 636.384 821.287 637.073C821.57 637.763 821.711 638.501 821.702 639.245Z" fill="#1717DD"/>
<path d="M581.546 219.093L521.789 283.275C521.789 283.275 581.596 418.008 581.546 418.937L573.127 306.693L591.649 287.902L581.546 219.093Z" fill="#1717DD"/>
<path opacity="0.1" d="M581.546 219.093L521.789 283.275C521.789 283.275 581.596 418.008 581.546 418.937L573.127 306.693L591.649 287.902L581.546 219.093Z" fill="black"/>
<path opacity="0.1" d="M591.514 287.886L578.902 300.739L555.01 247.569L581.546 219.077L591.514 287.886Z" fill="black"/>
<path d="M695.335 219.093L755.092 283.275C755.092 283.275 695.267 418.008 695.335 418.937L703.838 306.692L685.316 287.902L695.335 219.093Z" fill="#1717DD"/>
<path opacity="0.1" d="M695.335 219.093L755.092 283.275C755.092 283.275 695.267 418.008 695.335 418.937L703.838 306.692L685.316 287.902L695.335 219.093Z" fill="black"/>
<path opacity="0.1" d="M685.35 287.886L697.978 300.739L721.871 247.569L695.334 219.077L685.35 287.886Z" fill="black"/>
<path d="M673.008 331.801H603.704C603.704 331.801 571.056 274.319 574.929 205.759C576.882 171.545 585.957 137.099 596.818 108.59C611.921 69.1686 630.51 41.2568 638.508 41.2568C646.505 41.2568 665.111 69.2018 680.113 108.607C690.974 137.115 699.999 171.628 701.901 205.809C705.724 274.353 673.008 331.801 673.008 331.801Z" fill="#EBEBEB"/>
<path opacity="0.2" d="M679.928 196.936C679.924 204.724 677.576 212.336 673.181 218.809C668.785 225.282 662.539 230.326 655.232 233.302C647.926 236.279 639.888 237.054 632.134 235.53C624.38 234.007 617.26 230.252 611.672 224.742C606.085 219.232 602.282 212.213 600.745 204.574C599.208 196.935 600.005 189.019 603.036 181.826C606.068 174.633 611.196 168.487 617.774 164.166C624.351 159.844 632.082 157.541 639.989 157.548C645.238 157.548 650.435 158.567 655.284 160.547C660.133 162.527 664.538 165.429 668.248 169.087C671.957 172.746 674.898 177.088 676.902 181.867C678.906 186.645 679.934 191.766 679.928 196.936Z" fill="black"/>
<path d="M678.514 192.923C678.51 200.708 676.164 208.317 671.771 214.789C667.378 221.26 661.136 226.304 653.834 229.282C646.532 232.261 638.497 233.04 630.745 231.522C622.993 230.003 615.872 226.256 610.282 220.752C604.692 215.248 600.884 208.236 599.339 200.601C597.795 192.967 598.582 185.052 601.603 177.858C604.624 170.665 609.742 164.514 616.311 160.185C622.879 155.855 630.604 153.541 638.507 153.534C643.761 153.53 648.964 154.546 653.818 156.523C658.673 158.501 663.084 161.402 666.8 165.06C670.516 168.718 673.463 173.062 675.473 177.843C677.482 182.624 678.516 187.748 678.514 192.923Z" fill="#1717DD"/>
<path opacity="0.1" d="M678.514 192.923C678.51 200.708 676.164 208.317 671.771 214.789C667.378 221.26 661.136 226.304 653.834 229.282C646.532 232.261 638.497 233.04 630.745 231.522C622.993 230.003 615.872 226.256 610.282 220.752C604.692 215.248 600.884 208.236 599.339 200.601C597.795 192.967 598.582 185.052 601.603 177.858C604.624 170.665 609.742 164.514 616.311 160.185C622.879 155.855 630.604 153.541 638.507 153.534C643.761 153.53 648.964 154.546 653.818 156.523C658.673 158.501 663.084 161.402 666.8 165.06C670.516 168.718 673.463 173.062 675.473 177.843C677.482 182.624 678.516 187.748 678.514 192.923Z" fill="black"/>
<path d="M666.256 192.889C666.266 198.289 664.65 203.57 661.612 208.065C658.574 212.56 654.251 216.067 649.19 218.142C644.128 220.216 638.556 220.766 633.177 219.721C627.799 218.676 622.856 216.083 618.973 212.271C615.091 208.459 612.444 203.598 611.367 198.303C610.289 193.009 610.83 187.519 612.921 182.527C615.012 177.535 618.559 173.267 623.114 170.261C627.668 167.255 633.025 165.647 638.507 165.641C645.855 165.632 652.905 168.497 658.109 173.607C663.312 178.717 666.242 185.652 666.256 192.889Z" fill="#455A64"/>
<g opacity="0.4">
<path d="M666.273 192.889C666.281 196.293 665.641 199.668 664.388 202.84L648.611 218.347C645.39 219.579 641.963 220.203 638.508 220.188C636.003 220.191 633.509 219.851 631.1 219.176L665.246 185.542C665.929 187.934 666.274 190.406 666.273 192.889Z" fill="white"/>
<path d="M642.616 165.89L611.129 196.903C610.935 195.579 610.834 194.244 610.826 192.906C610.84 185.679 613.76 178.752 618.949 173.642C624.137 168.531 631.17 165.654 638.507 165.641C639.881 165.629 641.254 165.712 642.616 165.89Z" fill="white"/>
<path d="M662.805 179.672L625.139 216.771C624.407 216.387 623.699 215.961 623.018 215.494L661.492 177.582C661.963 178.245 662.384 178.909 662.805 179.672Z" fill="white"/>
</g>
<path d="M680.181 108.607H596.885C611.921 69.1686 630.51 41.2568 638.507 41.2568C646.505 41.2568 665.178 69.2018 680.181 108.607Z" fill="#1717DD"/>
<g opacity="0.1">
<path d="M611.232 100.082C611.232 100.538 611.094 100.984 610.837 101.363C610.58 101.742 610.215 102.038 609.787 102.212C609.359 102.387 608.889 102.432 608.435 102.343C607.981 102.254 607.564 102.035 607.236 101.712C606.909 101.39 606.686 100.979 606.596 100.532C606.505 100.085 606.552 99.6215 606.729 99.2002C606.906 98.779 607.206 98.419 607.591 98.1657C607.976 97.9124 608.428 97.7772 608.891 97.7772C609.199 97.775 609.505 97.8331 609.79 97.9481C610.074 98.0632 610.333 98.2329 610.551 98.4474C610.769 98.6619 610.941 98.9169 611.058 99.1976C611.175 99.4783 611.234 99.7791 611.232 100.082Z" fill="black"/>
<path d="M626.048 100.082C626.051 100.539 625.916 100.987 625.661 101.369C625.405 101.75 625.039 102.049 624.611 102.225C624.183 102.402 623.711 102.449 623.255 102.36C622.8 102.272 622.381 102.052 622.053 101.729C621.724 101.405 621.501 100.993 621.411 100.544C621.322 100.095 621.369 99.6306 621.549 99.2087C621.728 98.7868 622.03 98.4269 622.418 98.1749C622.805 97.9228 623.26 97.79 623.724 97.7933C624.339 97.7976 624.928 98.0401 625.363 98.4684C625.797 98.8967 626.044 99.4763 626.048 100.082Z" fill="black"/>
<path d="M640.865 100.099C640.867 100.404 640.808 100.706 640.69 100.988C640.572 101.27 640.398 101.525 640.179 101.74C639.959 101.955 639.698 102.124 639.411 102.238C639.124 102.352 638.817 102.409 638.508 102.404C638.044 102.408 637.59 102.275 637.203 102.024C636.816 101.773 636.513 101.414 636.333 100.993C636.154 100.572 636.105 100.108 636.193 99.6597C636.282 99.2114 636.503 98.7991 636.83 98.475C637.157 98.151 637.574 97.9298 638.028 97.8395C638.482 97.7492 638.954 97.7938 639.383 97.9678C639.811 98.1418 640.178 98.4373 640.436 98.8167C640.694 99.1961 640.831 99.6425 640.831 100.099H640.865Z" fill="black"/>
<path d="M655.683 100.116C655.683 100.572 655.545 101.019 655.287 101.398C655.029 101.778 654.663 102.073 654.234 102.247C653.805 102.421 653.334 102.466 652.88 102.375C652.425 102.285 652.008 102.064 651.681 101.74C651.355 101.416 651.133 101.003 651.045 100.555C650.956 100.107 651.005 99.6428 651.185 99.2219C651.365 98.801 651.667 98.4421 652.054 98.1908C652.441 97.9395 652.896 97.8071 653.359 97.8104C653.666 97.8104 653.969 97.8701 654.252 97.9862C654.535 98.1022 654.792 98.2723 655.008 98.4866C655.224 98.7008 655.395 98.9551 655.511 99.2347C655.627 99.5143 655.685 99.8137 655.683 100.116Z" fill="black"/>
<path d="M670.501 100.115C670.504 100.572 670.37 101.02 670.114 101.402C669.858 101.784 669.493 102.082 669.064 102.258C668.636 102.435 668.164 102.482 667.708 102.393C667.253 102.305 666.834 102.085 666.506 101.762C666.178 101.438 665.954 101.026 665.864 100.577C665.775 100.129 665.822 99.6638 666.002 99.2419C666.181 98.82 666.484 98.4601 666.871 98.2081C667.258 97.956 667.713 97.8232 668.178 97.8265C668.794 97.8265 669.385 98.0676 669.821 98.4968C670.256 98.926 670.501 99.5081 670.501 100.115Z" fill="black"/>
</g>
<path d="M611.13 321.271C611.13 321.727 610.992 322.174 610.734 322.553C610.477 322.933 610.11 323.228 609.681 323.402C609.253 323.576 608.781 323.621 608.327 323.53C607.872 323.44 607.455 323.219 607.129 322.895C606.802 322.571 606.581 322.158 606.492 321.71C606.404 321.262 606.453 320.798 606.632 320.377C606.812 319.956 607.115 319.597 607.502 319.346C607.889 319.095 608.343 318.962 608.806 318.965C609.113 318.965 609.417 319.025 609.7 319.141C609.983 319.257 610.24 319.427 610.455 319.642C610.671 319.856 610.842 320.11 610.958 320.39C611.074 320.669 611.132 320.969 611.13 321.271Z" fill="#1717DD"/>
<path d="M625.946 321.27C625.95 321.727 625.815 322.175 625.559 322.557C625.303 322.939 624.938 323.237 624.509 323.413C624.081 323.59 623.609 323.637 623.154 323.548C622.698 323.46 622.279 323.24 621.951 322.917C621.623 322.593 621.4 322.181 621.31 321.732C621.22 321.284 621.268 320.819 621.447 320.397C621.626 319.975 621.929 319.615 622.316 319.363C622.704 319.111 623.159 318.978 623.623 318.982C624.239 318.982 624.83 319.223 625.266 319.652C625.702 320.081 625.946 320.663 625.946 321.27Z" fill="#1717DD"/>
<path d="M640.765 321.287C640.765 321.743 640.627 322.19 640.369 322.569C640.111 322.949 639.745 323.244 639.316 323.418C638.888 323.592 638.416 323.637 637.962 323.546C637.507 323.456 637.09 323.235 636.764 322.911C636.437 322.587 636.215 322.174 636.127 321.726C636.039 321.278 636.087 320.814 636.267 320.393C636.447 319.972 636.749 319.613 637.136 319.362C637.524 319.111 637.978 318.978 638.441 318.982C638.748 318.981 639.051 319.041 639.334 319.157C639.617 319.273 639.874 319.443 640.09 319.658C640.306 319.872 640.477 320.126 640.593 320.406C640.709 320.685 640.767 320.985 640.765 321.287Z" fill="#1717DD"/>
<path d="M655.599 321.287C655.602 321.744 655.468 322.191 655.213 322.572C654.957 322.954 654.593 323.252 654.166 323.429C653.738 323.606 653.267 323.654 652.812 323.567C652.357 323.48 651.938 323.261 651.609 322.94C651.28 322.618 651.056 322.207 650.964 321.76C650.873 321.312 650.918 320.848 651.094 320.425C651.271 320.003 651.571 319.642 651.956 319.388C652.342 319.134 652.795 318.999 653.258 318.999C653.876 318.999 654.469 319.239 654.907 319.668C655.346 320.097 655.594 320.679 655.599 321.287Z" fill="#1717DD"/>
<path d="M670.499 321.303C670.526 321.621 670.486 321.942 670.381 322.244C670.277 322.546 670.109 322.823 669.89 323.058C669.671 323.293 669.405 323.481 669.108 323.609C668.811 323.738 668.491 323.804 668.167 323.804C667.843 323.804 667.522 323.738 667.225 323.609C666.929 323.481 666.662 323.293 666.443 323.058C666.224 322.823 666.056 322.546 665.952 322.244C665.847 321.942 665.807 321.621 665.835 321.303C665.832 321.002 665.891 320.704 666.007 320.425C666.123 320.146 666.294 319.893 666.51 319.68C666.726 319.467 666.983 319.299 667.266 319.184C667.549 319.07 667.852 319.013 668.158 319.015C668.465 319.013 668.769 319.07 669.053 319.184C669.336 319.298 669.595 319.466 669.812 319.679C670.03 319.892 670.202 320.145 670.32 320.424C670.438 320.702 670.499 321.001 670.499 321.303Z" fill="#1717DD"/>
<path d="M666.609 352.317L610.254 352.283L607.627 331.768L669.27 331.818L666.609 352.317Z" fill="#1717DD"/>
<path opacity="0.1" d="M666.609 352.317L610.254 352.283L607.627 331.768L669.27 331.818L666.609 352.317Z" fill="black"/>
<path opacity="0.1" d="M669.27 331.818L667.956 341.802L608.62 339.613L607.627 331.768L669.27 331.818Z" fill="black"/>
<path d="M726.586 595.894L719.599 597.171L718.033 604.418L716.467 597.171L709.496 595.894L716.45 594.219L718.033 587.369L719.632 594.219L726.586 595.894Z" fill="#FCFCFC"/>
<path d="M658.647 537.748L651.659 539.009L650.11 546.273L648.544 539.009L641.557 537.748L648.511 536.073L650.11 529.224L651.693 536.073L658.647 537.748Z" fill="#FCFCFC"/>
<path d="M635.274 365.286L628.286 366.563L626.72 373.81L625.154 366.563L618.184 365.286L625.138 363.611L626.72 356.761L628.32 363.611L635.274 365.286Z" fill="#FCFCFC"/>
<path d="M557.149 609.708L553.259 610.422L552.383 614.468L551.508 610.422L547.602 609.708L551.491 608.763L552.383 604.932L553.276 608.763L557.149 609.708Z" fill="#FCFCFC"/>
<path d="M767.182 621.799L763.275 622.512L762.417 626.558L761.541 622.512L757.635 621.799L761.524 620.853L762.417 617.022L763.292 620.853L767.182 621.799Z" fill="#FCFCFC"/>
<path d="M503.436 635.996L499.529 636.709L498.654 640.772L497.795 636.709L493.889 635.996L497.761 635.067L498.654 631.236L499.546 635.067L503.436 635.996Z" fill="#FCFCFC"/>
<path d="M673.227 632.628L669.32 633.342L668.462 637.388L667.586 633.342L663.68 632.628L667.569 631.683L668.462 627.869L669.337 631.683L673.227 632.628Z" fill="#FCFCFC"/>
<path d="M644.654 526.72L640.748 527.433L639.872 531.48L638.997 527.433L635.107 526.72L638.98 525.791L639.872 521.96L640.765 525.791L644.654 526.72Z" fill="#FCFCFC"/>
<path d="M655.145 421.772L651.238 422.485L650.363 426.532L649.487 422.485L645.598 421.772L649.47 420.843L650.363 417.012L651.255 420.843L655.145 421.772Z" fill="#FCFCFC"/>
<path d="M776.426 630.556C776.149 630.589 775.893 630.721 775.708 630.928C775.522 631.134 775.42 631.4 775.42 631.675C775.42 631.951 775.522 632.217 775.708 632.423C775.893 632.629 776.149 632.761 776.426 632.795C776.704 632.761 776.96 632.629 777.145 632.423C777.33 632.217 777.433 631.951 777.433 631.675C777.433 631.4 777.33 631.134 777.145 630.928C776.96 630.721 776.704 630.589 776.426 630.556Z" fill="#FCFCFC"/>
<path d="M629.549 512.656C629.272 512.69 629.016 512.822 628.831 513.028C628.645 513.235 628.543 513.501 628.543 513.776C628.543 514.051 628.645 514.317 628.831 514.524C629.016 514.73 629.272 514.862 629.549 514.895C629.827 514.862 630.083 514.73 630.268 514.524C630.453 514.317 630.556 514.051 630.556 513.776C630.556 513.501 630.453 513.235 630.268 513.028C630.083 512.822 629.827 512.69 629.549 512.656Z" fill="#FCFCFC"/>
<path d="M648.392 372.699C648.093 372.699 647.806 372.816 647.594 373.024C647.383 373.233 647.264 373.515 647.264 373.81C647.264 374.105 647.383 374.387 647.594 374.596C647.806 374.804 648.093 374.921 648.392 374.921C648.691 374.921 648.978 374.804 649.19 374.596C649.401 374.387 649.52 374.105 649.52 373.81C649.52 373.515 649.401 373.233 649.19 373.024C648.978 372.816 648.691 372.699 648.392 372.699Z" fill="#FCFCFC"/>
<path d="M533.002 635.995C532.725 636.028 532.469 636.161 532.284 636.367C532.098 636.573 531.996 636.839 531.996 637.115C531.996 637.39 532.098 637.656 532.284 637.862C532.469 638.068 532.725 638.201 533.002 638.234C533.28 638.201 533.536 638.068 533.721 637.862C533.906 637.656 534.009 637.39 534.009 637.115C534.009 636.839 533.906 636.573 533.721 636.367C533.536 636.161 533.28 636.028 533.002 635.995Z" fill="#FCFCFC"/>
<path d="M604.714 620.688C604.415 620.687 604.128 620.805 603.916 621.013C603.705 621.221 603.586 621.504 603.586 621.799C603.586 622.093 603.705 622.376 603.916 622.584C604.128 622.793 604.415 622.91 604.714 622.91C605.013 622.91 605.3 622.793 605.512 622.584C605.723 622.376 605.842 622.093 605.842 621.799C605.842 621.504 605.723 621.221 605.512 621.013C605.3 620.805 605.013 620.687 604.714 620.688Z" fill="#FCFCFC"/>
<path d="M748.071 610.521C747.879 610.549 747.703 610.644 747.576 610.788C747.449 610.933 747.379 611.118 747.379 611.309C747.379 611.501 747.449 611.685 747.576 611.83C747.703 611.975 747.879 612.07 748.071 612.097C748.263 612.07 748.439 611.975 748.566 611.83C748.693 611.685 748.763 611.501 748.763 611.309C748.763 611.118 748.693 610.933 748.566 610.788C748.439 610.644 748.263 610.549 748.071 610.521Z" fill="#FCFCFC"/>
<path d="M649.166 598.697C648.974 598.724 648.799 598.819 648.672 598.964C648.545 599.108 648.475 599.293 648.475 599.484C648.475 599.676 648.545 599.86 648.672 600.005C648.799 600.15 648.974 600.245 649.166 600.272C649.359 600.245 649.534 600.15 649.661 600.005C649.788 599.86 649.858 599.676 649.858 599.484C649.858 599.293 649.788 599.108 649.661 598.964C649.534 598.819 649.359 598.724 649.166 598.697Z" fill="#FCFCFC"/>
<path d="M635.141 398.703C634.949 398.731 634.773 398.825 634.646 398.97C634.519 399.115 634.449 399.3 634.449 399.491C634.449 399.682 634.519 399.867 634.646 400.012C634.773 400.156 634.949 400.251 635.141 400.279C635.333 400.251 635.509 400.156 635.636 400.012C635.763 399.867 635.833 399.682 635.833 399.491C635.833 399.3 635.763 399.115 635.636 398.97C635.509 398.825 635.333 398.731 635.141 398.703Z" fill="#FCFCFC"/>
<path d="M576.764 583.29C576.572 583.317 576.396 583.412 576.269 583.557C576.142 583.701 576.072 583.886 576.072 584.077C576.072 584.269 576.142 584.453 576.269 584.598C576.396 584.743 576.572 584.838 576.764 584.865C576.956 584.838 577.132 584.743 577.259 584.598C577.386 584.453 577.456 584.269 577.456 584.077C577.456 583.886 577.386 583.701 577.259 583.557C577.132 583.412 576.956 583.317 576.764 583.29Z" fill="#FCFCFC"/>
<path d="M700.639 586.507C700.063 586.507 699.51 586.732 699.103 587.133C698.696 587.535 698.467 588.079 698.467 588.646C698.467 589.214 698.696 589.758 699.103 590.159C699.51 590.56 700.063 590.786 700.639 590.786C701.215 590.786 701.767 590.56 702.175 590.159C702.582 589.758 702.811 589.214 702.811 588.646C702.811 588.079 702.582 587.535 702.175 587.133C701.767 586.732 701.215 586.507 700.639 586.507Z" fill="#FCFCFC"/>
<path d="M587.018 576.042C586.442 576.042 585.889 576.267 585.482 576.669C585.075 577.07 584.846 577.614 584.846 578.181C584.846 578.749 585.075 579.293 585.482 579.694C585.889 580.095 586.442 580.321 587.018 580.321C587.594 580.321 588.146 580.095 588.554 579.694C588.961 579.293 589.19 578.749 589.19 578.181C589.19 577.614 588.961 577.07 588.554 576.669C588.146 576.267 587.594 576.042 587.018 576.042Z" fill="#FCFCFC"/>
<path d="M639.871 447.064C639.295 447.064 638.743 447.289 638.335 447.691C637.928 448.092 637.699 448.636 637.699 449.203C637.699 449.771 637.928 450.315 638.335 450.716C638.743 451.117 639.295 451.343 639.871 451.343C640.447 451.343 641 451.117 641.407 450.716C641.814 450.315 642.043 449.771 642.043 449.203C642.043 448.636 641.814 448.092 641.407 447.691C641 447.289 640.447 447.064 639.871 447.064Z" fill="#FCFCFC"/>
<path d="M715.592 539.688H568.195V584.45H715.592V539.688Z" fill="#37474F"/>
<path d="M609.887 556.82C609.639 556.569 609.362 556.346 609.062 556.157C608.663 555.901 608.24 555.685 607.799 555.51C607.288 555.297 606.758 555.131 606.216 555.012C605.664 554.885 605.1 554.818 604.533 554.813C603.491 554.736 602.451 554.992 601.569 555.543C601.262 555.776 601.016 556.079 600.852 556.425C600.688 556.771 600.61 557.151 600.626 557.533C600.61 557.951 600.715 558.366 600.929 558.727C601.163 559.061 601.475 559.334 601.839 559.523C602.333 559.79 602.859 559.996 603.404 560.137C604.011 560.319 604.735 560.502 605.577 560.717C606.508 560.925 607.424 561.191 608.321 561.513C609.069 561.773 609.773 562.142 610.409 562.608C610.961 563.023 611.41 563.556 611.722 564.167C612.044 564.881 612.199 565.658 612.177 566.439C612.206 567.335 612.009 568.224 611.604 569.026C611.232 569.737 610.689 570.346 610.022 570.801C609.312 571.264 608.526 571.601 607.698 571.796C606.76 572.014 605.799 572.119 604.836 572.111C603.337 572.121 601.848 571.892 600.424 571.431C599.028 571 597.722 570.326 596.568 569.441L598 566.771C598.326 567.074 598.681 567.346 599.06 567.583C599.591 567.911 600.156 568.183 600.744 568.396C601.387 568.666 602.051 568.882 602.731 569.043C603.457 569.224 604.204 569.313 604.954 569.308C605.961 569.364 606.965 569.14 607.85 568.661C608.176 568.466 608.443 568.187 608.621 567.854C608.799 567.521 608.882 567.147 608.86 566.771C608.873 566.325 608.737 565.888 608.473 565.527C608.183 565.16 607.815 564.859 607.395 564.648C606.858 564.366 606.294 564.138 605.711 563.968L603.404 563.321C602.519 563.102 601.647 562.83 600.795 562.509C600.123 562.264 599.497 561.911 598.942 561.464C598.474 561.067 598.09 560.582 597.814 560.037C597.549 559.408 597.422 558.729 597.444 558.047C597.427 557.154 597.617 556.27 598 555.46C598.371 554.727 598.899 554.082 599.549 553.569C600.234 553.042 601.018 552.654 601.855 552.425C602.79 552.151 603.76 552.017 604.735 552.027C606.016 552.015 607.289 552.234 608.489 552.674C609.563 553.06 610.577 553.591 611.503 554.249L609.887 556.82Z" fill="white"/>
<path d="M631.017 554.929H624.282V571.962H621.083V554.929H614.348V552.176H630.899L631.017 554.929Z" fill="white"/>
<path d="M638.745 552.177H641.524L649.421 571.962H646.053L643.931 566.588H636.186L634.149 571.962H630.781L638.745 552.177ZM643.359 564.25L640.194 555.759L636.826 564.25H643.359Z" fill="white"/>
<path d="M653.041 571.962V552.177H661.78C662.642 552.169 663.495 552.356 664.272 552.724C665.012 553.09 665.68 553.584 666.242 554.183C666.785 554.792 667.217 555.487 667.521 556.24C667.825 556.99 667.985 557.788 667.993 558.595C667.992 559.246 667.896 559.894 667.707 560.519C667.522 561.105 667.256 561.663 666.915 562.177C666.578 562.694 666.157 563.154 665.669 563.537C665.167 563.921 664.596 564.208 663.986 564.383L668.818 571.962H665.231L660.871 565.08H656.24V571.962H653.041ZM656.207 562.327H661.746C662.173 562.33 662.594 562.233 662.975 562.045C663.345 561.844 663.667 561.567 663.918 561.232C664.191 560.877 664.402 560.479 664.541 560.054C664.692 559.594 664.765 559.112 664.76 558.628C664.752 557.68 664.407 556.764 663.783 556.041C663.502 555.714 663.159 555.443 662.773 555.245C662.401 555.064 661.993 554.968 661.578 554.963H656.207V562.327Z" fill="white"/>
<path d="M687.339 554.93H680.604V571.962H677.405V554.93H670.67V552.177H687.339V554.93Z" fill="white"/>
<path d="M709.362 588.132H574.425L568.195 584.451H715.575L709.362 588.132Z" fill="#263238"/>
<path d="M945.56 715.667C945.846 719.349 935.154 720.41 930.692 718.022C927.086 715.478 923.65 712.708 920.404 709.73C909.679 700.393 894.862 686.727 894.862 686.727L883.884 691.603L830.256 709.182L807.643 651.568C807.643 651.568 833.589 640.755 858.257 631.069C862.062 629.577 865.8 628.134 869.437 626.741L870.11 626.475C886.662 620.206 900.418 615.463 901.782 616.525C905.587 618.979 945.274 711.952 945.56 715.667Z" fill="#D3766A"/>
<path d="M945.56 715.667C945.847 719.366 935.155 720.411 930.693 718.039C927.084 715.498 923.648 712.728 920.405 709.747C909.679 700.426 894.862 686.761 894.862 686.761L883.884 691.62L882.099 692.2L857.398 631.335L858.19 631.02L869.37 626.708L870.044 626.443C886.595 620.174 900.351 615.414 901.732 616.392C905.588 618.996 945.274 711.969 945.56 715.667Z" fill="#EBEBEB"/>
<path d="M946.503 717.027C946.284 713.246 907.052 618.084 903.23 615.397C901.799 614.352 887.386 619.178 870.144 625.497L869.605 625.696L894.205 687.357L895.249 686.926C895.249 686.926 926.803 716.778 931.332 719.25C935.862 721.721 946.756 720.792 946.503 717.027Z" fill="#1717DD"/>
<path d="M942.326 717.442C935.305 701.57 908.55 636.857 902.842 620.638C902.842 620.505 902.842 620.472 902.943 620.638C910.25 636.227 936.467 701.156 942.579 717.392C942.713 717.674 942.461 717.773 942.326 717.442Z" fill="#263238"/>
<path d="M897.201 694.124C893.396 688.286 891.207 680.176 893.834 673.526C893.935 673.277 894.305 673.41 894.322 673.642C894.828 680.465 896.075 687.215 898.043 693.776C898.09 693.886 898.091 694.009 898.045 694.12C897.999 694.23 897.911 694.318 897.799 694.364C897.687 694.411 897.562 694.411 897.45 694.366C897.338 694.321 897.248 694.234 897.201 694.124Z" fill="#263238"/>
<path d="M901.865 697.574C898.06 691.736 895.871 683.626 898.498 676.976C898.599 676.71 898.969 676.859 898.986 677.092C899.502 683.913 900.749 690.662 902.707 697.225C902.754 697.335 902.755 697.459 902.709 697.569C902.663 697.68 902.575 697.768 902.463 697.814C902.352 697.86 902.226 697.861 902.114 697.816C902.002 697.771 901.912 697.684 901.865 697.574Z" fill="#263238"/>
<path d="M906.53 701.006C902.742 695.168 900.536 687.059 903.163 680.408C903.264 680.159 903.634 680.292 903.651 680.524C904.162 687.348 905.416 694.098 907.389 700.658C907.436 700.77 907.436 700.896 907.388 701.008C907.341 701.12 907.25 701.209 907.136 701.255C907.023 701.301 906.895 701.301 906.781 701.254C906.667 701.208 906.577 701.118 906.53 701.006Z" fill="#263238"/>
<path d="M894.575 701.454C896.259 695.566 895.299 689.181 895.114 683.211C895.096 683.079 895.048 682.953 894.972 682.842C894.897 682.732 894.797 682.64 894.679 682.574C894.562 682.509 894.431 682.47 894.296 682.463C894.161 682.455 894.026 682.479 893.902 682.531C893.902 682.448 893.717 682.382 893.616 682.531C888.727 686.712 885.045 692.09 882.94 698.12C881.779 701.653 882.115 706.894 886.611 708.071C890.854 708.967 893.582 704.87 894.575 701.454ZM890.08 705.119C883.496 709.033 884.136 700.144 885.028 697.557C885.671 695.9 886.437 694.293 887.318 692.747C889.163 689.567 891.175 686.483 893.346 683.509C893.245 686.461 893.346 689.38 893.447 692.332C893.531 695.848 893.7 702.98 890.08 705.119Z" fill="#263238"/>
<path d="M875.162 665.3C871.794 668.418 874.101 673.161 876.845 675.665C881.685 679.903 887.575 682.809 893.919 684.09C893.946 684.095 893.974 684.094 894 684.087C894.027 684.08 894.051 684.068 894.072 684.05C894.093 684.033 894.11 684.011 894.121 683.986C894.133 683.962 894.138 683.935 894.138 683.908C894.273 683.894 894.402 683.85 894.517 683.779C894.631 683.707 894.727 683.611 894.798 683.497C894.868 683.382 894.91 683.254 894.921 683.121C894.932 682.988 894.912 682.854 894.862 682.73C892.033 677.423 889.676 671.386 885.281 667.091C882.756 664.57 878.344 662.348 875.162 665.3ZM888.935 675.533C890.383 678.12 891.713 680.757 893.262 683.278C889.888 681.734 886.594 680.024 883.395 678.153C881.866 677.218 880.398 676.187 879.001 675.068C876.879 673.294 871.895 665.831 879.573 666.063C883.816 666.195 887.201 672.464 888.935 675.533Z" fill="#263238"/>
<path opacity="0.1" d="M946.501 717.027C946.754 720.808 935.843 721.754 931.347 719.249C926.852 716.745 895.264 686.926 895.264 686.926L894.22 687.374L874.756 638.632L913.062 635.232C925.892 664.04 946.35 714.307 946.501 717.027Z" fill="black"/>
<path d="M874.135 702.217C874.135 702.217 757.551 728.586 714.665 720.974C694.157 717.325 679.306 691.321 689.206 671.403C698.4 652.811 754.671 633.938 770.566 622.992C775.617 619.576 775.045 605.977 775.045 605.977L816.802 605.429C816.802 605.429 831.687 628.731 825.39 640.075C825.289 640.257 825.171 640.439 825.036 640.638L843.928 633.573L874.135 702.217Z" fill="#37474F"/>
<path d="M848.322 671.171C843.674 661.22 838.573 651.502 833.841 641.601C833.757 641.418 833.454 641.518 833.538 641.717C838 651.668 842.108 661.817 846.756 671.718C851.403 681.619 856.437 691.404 861.32 701.239C861.438 701.504 861.859 701.355 861.741 701.09C857.246 691.139 852.952 681.089 848.322 671.171Z" fill="#263238"/>
<path d="M825.306 641.103C822.426 642.762 819.682 644.669 816.887 646.46C814.092 648.251 811.347 649.943 808.468 651.601C802.76 654.918 796.934 658.053 791.024 661.021C779.129 667.029 766.838 672.243 754.234 676.627C747.196 679.065 740.09 681.437 732.867 683.261C732.698 683.261 732.783 683.526 732.867 683.493C738.137 682.249 743.407 681.039 748.61 679.579C745.849 681.238 743.138 683.079 740.393 684.82C740.374 684.841 740.363 684.868 740.361 684.896C740.358 684.924 740.365 684.952 740.38 684.976C740.395 685.001 740.418 685.019 740.444 685.03C740.471 685.041 740.5 685.043 740.528 685.036C743.525 683.244 746.573 681.536 749.553 679.712C749.588 679.692 749.618 679.665 749.642 679.632C749.666 679.6 749.682 679.563 749.69 679.523C749.698 679.484 749.697 679.444 749.688 679.405C749.679 679.366 749.662 679.329 749.637 679.297L752.297 678.534C758.746 676.561 765.111 674.355 771.358 671.901C783.729 666.992 795.654 661.056 807.003 654.155C810.202 652.198 813.362 650.186 816.483 648.118C819.622 646.101 822.625 643.885 825.474 641.485C825.828 641.286 825.541 640.97 825.306 641.103Z" fill="#263238"/>
<path d="M990.297 729.78C990.583 733.462 979.891 734.507 975.429 732.135C971.823 729.591 968.387 726.821 965.141 723.843C954.433 714.506 939.599 700.84 939.599 700.84L928.637 705.7L876.609 723.23L852.346 665.615C852.346 665.615 878.293 654.802 902.977 645.116L914.14 640.804L914.813 640.539C931.382 634.27 945.121 629.527 946.502 630.489C950.324 633.093 990.011 726.065 990.297 729.78Z" fill="#D3766A"/>
<path d="M990.297 729.781C990.583 733.463 979.891 734.524 975.429 732.136C971.823 729.592 968.386 726.822 965.141 723.844C954.432 714.506 939.598 700.841 939.598 700.841L928.637 705.717L927.172 706.214L901.596 645.714L903.01 645.166C906.799 643.674 910.537 642.231 914.173 640.838L914.847 640.573C931.415 634.304 945.155 629.56 946.535 630.539C950.324 633.093 990.01 726.066 990.297 729.781Z" fill="#EBEBEB"/>
<path d="M991.273 730.61C990.987 726.829 950.442 632.214 946.569 629.577C945.121 628.549 930.775 633.574 913.635 640.125L913.096 640.324L938.554 701.687L939.598 701.239C939.598 701.239 971.59 730.61 976.136 733.065C980.682 735.519 991.576 734.375 991.273 730.61Z" fill="#1717DD"/>
<path d="M987.048 731.074C979.808 715.302 952.144 650.954 946.217 634.884C946.217 634.751 946.217 634.718 946.318 634.884C953.844 650.374 980.97 714.937 987.301 731.074C987.486 731.306 987.25 731.406 987.048 731.074Z" fill="#263238"/>
<path d="M941.586 708.386C937.696 702.598 935.39 694.521 937.882 687.838C937.966 687.572 938.353 687.705 938.37 687.937C938.998 694.734 940.364 701.445 942.445 707.955C942.503 708.067 942.513 708.197 942.474 708.317C942.434 708.437 942.348 708.536 942.234 708.593C942.12 708.65 941.988 708.661 941.866 708.622C941.745 708.583 941.644 708.498 941.586 708.386Z" fill="#263238"/>
<path d="M946.367 711.753C942.478 705.982 940.171 697.889 942.663 691.205C942.747 690.956 943.134 691.089 943.151 691.321C943.752 698.138 945.096 704.871 947.158 711.405C947.187 711.505 947.179 711.612 947.134 711.706C947.09 711.8 947.012 711.875 946.916 711.917C946.82 711.96 946.711 711.966 946.61 711.936C946.51 711.906 946.423 711.841 946.367 711.753Z" fill="#263238"/>
<path d="M951.082 715.137C947.192 709.349 944.886 701.272 947.378 694.588C947.462 694.323 947.832 694.472 947.866 694.704C948.467 701.516 949.811 708.244 951.873 714.772C951.914 714.874 951.914 714.987 951.872 715.089C951.831 715.191 951.752 715.273 951.651 715.32C951.551 715.366 951.436 715.373 951.33 715.339C951.224 715.305 951.135 715.233 951.082 715.137Z" fill="#263238"/>
<path d="M939.127 715.734C940.727 709.83 939.683 703.461 939.397 697.491C939.38 697.359 939.332 697.232 939.256 697.122C939.181 697.012 939.08 696.92 938.962 696.856C938.844 696.791 938.712 696.755 938.577 696.75C938.441 696.745 938.307 696.771 938.185 696.827C938.185 696.827 937.999 696.678 937.898 696.827C933.07 701.078 929.464 706.506 927.442 712.566C926.331 716.115 926.752 721.356 931.247 722.384C935.743 723.412 938.218 719.183 939.127 715.734ZM934.682 719.465C928.166 723.479 928.671 714.49 929.631 711.969C930.268 710.311 931.011 708.693 931.854 707.126C933.537 703.809 935.726 700.89 937.764 697.806C937.764 700.758 937.915 703.693 937.982 706.645C937.999 710.161 938.218 717.243 934.682 719.465Z" fill="#263238"/>
<path d="M919.207 679.845C915.84 683.012 918.265 687.722 921.077 690.194C925.971 694.363 931.895 697.188 938.251 698.386C938.402 698.386 938.47 698.303 938.487 698.187C938.62 698.172 938.748 698.127 938.86 698.054C938.972 697.982 939.066 697.884 939.133 697.77C939.2 697.655 939.239 697.527 939.247 697.395C939.254 697.263 939.231 697.131 939.177 697.01C936.281 691.736 933.856 685.749 929.394 681.503C926.784 679.032 922.339 676.86 919.207 679.845ZM933.132 689.912C934.614 692.466 935.961 695.086 937.561 697.59C934.166 696.098 930.851 694.437 927.626 692.615C926.074 691.714 924.588 690.705 923.181 689.596C921.043 687.855 915.958 680.458 923.636 680.591C927.879 680.641 931.347 686.86 933.166 689.912H933.132Z" fill="#263238"/>
<path d="M789.407 605.712L861.219 604.65C861.219 604.65 876.373 642.795 870.143 654.188C863.914 665.582 797.741 681.768 797.741 681.768L888.665 647.687L918.973 716.314C918.973 716.314 808.315 740.046 749.636 734.159C727.629 731.953 713.822 703.643 726.72 681.884C740.274 658.998 789.474 627.686 789.474 627.686L789.407 605.712Z" fill="#37474F"/>
<path d="M886.242 647.521C858.426 660.043 830.341 672.017 801.632 682.448C797.636 683.908 793.64 685.345 789.644 686.76C785.502 688.22 781.377 689.911 777.134 691.089C776.932 691.089 777.033 691.47 777.235 691.404C780.888 690.044 784.694 689.082 788.415 687.888C792.136 686.694 795.672 685.516 799.275 684.289L803.956 682.631L803.013 683.278C801.582 684.206 800.151 685.152 798.736 686.13C795.84 688.153 793.129 690.542 790.082 692.333C789.897 692.432 790.082 692.731 790.267 692.598C793.163 690.575 796.43 689.066 799.41 687.158C800.841 686.23 802.255 685.251 803.67 684.273C804.992 683.423 806.242 682.469 807.408 681.42C811.988 679.762 816.551 678.103 821.08 676.445C835.392 671.093 849.519 665.311 863.46 659.097C871.256 655.615 878.968 651.999 886.595 648.185C886.983 648.019 886.663 647.322 886.242 647.521Z" fill="#263238"/>
<path d="M894.676 684.736C890.028 674.786 884.927 665.067 880.195 655.166C880.111 654.984 879.791 655.083 879.875 655.282C884.337 665.233 888.463 675.383 893.11 685.284C897.757 695.185 902.791 704.986 907.657 714.821C907.792 715.07 908.213 714.937 908.078 714.672C903.583 704.638 899.306 694.588 894.676 684.736Z" fill="#263238"/>
<path d="M788.228 628.433C780.327 632.855 772.748 637.815 765.548 643.276C758.341 648.533 751.37 654.089 744.72 660.026C741.352 663.012 738.119 666.129 734.987 669.347C731.948 672.373 729.187 675.658 726.737 679.165C722.385 685.505 720.289 693.087 720.776 700.725C721.067 704.784 722.034 708.767 723.639 712.516C725.364 716.179 727.603 719.584 730.29 722.633C730.391 722.766 730.576 722.633 730.458 722.451C727.937 719.64 726.028 716.349 724.851 712.782C722.947 707.713 722.21 702.291 722.694 696.908C723.177 691.524 724.869 686.314 727.646 681.653C732.058 674.438 738.54 668.468 744.703 662.73C751.068 656.818 757.733 651.228 764.672 645.979C768.556 643.027 772.485 640.147 776.459 637.339C780.449 634.519 784.524 631.816 788.43 628.864C788.47 628.828 788.497 628.781 788.508 628.729C788.519 628.677 788.513 628.623 788.49 628.575C788.468 628.527 788.43 628.487 788.383 628.462C788.336 628.436 788.282 628.426 788.228 628.433Z" fill="#263238"/>
<path d="M809.107 631.285C803.138 629.467 796.983 628.305 790.754 627.819C784.642 627.155 778.513 626.824 772.351 626.741C772.182 626.741 772.199 626.973 772.351 626.989C778.597 627.537 784.827 628.316 791.007 629.228C797.186 630.141 802.995 631.384 809.04 631.865C809.393 631.882 809.393 631.384 809.107 631.285Z" fill="#263238"/>
<path d="M857.936 632.114C854.107 632.026 850.288 631.688 846.504 631.102C843.323 630.951 840.234 630.004 837.529 628.349C832.478 624.585 830.356 617.967 829.279 612.063C829.279 611.931 829.009 611.964 829.026 612.063C829.902 618.482 830.188 625.862 835.93 630.174C838.798 632.119 842.196 633.166 845.679 633.175C849.78 633.341 853.887 633.091 857.936 632.429C857.957 632.429 857.978 632.425 857.998 632.417C858.017 632.409 858.035 632.398 858.05 632.383C858.064 632.368 858.076 632.351 858.084 632.332C858.092 632.313 858.096 632.292 858.096 632.272C858.096 632.251 858.092 632.23 858.084 632.211C858.076 632.192 858.064 632.175 858.05 632.16C858.035 632.146 858.017 632.134 857.998 632.126C857.978 632.118 857.957 632.114 857.936 632.114Z" fill="#263238"/>
<path d="M865.816 642.314C865.422 638.588 864.746 634.896 863.796 631.269C862.903 627.537 861.826 623.855 860.63 620.207C859.266 616.077 857.684 611.997 856.034 607.967C856.034 607.818 855.731 607.967 855.781 607.967C858.155 614.8 860.327 621.716 862.129 628.714C863.027 632.186 863.824 635.669 864.52 639.163C865.353 642.541 865.353 646.067 864.52 649.445C863.534 652.876 861.536 655.941 858.778 658.252C858.778 658.252 858.778 658.334 858.778 658.252C861.189 656.367 863.091 653.928 864.319 651.149C865.546 648.369 866.06 645.335 865.816 642.314Z" fill="#263238"/>
<path d="M878.125 663.293C873.275 664.537 868.527 666.179 863.762 667.705C858.997 669.23 854.232 670.74 849.467 672.298C839.954 675.433 830.474 678.667 820.994 681.884C815.606 683.725 810.269 685.682 804.914 687.606C804.763 687.606 804.83 687.888 804.914 687.838C824.076 681.978 843.113 675.765 862.028 669.197C867.399 667.34 872.854 665.615 878.108 663.459C878.276 663.409 878.226 663.26 878.125 663.293Z" fill="#263238"/>
<path d="M739.198 552.309L751.321 554.863C756.223 548.774 759.073 541.33 759.471 533.569C759.588 531.794 761.828 542.524 757.484 556.173C770.28 558.893 787.707 562.558 802.945 565.643C804.377 559.805 805.959 554.482 805.959 554.482C805.704 558.424 805.805 562.381 806.262 566.306C808.334 566.754 810.388 567.136 812.341 567.534C813.865 559.14 815.854 550.836 818.301 542.657C817.719 551.589 818.635 560.554 821.012 569.192C830.711 571.05 837.126 572.078 836.806 571.547C825.323 552.226 837.917 544.697 836.553 529.323C834.87 510.881 820.137 505.242 823.083 492.19C825.491 481.559 830.576 462.421 817.662 455.704C814.636 451.442 810.406 448.15 805.496 446.236C800.587 444.323 795.215 443.872 790.048 444.941C766.795 449.054 769.018 483.632 766.239 490.067C762.299 499.255 757.012 501.759 751.456 512.042C745.899 522.324 749.486 530.733 748.627 538.328C747.768 545.924 736.773 551.828 739.198 552.309Z" fill="#263238"/>
<path d="M837.698 569.308C836.238 566.045 835.257 562.594 834.785 559.059C834.544 555.602 835.223 552.144 836.755 549.025C838.208 545.683 839.478 542.268 840.56 538.792C841.672 535.163 842.033 531.351 841.621 527.581C841.115 523.801 839.745 520.183 837.614 517C835.519 513.98 833.182 511.13 830.626 508.476C828.143 505.932 826.004 503.084 824.261 500.001C822.64 496.822 821.935 493.265 822.224 489.719C821.38 493.322 821.668 497.093 823.049 500.532C824.533 503.913 826.526 507.055 828.959 509.852C831.269 512.557 833.401 515.404 835.341 518.377C837.147 521.28 838.296 524.533 838.708 527.913C839.048 531.321 838.745 534.762 837.816 538.063C836.957 541.38 835.644 544.697 834.448 548.229C833.848 549.989 833.381 551.791 833.051 553.619C832.775 555.5 832.838 557.415 833.236 559.274C834.1 562.855 835.612 566.254 837.698 569.308Z" fill="#263238"/>
<path d="M775.466 454.942C773.167 458.779 771.351 462.878 770.061 467.148C768.68 471.377 767.502 475.672 766.374 479.951L764.69 486.336C764.166 488.405 763.433 490.416 762.501 492.34C760.461 496.111 757.739 499.483 754.469 502.291C752.803 503.839 751.25 505.501 749.822 507.266C748.387 509.104 747.167 511.096 746.185 513.203C745.271 515.305 744.522 517.473 743.946 519.688C743.351 521.919 743.04 524.214 743.02 526.521C743.02 528.826 743.205 531.048 743.34 533.154C743.489 535.311 743.427 537.477 743.154 539.622C742.809 541.758 741.953 543.782 740.656 545.527C739.359 547.272 737.658 548.687 735.695 549.656C737.874 548.873 739.821 547.569 741.361 545.861C742.901 544.153 743.986 542.095 744.518 539.871C744.993 537.651 745.236 535.39 745.242 533.121C745.242 530.866 745.124 528.677 745.242 526.487C745.604 522.235 746.745 518.083 748.61 514.231C749.537 512.339 750.666 510.549 751.977 508.891C753.346 507.211 754.832 505.626 756.422 504.148C758.074 502.57 759.642 500.909 761.12 499.173C762.638 497.387 763.911 495.413 764.909 493.302C765.846 491.198 766.574 489.01 767.081 486.767C767.62 484.611 768.074 482.439 768.529 480.266C769.472 475.938 770.33 471.609 771.374 467.33C772.31 463.075 773.681 458.925 775.466 454.942Z" fill="#263238"/>
<path d="M804.965 518.244C792.354 537.963 767.721 564.681 750.664 574.018C743.306 578.048 711.146 579.541 691.564 577.866C684.256 577.236 691.968 539.075 699.983 538.892C705.438 538.776 733.86 543.387 737.918 542.027C745.394 539.539 773.092 518.941 792.102 508.559C802.709 502.771 812.812 505.972 804.965 518.244Z" fill="#D3766A"/>
<path d="M712.374 541.861C699.174 537.002 683.026 530.169 667.367 532.889C665.622 533.148 664.015 533.977 662.804 535.244C655.766 536.338 654.183 539.937 654.183 539.937C647.937 542.939 646.825 546.853 646.825 546.853C646.825 546.853 638.575 548.23 638.592 553.271C638.592 558.943 650.176 555.908 657.585 558.064C674.574 563.039 699.797 575.511 704.562 577.418L712.374 541.861Z" fill="#D3766A"/>
<path d="M679.069 550.966C674.103 549.463 669.04 548.288 663.915 547.45C658.269 546.915 652.59 546.793 646.926 547.085C646.896 547.075 646.87 547.056 646.852 547.031C646.834 547.005 646.824 546.975 646.824 546.944C646.824 546.913 646.834 546.883 646.852 546.858C646.87 546.833 646.896 546.813 646.926 546.803C657.84 545.213 668.989 546.607 679.153 550.833C679.372 550.85 679.322 551.032 679.069 550.966Z" fill="#263238"/>
<path d="M683.599 541.313C678.631 540.252 669.893 538.444 654.166 540.136C654.166 540.136 654.082 540.053 654.166 540.036C663.912 537.67 674.135 538.032 683.683 541.081C683.969 541.164 683.969 541.38 683.599 541.313Z" fill="#263238"/>
<path d="M685.94 536.073C678.3 534.778 670.516 534.516 662.805 535.294V535.211C673.008 533.552 676.915 534 686.024 535.791C686.344 535.858 686.276 536.139 685.94 536.073Z" fill="#263238"/>
<path d="M677.673 565.328C679.626 566.838 678.835 567.849 674.423 567.849C670.012 567.849 652.535 564.184 651.76 570.287C650.985 576.39 675.686 580.055 683.028 580.669C690.373 581.3 697.764 580.162 704.563 577.352C699.933 575.528 686.681 569.143 677.673 565.328Z" fill="#D3766A"/>
<path d="M759.537 525.36L780.197 556.174C780.197 556.174 800.705 534.116 806.75 518.726C812.795 503.335 804.662 502.722 793.28 507.482C781.898 512.241 759.537 525.36 759.537 525.36Z" fill="#1717DD"/>
<path d="M766.339 524.315C766.205 524.099 766.019 524.132 766.137 524.315C771.406 533.266 777.237 541.885 783.598 550.12C783.598 550.12 783.733 550.12 783.699 550.12C781.392 545.427 767.787 526.553 766.339 524.315Z" fill="#263238"/>
<path opacity="0.1" d="M806.767 518.725C800.722 534.116 780.197 556.173 780.197 556.173L766.205 535.293L805.201 505.01C809.006 505.839 810.252 509.803 806.767 518.725Z" fill="black"/>
<path d="M774.269 579.425L771.996 617.686C771.996 617.686 847.294 613.423 868.055 611.897C868.055 611.897 846.722 536.554 824.277 512.622C813.08 500.648 799.93 501.544 791.561 509.903C789.44 512.025 768.679 544.183 766.019 556.77C763.762 567.866 774.269 579.425 774.269 579.425Z" fill="#1717DD"/>
<path d="M802.708 573.421C798.672 573.065 794.615 572.998 790.568 573.222C788.565 573.372 786.578 573.604 784.591 573.869C783.598 574.002 782.604 574.118 781.611 574.201C780.566 574.333 779.507 574.333 778.462 574.201C778.378 574.201 778.361 574.317 778.462 574.333C779.427 574.555 780.406 574.71 781.392 574.798C782.35 574.872 783.313 574.872 784.271 574.798C786.309 574.682 788.346 574.466 790.383 574.317C794.492 574.035 798.583 573.736 802.708 573.736C802.877 573.753 802.894 573.438 802.708 573.421Z" fill="#263238"/>
<path d="M811.935 578.596C808.731 577.669 805.476 576.922 802.186 576.357C800.502 576.091 798.819 575.909 797.219 575.776L794.828 575.61C793.952 575.61 793.06 575.61 792.201 575.61C792.1 575.61 792.083 575.743 792.201 575.76C793.026 575.76 793.885 576.042 794.66 576.174L797.118 576.556L802.068 577.319C805.352 577.8 808.635 578.297 811.918 578.894C811.958 578.896 811.998 578.883 812.028 578.856C812.058 578.83 812.076 578.793 812.078 578.753C812.08 578.714 812.067 578.675 812.04 578.645C812.013 578.616 811.975 578.598 811.935 578.596Z" fill="#263238"/>
<path opacity="0.3" d="M816.651 506.487L793.954 507.863L794.762 507.266L815.725 506.006C816.028 506.155 816.348 506.304 816.651 506.487ZM820.759 509.289L790.671 511.114C790.553 511.296 790.401 511.479 790.266 511.694L821.382 509.803C821.187 509.618 820.979 509.447 820.759 509.289ZM824.38 512.606L788.094 514.795C787.993 514.978 787.859 515.177 787.724 515.376L824.767 513.12C824.645 512.96 824.516 512.805 824.38 512.656V512.606ZM827.276 516.023L785.67 518.544C785.552 518.726 785.434 518.925 785.299 519.107L827.697 516.553C827.565 516.386 827.425 516.225 827.276 516.072V516.023ZM829.835 519.439L783.312 522.308C783.211 522.507 783.094 522.69 782.976 522.889L830.121 520.02L829.835 519.439ZM832.125 522.905L781.056 525.99C780.955 526.189 780.837 526.371 780.719 526.57L832.462 523.436C832.363 523.27 832.256 523.11 832.142 522.955L832.125 522.905ZM834.246 526.355L778.867 529.672C778.751 529.86 778.644 530.053 778.547 530.252L834.566 526.935L834.246 526.355ZM836.25 529.821L776.712 533.436C776.615 533.63 776.509 533.818 776.392 534L836.536 530.352C836.452 530.219 836.351 530.053 836.25 529.871V529.821ZM838.119 533.287L774.675 537.135C774.561 537.316 774.459 537.504 774.372 537.699L838.355 533.818L838.119 533.287ZM839.921 536.787L772.688 540.85L772.402 541.414L840.19 537.317L839.921 536.787ZM841.604 540.253L770.802 544.548L770.533 545.112L841.857 540.783L841.604 540.253ZM843.288 543.752L769.101 548.246C769.017 548.445 768.933 548.628 768.866 548.81L843.524 544.283C843.44 544.15 843.356 543.984 843.288 543.769V543.752ZM844.854 547.235L767.586 551.912C767.502 552.111 767.435 552.293 767.367 552.475L845.09 547.765C845.02 547.601 844.941 547.441 844.854 547.285V547.235ZM846.386 550.734L766.357 555.593C766.357 555.776 766.256 555.958 766.222 556.141L846.622 551.265C846.552 551.101 846.473 550.94 846.386 550.784V550.734ZM847.885 554.233L765.768 559.209C765.768 559.391 765.768 559.574 765.768 559.756L848.138 554.781L847.885 554.233ZM849.35 557.733L765.97 562.841C765.97 563.023 765.97 563.206 766.054 563.388L849.569 558.313C849.485 558.131 849.417 557.965 849.35 557.783V557.733ZM850.747 561.232L766.761 566.324C766.761 566.489 766.879 566.672 766.946 566.854L850.966 561.763C850.902 561.599 850.829 561.438 850.747 561.282V561.232ZM852.128 564.731L768.159 569.889L768.411 570.42L852.347 565.329L852.128 564.731ZM853.475 568.231L769.926 573.306L770.246 573.836L853.677 568.861C853.627 568.645 853.542 568.48 853.475 568.281V568.231ZM854.805 571.747L772.2 576.722L772.57 577.253L854.99 572.277C854.94 572.161 854.873 571.962 854.805 571.796V571.747ZM856.102 575.246L774.22 580.221V580.769L856.321 575.793C856.239 575.626 856.166 575.454 856.102 575.279V575.246ZM857.348 578.779L774.001 583.754V584.318L857.567 579.243C857.482 579.193 857.398 579.011 857.398 578.828L857.348 578.779ZM858.577 582.278L773.799 587.419V587.983L858.813 582.825L858.577 582.278ZM859.806 585.794L773.58 591.018V591.582L860.025 586.341C859.924 586.208 859.857 586.026 859.806 585.844V585.794ZM860.985 589.31L773.429 594.617V595.181L861.288 589.857L860.985 589.31ZM862.146 592.826L773.21 598.282V598.829L862.45 593.423C862.281 593.24 862.214 593.058 862.146 592.875V592.826ZM863.291 596.342L772.94 601.814V602.378L863.51 596.905C863.426 596.839 863.359 596.574 863.291 596.391V596.342ZM864.42 599.874L772.722 605.43V605.977L864.622 600.405C864.537 600.272 864.487 600.156 864.42 599.924V599.874ZM865.514 603.39L772.503 609.012V609.593L865.716 603.937C865.632 603.805 865.581 603.622 865.514 603.473V603.39ZM866.608 606.906L772.317 612.628V613.175L866.81 607.453C866.709 607.337 866.659 607.138 866.608 606.956V606.906ZM867.652 610.422L772.082 616.226V616.79L867.838 610.986C867.753 610.87 867.703 610.687 867.652 610.472V610.422Z" fill="#37474F"/>
<path d="M833.203 525.26C843.794 548.478 860.767 593.854 856.018 605.231C846.472 628.134 808.149 648.649 797.002 653.326C791.766 655.482 767.267 623.159 771.426 618.847C775.972 614.12 816.029 590.653 816.719 585.346C817.292 580.934 814.564 552.873 812.88 531.33C810.776 504.082 824.246 505.624 833.203 525.26Z" fill="#D3766A"/>
<path d="M783.043 611.218C783.043 611.218 765.767 614.12 754.553 616.541C748.307 617.885 737.8 621.152 733.658 624.203C727.478 628.797 704.596 651.833 710.085 657.373C715.136 662.431 732.227 640.174 732.227 640.174C732.227 640.174 712.947 661.121 720.137 666.129C727.327 671.138 743.272 643.425 743.272 643.425C743.272 643.425 723.942 665.399 732.176 669.396C738.406 672.415 754.284 648.152 754.284 648.152C754.284 648.152 737.8 667.141 744.08 670.524C751.001 674.239 767.081 652.745 767.081 652.745C784.474 658.683 795.233 654.503 802.524 650.623C804.342 649.744 783.043 611.218 783.043 611.218Z" fill="#D3766A"/>
<path d="M737.598 633.574C722.191 647.936 719.076 659.628 719.262 659.346C722.713 652.38 730.189 643.043 732.328 640.456C734.466 637.869 735.577 636.227 737.699 633.64C737.749 633.59 737.648 633.524 737.598 633.574Z" fill="#263238"/>
<path d="M748.072 639.959C741.581 645.499 736.143 652.131 732.008 659.545C731.857 659.844 732.008 659.827 732.227 659.545C734.837 656.228 745.378 643.226 748.156 640.009C748.206 639.959 748.122 639.959 748.072 639.959Z" fill="#263238"/>
<path d="M757.466 644.934C752.533 649.337 748.469 654.6 745.478 660.457C745.326 660.739 745.579 660.723 745.781 660.457C749.654 655.217 752.668 651.087 757.567 645.1C757.719 644.934 757.567 644.785 757.466 644.934Z" fill="#263238"/>
<path d="M810.91 559.109L848.188 555.212C848.188 555.212 837.749 527.117 826.653 514.745C815.557 502.373 811.263 509.223 810.354 521.379C809.445 533.536 810.91 559.109 810.91 559.109Z" fill="#1717DD"/>
<path d="M813.097 552.674C812.845 552.674 812.794 552.873 813.097 552.857C823.588 552.369 834.036 551.234 844.382 549.457V549.324C839.112 549.258 815.791 552.442 813.097 552.674Z" fill="#263238"/>
<path d="M809.865 530.733C809.865 540.253 810.286 550.236 810.64 559.524C810.64 559.69 812.206 559.258 812.846 559.142C813.098 559.142 812.963 558.844 812.728 558.877C812.268 558.918 811.806 558.918 811.347 558.877C810.993 549.49 810.623 540.103 809.983 530.683C809.983 530.667 809.865 530.667 809.865 530.733Z" fill="#263238"/>
<path d="M810.252 509.787C809.848 511.445 801.834 522.01 794.156 521.595C791.68 521.446 791.866 508.062 791.866 508.062L791.647 507.083L788.633 493.202L805.252 482.936L807.643 481.576C807.643 481.576 808.215 485.424 808.872 490.217L808.973 490.897C808.973 491.179 808.973 491.428 809.091 491.676C809.192 492.406 809.309 493.136 809.394 493.866C809.478 494.595 809.545 494.96 809.596 495.524C809.646 496.088 809.714 496.685 809.781 497.265C810.232 501.423 810.389 505.607 810.252 509.787Z" fill="#D3766A"/>
<path d="M808.854 490.217C807.4 494.092 805.106 497.609 802.131 500.522C799.156 503.435 795.572 505.674 791.629 507.083L788.615 493.202L805.234 482.936L807.625 481.576C807.625 481.576 808.197 485.424 808.854 490.217Z" fill="#263238"/>
<path d="M772.216 460.928C758.746 481.974 769.96 492.323 774.574 495.175C778.749 497.779 793.331 506.121 808.99 486.568C824.649 467.015 818.975 454.195 809.731 447.744C800.487 441.292 785.737 439.899 772.216 460.928Z" fill="#D3766A"/>
<path d="M777.738 459.9C778.289 460.093 778.851 460.254 779.422 460.381C779.985 460.639 780.619 460.703 781.223 460.564C781.402 460.483 781.55 460.348 781.644 460.177C781.739 460.007 781.774 459.811 781.745 459.619C781.625 459.245 781.405 458.909 781.109 458.647C780.813 458.385 780.451 458.205 780.061 458.126C779.303 457.835 778.462 457.835 777.704 458.126C777.521 458.196 777.364 458.32 777.254 458.481C777.145 458.641 777.088 458.831 777.092 459.025C777.096 459.218 777.16 459.406 777.275 459.563C777.391 459.719 777.552 459.837 777.738 459.9Z" fill="#263238"/>
<path d="M791.966 467.977C791.5 467.633 791.056 467.262 790.636 466.866C790.106 466.548 789.703 466.063 789.491 465.489C789.458 465.295 789.491 465.095 789.586 464.921C789.68 464.747 789.83 464.609 790.013 464.527C790.394 464.423 790.797 464.422 791.18 464.524C791.562 464.626 791.909 464.828 792.185 465.108C792.839 465.582 793.29 466.28 793.448 467.065C793.48 467.247 793.456 467.434 793.38 467.603C793.303 467.772 793.178 467.914 793.018 468.012C792.859 468.11 792.674 468.159 792.487 468.153C792.299 468.146 792.118 468.085 791.966 467.977Z" fill="#263238"/>
<path d="M785.973 471.941C785.973 471.941 786.057 472.073 785.973 472.123C785.08 473.583 784.289 475.44 785.366 476.634C785.366 476.634 785.366 476.734 785.366 476.634C783.817 475.556 784.878 473.168 785.973 471.941Z" fill="#263238"/>
<path d="M788.195 471.144C790.704 472.322 788.195 477.165 785.821 476.12C783.447 475.075 786.09 470.166 788.195 471.144Z" fill="#263238"/>
<path d="M789.037 471.891C789.323 472.388 789.475 473.102 789.98 473.417C790.485 473.732 791.26 473.5 791.916 473.218C791.916 473.218 792 473.218 791.916 473.317C791.757 473.799 791.418 474.204 790.968 474.45C790.519 474.696 789.991 474.765 789.492 474.644C788.498 474.296 788.279 473.135 788.532 472.073C788.633 471.874 788.919 471.692 789.037 471.891Z" fill="#263238"/>
<path d="M777.687 466.916C777.687 466.916 777.535 466.916 777.501 466.916C776.76 468.441 775.666 470.083 774.016 469.884C774.016 469.884 773.932 469.967 774.016 469.984C775.801 470.68 777.249 468.491 777.687 466.916Z" fill="#263238"/>
<path d="M777.132 464.66C774.758 463.234 772.08 467.977 774.253 469.32C776.425 470.663 779.119 465.821 777.132 464.66Z" fill="#263238"/>
<path d="M775.937 464.411C775.415 464.411 774.775 464.709 774.253 464.411C773.731 464.112 773.596 463.432 773.546 462.752C773.546 462.67 773.546 462.752 773.445 462.752C773.117 463.126 772.938 463.603 772.938 464.096C772.938 464.589 773.117 465.066 773.445 465.439C774.152 466.053 775.128 465.588 775.937 464.809C776.139 464.726 776.155 464.394 775.937 464.411Z" fill="#263238"/>
<path d="M780.062 483.649C779.553 483.937 778.96 484.048 778.379 483.964C777.803 483.683 777.293 483.288 776.88 482.803C776.88 482.803 776.762 482.803 776.779 482.803C776.856 483.208 777.044 483.585 777.324 483.892C777.603 484.199 777.962 484.424 778.362 484.545C778.718 484.606 779.085 484.564 779.417 484.422C779.749 484.281 780.032 484.047 780.231 483.749C780.231 483.749 780.147 483.632 780.062 483.649Z" fill="#263238"/>
<path d="M776.577 474.909C776.577 474.909 775.061 476.982 774.489 478.027C774.489 478.127 774.657 478.309 775.011 478.525C775.838 479.172 776.831 479.582 777.88 479.708C778.929 479.834 779.993 479.671 780.954 479.238C781.089 479.238 780.954 479.006 780.87 479.022C779.007 479.215 777.13 478.814 775.516 477.878C775.6 477.546 778.26 474.428 778.092 474.329C777.222 473.957 776.304 473.705 775.364 473.583C778.412 469.188 782.099 465.29 785.13 460.879C785.231 460.73 785.012 460.547 784.878 460.663C780.741 464.712 777.024 469.157 773.782 473.931C773.495 474.495 776.122 474.86 776.577 474.909Z" fill="#263238"/>
<path d="M775.447 478.209C775.594 479.412 776.058 480.556 776.794 481.526C777.228 482.043 777.818 482.409 778.478 482.571C779.859 482.953 780.532 481.875 780.852 480.813C781.019 480.246 781.121 479.662 781.155 479.072C779.208 479.405 777.203 479.103 775.447 478.209Z" fill="#263238"/>
<path d="M776.797 481.477C777.23 481.993 777.82 482.36 778.481 482.522C779.861 482.903 780.535 481.825 780.855 480.764C780.198 480.405 779.436 480.28 778.697 480.41C777.958 480.54 777.287 480.917 776.797 481.477Z" fill="#FF99BA"/>
<path d="M806.414 486.535C801.009 483.517 808.233 466.037 809.142 463.897C808.502 465.207 805.067 472.189 804.394 472.189C804.208 472.189 803.67 471.742 802.828 470.979C803.265 470.157 803.636 469.303 803.939 468.425C804.091 468.027 803.35 469.188 802.356 470.548L801.481 469.751C802.471 468.027 803.224 466.181 803.72 464.262C803.905 463.532 802.188 466.368 800.201 468.591C796.226 464.808 791.838 461.471 787.118 458.64C785.771 457.877 784.576 457.296 783.498 456.799C784.559 454.776 785.94 452.736 785.552 453.117C784.491 454.128 783.532 455.239 782.69 456.434L781.006 455.738C782.37 452.802 786.175 448.954 785.333 449.402C782.821 450.854 780.605 452.755 778.8 455.008C776.611 454.378 775.871 454.477 776.089 453.946C779.657 448.623 785.027 444.721 791.243 442.934C801.498 440.082 816.079 445.521 818.621 459.336C818.621 459.336 822.831 466.7 820.305 473.815C817.78 480.929 809.546 488.276 806.414 486.535Z" fill="#263238"/>
<path d="M803.399 484.81C803.399 484.81 811.919 480.415 814.192 483.749C816.465 487.082 807.457 495.225 803.079 494.678C802.504 494.649 801.941 494.506 801.424 494.257C800.906 494.008 800.446 493.658 800.07 493.228C799.694 492.799 799.41 492.299 799.235 491.759C799.061 491.218 799 490.648 799.055 490.084L803.399 484.81Z" fill="#D3766A"/>
<path d="M811.565 486.021C811.565 486.021 811.565 486.137 811.565 486.12C810.06 486.093 808.567 486.373 807.178 486.944C805.79 487.515 804.537 488.364 803.499 489.437C803.785 489.268 804.105 489.16 804.436 489.121C804.768 489.083 805.104 489.114 805.422 489.213C805.74 489.311 806.034 489.476 806.283 489.694C806.532 489.913 806.731 490.182 806.867 490.482C806.867 490.482 806.867 490.631 806.732 490.581C806.347 490.202 805.853 489.949 805.316 489.857C804.78 489.765 804.228 489.839 803.735 490.067C802.922 490.469 802.149 490.947 801.428 491.494C801.193 491.66 800.822 491.328 801.058 491.096C802.809 487.795 807.81 484.528 811.565 486.021Z" fill="#263238"/>
</svg>