<svg width="750" height="500" viewBox="0 0 750 500" fill="none" xmlns="http://www.w3.org/2000/svg">
<path d="M112.589 322.61H86.1094V333.8H112.589V322.61Z" fill="#EBEBEB"/>
<path d="M97.8198 336.72H71.3398V347.91H97.8198V336.72Z" fill="#EBEBEB"/>
<path d="M453.3 216.59H426.82V227.78H453.3V216.59Z" fill="#EBEBEB"/>
<path d="M438.531 230.7H412.051V241.89H438.531V230.7Z" fill="#EBEBEB"/>
<path d="M423.82 216.59H397.34V227.78H423.82V216.59Z" fill="#EBEBEB"/>
<path d="M678.66 336.72H652.18V347.91H678.66V336.72Z" fill="#EBEBEB"/>
<path d="M663.89 62.84H637.41V74.03H663.89V62.84Z" fill="#EBEBEB"/>
<path d="M678.66 76.95H652.18V88.14H678.66V76.95Z" fill="#EBEBEB"/>
<path d="M112.589 62.84H86.1094V74.03H112.589V62.84Z" fill="#EBEBEB"/>
<path d="M213.219 229.43L206.779 243.61L211.129 245.61C211.751 245.897 212.281 246.351 212.66 246.921C213.04 247.491 213.254 248.155 213.279 248.84C213.316 249.617 213.393 250.391 213.509 251.16C213.616 251.835 213.535 252.526 213.274 253.158C213.013 253.79 212.582 254.337 212.029 254.74L208.149 257.52L217.219 270.18L221.099 267.41C221.657 267.013 222.314 266.778 222.997 266.732C223.681 266.686 224.363 266.831 224.969 267.15C225.657 267.522 226.365 267.856 227.089 268.15C227.73 268.394 228.291 268.811 228.71 269.355C229.128 269.898 229.388 270.547 229.459 271.23L229.919 275.98L245.419 274.45L244.949 269.69C244.888 269.006 245.017 268.319 245.322 267.705C245.628 267.091 246.097 266.573 246.679 266.21C246.999 266.01 247.319 265.79 247.629 265.57C247.939 265.35 248.249 265.12 248.549 264.88C249.076 264.445 249.713 264.165 250.389 264.071C251.065 263.978 251.755 264.074 252.379 264.35L256.749 266.35L263.179 252.17L258.829 250.17C258.208 249.882 257.678 249.428 257.298 248.858C256.919 248.288 256.705 247.624 256.679 246.94C256.646 246.166 256.572 245.395 256.459 244.63C256.352 243.955 256.434 243.263 256.695 242.631C256.956 241.999 257.387 241.452 257.939 241.05L261.819 238.27L252.739 225.61L248.869 228.39C248.31 228.783 247.652 229.015 246.969 229.059C246.287 229.103 245.605 228.958 244.999 228.64C244.316 228.28 243.611 227.963 242.889 227.69C242.247 227.447 241.686 227.03 241.267 226.486C240.849 225.942 240.59 225.292 240.519 224.61L240.049 219.85L224.549 221.38L225.019 226.14C225.077 226.82 224.946 227.503 224.641 228.113C224.336 228.724 223.868 229.238 223.289 229.6C222.959 229.81 222.639 230.03 222.289 230.25L221.369 230.94C220.84 231.376 220.199 231.657 219.519 231.751C218.84 231.844 218.147 231.747 217.519 231.47L213.219 229.43ZM227.549 237.43C229.6 235.958 232.042 235.128 234.565 235.044C237.088 234.96 239.58 235.627 241.724 236.96C243.868 238.292 245.569 240.231 246.611 242.53C247.653 244.83 247.989 247.387 247.577 249.878C247.166 252.368 246.025 254.681 244.298 256.523C242.572 258.365 240.338 259.653 237.879 260.225C235.42 260.797 232.847 260.627 230.485 259.736C228.123 258.845 226.078 257.273 224.609 255.22C222.658 252.473 221.873 249.067 222.423 245.744C222.974 242.421 224.817 239.45 227.549 237.48V237.43Z" fill="#EBEBEB"/>
<path d="M645.85 109.71L639.33 113.48L640.48 115.48C640.645 115.768 640.727 116.096 640.717 116.428C640.706 116.76 640.603 117.083 640.42 117.36C640.208 117.68 640.018 118.014 639.85 118.36C639.705 118.658 639.479 118.91 639.198 119.087C638.917 119.263 638.592 119.358 638.26 119.36H636V126.89H638.3C638.632 126.892 638.957 126.986 639.238 127.163C639.519 127.34 639.745 127.592 639.89 127.89C640.06 128.235 640.25 128.569 640.46 128.89C640.643 129.167 640.746 129.489 640.757 129.821C640.767 130.153 640.685 130.482 640.52 130.77L639.37 132.77L645.89 136.53L647.04 134.53C647.211 134.245 647.457 134.013 647.752 133.859C648.047 133.706 648.378 133.637 648.71 133.66H649.81C650.14 133.635 650.471 133.703 650.765 133.857C651.058 134.011 651.302 134.244 651.47 134.53L652.63 136.53L659.15 132.77L658 130.77C657.835 130.483 657.754 130.157 657.764 129.826C657.775 129.496 657.877 129.175 658.06 128.9C658.265 128.577 658.452 128.243 658.62 127.9C658.767 127.601 658.995 127.349 659.278 127.172C659.56 126.995 659.887 126.901 660.22 126.9H662.52V119.37H660.22C659.887 119.367 659.562 119.271 659.279 119.095C658.997 118.919 658.769 118.668 658.62 118.37C658.456 118.024 658.269 117.69 658.06 117.37C657.877 117.093 657.774 116.771 657.763 116.438C657.753 116.106 657.835 115.778 658 115.49L659.15 113.49L652.63 109.72L651.47 111.72C651.301 112.003 651.058 112.233 650.767 112.387C650.476 112.54 650.148 112.611 649.82 112.59H648.71C648.377 112.613 648.045 112.543 647.75 112.388C647.454 112.233 647.209 111.998 647.04 111.71L645.85 109.71ZM649.22 116.91C650.44 116.91 651.633 117.272 652.648 117.95C653.663 118.628 654.453 119.591 654.92 120.719C655.387 121.846 655.509 123.087 655.271 124.284C655.033 125.481 654.446 126.58 653.583 127.443C652.72 128.306 651.621 128.893 650.424 129.131C649.227 129.369 647.986 129.247 646.859 128.78C645.731 128.313 644.768 127.522 644.09 126.508C643.412 125.493 643.05 124.3 643.05 123.08C643.049 122.269 643.207 121.466 643.517 120.717C643.827 119.968 644.281 119.287 644.854 118.714C645.427 118.141 646.108 117.687 646.857 117.377C647.606 117.067 648.409 116.909 649.22 116.91Z" fill="#EBEBEB"/>
<path d="M88.3895 142.53L92.9595 148.53L94.7895 147.12C95.0544 146.92 95.3699 146.798 95.7003 146.768C96.0307 146.738 96.363 146.801 96.6595 146.95C96.9995 147.11 97.3495 147.25 97.6595 147.38C97.9732 147.487 98.2508 147.679 98.461 147.935C98.6713 148.192 98.8058 148.501 98.8495 148.83L99.1495 151.11L106.62 150.11L106.32 147.83C106.278 147.502 106.328 147.168 106.464 146.867C106.6 146.565 106.816 146.307 107.09 146.12C107.402 145.91 107.702 145.683 107.99 145.44C108.239 145.222 108.544 145.078 108.871 145.023C109.197 144.968 109.533 145.005 109.84 145.13L112 146L114.89 139L112.75 138.12C112.445 137.988 112.183 137.774 111.992 137.502C111.802 137.23 111.69 136.911 111.67 136.58C111.67 136.4 111.67 136.22 111.61 136.03C111.55 135.84 111.56 135.67 111.53 135.48C111.463 135.157 111.488 134.821 111.603 134.512C111.718 134.202 111.918 133.931 112.18 133.73L114 132.4L109.43 126.4L107.59 127.8C107.325 127.999 107.01 128.121 106.68 128.153C106.35 128.185 106.018 128.125 105.72 127.98C105.394 127.819 105.06 127.675 104.72 127.55C104.407 127.441 104.131 127.248 103.921 126.992C103.711 126.736 103.575 126.428 103.53 126.1L103.23 123.81L95.7595 124.81L96.0595 127.1C96.1011 127.427 96.0511 127.759 95.9152 128.059C95.7792 128.359 95.5627 128.616 95.2895 128.8C94.9802 129.013 94.6831 129.243 94.3995 129.49C94.1475 129.707 93.8402 129.85 93.5119 129.903C93.1836 129.956 92.847 129.917 92.5395 129.79L90.4095 128.91L87.5195 135.86L89.6495 136.75C89.9546 136.878 90.2176 137.09 90.4085 137.36C90.5994 137.631 90.7106 137.949 90.7295 138.28L90.7895 138.83C90.7895 139.02 90.7895 139.2 90.8795 139.38C90.9435 139.706 90.9157 140.043 90.7991 140.354C90.6826 140.664 90.4819 140.937 90.2195 141.14L88.3895 142.53ZM95.0895 138.26C94.9335 137.05 95.1398 135.82 95.6823 134.727C96.2249 133.634 97.0794 132.727 98.1377 132.119C99.196 131.512 100.411 131.232 101.628 131.315C102.846 131.398 104.011 131.84 104.977 132.585C105.943 133.331 106.667 134.346 107.056 135.502C107.446 136.659 107.483 137.904 107.165 139.082C106.846 140.26 106.185 141.317 105.266 142.12C104.346 142.922 103.21 143.434 102 143.59C101.196 143.694 100.38 143.638 99.5973 143.427C98.815 143.215 98.0821 142.851 97.4405 142.356C96.7988 141.861 96.2609 141.245 95.8575 140.542C95.4541 139.839 95.1932 139.064 95.0895 138.26Z" fill="#EBEBEB"/>
<path d="M301.919 76.14H220.869V174.45H301.919V76.14Z" fill="#EBEBEB"/>
<path d="M292.659 85.11H230.129V165.48H292.659V85.11Z" fill="white"/>
<path d="M232.569 85.11H230.129V165.48H232.569V85.11Z" fill="#DBDBDB"/>
<path d="M304.36 76.14H301.92V174.45H304.36V76.14Z" fill="#DBDBDB"/>
<path d="M265.83 96.1899H251.09V140.12H265.83V96.1899Z" fill="#DBDBDB"/>
<path d="M283.96 126.1H244.65V147.62H283.96V126.1Z" stroke="#EBEBEB" stroke-miterlimit="10"/>
<path d="M526.691 76.14H445.641V174.45H526.691V76.14Z" fill="#EBEBEB"/>
<path d="M517.43 85.11H454.9V165.48H517.43V85.11Z" fill="white"/>
<path d="M457.34 85.11H454.9V165.48H457.34V85.11Z" fill="#DBDBDB"/>
<path d="M529.129 76.14H526.689V174.45H529.129V76.14Z" fill="#DBDBDB"/>
<path d="M490.599 96.1899H475.859V140.12H490.599V96.1899Z" fill="#DBDBDB"/>
<path d="M508.73 126.1H469.42V147.62H508.73V126.1Z" stroke="#EBEBEB" stroke-miterlimit="10"/>
<path d="M414.3 76.14H333.25V174.45H414.3V76.14Z" fill="#EBEBEB"/>
<path d="M405.05 85.11H342.52V165.48H405.05V85.11Z" fill="white"/>
<path d="M344.96 85.11H342.52V165.48H344.96V85.11Z" fill="#DBDBDB"/>
<path d="M416.751 76.14H414.311V174.45H416.751V76.14Z" fill="#DBDBDB"/>
<path d="M380.36 105.88H367.73V137.82H380.36V105.88Z" fill="#EBEBEB"/>
<path d="M393.66 125.29H359.73V147.31H393.66V125.29Z" stroke="#DBDBDB" stroke-miterlimit="10"/>
<path d="M375.001 458.52C548.253 458.52 688.701 447.466 688.701 433.83C688.701 420.194 548.253 409.14 375.001 409.14C201.749 409.14 61.3008 420.194 61.3008 433.83C61.3008 447.466 201.749 458.52 375.001 458.52Z" fill="#EBEBEB"/>
<path d="M222.691 302.94H191.041V371.32H222.691V302.94Z" fill="#1717DD"/>
<g opacity="0.1">
<path d="M222.701 302.94H215.451V371.32H222.701V302.94Z" fill="black"/>
</g>
<path d="M264.39 277.09H232.74V371.32H264.39V277.09Z" fill="#1717DD"/>
<g opacity="0.1">
<path d="M264.4 277.09H257.15V371.32H264.4V277.09Z" fill="black"/>
</g>
<path d="M181.082 318.34H149.432V371.32H181.082V318.34Z" fill="#1717DD"/>
<g opacity="0.1">
<path d="M181.08 318.34H173.83V371.32H181.08V318.34Z" fill="black"/>
</g>
<path d="M306.101 242.68H274.451V371.32H306.101V242.68Z" fill="#1717DD"/>
<g opacity="0.1">
<path d="M306.102 242.68H298.852V371.32H306.102V242.68Z" fill="black"/>
</g>
<path d="M138.211 350.78V337.59C138.211 337.59 253.501 330 300.091 231.68L304.721 232.6C304.721 232.6 273.791 333.41 138.211 350.78Z" fill="#37474F"/>
<path d="M309.04 235.91L294.48 232.19L306.55 222.93L309.04 235.91Z" fill="#37474F"/>
<path d="M52.7695 371.11L133.33 370.87L213.89 370.78L375 370.61L536.11 370.78L616.669 370.87L697.229 371.11L616.669 371.36L536.11 371.44L375 371.61L213.89 371.44L133.33 371.36L52.7695 371.11Z" fill="#263238"/>
<path d="M568.711 311.13C568.711 311.13 578.061 277.59 585.521 266.2C592.981 254.81 606.891 242.3 606.891 242.3C606.891 242.3 606.561 294 568.711 311.13Z" fill="#1717DD"/>
<path d="M569.39 310.55C572.537 305.3 575.382 299.874 577.91 294.3C578.983 288.309 580.534 282.413 582.55 276.67C582.55 276.56 582.74 276.62 582.72 276.73C581.48 282.02 580.03 287.28 578.72 292.56C582.5 284.4 586.08 276.13 590.57 268.41C591.61 264.683 593.062 261.084 594.9 257.68C594.9 257.58 595.12 257.68 595.07 257.74C593.933 260.361 592.958 263.049 592.15 265.79C594.272 262.35 596.646 259.071 599.25 255.98C599.42 255.79 599.74 255.98 599.58 256.21C593.58 263.88 589.43 272.6 585.48 281.43C589.727 276.823 593.647 271.924 597.21 266.77C597.21 266.77 597.32 266.77 597.29 266.83C593.577 272.606 589.375 278.052 584.73 283.11C581.86 289.58 579.03 296.11 575.6 302.23C582.45 296.44 587.72 288.94 592.94 281.71C592.966 281.682 593.002 281.665 593.04 281.661C593.078 281.657 593.116 281.667 593.147 281.688C593.179 281.71 593.201 281.742 593.211 281.779C593.22 281.816 593.217 281.855 593.2 281.89C587.98 289.82 582.58 297.29 575.07 303.17C573.552 305.872 571.882 308.486 570.07 311C570.01 311.09 569.917 311.153 569.811 311.174C569.705 311.196 569.595 311.174 569.505 311.115C569.415 311.055 569.352 310.962 569.33 310.856C569.309 310.75 569.33 310.64 569.39 310.55Z" fill="white"/>
<path d="M563.689 311.17C563.689 311.17 580.489 280.25 575.609 250.27C570.729 220.29 565.509 209.61 565.509 209.61C565.509 209.61 539.099 256.24 563.689 311.17Z" fill="#1717DD"/>
<path d="M556.8 262.56C558.22 271.068 560.388 279.433 563.28 287.56C563.33 276.56 563.54 265.56 563.83 254.56C561.941 247.861 560.876 240.957 560.66 234C560.66 233.8 560.96 233.81 560.97 234C561.499 239.947 562.485 245.844 563.92 251.64C564.173 242.56 564.466 233.483 564.8 224.41C564.8 224.378 564.812 224.347 564.835 224.325C564.857 224.302 564.888 224.29 564.92 224.29C564.951 224.29 564.982 224.302 565.004 224.325C565.027 224.347 565.04 224.378 565.04 224.41C565.04 238.58 565.04 252.76 564.94 266.94C566.986 261.459 568.608 255.829 569.79 250.1C569.79 250.04 569.89 250.1 569.88 250.1C569.38 256.73 567.37 263.1 564.88 269.27C564.81 278.34 564.71 287.4 564.51 296.46C567.35 286.83 570.39 277.46 571.21 267.31C571.217 267.287 571.231 267.268 571.249 267.254C571.268 267.24 571.291 267.233 571.315 267.233C571.338 267.233 571.361 267.24 571.38 267.254C571.399 267.268 571.413 267.287 571.42 267.31C571.2 278.53 568.31 289.93 564.6 300.49C564.563 300.596 564.497 300.689 564.41 300.76C564.33 304.07 564.24 307.38 564.12 310.69C564.105 310.776 564.061 310.855 563.994 310.911C563.927 310.968 563.842 310.999 563.755 310.999C563.667 310.999 563.582 310.968 563.515 310.911C563.448 310.855 563.404 310.776 563.39 310.69C563.263 303.91 563.206 297.133 563.22 290.36C559.561 281.49 557.327 272.097 556.6 262.53C556.604 262.503 556.618 262.479 556.639 262.463C556.661 262.448 556.688 262.441 556.715 262.445C556.741 262.449 556.765 262.463 556.781 262.485C556.797 262.506 556.804 262.533 556.8 262.56Z" fill="white"/>
<path d="M557.951 257.78C558.536 260.472 558.927 263.202 559.121 265.95C559.121 266.04 558.981 266.05 558.961 265.95C558.311 263.272 557.85 260.552 557.581 257.81C557.561 257.61 557.911 257.57 557.951 257.78Z" fill="#263238"/>
<path d="M567.771 235.17C567.771 235.08 567.931 235.11 567.931 235.17C567.906 237.076 567.623 238.97 567.091 240.8C567.081 240.83 567.06 240.856 567.032 240.871C567.004 240.886 566.971 240.889 566.941 240.88C566.91 240.871 566.885 240.85 566.87 240.821C566.855 240.793 566.851 240.76 566.861 240.73C567.221 238.9 567.451 237 567.771 235.17Z" fill="#263238"/>
<path d="M559.39 312.91C559.39 312.91 555.85 280.82 544.57 266.12C533.29 251.42 517 245.33 517 245.33C517 245.33 530.56 300.93 559.39 312.91Z" fill="#1717DD"/>
<path d="M539.041 287.75C543.466 292.856 548.317 297.576 553.541 301.86C550.874 295.56 547.908 289.407 544.641 283.4C538.901 279.56 533.181 275.56 529.211 269.8C529.2 269.781 529.197 269.759 529.201 269.738C529.205 269.717 529.217 269.698 529.234 269.685C529.251 269.671 529.272 269.665 529.293 269.666C529.315 269.667 529.335 269.675 529.351 269.69C533.461 274.69 538.581 278.49 543.911 282.07C538.972 273.023 533.478 264.29 527.461 255.92C527.438 255.876 527.432 255.825 527.443 255.777C527.454 255.729 527.481 255.686 527.521 255.656C527.56 255.626 527.609 255.611 527.659 255.614C527.708 255.616 527.755 255.636 527.791 255.67C531.347 260.001 534.662 264.525 537.721 269.22C536.411 265.92 535.271 262.51 533.941 259.22C533.94 259.203 533.943 259.186 533.952 259.172C533.961 259.157 533.974 259.146 533.989 259.139C534.005 259.132 534.022 259.131 534.039 259.135C534.055 259.138 534.07 259.147 534.081 259.16C536.457 263.278 538.32 267.67 539.631 272.24C543.792 278.911 547.468 285.872 550.631 293.07C549.761 288.31 548.831 283.57 547.711 278.85C547.711 278.76 547.841 278.72 547.871 278.85C549.589 284.015 550.769 289.343 551.391 294.75C553.338 299.35 555.084 304.017 556.631 308.75C556.631 308.88 556.481 308.96 556.431 308.83C555.664 306.83 554.868 304.877 554.041 302.97C554.041 302.97 553.971 302.97 553.931 302.97C548.351 298.69 542.931 293.68 539.031 287.79C538.971 287.75 539.011 287.72 539.041 287.75Z" fill="white"/>
<path d="M524.969 263.11C526.139 264.11 527.229 265.11 528.369 266.11C529.44 266.943 530.443 267.859 531.369 268.85C531.369 268.85 531.369 268.95 531.309 268.93C530.044 268.224 528.883 267.345 527.859 266.32C526.75 265.376 525.723 264.338 524.789 263.22C524.769 263.16 524.889 263 524.969 263.11Z" fill="#263238"/>
<path d="M585.079 309.6L583.909 324.89L580.389 371.11H549.719L546.199 324.89L545.029 309.6H585.079Z" fill="#455A64"/>
<path d="M585.079 309.6L583.909 324.89H546.199L545.029 309.6H585.079Z" fill="#37474F"/>
<path d="M542.301 313.82H587.801V302.1H542.301V313.82Z" fill="#455A64"/>
<path d="M265.111 416.69C263.111 417.35 204.401 416.84 202.171 415.4C201.331 414.86 200.901 406.32 200.691 395.97C200.641 393.74 196.211 357.75 196.211 357.75L235.431 357.98L238.511 396.2C238.511 396.2 260.881 406.44 263.151 408.27C265.421 410.1 267.171 416 265.111 416.69Z" fill="#EB9481"/>
<path d="M265.11 416.69C263.11 417.35 204.4 416.84 202.17 415.4C201.51 414.97 201.1 409.57 200.85 402.22C210.85 403.73 244.85 408.77 252.39 408.03C257.5 407.53 254.21 404.38 250.54 401.81C256.25 404.53 262.06 407.39 263.15 408.27C265.38 410.11 267.17 416 265.11 416.69Z" fill="#263238"/>
<path d="M140.381 212.42C140.381 212.42 184.961 290.42 186.111 295.9C187.891 304.28 198.221 395.62 198.221 395.62L242.101 395.35C242.101 395.35 233.381 313.8 225.961 289.73C221.901 276.59 200.541 240.97 190.531 223.38C189.641 221.81 189.901 214.62 189.901 214.62L140.381 212.42Z" fill="#455A64"/>
<path d="M237.87 388C231.06 387.87 210.47 387.3 201.4 388C201.33 388 201.33 388.12 201.4 388.13C204.51 388.61 231.06 388.29 237.87 388.13C237.883 388.146 237.901 388.157 237.921 388.162C237.941 388.167 237.962 388.166 237.981 388.159C238 388.152 238.017 388.139 238.028 388.122C238.04 388.106 238.046 388.086 238.046 388.065C238.046 388.045 238.04 388.025 238.028 388.008C238.017 387.991 238 387.978 237.981 387.971C237.962 387.964 237.941 387.963 237.921 387.968C237.901 387.974 237.883 387.985 237.87 388Z" fill="#263238"/>
<path d="M148.051 219.62C150.981 224.34 154.051 228.96 157.051 233.62C160.051 238.28 163.051 242.98 165.971 247.69C171.851 257.11 177.594 266.61 183.201 276.19C185.922 280.607 188.242 285.259 190.131 290.09C191.86 294.933 193.142 299.924 193.961 305C194.831 310.1 195.381 315.24 195.891 320.38C196.444 325.86 196.987 331.334 197.521 336.8C198.631 348 201.151 367.88 202.271 379.08C202.401 380.45 202.531 381.83 202.651 383.2C202.651 383.4 202.311 383.44 202.291 383.2C201.031 372.07 198.601 352.2 197.471 341.08C196.904 335.54 196.341 329.994 195.781 324.44C195.261 319.28 194.781 314.12 194.031 308.98C193.355 303.908 192.299 298.894 190.871 293.98C189.298 288.898 187.162 284.007 184.501 279.4C179.131 269.86 173.431 260.48 167.731 251.12C162.031 241.76 156.191 232.28 150.171 223C149.431 221.85 148.681 220.72 147.901 219.59C147.851 219.61 148.001 219.53 148.051 219.62Z" fill="#263238"/>
<path d="M158.011 419.87C155.851 419.71 100.351 396.43 98.8209 394.26C98.7569 394.133 98.7292 393.992 98.7409 393.85C98.7409 391.93 102.741 385.27 106.061 376.5C106.271 375.94 125.321 343.76 125.321 343.76L161.601 358.69L141.031 390.89C141.031 390.89 157.931 408.78 159.341 411.33C160.751 413.88 160.161 420 158.011 419.87Z" fill="#EB9481"/>
<path d="M158.011 419.87C155.851 419.71 100.351 396.43 98.8209 394.26C98.7569 394.133 98.7292 393.992 98.7409 393.85C98.7409 392.31 101.331 387.69 104.071 381.38C114.071 388.75 145.411 408.23 151.311 408.65C154.421 408.87 151.841 403.73 149.791 400.3C154.151 405.05 158.651 410.07 159.341 411.3C160.741 413.88 160.161 420 158.011 419.87Z" fill="#263238"/>
<path d="M144.301 391.7L103.701 374.7C103.701 374.7 157.571 292.39 158.011 286.86C158.401 281.96 136.701 239 136.011 226.55C135.231 213.11 141.821 202.8 149.011 196.44L189.941 214.6C189.941 214.6 186.361 221.91 179.321 225.78C179.321 225.78 200.321 275.38 198.891 290.54C197.461 305.7 144.301 391.7 144.301 391.7Z" fill="#455A64"/>
<path d="M146.21 384C140.34 381.39 142.06 382.06 136.21 379.51C133.33 378.27 114.35 370.1 111.45 369.42C111.39 369.42 111.35 369.5 111.45 369.54C113.97 371.12 133.09 378.95 136 380.14C142 382.57 140.27 381.81 146.24 384.14C146.247 384.129 146.252 384.116 146.255 384.103C146.257 384.09 146.257 384.077 146.254 384.064C146.251 384.051 146.246 384.038 146.238 384.027C146.231 384.016 146.221 384.007 146.21 384Z" fill="#263238"/>
<path d="M186.221 225C181.836 225.971 177.541 227.309 173.381 229C173.353 229.016 173.331 229.042 173.319 229.073C173.308 229.103 173.308 229.137 173.318 229.168C173.329 229.198 173.35 229.224 173.378 229.241C173.406 229.258 173.439 229.265 173.471 229.26C177.791 228.05 182.181 226.93 186.421 225.5C186.487 225.474 186.54 225.422 186.568 225.356C186.597 225.291 186.598 225.217 186.571 225.15C186.544 225.084 186.493 225.031 186.427 225.003C186.361 224.975 186.287 224.974 186.221 225Z" fill="#263238"/>
<path d="M181.241 223.19C180.822 223.911 180.455 224.659 180.141 225.43C179.822 226.011 179.625 226.651 179.561 227.31C179.561 227.44 179.731 227.47 179.811 227.4C180.255 226.866 180.619 226.27 180.891 225.63C181.251 224.94 181.641 224.25 181.981 223.55C182.211 223.09 181.511 222.74 181.241 223.19Z" fill="#263238"/>
<path d="M181.801 219.23C182.071 218.59 182.341 217.95 182.621 217.31C182.901 216.67 183.241 215.99 183.481 215.31C183.481 215.21 183.691 215.31 183.641 215.39C183.381 216.04 183.201 216.73 182.991 217.39C182.781 218.05 182.551 218.72 182.321 219.39C181.891 220.63 181.371 221.85 180.821 223.04C181.504 223.083 182.188 222.97 182.821 222.71C183.467 222.31 183.973 221.719 184.271 221.02C184.651 220.3 185.001 219.56 185.391 218.85C185.86 218.076 186.262 217.263 186.591 216.42C186.591 216.31 186.791 216.42 186.751 216.49C186.155 218.286 185.381 220.018 184.441 221.66C184.051 222.3 183.721 222.96 183.011 223.2C182.226 223.413 181.404 223.457 180.601 223.33C180.501 223.33 180.381 223.33 180.411 223.18C180.841 221.85 181.281 220.51 181.801 219.23Z" fill="#263238"/>
<path d="M179.91 227.41C181.37 230.6 182.65 233.78 184.01 236.96C185.37 240.14 186.58 243.2 187.78 246.36C190.21 252.73 192.38 259.22 194.28 265.78C195.213 269.02 196.066 272.287 196.84 275.58C197.689 278.865 198.3 282.207 198.67 285.58C198.98 288.947 198.64 292.342 197.67 295.58C196.67 298.89 191.27 310.11 189.74 313.2C188.8 315.09 188.49 314.83 188.94 313.87C190.23 311.17 197.67 295.58 198.06 289.12C198.26 285.78 196.85 281.05 196.14 277.79C195.43 274.53 194.58 271.17 193.67 267.88C191.88 261.42 189.74 255.08 187.53 248.75C186.29 245.2 184.96 241.69 183.7 238.15C182.44 234.61 181.13 231.37 179.7 227.47C179.696 227.456 179.694 227.442 179.696 227.428C179.698 227.413 179.702 227.4 179.709 227.387C179.716 227.375 179.725 227.364 179.737 227.355C179.748 227.346 179.761 227.339 179.775 227.335C179.788 227.331 179.803 227.33 179.817 227.332C179.831 227.333 179.845 227.338 179.858 227.345C179.87 227.352 179.881 227.361 179.89 227.372C179.899 227.383 179.906 227.396 179.91 227.41Z" fill="#263238"/>
<path d="M149.05 216.55C149.79 216.29 150.8 216.75 151.54 216.89C152.495 217.062 153.461 217.168 154.43 217.21C155.387 217.255 156.346 217.235 157.3 217.15C158.261 217.134 159.205 216.898 160.06 216.46C161.459 215.465 162.66 214.217 163.6 212.78C164.736 211.318 165.671 209.711 166.38 208C166.38 207.9 166.57 208 166.54 208.07C166.22 209.07 165.98 210.07 165.54 210.98C165.153 211.876 164.695 212.738 164.17 213.56C163.294 215.2 162.027 216.598 160.48 217.63C158.77 218.58 156.59 218.49 154.71 218.36C153.616 218.289 152.529 218.132 151.46 217.89C150.69 217.72 149.39 217.58 148.91 216.89C148.894 216.859 148.885 216.825 148.883 216.79C148.881 216.755 148.888 216.72 148.901 216.688C148.914 216.655 148.935 216.626 148.96 216.602C148.986 216.579 149.017 216.561 149.05 216.55Z" fill="#263238"/>
<path d="M115.44 367.08C122.27 357.02 151.03 307.52 157.44 297.13C159.131 294.709 160.572 292.123 161.74 289.41C162.83 286.41 162.26 283.48 161.35 280.52C159.628 275.103 157.602 269.788 155.28 264.6C152.99 259.39 150.52 254.25 148.09 249.1C145.53 244.034 143.263 238.826 141.3 233.5C139.419 228.485 139.102 223.019 140.39 217.82C141.82 212.59 144.83 207.91 147.97 203.55C148.8 202.4 149.64 201.27 150.47 200.12C150.53 200.03 150.66 200.12 150.6 200.23C147.15 204.77 143.77 209.58 141.72 214.93C140.668 217.572 140.063 220.37 139.93 223.21C139.879 226.094 140.291 228.967 141.15 231.72C142.74 237.08 145.28 242.16 147.65 247.21C150.02 252.26 152.55 257.49 154.89 262.69C157.272 267.909 159.378 273.25 161.2 278.69C162 281.11 162.89 283.69 162.8 286.24C162.7 289.08 161.32 291.61 159.89 293.99C153.66 304.32 125.05 353.46 118.25 363.49C117.403 364.757 116.546 366.02 115.68 367.28C115.56 367.43 115.38 367.24 115.44 367.08Z" fill="#263238"/>
<path d="M152.94 118.09C144.32 125.48 146.72 136.25 143.12 142.09C140.92 145.66 133.75 149.44 132.33 153.56C129.98 160.33 135.72 162.76 134.44 166.43C132.62 171.65 125.64 171.24 124.44 179.77C123.24 188.3 132.56 197.36 154.82 199.82C177.08 202.28 189.32 194.12 190.12 186.89C190.92 179.66 183.51 177.25 183 171.89C182.68 168.43 187.25 166.03 187.49 159.68C187.73 153.33 181.49 151.26 180.64 145.87C179.79 140.48 182.64 127.36 174.64 120.67C166.64 113.98 157.2 114.44 152.94 118.09Z" fill="#263238"/>
<path d="M153.94 118.28C151.534 119.991 149.572 122.255 148.22 124.88C146.825 127.664 145.758 130.6 145.04 133.63C144.663 135.437 144.083 137.194 143.31 138.87C142.537 140.268 141.521 141.518 140.31 142.56C137.9 144.74 135.03 146.4 132.86 148.84C130.69 151.28 129.22 154.26 130.04 157.42C130.48 159.14 131.62 160.54 132.32 162.15C133.02 163.76 133.26 165.55 131.95 166.81C130.84 167.89 129.23 168.39 127.95 169.27C126.704 170.138 125.607 171.202 124.7 172.42C123.793 173.631 123.147 175.017 122.803 176.49C122.458 177.964 122.423 179.493 122.7 180.98C124.01 187.91 130.51 191.85 136.51 194.33L139.03 195.33C139.16 195.38 139.27 195.19 139.14 195.13C133.14 192.44 126.14 189.27 123.82 182.54C123.292 181.074 123.108 179.507 123.282 177.959C123.455 176.411 123.981 174.923 124.82 173.61C125.672 172.31 126.753 171.175 128.01 170.26C129.22 169.37 130.61 168.82 131.85 167.97C132.459 167.58 132.955 167.037 133.287 166.394C133.619 165.751 133.775 165.033 133.74 164.31C133.547 162.722 132.978 161.204 132.08 159.88C131.146 158.506 130.65 156.881 130.66 155.22C130.84 153.603 131.455 152.065 132.44 150.77C134.32 148.12 137.09 146.38 139.58 144.37C142.125 142.497 144.02 139.874 145 136.87C145.46 135.28 145.74 133.65 146.14 132.05C146.503 130.56 146.947 129.091 147.47 127.65C148.456 124.751 150.063 122.102 152.18 119.89C152.74 119.325 153.356 118.819 154.02 118.38C154.09 118.35 154.02 118.23 153.94 118.28Z" fill="#263238"/>
<path d="M191.06 181.59C190.783 180.411 190.254 179.305 189.51 178.35C188.74 177.35 187.8 176.54 186.95 175.64C186.068 174.835 185.436 173.794 185.13 172.64C184.98 171.231 185.334 169.813 186.13 168.64C186.891 167.398 187.56 166.101 188.13 164.76C188.885 162.724 189.152 160.539 188.911 158.38C188.669 156.222 187.926 154.15 186.74 152.33C185.98 151.09 185.12 149.91 184.35 148.67C183.494 147.322 182.821 145.866 182.35 144.34C181.35 140.99 181.13 137.46 180.35 134.06C179.489 130.581 178.28 127.197 176.74 123.96C176.74 123.88 176.58 123.96 176.62 124.04C177.987 126.962 179.046 130.019 179.78 133.16C180.49 136.16 180.78 139.16 181.29 142.16C181.502 143.641 181.867 145.095 182.38 146.5C182.907 147.797 183.553 149.043 184.31 150.22C185.81 152.67 187.37 155.1 187.78 158C188.196 160.861 187.695 163.781 186.35 166.34C185.18 168.55 183.54 170.99 184.56 173.58C185.43 175.78 187.56 177.09 188.91 178.91C189.639 179.906 190.149 181.044 190.407 182.25C190.666 183.456 190.667 184.704 190.41 185.91C189.22 192.14 182.97 195.23 177.12 195.54C177.088 195.549 177.059 195.567 177.039 195.594C177.019 195.62 177.008 195.652 177.008 195.685C177.008 195.718 177.019 195.75 177.039 195.777C177.059 195.803 177.088 195.822 177.12 195.83C182.2 195.77 187.73 193.53 190.12 188.77C191.244 186.555 191.576 184.021 191.06 181.59Z" fill="#263238"/>
<path d="M177.719 164.9C191.719 177.59 209.989 190.96 219.559 188.31C228.219 185.92 240.199 174.89 253.289 162.98C255.889 160.62 236.439 141.37 233.929 144.16C228.929 149.67 218.929 163.57 215.009 165.27C213.319 166 193.379 157.5 180.379 153.43C164.679 148.48 172.159 159.85 177.719 164.9Z" fill="#EB9481"/>
<path d="M263.811 158.45C259.251 161.8 251.811 166.31 248.441 166.84C245.271 167.34 231.781 146.91 233.801 144.31C240.071 136.2 252.631 130.31 258.401 130.55C264.171 130.79 268.531 155 263.811 158.45Z" fill="#EB9481"/>
<path d="M115.38 338.71C109.486 338.65 103.693 337.171 98.4902 334.4L98.9702 333.52C104.97 336.77 114.55 339.28 123.4 336.52C126.444 335.575 129.259 334.011 131.668 331.925C134.078 329.839 136.029 327.277 137.4 324.4C143.46 312.61 157.04 263.85 165.15 234.72C169.74 218.23 171.97 210.27 172.48 209.55C174.17 207.13 265.07 127.1 266.91 126.41C268.75 125.72 536.02 54.9202 547.39 51.9102L547.65 52.9102C544.87 53.6502 269.77 126.51 267.26 127.38C264.77 128.69 175.17 207.62 173.26 210.16C172.79 210.94 169.68 222.1 166.08 235.02C157.38 266.06 144.38 313 138.22 324.88C134.93 331.28 130.03 335.53 123.65 337.5C120.969 338.314 118.182 338.721 115.38 338.71Z" fill="#263238"/>
<path d="M249.451 132C248.311 134.76 252.231 134.53 252.231 134.53C252.231 134.53 246.661 136.23 246.581 139.53C246.501 142.83 251.241 142.27 251.581 142.25C251.281 142.34 246.211 144.03 246.481 147.37C246.751 150.71 251.421 149.57 251.721 149.49C251.471 149.66 248.211 152.02 248.981 154.49C250.321 158.77 258.831 152.97 262.361 153.8C262.361 153.8 263.451 158.53 263.471 158.71C263.471 158.71 269.871 154.78 270.721 149.95C270.857 149.251 270.749 148.527 270.416 147.897C270.083 147.268 269.545 146.771 268.891 146.49C268.891 146.49 271.721 145.06 271.601 142.42C271.531 141.07 269.311 139.98 269.311 139.98C269.942 139.625 270.462 139.103 270.815 138.472C271.168 137.84 271.34 137.123 271.311 136.4C271.111 134.53 268.911 133.73 268.911 133.73C268.911 133.73 270.501 131.54 269.681 129.73C268.001 126 251.921 126 249.451 132Z" fill="#EB9481"/>
<path d="M269.381 139.94C269.441 139.94 269.451 139.84 269.381 139.83C263.304 138.409 256.92 139.207 251.381 142.08C251.191 142.18 251.131 142.47 251.381 142.36C255.221 140.59 264.211 139.51 269.381 139.94Z" fill="#263238"/>
<path d="M251.381 149.82C256.821 147.06 262.591 146.32 268.631 146.42C268.711 146.42 268.711 146.31 268.631 146.29C265.691 145.44 261.831 145.78 258.851 146.29C256.075 146.713 253.46 147.862 251.271 149.62C251.221 149.7 251.291 149.88 251.381 149.82Z" fill="#263238"/>
<path d="M252.23 134.5C251.183 134.921 250.179 135.44 249.23 136.05C248.296 136.601 247.524 137.387 246.99 138.33C246.765 138.776 246.715 139.289 246.85 139.77C246.998 140.253 247.263 140.693 247.62 141.05C248.01 141.368 248.463 141.602 248.948 141.736C249.433 141.87 249.941 141.902 250.44 141.83L252.88 141.56L250.68 142.66C249.696 143.137 248.798 143.772 248.02 144.54C247.638 144.875 247.332 145.287 247.121 145.749C246.911 146.211 246.801 146.712 246.8 147.22C246.792 147.694 246.953 148.155 247.253 148.521C247.553 148.887 247.974 149.135 248.44 149.22C249.474 149.413 250.541 149.341 251.54 149.01L254.33 148.18L251.98 149.87C251.318 150.334 250.722 150.885 250.21 151.51C249.684 152.062 249.336 152.759 249.21 153.51C249.173 153.851 249.232 154.196 249.38 154.505C249.529 154.814 249.761 155.076 250.05 155.26C250.762 155.576 251.549 155.683 252.32 155.57C253.992 155.351 255.645 154.997 257.26 154.51C258.08 154.3 258.91 154.08 259.75 153.9C260.581 153.677 261.45 153.633 262.3 153.77C261.454 153.724 260.608 153.847 259.81 154.13C258.99 154.37 258.19 154.65 257.38 154.92C255.761 155.531 254.086 155.983 252.38 156.27C251.459 156.448 250.506 156.351 249.64 155.99C249.193 155.74 248.828 155.366 248.589 154.914C248.35 154.462 248.246 153.95 248.29 153.44C248.408 152.498 248.801 151.611 249.42 150.89C249.983 150.192 250.635 149.57 251.36 149.04L251.8 149.9C250.622 150.313 249.358 150.413 248.13 150.19C247.453 150.042 246.849 149.663 246.42 149.12C246.011 148.576 245.781 147.92 245.76 147.24C245.762 146.598 245.9 145.964 246.165 145.38C246.431 144.795 246.818 144.274 247.3 143.85C248.168 143.028 249.164 142.352 250.25 141.85L250.49 142.68C249.871 142.754 249.243 142.69 248.652 142.493C248.061 142.296 247.521 141.97 247.07 141.54C246.645 141.084 246.345 140.526 246.2 139.92C246.055 139.301 246.14 138.651 246.44 138.09C247.07 137.096 247.963 136.297 249.02 135.78C250.038 135.233 251.115 134.804 252.23 134.5Z" fill="#263238"/>
<path d="M235.461 142.36C235.461 142.36 249.151 120.2 254.891 128.93C256.601 131.52 260.521 144.21 257.991 145.04C254.721 146.12 252.101 141.13 250.991 137.74C250.991 137.74 247.831 145.36 241.871 144.74C239.57 144.489 237.368 143.671 235.461 142.36Z" fill="#EB9481"/>
<path d="M254.38 128.23C255.171 129.168 255.821 130.215 256.31 131.34C256.819 132.456 257.26 133.601 257.63 134.77C258.387 137.109 258.942 139.507 259.29 141.94C259.38 142.587 259.38 143.243 259.29 143.89C259.228 144.249 259.088 144.591 258.88 144.89C258.771 145.066 258.628 145.219 258.46 145.34C258.295 145.46 258.113 145.555 257.92 145.62C257.216 145.836 256.458 145.797 255.78 145.51C255.166 145.232 254.604 144.849 254.12 144.38C253.227 143.476 252.494 142.428 251.95 141.28C251.404 140.167 250.936 139.018 250.55 137.84H251.35C250.96 138.697 250.488 139.514 249.94 140.28C249.41 141.049 248.8 141.76 248.12 142.4C247.433 143.032 246.659 143.561 245.82 143.97C244.988 144.38 244.085 144.624 243.16 144.69C244.05 144.499 244.901 144.161 245.68 143.69C246.441 143.219 247.134 142.647 247.74 141.99C248.352 141.383 248.901 140.717 249.38 140C249.848 139.248 250.246 138.455 250.57 137.63L250.96 136.63L251.37 137.63C251.779 138.75 252.26 139.843 252.81 140.9C253.323 141.937 253.998 142.886 254.81 143.71C255.147 144.101 255.579 144.398 256.064 144.573C256.549 144.749 257.071 144.796 257.58 144.71C258.38 144.51 258.42 143.18 258.32 142.04C258.22 140.9 258 139.68 257.78 138.5C257.56 137.32 257.31 136.13 257 134.96C256.482 132.594 255.598 130.323 254.38 128.23Z" fill="#263238"/>
<path d="M200.869 184.51L208.379 162.78C208.379 162.78 189.989 154.37 179.459 152.11C168.929 149.85 166.379 154.29 175.769 164C185.159 173.71 200.869 184.51 200.869 184.51Z" fill="#289CD7"/>
<path d="M204.559 162.26C203.219 165.07 202.129 168.02 201.039 170.94C199.949 173.86 198.959 176.76 198.109 179.73C198.109 179.78 198.189 179.82 198.209 179.73C199.409 176.85 200.519 173.93 201.589 171C202.659 168.07 203.769 165.22 204.669 162.27C204.689 162.24 204.589 162.2 204.559 162.26Z" fill="#263238"/>
<path opacity="0.1" d="M204.74 173.36L200.87 184.51C200.87 184.51 185.19 173.63 175.77 163.96C172.52 160.63 170.71 157.96 170.16 155.89L204.74 173.36Z" fill="black"/>
<path d="M190.65 215.26L137.77 206.09C137.77 206.09 150.57 168.62 161.77 155.19C167.25 148.6 175.32 151.28 178.62 154.14C179.67 155.05 189.98 169.29 191 175.21C191.88 180.45 188.31 186.04 188.31 186.04L190.65 215.26Z" fill="#289CD7"/>
<path d="M185.77 186.07C183.794 185.865 181.807 185.775 179.82 185.8C178.82 185.8 177.82 185.88 176.82 185.98L175.4 186.14C174.88 186.21 174.4 186.35 173.85 186.4C173.8 186.4 173.8 186.5 173.85 186.49C174.34 186.49 174.85 186.49 175.33 186.49H176.81L179.81 186.42C181.81 186.35 183.81 186.3 185.75 186.29C185.88 186.23 185.87 186.08 185.77 186.07Z" fill="#263238"/>
<path d="M155.79 158.54C135.6 175.54 116.32 213.41 124.59 218.1C132.14 222.38 157.64 222.1 168.26 220.78C171.38 220.39 167.91 196.17 164.57 196.58C160.57 197.07 150.34 197.38 149.94 197.31C149.08 197.15 161.85 170.59 165.94 160.82C171.62 147.21 163.38 152.16 155.79 158.54Z" fill="#EB9481"/>
<path d="M196.469 194.69C196.782 195.387 196.875 196.163 196.733 196.914C196.592 197.665 196.224 198.355 195.679 198.89C196.79 199.584 197.622 200.646 198.029 201.89C198.649 204.09 195.469 206.03 195.469 206.03C196.476 206.975 197.173 208.202 197.469 209.55C197.849 211.72 194.919 214.13 194.919 214.13C195.356 215.507 195.281 216.994 194.709 218.32C193.039 221.8 187.189 222.45 183.469 222.91C179.749 223.37 168.789 221.17 166.659 220.97L163.529 197.14C163.529 197.14 179.619 190.36 184.059 190.44C187.789 190.48 195.169 192.07 196.469 194.69Z" fill="#EB9481"/>
<path d="M195.47 198.53C191.47 197.53 187.47 197.69 183.4 197.66C183.382 197.66 183.364 197.668 183.351 197.681C183.337 197.694 183.33 197.712 183.33 197.73C183.33 197.749 183.337 197.767 183.351 197.78C183.364 197.793 183.382 197.8 183.4 197.8C187.4 197.8 191.4 198.57 195.4 198.72C195.425 198.729 195.453 198.728 195.478 198.717C195.502 198.706 195.521 198.685 195.53 198.66C195.539 198.635 195.538 198.607 195.527 198.583C195.516 198.558 195.495 198.539 195.47 198.53Z" fill="#263238"/>
<path d="M195.381 205.69C194.458 205.547 193.52 205.523 192.591 205.62C191.591 205.62 190.591 205.72 189.591 205.79C187.591 205.94 185.641 206.13 183.681 206.38C183.591 206.38 183.591 206.53 183.681 206.52C185.681 206.38 187.621 206.26 189.591 206.2L192.591 206.13C193.523 206.192 194.459 206.148 195.381 206C195.422 206 195.461 205.984 195.49 205.955C195.519 205.926 195.536 205.886 195.536 205.845C195.536 205.804 195.519 205.765 195.49 205.735C195.461 205.706 195.422 205.69 195.381 205.69Z" fill="#263238"/>
<path d="M194.821 214.1C193.983 213.98 193.132 214.001 192.301 214.16L189.611 214.41C187.811 214.56 186.011 214.71 184.201 214.8C184.182 214.8 184.164 214.808 184.151 214.821C184.138 214.834 184.131 214.852 184.131 214.87C184.131 214.889 184.138 214.907 184.151 214.92C184.164 214.933 184.182 214.94 184.201 214.94C186.041 214.86 187.871 214.8 189.701 214.7L192.401 214.54C193.225 214.57 194.048 214.451 194.831 214.19L194.821 214.1Z" fill="#263238"/>
<path d="M134.1 180.05L155.24 189.13C155.24 189.13 164.93 171.39 167.95 161.05C170.97 150.71 166.71 147.77 156.39 156.48C146.07 165.19 134.1 180.05 134.1 180.05Z" fill="#289CD7"/>
<path d="M155.99 184.6C153.28 183.07 150.42 181.76 147.59 180.47C144.76 179.18 141.93 177.98 139.03 176.92C139.017 176.92 139.004 176.925 138.995 176.935C138.986 176.944 138.98 176.957 138.98 176.97C138.98 176.983 138.986 176.996 138.995 177.006C139.004 177.015 139.017 177.02 139.03 177.02C141.81 178.42 144.64 179.74 147.49 181.02C150.34 182.3 153.11 183.6 155.98 184.71C156 184.73 156.04 184.64 155.99 184.6Z" fill="#263238"/>
<path d="M165.18 168.82C163.82 172.35 162.28 175.82 160.66 179.19C159.84 180.89 159 182.58 158.12 184.25C157.24 185.92 156.34 187.58 155.33 189.18V189.27H155.25C154.74 189.02 154.25 188.77 153.75 188.51L155.33 189.07L155.19 189.12L157.59 184L160.04 178.91C160.87 177.22 161.7 175.53 162.57 173.86C163.44 172.19 164.25 170.47 165.18 168.82Z" fill="#263238"/>
<path d="M161.18 177.32C161.599 176.405 162.097 175.528 162.67 174.7C163.23 173.866 163.866 173.086 164.57 172.37C164.162 173.294 163.662 174.175 163.08 175C162.519 175.831 161.883 176.607 161.18 177.32Z" fill="#263238"/>
<path d="M165.69 154.44C166.18 155.25 172.28 159.54 176.22 158.01C177.51 157.51 175.09 150.38 175.09 150.38L175.03 149.81L174.22 141.87L163.67 139.2L162.17 138.88C162.17 138.88 162.54 141.04 163.02 143.72C163.02 143.85 163.07 143.97 163.09 144.11C163.11 144.25 163.09 144.4 163.16 144.54C163.23 144.95 163.3 145.36 163.38 145.76C163.46 146.16 163.49 146.37 163.57 146.7C163.65 147.03 163.7 147.34 163.77 147.7C164.253 149.989 164.894 152.241 165.69 154.44Z" fill="#EB9481"/>
<path d="M163.02 143.72C164.458 145.546 166.276 147.036 168.349 148.088C170.421 149.14 172.698 149.727 175.02 149.81L174.21 141.87L163.66 139.2L162.16 138.88C162.16 138.88 162.54 141 163.02 143.72Z" fill="#263238"/>
<path d="M181.48 126.17C187.41 138.87 180.48 143.86 177.73 145.17C175.24 146.33 166.63 149.95 159.42 137.93C152.21 125.91 156.25 119.14 161.8 116.2C167.35 113.26 175.56 113.47 181.48 126.17Z" fill="#EB9481"/>
<path d="M176.239 123.4C175.929 123.5 175.619 123.55 175.299 123.62C174.975 123.728 174.624 123.728 174.299 123.62C174.203 123.568 174.127 123.487 174.082 123.387C174.037 123.288 174.025 123.177 174.049 123.07C174.129 122.861 174.264 122.678 174.44 122.54C174.616 122.403 174.827 122.316 175.049 122.29C175.48 122.157 175.945 122.193 176.349 122.39C176.455 122.434 176.543 122.511 176.601 122.61C176.659 122.708 176.683 122.823 176.671 122.936C176.659 123.05 176.61 123.156 176.532 123.24C176.454 123.323 176.352 123.38 176.239 123.4Z" fill="#263238"/>
<path d="M169.469 129.81C169.776 129.71 170.076 129.593 170.369 129.46C170.706 129.381 171.005 129.191 171.219 128.92C171.273 128.823 171.292 128.712 171.274 128.603C171.256 128.494 171.201 128.394 171.119 128.32C170.937 128.197 170.725 128.125 170.505 128.111C170.286 128.097 170.066 128.141 169.869 128.24C169.445 128.378 169.088 128.671 168.869 129.06C168.825 129.151 168.807 129.252 168.818 129.352C168.828 129.452 168.868 129.547 168.931 129.626C168.994 129.705 169.078 129.764 169.173 129.797C169.269 129.829 169.371 129.834 169.469 129.81Z" fill="#263238"/>
<path d="M172.18 130.53C172.18 130.53 172.13 130.6 172.18 130.64C172.63 131.48 173.01 132.52 172.37 133.19C172.37 133.19 172.37 133.25 172.37 133.19C173.25 132.63 172.74 131.26 172.18 130.53Z" fill="#263238"/>
<path d="M170.97 130C169.55 130.58 170.81 133.39 172.13 132.85C173.45 132.31 172.17 129.53 170.97 130Z" fill="#263238"/>
<path d="M170.49 130.41C170.31 130.68 170.2 131.07 169.92 131.23C169.64 131.39 169.2 131.23 168.85 131.06C168.85 131.06 168.8 131.06 168.85 131.11C169.09 131.66 169.54 132.11 170.16 131.94C170.418 131.822 170.623 131.612 170.735 131.352C170.848 131.092 170.86 130.799 170.77 130.53C170.71 130.41 170.56 130.31 170.49 130.41Z" fill="#263238"/>
<path d="M176.83 128C176.83 128 176.91 128 176.93 128C177.28 128.88 177.84 129.84 178.76 129.78V129.83C177.75 130.16 177.02 128.88 176.83 128Z" fill="#263238"/>
<path d="M177.211 126.73C178.571 126.01 179.911 128.73 178.661 129.45C177.411 130.17 176.071 127.34 177.211 126.73Z" fill="#263238"/>
<path d="M177.87 126.63C178.16 126.63 178.51 126.84 178.78 126.73C179.05 126.62 179.17 126.19 179.23 125.81C179.23 125.81 179.23 125.81 179.28 125.81C179.55 126.33 179.65 126.97 179.19 127.31C178.73 127.65 178.19 127.31 177.83 126.88C177.75 126.8 177.76 126.62 177.87 126.63Z" fill="#263238"/>
<path d="M175.181 137.65C175.477 137.839 175.832 137.917 176.181 137.87C176.507 137.735 176.801 137.53 177.041 137.27C177.041 137.27 177.111 137.27 177.101 137.27C177.041 137.495 176.923 137.7 176.758 137.864C176.592 138.027 176.386 138.143 176.161 138.2C175.962 138.225 175.76 138.19 175.582 138.099C175.404 138.008 175.257 137.865 175.161 137.69C175.081 137.67 175.141 137.63 175.181 137.65Z" fill="#263238"/>
<path d="M177.38 132.84C177.38 132.84 178.15 134.05 178.44 134.66C178.44 134.72 178.33 134.81 178.13 134.92C177.651 135.26 177.087 135.46 176.501 135.499C175.915 135.538 175.33 135.414 174.81 135.14C174.74 135.14 174.81 135.01 174.87 135.02C175.894 135.192 176.947 135.027 177.87 134.55C177.87 134.36 176.46 132.55 176.56 132.47C177.054 132.294 177.568 132.184 178.09 132.14C176.54 129.57 174.6 127.27 173.09 124.69C173.079 124.671 173.076 124.649 173.08 124.628C173.084 124.607 173.096 124.588 173.113 124.575C173.129 124.561 173.151 124.555 173.172 124.556C173.194 124.557 173.214 124.565 173.23 124.58C175.391 126.984 177.307 129.597 178.95 132.38C179.12 132.71 177.65 132.83 177.38 132.84Z" fill="#263238"/>
<path d="M177.641 135C177.496 135.599 177.2 136.15 176.781 136.6C176.549 136.838 176.248 136.995 175.921 137.05C175.201 137.17 174.921 136.59 174.811 136.05C174.756 135.75 174.736 135.445 174.751 135.14C175.704 135.402 176.717 135.353 177.641 135Z" fill="#263238"/>
<path d="M176.781 136.55C176.549 136.788 176.248 136.945 175.921 137C175.201 137.12 174.921 136.54 174.811 136C175.153 135.855 175.534 135.83 175.892 135.93C176.25 136.03 176.563 136.249 176.781 136.55Z" fill="#FF9CBD"/>
<path d="M160.809 138.58C163.809 136.85 159.809 126.84 159.269 125.58C159.629 126.34 161.569 130.32 161.949 130.32C162.283 130.146 162.581 129.912 162.829 129.63C162.585 129.157 162.378 128.665 162.209 128.16C162.119 127.93 162.539 128.59 163.099 129.38L163.589 128.92C163.032 127.934 162.609 126.878 162.329 125.78C162.229 125.36 163.199 126.98 164.329 128.25C166.575 126.093 169.054 124.191 171.719 122.58C172.479 122.15 173.149 121.81 173.719 121.58C173.109 120.41 172.339 119.25 172.559 119.47C173.157 120.049 173.696 120.686 174.169 121.37C174.499 121.22 174.809 121.09 175.089 120.98C174.309 119.3 172.169 117.09 172.639 117.35C174.058 118.182 175.309 119.27 176.329 120.56C177.559 120.2 177.979 120.25 177.859 119.95C177.023 118.299 175.868 116.831 174.46 115.629C173.053 114.428 171.421 113.517 169.659 112.95C163.869 111.32 155.269 115.09 153.839 122.95C153.839 122.95 150.189 128.5 151.599 132.57C153.009 136.64 159.049 139.58 160.809 138.58Z" fill="#263238"/>
<path d="M161.891 137.93C161.891 137.93 157.521 134.87 156.031 136.57C154.541 138.27 158.871 143.44 161.361 143.46C161.681 143.485 162.002 143.444 162.305 143.341C162.608 143.238 162.888 143.075 163.126 142.86C163.364 142.646 163.557 142.386 163.692 142.096C163.827 141.805 163.901 141.49 163.911 141.17L161.891 137.93Z" fill="#EB9481"/>
<path d="M157.311 138V138.06C158.142 138.155 158.944 138.423 159.666 138.847C160.387 139.271 161.012 139.841 161.501 140.52C161.354 140.393 161.181 140.299 160.994 140.246C160.808 140.194 160.611 140.183 160.42 140.216C160.229 140.248 160.047 140.323 159.888 140.435C159.729 140.546 159.596 140.691 159.501 140.86C159.501 140.86 159.501 140.95 159.571 140.93C159.807 140.742 160.096 140.634 160.398 140.619C160.699 140.605 160.997 140.686 161.251 140.85C161.677 141.138 162.07 141.474 162.421 141.85C162.541 141.96 162.761 141.8 162.651 141.66C162.001 139.63 159.481 137.45 157.311 138Z" fill="#263238"/>
<path d="M175.161 150.38L174.241 157.22L164.521 151.32L162.971 154.4C162.971 154.4 173.701 164.97 173.601 164.4L174.801 158.4L179.441 161.19L176.771 151.91L175.161 150.38Z" fill="#EBEBEB"/>
<path d="M178.38 156.52C177.89 155 177.43 153.46 176.87 151.97C176.87 151.91 176.76 151.91 176.76 151.97C176.83 153.54 178.76 159.33 179.1 160.74C178.9 160.62 174.84 158.33 174.82 158.39C174.48 159.39 173.59 163.76 173.55 164.14C171.86 162.46 164.8 155.93 162.91 154.41C162.899 154.405 162.886 154.403 162.874 154.405C162.862 154.407 162.851 154.413 162.842 154.422C162.833 154.431 162.827 154.442 162.825 154.454C162.823 154.466 162.825 154.479 162.83 154.49C164.42 156.32 173.59 164.97 173.68 164.92C174.2 162.829 174.614 160.713 174.92 158.58C176.474 159.689 178.101 160.691 179.79 161.58C179.407 159.87 178.937 158.181 178.38 156.52Z" fill="#263238"/>
<path d="M192.07 115C190.601 112.818 189.808 110.251 189.79 107.62C189.79 98.28 200.04 90.71 212.69 90.71C225.34 90.71 235.58 98.28 235.58 107.62C235.58 116.96 225.33 124.54 212.69 124.54C207.069 124.628 201.556 122.995 196.89 119.86L189 121.86L192.07 115Z" fill="#1717DD"/>
<path d="M220.939 107.64C220.937 108.111 221.075 108.572 221.336 108.965C221.596 109.358 221.967 109.664 222.402 109.846C222.836 110.028 223.315 110.076 223.778 109.986C224.24 109.895 224.665 109.669 224.999 109.336C225.333 109.004 225.56 108.58 225.653 108.118C225.746 107.656 225.699 107.177 225.519 106.742C225.339 106.306 225.034 105.934 224.643 105.672C224.251 105.41 223.791 105.27 223.319 105.27C222.691 105.273 222.088 105.523 221.643 105.966C221.197 106.41 220.945 107.011 220.939 107.64Z" fill="white"/>
<path d="M212.71 110.01C214.019 110.01 215.08 108.949 215.08 107.64C215.08 106.331 214.019 105.27 212.71 105.27C211.401 105.27 210.34 106.331 210.34 107.64C210.34 108.949 211.401 110.01 212.71 110.01Z" fill="white"/>
<path d="M202.091 110.01C203.4 110.01 204.461 108.949 204.461 107.64C204.461 106.331 203.4 105.27 202.091 105.27C200.782 105.27 199.721 106.331 199.721 107.64C199.721 108.949 200.782 110.01 202.091 110.01Z" fill="white"/>
<path d="M344.93 388.31L264.24 402.9C220.85 410.16 169.05 412.18 94 404.49L175.11 390.93C240.72 396.35 301.54 395.56 344.93 388.31Z" fill="#04A44D"/>
<path d="M349.961 414.67L263.381 428.92C292.801 424 323.521 415.54 345.261 404.84C465.861 346.53 516.571 144.57 517.261 142.65H614.381C613.661 144.57 602.221 177.65 553.791 269.89C523.841 324.71 479.571 365.09 426.361 391.28C404.601 402 379.381 409.75 349.961 414.67Z" fill="#04A44D"/>
<g opacity="0.3">
<path d="M349.961 414.67L263.381 428.92C292.801 424 323.521 415.54 345.261 404.84C465.861 346.53 516.571 144.57 517.261 142.65H614.381C613.661 144.57 602.221 177.65 553.791 269.89C523.841 324.71 479.571 365.09 426.361 391.28C404.601 402 379.381 409.75 349.961 414.67Z" fill="white"/>
</g>
<path d="M494.709 132.52L517.269 142.65C516.539 144.57 468.769 343.09 345.269 404.84C269.979 442.48 205.589 440.22 94.8191 431.07L94.0391 404.49C201.649 413.38 284.219 406.87 335.709 379.92C451.859 319.1 494.539 133 494.709 132.52Z" fill="#04A44D"/>
<path d="M494.711 132.52H599.361L614.361 142.65H517.271L494.711 132.52Z" fill="#1717DD"/>
<path d="M574.41 67.4701L642.46 153.8L482.09 153.37L574.41 67.4701Z" fill="#04A44D"/>
<g opacity="0.3">
<path d="M574.41 67.4701L642.46 153.8L482.09 153.37L574.41 67.4701Z" fill="white"/>
</g>
<path d="M482.09 153.37L454.51 132.21L546.83 46.3101L574.41 67.4701L482.09 153.37Z" fill="#04A44D"/>
</svg>
