<svg width="108" height="107" viewBox="0 0 108 107" fill="none" xmlns="http://www.w3.org/2000/svg">
<circle cx="55.7213" cy="54.59" r="51.7613" fill="#FAC514"/>
<circle cx="51.7613" cy="51.7613" r="51.7613" fill="white"/>
<path d="M73.0427 55.0723L70.327 53.541C69.5261 53.0876 69.5261 51.9587 70.327 51.5053L73.0427 49.9739C74.2512 49.2938 74.9953 48.0308 74.9953 46.6706V34.3688C74.9953 33.0595 73.91 32 72.5687 32H35.4265C34.0853 32 33 33.0595 33 34.3688V70.6312C33 71.9405 34.0853 73 35.4265 73H72.5735C73.9147 73 75 71.9405 75 70.6312V58.3756C74.9953 57.0155 74.2512 55.7524 73.0427 55.0723Z" fill="#1717DC"/>
<path d="M72.5734 32C73.9146 32 74.9999 33.0595 74.9999 34.3688V46.6706C74.9999 48.0354 74.2559 49.2938 73.0473 49.9739L70.3317 51.5053C69.5307 51.9587 69.5307 53.0876 70.3317 53.541L73.0473 55.0723C74.2559 55.7524 74.9999 57.0155 74.9999 58.3756V70.6266C74.9999 71.9359 73.9146 72.9954 72.5734 72.9954L50.289 53.8463C49.4596 53.1338 49.4596 51.8708 50.289 51.1537L72.5734 32Z" fill="#289BD6"/>
</svg>
