<svg width="108" height="107" viewBox="0 0 108 107" fill="none" xmlns="http://www.w3.org/2000/svg">
<circle cx="55.7213" cy="54.59" r="51.7613" fill="#FAC514"/>
<circle cx="51.7613" cy="51.7613" r="51.7613" fill="white"/>
<path d="M76.1875 40.5564H64.6025V37.0339C64.6005 36.011 64.1535 35.0306 63.3592 34.3075C62.565 33.5843 61.4884 33.1774 60.3653 33.1758H47.3847C46.2615 33.1774 45.1849 33.5844 44.3906 34.3076C43.5964 35.0309 43.1494 36.0114 43.1475 37.0343V40.5568H31.5625C30.9826 40.5575 30.4266 40.7676 30.0165 41.141C29.6064 41.5145 29.3757 42.0209 29.375 42.549V46.9677C29.3757 47.4959 29.6064 48.0022 30.0165 48.3757C30.4266 48.7492 30.9826 48.9593 31.5625 48.9599H31.7498V71.4258C31.7504 71.9539 31.9811 72.4603 32.3912 72.8338C32.8013 73.2072 33.3573 73.4173 33.9372 73.418H73.8127C74.3927 73.4173 74.9487 73.2072 75.3588 72.8338C75.7689 72.4603 75.9996 71.9539 76.0002 71.4258V48.9595H76.1875C76.7674 48.9589 77.3234 48.7488 77.7335 48.3753C78.1436 48.0018 78.3743 47.4955 78.375 46.9673V42.5486C78.3743 42.0205 78.1436 41.5141 77.7335 41.1406C77.3234 40.7672 76.7674 40.5571 76.1875 40.5564ZM48.2969 38.7635C48.2975 38.4104 48.4517 38.072 48.7259 37.8223C49.0001 37.5727 49.3718 37.4323 49.7594 37.4319H57.9906C58.3782 37.4323 58.7499 37.5727 59.0241 37.8223C59.2983 38.072 59.4525 38.4104 59.4531 38.7635V40.5564H48.2969V38.7635Z" fill="#E6E7E8"/>
<path d="M30.4375 46.9673V69.832C30.4375 70.2547 30.6219 70.6601 30.9501 70.959C31.2783 71.2579 31.7234 71.4258 32.1875 71.4258H72.063C72.5271 71.4258 72.9723 71.2579 73.3004 70.959C73.6286 70.6601 73.813 70.2547 73.813 69.832V46.9673H30.4375Z" fill="#1616B1"/>
<path d="M74.4375 39.3611H29.8125C28.846 39.3611 28.0625 40.0746 28.0625 40.9548V45.3735C28.0625 46.2537 28.846 46.9673 29.8125 46.9673H74.4375C75.404 46.9673 76.1875 46.2537 76.1875 45.3735V40.9548C76.1875 40.0746 75.404 39.3611 74.4375 39.3611Z" fill="#6DC9F7"/>
<path d="M74.4375 39.3611H29.8125C29.3484 39.3611 28.9033 39.529 28.5751 39.8279C28.2469 40.1268 28.0625 40.5321 28.0625 40.9548V42.1501C28.0625 41.7275 28.2469 41.3221 28.5751 41.0232C28.9033 40.7243 29.3484 40.5564 29.8125 40.5564H74.4375C74.9016 40.5564 75.3467 40.7243 75.6749 41.0232C76.0031 41.3221 76.1875 41.7275 76.1875 42.1501V40.9548C76.1875 40.5321 76.0031 40.1268 75.6749 39.8279C75.3467 39.529 74.9016 39.3611 74.4375 39.3611Z" fill="white"/>
<path d="M41.835 35.4401V39.3611H46.1093V37.1697C46.1093 36.7109 46.3095 36.2709 46.6657 35.9464C47.022 35.622 47.5051 35.4397 48.009 35.4397H56.241C56.7448 35.4397 57.2279 35.622 57.5842 35.9464C57.9404 36.2709 58.1406 36.7109 58.1406 37.1697V39.3611H62.4145V35.4401C62.4144 34.5225 62.0141 33.6425 61.3016 32.9937C60.5891 32.345 59.6228 31.9805 58.6153 31.9805H45.6346C44.6271 31.9805 43.6607 32.3449 42.9482 32.9937C42.2356 33.6425 41.8352 34.5225 41.835 35.4401Z" fill="#1616B1"/>
<path d="M66.125 56.6095H70.8679C70.4195 55.8119 69.7294 55.148 68.8794 54.6966C68.0295 54.2451 67.0552 54.0249 66.0721 54.0622C65.089 54.0994 64.1382 54.3924 63.3323 54.9066C62.5265 55.4208 61.8993 56.1346 61.5251 56.9634H42.7266C42.3524 56.1346 41.7252 55.4208 40.9194 54.9066C40.1135 54.3924 39.1627 54.0994 38.1796 54.0622C37.1965 54.0249 36.2222 54.2451 35.3723 54.6966C34.5223 55.148 33.8322 55.8119 33.3838 56.6095H38.125V60.8892H33.3838C33.8322 61.6868 34.5223 62.3507 35.3723 62.8021C36.2222 63.2536 37.1965 63.4738 38.1796 63.4365C39.1627 63.3993 40.1135 63.1062 40.9194 62.5921C41.7252 62.0779 42.3524 61.3641 42.7266 60.5353H61.5233C61.8975 61.3641 62.5247 62.0779 63.3306 62.5921C64.1364 63.1062 65.0872 63.3993 66.0704 63.4365C67.0535 63.4738 68.0277 63.2536 68.8777 62.8021C69.7276 62.3507 70.4177 61.6868 70.8662 60.8892H66.125V56.6095Z" fill="#FAC514"/>
<path d="M41.2549 45.0842H35.9248C35.1999 45.0842 34.6123 45.6194 34.6123 46.2795V47.6888C34.6123 48.349 35.1999 48.8841 35.9248 48.8841H41.2549C41.9797 48.8841 42.5674 48.349 42.5674 47.6888V46.2795C42.5674 45.6194 41.9797 45.0842 41.2549 45.0842Z" fill="#6DC9F7"/>
<path d="M68.3252 45.0842H62.9951C62.2702 45.0842 61.6826 45.6194 61.6826 46.2795V47.6888C61.6826 48.349 62.2702 48.8841 62.9951 48.8841H68.3252C69.0501 48.8841 69.6377 48.349 69.6377 47.6888V46.2795C69.6377 45.6194 69.0501 45.0842 68.3252 45.0842Z" fill="#6DC9F7"/>
<path d="M57.3018 71.0273H52.9268C52.8107 71.0273 52.6994 71.0693 52.6174 71.144C52.5354 71.2188 52.4893 71.3201 52.4893 71.4258C52.4893 71.5315 52.5354 71.6328 52.6174 71.7075C52.6994 71.7822 52.8107 71.8242 52.9268 71.8242H57.3018C57.4178 71.8242 57.5291 71.7822 57.6111 71.7075C57.6932 71.6328 57.7393 71.5315 57.7393 71.4258C57.7393 71.3201 57.6932 71.2188 57.6111 71.144C57.5291 71.0693 57.4178 71.0273 57.3018 71.0273Z" fill="#3A2C60"/>
<path d="M33.3838 60.4908C33.3088 60.4907 33.2351 60.5082 33.1696 60.5416C33.1042 60.575 33.0493 60.6232 33.0102 60.6815C32.9711 60.7398 32.9491 60.8062 32.9464 60.8745C32.9436 60.9428 32.9602 61.0105 32.9944 61.0713C33.4694 61.9167 34.1947 62.6242 35.0883 63.1136C35.9819 63.603 37.0081 63.8548 38.0508 63.8405C39.0934 63.8262 40.1108 63.5463 40.9878 63.0326C41.8648 62.5189 42.5664 61.7919 43.0132 60.9338H61.2394C61.6862 61.7919 62.3878 62.5189 63.2648 63.0326C64.1418 63.5463 65.1592 63.8262 66.2019 63.8405C67.2445 63.8548 68.2707 63.603 69.1643 63.1136C70.0579 62.6242 70.7833 61.9167 71.2582 61.0713C71.2925 61.0105 71.309 60.9428 71.3063 60.8745C71.3035 60.8062 71.2815 60.7398 71.2424 60.6815C71.2033 60.6232 71.1484 60.575 71.083 60.5416C71.0176 60.5082 70.9438 60.4907 70.8688 60.4908H66.5629V57.008H70.8684C70.9434 57.008 71.0171 56.9905 71.0826 56.9571C71.148 56.9237 71.2029 56.8756 71.242 56.8173C71.2811 56.759 71.3031 56.6925 71.3058 56.6243C71.3086 56.556 71.292 56.4882 71.2578 56.4275C70.7828 55.5821 70.0575 54.8746 69.1639 54.3852C68.2703 53.8958 67.2441 53.644 66.2014 53.6583C65.1588 53.6726 64.1414 53.9524 63.2644 54.4661C62.3874 54.9798 61.6858 55.7069 61.239 56.5649H43.0114C42.5646 55.707 41.8629 54.9801 40.9859 54.4665C40.1089 53.9529 39.0916 53.6731 38.049 53.6588C37.0064 53.6445 35.9803 53.8962 35.0867 54.3855C34.1931 54.8749 33.4677 55.5822 32.9927 56.4275C32.9584 56.4882 32.9419 56.556 32.9446 56.6243C32.9474 56.6925 32.9694 56.759 33.0085 56.8173C33.0476 56.8756 33.1025 56.9237 33.1679 56.9571C33.2333 56.9905 33.3071 57.008 33.3821 57.008H37.6879V60.4908H33.3838ZM38.1254 56.2111H34.1661C34.6607 55.5965 35.3261 55.1129 36.094 54.8101C36.8618 54.5073 37.7044 54.3962 38.535 54.4883C39.3656 54.5804 40.1543 54.8724 40.82 55.3341C41.4856 55.7959 42.0042 56.4108 42.3224 57.1156C42.3555 57.1885 42.4116 57.2508 42.4837 57.2947C42.5557 57.3385 42.6404 57.3619 42.7271 57.3618H61.5238C61.6105 57.3619 61.6952 57.3385 61.7672 57.2947C61.8393 57.2508 61.8954 57.1885 61.9285 57.1156C62.2466 56.4108 62.7651 55.7959 63.4308 55.3341C64.0964 54.8723 64.885 54.5804 65.7156 54.4883C66.5462 54.3962 67.3888 54.5072 68.1566 54.81C68.9244 55.1128 69.5899 55.5964 70.0844 56.2111H66.1254C66.0094 56.2111 65.8981 56.2531 65.8161 56.3278C65.734 56.4026 65.6879 56.5039 65.6879 56.6096V60.8892C65.6879 60.9949 65.734 61.0962 65.8161 61.1709C65.8981 61.2456 66.0094 61.2876 66.1254 61.2876H70.0861C69.5917 61.9024 68.9264 62.3862 68.1585 62.6891C67.3907 62.992 66.5481 63.1031 65.7174 63.0111C64.8868 62.919 64.0981 62.627 63.4325 62.1652C62.7668 61.7034 62.2483 61.0884 61.9303 60.3836C61.8972 60.3106 61.8411 60.2482 61.7691 60.2042C61.697 60.1603 61.6123 60.1369 61.5256 60.1369H42.7271C42.6404 60.1369 42.5556 60.1603 42.4836 60.2042C42.4115 60.2482 42.3554 60.3106 42.3224 60.3836C42.0043 61.0884 41.4857 61.7034 40.82 62.1652C40.1544 62.627 39.3656 62.9189 38.5349 63.011C37.7043 63.1031 36.8617 62.992 36.0938 62.6891C35.3259 62.3862 34.6605 61.9024 34.1661 61.2876H38.1254C38.2415 61.2876 38.3528 61.2456 38.4348 61.1709C38.5169 61.0962 38.5629 60.9949 38.5629 60.8892V56.6096C38.5629 56.5039 38.5169 56.4026 38.4348 56.3278C38.3528 56.2531 38.2415 56.2111 38.1254 56.2111Z" fill="#FAC514"/>
</svg>
