<svg width="204" height="202" viewBox="0 0 204 202" fill="none" xmlns="http://www.w3.org/2000/svg">
<circle cx="105.363" cy="103.224" r="97.3756" stroke="#1717DD"/>
<circle cx="97.8756" cy="97.8756" r="97.8756" fill="white"/>
<circle cx="23.4775" cy="27.6826" r="13.2685" fill="#289CD7" stroke="white" stroke-width="5"/>
<path d="M23.0088 31.397C24.6468 29.955 26.4528 28.275 26.4528 26.077C26.4528 24.607 25.2348 23.067 22.9248 23.067C22.1688 23.067 20.6148 23.277 19.7328 24.649C19.1728 25.503 19.1448 26.357 19.1168 27.029H21.6368C21.6788 26.427 21.7908 25.391 22.8268 25.391C23.5688 25.391 23.8068 25.979 23.8068 26.399C23.8068 27.449 22.7008 28.681 22.3788 29.045C21.3988 30.137 20.5168 30.711 19.2148 31.565V33.623H26.5228V31.397H23.0088Z" fill="white"/>
<path d="M149.805 74.5812H127.669V67.6742C127.665 65.6687 126.811 63.7464 125.294 62.3284C123.776 60.9104 121.719 60.1125 119.573 60.1094H94.7707C92.6247 60.1125 90.5675 60.9105 89.0499 62.3287C87.5324 63.7468 86.6782 65.6694 86.6747 67.675V74.582H64.5391C63.4309 74.5833 62.3686 74.9952 61.585 75.7275C60.8015 76.4598 60.3607 77.4527 60.3594 78.4883V87.1523C60.3607 88.188 60.8015 89.1808 61.585 89.9131C62.3686 90.6454 63.4309 91.0574 64.5391 91.0586H64.8968V135.109C64.8982 136.145 65.339 137.138 66.1225 137.87C66.9061 138.602 67.9684 139.014 69.0765 139.016H145.267C146.375 139.014 147.438 138.602 148.221 137.87C149.005 137.138 149.446 136.145 149.447 135.109V91.0578H149.805C150.913 91.0566 151.975 90.6446 152.759 89.9123C153.542 89.18 153.983 88.1872 153.984 87.1516V78.4875C153.983 77.4519 153.542 76.459 152.759 75.7267C151.975 74.9944 150.913 74.5825 149.805 74.5812ZM96.5137 71.0656C96.5148 70.3733 96.8096 69.7097 97.3334 69.2203C97.8573 68.7308 98.5675 68.4555 99.3082 68.4547H115.036C115.776 68.4555 116.486 68.7308 117.01 69.2203C117.534 69.7097 117.829 70.3733 117.83 71.0656V74.5812H96.5137V71.0656Z" fill="#E6E7E8"/>
<path d="M62.3887 87.1516V131.984C62.3887 132.813 62.741 133.608 63.368 134.194C63.9951 134.78 64.8456 135.109 65.7324 135.109H141.923C142.81 135.109 143.66 134.78 144.288 134.194C144.915 133.608 145.267 132.813 145.267 131.984V87.1516H62.3887Z" fill="#1616B1"/>
<path d="M146.461 72.2375H61.1953C59.3486 72.2375 57.8516 73.6367 57.8516 75.3625V84.0266C57.8516 85.7525 59.3486 87.1516 61.1953 87.1516H146.461C148.308 87.1516 149.805 85.7525 149.805 84.0266V75.3625C149.805 73.6367 148.308 72.2375 146.461 72.2375Z" fill="#6DC9F7"/>
<path d="M146.461 72.2375H61.1953C60.3085 72.2375 59.458 72.5668 58.8309 73.1528C58.2038 73.7389 57.8516 74.5337 57.8516 75.3625V77.7063C57.8516 76.8775 58.2038 76.0826 58.8309 75.4966C59.458 74.9105 60.3085 74.5813 61.1953 74.5813H146.461C147.348 74.5813 148.198 74.9105 148.825 75.4966C149.452 76.0826 149.805 76.8775 149.805 77.7063V75.3625C149.805 74.5337 149.452 73.7389 148.825 73.1528C148.198 72.5668 147.348 72.2375 146.461 72.2375Z" fill="white"/>
<path d="M84.167 64.5492V72.2375H92.3341V67.9406C92.3341 67.041 92.7165 66.1781 93.3972 65.542C94.0779 64.9058 95.0011 64.5484 95.9637 64.5484H111.693C112.655 64.5484 113.579 64.9058 114.259 65.542C114.94 66.1781 115.322 67.041 115.322 67.9406V72.2375H123.489V64.5492C123.488 62.75 122.724 61.0246 121.362 59.7524C120.001 58.4803 118.155 57.7656 116.229 57.7656H91.4271C89.5019 57.7656 87.6555 58.4803 86.294 59.7524C84.9325 61.0245 84.1674 62.75 84.167 64.5492Z" fill="#1616B1"/>
<path d="M130.579 106.058H139.641C138.784 104.494 137.466 103.192 135.842 102.307C134.218 101.422 132.356 100.99 130.478 101.063C128.599 101.136 126.782 101.711 125.243 102.719C123.703 103.727 122.504 105.126 121.79 106.751H85.871C85.156 105.126 83.9577 103.727 82.4179 102.719C80.8781 101.711 79.0614 101.136 77.1829 101.063C75.3045 100.99 73.443 101.422 71.819 102.307C70.1949 103.192 68.8764 104.494 68.0195 106.058H77.0786V114.449H68.0195C68.8764 116.013 70.1949 117.315 71.819 118.2C73.443 119.085 75.3045 119.517 77.1829 119.444C79.0614 119.371 80.8781 118.796 82.4179 117.788C83.9577 116.78 85.156 115.38 85.871 113.755H121.786C122.501 115.38 123.7 116.78 125.239 117.788C126.779 118.796 128.596 119.371 130.474 119.444C132.353 119.517 134.214 119.085 135.838 118.2C137.462 117.315 138.781 116.013 139.638 114.449H130.579V106.058Z" fill="#FAC514"/>
<path d="M83.0582 83.4595H72.874C71.489 83.4595 70.3662 84.5088 70.3662 85.8032V88.5665C70.3662 89.8609 71.489 90.9103 72.874 90.9103H83.0582C84.4433 90.9103 85.5661 89.8609 85.5661 88.5665V85.8032C85.5661 84.5088 84.4433 83.4595 83.0582 83.4595Z" fill="#6DC9F7"/>
<path d="M134.782 83.4595H124.598C123.213 83.4595 122.09 84.5088 122.09 85.8032V88.5665C122.09 89.8609 123.213 90.9103 124.598 90.9103H134.782C136.167 90.9103 137.29 89.8609 137.29 88.5665V85.8032C137.29 84.5088 136.167 83.4595 134.782 83.4595Z" fill="#6DC9F7"/>
<path d="M113.72 134.328H105.36C105.139 134.328 104.926 134.41 104.769 134.557C104.612 134.703 104.524 134.902 104.524 135.109C104.524 135.317 104.612 135.515 104.769 135.662C104.926 135.808 105.139 135.891 105.36 135.891H113.72C113.941 135.891 114.154 135.808 114.311 135.662C114.468 135.515 114.556 135.317 114.556 135.109C114.556 134.902 114.468 134.703 114.311 134.557C114.154 134.41 113.941 134.328 113.72 134.328Z" fill="#3A2C60"/>
<path d="M68.0184 113.668C67.8751 113.668 67.7342 113.702 67.6092 113.768C67.4842 113.833 67.3793 113.928 67.3046 114.042C67.2299 114.156 67.1879 114.287 67.1826 114.42C67.1773 114.554 67.209 114.687 67.2745 114.806C68.1819 116.464 69.5678 117.851 71.2752 118.811C72.9827 119.77 74.9435 120.264 76.9356 120.236C78.9278 120.208 80.8718 119.659 82.5475 118.652C84.2233 117.645 85.5638 116.219 86.4174 114.537H121.243C122.096 116.219 123.437 117.645 125.112 118.652C126.788 119.659 128.732 120.208 130.724 120.236C132.717 120.264 134.677 119.77 136.385 118.811C138.092 117.851 139.478 116.464 140.386 114.806C140.451 114.687 140.483 114.554 140.477 114.42C140.472 114.287 140.43 114.156 140.355 114.042C140.281 113.928 140.176 113.833 140.051 113.768C139.926 113.702 139.785 113.668 139.642 113.668H131.414V106.839H139.641C139.784 106.839 139.925 106.805 140.05 106.739C140.175 106.674 140.28 106.579 140.355 106.465C140.429 106.351 140.471 106.22 140.477 106.087C140.482 105.953 140.45 105.82 140.385 105.701C139.477 104.043 138.091 102.656 136.384 101.696C134.676 100.737 132.716 100.243 130.724 100.271C128.731 100.299 126.787 100.848 125.112 101.855C123.436 102.862 122.095 104.288 121.242 105.97H86.4141C85.5602 104.288 84.2196 102.863 82.5439 101.856C80.8682 100.849 78.9243 100.3 76.9323 100.272C74.9402 100.244 72.9796 100.737 71.2722 101.697C69.5648 102.656 68.1788 104.043 67.2711 105.701C67.2056 105.82 67.174 105.953 67.1793 106.087C67.1846 106.22 67.2266 106.351 67.3013 106.465C67.376 106.579 67.4809 106.674 67.6059 106.739C67.7309 106.805 67.8718 106.839 68.0151 106.839H76.2424V113.668H68.0184ZM77.0783 105.276H69.5131C70.4581 104.071 71.7296 103.123 73.1968 102.529C74.6639 101.936 76.2738 101.718 77.8609 101.898C79.448 102.079 80.955 102.651 82.2268 103.557C83.4987 104.462 84.4895 105.668 85.0975 107.05C85.1607 107.193 85.268 107.315 85.4056 107.401C85.5433 107.487 85.7052 107.533 85.8707 107.533H121.786C121.952 107.533 122.113 107.487 122.251 107.401C122.389 107.315 122.496 107.193 122.559 107.05C123.167 105.668 124.158 104.462 125.43 103.557C126.701 102.651 128.208 102.079 129.795 101.898C131.382 101.718 132.992 101.935 134.459 102.529C135.926 103.123 137.198 104.071 138.143 105.276H130.578C130.357 105.276 130.144 105.359 129.987 105.505C129.83 105.652 129.742 105.851 129.742 106.058V114.449C129.742 114.656 129.83 114.855 129.987 115.002C130.144 115.148 130.357 115.23 130.578 115.23H138.146C137.201 116.436 135.93 117.384 134.463 117.978C132.996 118.572 131.386 118.79 129.799 118.61C128.212 118.429 126.705 117.857 125.433 116.951C124.161 116.046 123.17 114.84 122.563 113.458C122.499 113.315 122.392 113.192 122.255 113.106C122.117 113.02 121.955 112.974 121.789 112.974H85.8707C85.7051 112.974 85.5431 113.02 85.4055 113.106C85.2678 113.192 85.1606 113.315 85.0975 113.458C84.4896 114.84 83.4988 116.046 82.2269 116.951C80.955 117.857 79.4479 118.429 77.8608 118.61C76.2736 118.79 74.6636 118.572 73.1964 117.978C71.7293 117.384 70.4579 116.436 69.5131 115.23H77.0783C77.3 115.23 77.5127 115.148 77.6694 115.002C77.8262 114.855 77.9143 114.656 77.9143 114.449V106.058C77.9143 105.851 77.8262 105.652 77.6694 105.505C77.5127 105.359 77.3 105.276 77.0783 105.276Z" fill="#FAC514"/>
</svg>
