<svg width="12" height="12" viewBox="0 0 12 12" fill="none" xmlns="http://www.w3.org/2000/svg">
<path d="M1.32607 0.660202C1.19344 0.660237 1.06384 0.699823 0.953838 0.773898C0.843831 0.847974 0.758416 0.953174 0.708511 1.07605C0.658607 1.19892 0.64648 1.33389 0.673683 1.46369C0.700886 1.59349 0.766181 1.71223 0.861221 1.80473L5.05653 6.00005L0.861221 10.1954C0.797239 10.2568 0.746157 10.3304 0.710967 10.4118C0.675777 10.4932 0.657187 10.5808 0.656285 10.6695C0.655382 10.7582 0.672186 10.8462 0.705712 10.9283C0.739238 11.0104 0.788813 11.085 0.851532 11.1478C0.914251 11.2105 0.988854 11.26 1.07097 11.2936C1.15309 11.3271 1.24107 11.3439 1.32977 11.343C1.41846 11.3421 1.50608 11.3235 1.5875 11.2883C1.66892 11.2531 1.7425 11.202 1.80393 11.1381L5.99924 6.94275L10.1946 11.1381C10.256 11.202 10.3296 11.2531 10.411 11.2883C10.4924 11.3235 10.58 11.3421 10.6687 11.343C10.7574 11.3439 10.8454 11.3271 10.9275 11.2936C11.0096 11.2601 11.0842 11.2105 11.147 11.1478C11.2097 11.085 11.2592 11.0104 11.2928 10.9283C11.3263 10.8462 11.3431 10.7582 11.3422 10.6695C11.3413 10.5808 11.3227 10.4932 11.2875 10.4118C11.2523 10.3304 11.2012 10.2568 11.1373 10.1954L6.94195 6.00005L11.1373 1.80473C11.2336 1.71109 11.2994 1.59053 11.326 1.45885C11.3527 1.32717 11.3389 1.19052 11.2866 1.06679C11.2342 0.943068 11.1457 0.838048 11.0326 0.765495C10.9195 0.692943 10.7872 0.656242 10.6529 0.660202C10.4797 0.665363 10.3153 0.737749 10.1946 0.862025L5.99924 5.05734L1.80393 0.862025C1.7418 0.798162 1.66751 0.747399 1.58543 0.712734C1.50335 0.67807 1.41516 0.660207 1.32607 0.660202Z" fill="#1717DD"/>
</svg>
