<svg width="32" height="32" viewBox="0 0 32 32" fill="none" xmlns="http://www.w3.org/2000/svg">
<path d="M31.9991 16C31.9991 7.16337 24.8357 0 16 0C7.1643 0 0 7.16337 0 16C0 23.9861 5.8508 30.6047 13.4994 31.8048V20.6247H9.43714V16H13.4994V12.475C13.4994 8.46479 15.8885 6.25052 19.5426 6.25052C21.2931 6.25052 23.1243 6.56286 23.1243 6.56286V10.5006H21.1071C19.1197 10.5006 18.4997 11.7341 18.4997 12.9993V16.0009H22.9375L22.2282 20.6256H18.5006V31.8057C26.1492 30.6056 32 23.9861 32 16.0009L31.9991 16Z" fill="#1717DD"/>
<path d="M22.2266 20.6246L22.9359 15.9999H18.4981V12.9983C18.4981 11.7331 19.1181 10.4996 21.1055 10.4996H23.1227V6.56185C23.1227 6.56185 21.2915 6.24951 19.5411 6.24951C15.8869 6.24951 13.4978 8.46471 13.4978 12.474V15.999H9.43555V20.6237H13.4978V31.8038C14.3121 31.9311 15.1469 31.9981 15.9975 31.9981C16.8481 31.9981 17.6828 31.9311 18.4971 31.8038V20.6237H22.2248L22.2266 20.6246Z" fill="white"/>
</svg>
