<svg width="32" height="32" viewBox="0 0 32 32" fill="none" xmlns="http://www.w3.org/2000/svg">
<g clip-path="url(#clip0_924_26236)">
<path d="M16.0005 32.0009C24.8373 32.0009 32.0009 24.8373 32.0009 16.0005C32.0009 7.16365 24.8373 0 16.0005 0C7.16365 0 0 7.16365 0 16.0005C0 24.8373 7.16365 32.0009 16.0005 32.0009Z" fill="#1717DD"/>
<path d="M16 7.74082C18.6903 7.74082 19.0082 7.75105 20.0707 7.79939C21.0533 7.84401 21.586 8.00855 21.9411 8.14613C22.4115 8.32927 22.7471 8.5468 23.0994 8.90005C23.4517 9.25237 23.6702 9.58796 23.8533 10.0583C23.9909 10.4135 24.1555 10.9471 24.2001 11.9287C24.2484 12.9913 24.2586 13.3092 24.2586 15.9995C24.2586 18.6898 24.2484 19.0077 24.2001 20.0703C24.1555 21.0529 23.9909 21.5855 23.8533 21.9406C23.6702 22.411 23.4527 22.7466 23.0994 23.0989C22.7471 23.4512 22.4115 23.6697 21.9411 23.8528C21.586 23.9904 21.0524 24.155 20.0707 24.1996C19.0082 24.2479 18.6903 24.2582 16 24.2582C13.3097 24.2582 12.9908 24.2479 11.9292 24.1996C10.9466 24.155 10.4139 23.9904 10.0588 23.8528C9.58845 23.6697 9.25286 23.4522 8.90054 23.0989C8.54821 22.7466 8.32976 22.411 8.14662 21.9406C8.00904 21.5855 7.8445 21.0519 7.79988 20.0703C7.75154 19.0077 7.74131 18.6898 7.74131 15.9995C7.74131 13.3092 7.75154 12.9913 7.79988 11.9287C7.8445 10.9461 8.00904 10.4135 8.14662 10.0583C8.32976 9.58796 8.54728 9.25237 8.90054 8.90005C9.25286 8.54773 9.58845 8.32927 10.0588 8.14613C10.4139 8.00855 10.9475 7.84401 11.9292 7.79939C12.9918 7.75105 13.3097 7.74082 16 7.74082ZM16 5.92529C13.2641 5.92529 12.9211 5.93645 11.8465 5.98572C10.7746 6.03499 10.0421 6.20511 9.40067 6.45424C8.73785 6.71174 8.17637 7.0557 7.61674 7.61626C7.05712 8.17588 6.71223 8.7383 6.45473 9.40018C6.20559 10.0407 6.03548 10.7732 5.98621 11.846C5.93694 12.9206 5.92578 13.2636 5.92578 15.9995C5.92578 18.7353 5.93694 19.0784 5.98621 20.153C6.03548 21.2248 6.20559 21.9574 6.45473 22.5988C6.71223 23.2616 7.05619 23.8231 7.61674 24.3827C8.17637 24.9423 8.73878 25.2872 9.40067 25.5447C10.0412 25.7939 10.7737 25.964 11.8465 26.0133C12.9211 26.0625 13.2641 26.0737 16 26.0737C18.7358 26.0737 19.0788 26.0625 20.1535 26.0133C21.2253 25.964 21.9579 25.7939 22.5993 25.5447C23.2621 25.2872 23.8236 24.9433 24.3832 24.3827C24.9428 23.8231 25.2877 23.2607 25.5452 22.5988C25.7944 21.9583 25.9645 21.2258 26.0137 20.153C26.063 19.0784 26.0742 18.7353 26.0742 15.9995C26.0742 13.2636 26.063 12.9206 26.0137 11.846C25.9645 10.7741 25.7944 10.0416 25.5452 9.40018C25.2877 8.73737 24.9438 8.17588 24.3832 7.61626C23.8236 7.05663 23.2612 6.71174 22.5993 6.45424C21.9588 6.20511 21.2262 6.03499 20.1535 5.98572C19.0788 5.93645 18.7358 5.92529 16 5.92529Z" fill="white"/>
<path d="M15.9995 10.8271C13.1428 10.8271 10.8262 13.1437 10.8262 16.0004C10.8262 18.8571 13.1428 21.1737 15.9995 21.1737C18.8562 21.1737 21.1727 18.8571 21.1727 16.0004C21.1727 13.1437 18.8562 10.8271 15.9995 10.8271ZM15.9995 19.3582C14.1449 19.3582 12.6417 17.855 12.6417 16.0004C12.6417 14.1459 14.1449 12.6427 15.9995 12.6427C17.854 12.6427 19.3572 14.1459 19.3572 16.0004C19.3572 17.855 17.854 19.3582 15.9995 19.3582Z" fill="white"/>
<path d="M21.3765 11.8311C22.0439 11.8311 22.585 11.29 22.585 10.6226C22.585 9.95512 22.0439 9.41406 21.3765 9.41406C20.709 9.41406 20.168 9.95512 20.168 10.6226C20.168 11.29 20.709 11.8311 21.3765 11.8311Z" fill="white"/>
</g>
<defs>
<clipPath id="clip0_924_26236">
<rect width="32" height="32" fill="white"/>
</clipPath>
</defs>
</svg>
