<svg width="32" height="32" viewBox="0 0 32 32" fill="none" xmlns="http://www.w3.org/2000/svg">
<g clip-path="url(#clip0_924_26223)">
<path d="M16.0005 32.0009C24.8373 32.0009 32.0009 24.8373 32.0009 16.0005C32.0009 7.16365 24.8373 0 16.0005 0C7.16365 0 0 7.16365 0 16.0005C0 24.8373 7.16365 32.0009 16.0005 32.0009Z" fill="#1717DD"/>
<path d="M17.2375 13.8168C17.5006 13.5212 17.7172 13.2219 17.9868 12.9671C18.8169 12.1853 19.7976 11.7903 20.9438 11.8005C21.5732 11.8061 22.196 11.8516 22.8031 12.0264C24.1919 12.428 24.9988 13.3836 25.3837 14.7408C25.6718 15.7578 25.7258 16.8027 25.7276 17.8504C25.7313 20.061 25.7211 22.2707 25.7258 24.4813C25.7258 24.6886 25.6681 24.7425 25.4645 24.7407C24.3258 24.7314 23.187 24.7314 22.0482 24.7407C21.8474 24.7425 21.8047 24.6802 21.8056 24.4906C21.8121 22.3878 21.814 20.2841 21.8065 18.1813C21.8047 17.6542 21.7712 17.1272 21.6234 16.6149C21.351 15.6714 20.6752 15.1898 19.6861 15.2419C18.3363 15.3135 17.6335 15.9819 17.4615 17.3549C17.4206 17.6831 17.4011 18.0112 17.4011 18.3412C17.403 20.3864 17.3992 22.4324 17.4067 24.4776C17.4067 24.6812 17.3565 24.7416 17.1482 24.7397C16.0011 24.7295 14.854 24.7304 13.7078 24.7397C13.5237 24.7407 13.4707 24.6914 13.4707 24.5055C13.4754 20.4561 13.4763 16.4067 13.4707 12.3573C13.4707 12.1565 13.5358 12.111 13.7254 12.1119C14.8149 12.1203 15.9035 12.1212 16.993 12.1119C17.1938 12.11 17.2449 12.1751 17.2412 12.3648C17.23 12.8482 17.2375 13.3325 17.2375 13.8168Z" fill="#FEFEFE"/>
<path d="M10.9987 18.4454C10.9987 20.4487 10.9949 22.4521 11.0033 24.4554C11.0033 24.6785 10.9485 24.7454 10.7179 24.7426C9.58008 24.7305 8.4413 24.7333 7.30346 24.7408C7.12125 24.7417 7.06641 24.6961 7.06641 24.5074C7.07198 20.4515 7.07105 16.3947 7.06734 12.3388C7.06734 12.1706 7.10824 12.1111 7.28579 12.112C8.44037 12.1194 9.59495 12.1213 10.7495 12.1101C10.9717 12.1083 11.0014 12.1938 11.0014 12.3844C10.9959 14.4044 10.9977 16.4245 10.9977 18.4436L10.9987 18.4454Z" fill="#FEFEFE"/>
<path d="M11.3133 8.09329C11.3142 9.35105 10.2935 10.3755 9.03853 10.3764C7.79936 10.3764 6.77028 9.35105 6.76564 8.11281C6.76192 6.86062 7.79007 5.82969 9.04318 5.83155C10.287 5.83248 11.3114 6.85412 11.3133 8.09329Z" fill="#FEFEFE"/>
</g>
<defs>
<clipPath id="clip0_924_26223">
<rect width="32" height="32" fill="white"/>
</clipPath>
</defs>
</svg>
