<svg width="32" height="32" viewBox="0 0 32 32" fill="none" xmlns="http://www.w3.org/2000/svg">
<g clip-path="url(#clip0_924_26231)">
<path d="M16.0005 32.0009C24.8373 32.0009 32.0009 24.8373 32.0009 16.0005C32.0009 7.16365 24.8373 0 16.0005 0C7.16365 0 0 7.16365 0 16.0005C0 24.8373 7.16365 32.0009 16.0005 32.0009Z" fill="#1717DD"/>
<path d="M12.7669 25.2149C20.5813 25.2149 24.8556 18.7411 24.8556 13.1262C24.8556 12.9422 24.8519 12.759 24.8435 12.5768C25.6727 11.9772 26.3941 11.2289 26.963 10.3774C26.2017 10.7157 25.3827 10.9435 24.5228 11.0458C25.4004 10.5196 26.0734 9.68759 26.3913 8.6957C25.5705 9.18281 24.6613 9.53606 23.6936 9.72664C22.9183 8.90114 21.8139 8.38428 20.5924 8.38428C18.2461 8.38428 16.3432 10.2872 16.3432 12.6326C16.3432 12.9663 16.3803 13.2898 16.4538 13.6013C12.9231 13.4237 9.79219 11.7327 7.69685 9.16236C7.33151 9.78985 7.12142 10.5196 7.12142 11.2977C7.12142 12.772 7.87162 14.0726 9.01225 14.8339C8.31504 14.8125 7.6606 14.621 7.08796 14.3022C7.08796 14.3198 7.08796 14.3375 7.08796 14.3561C7.08796 16.4143 8.55302 18.1322 10.4968 18.5217C10.1399 18.6184 9.76431 18.6714 9.37666 18.6714C9.10335 18.6714 8.83655 18.6444 8.57812 18.5951C9.11916 20.2833 10.6874 21.5113 12.5476 21.5457C11.0927 22.6854 9.26139 23.364 7.27109 23.364C6.92806 23.364 6.58968 23.3445 6.25781 23.3055C8.13842 24.5102 10.3704 25.214 12.7707 25.214" fill="white"/>
</g>
<defs>
<clipPath id="clip0_924_26231">
<rect width="32" height="32" fill="white"/>
</clipPath>
</defs>
</svg>
