<svg width="792" height="792" viewBox="0 0 792 792" fill="none" xmlns="http://www.w3.org/2000/svg">
<path d="M124.914 0H123.33V214.68H124.914V0Z" fill="#C7C7C7"/>
<path d="M198.664 286.546L192.677 299.724H55.5498L49.5781 286.546L107.949 246.138H140.294L198.664 286.546Z" fill="#EBEBEB"/>
<path d="M144.35 207.203L140.295 246.138H107.95L103.895 207.203H144.35Z" fill="#DBDBDB"/>
<path d="M198.664 286.546L192.661 299.725H55.55L49.5625 286.546H198.664Z" fill="#DBDBDB"/>
<path d="M284.977 0H283.393V172.165H284.977V0Z" fill="#C7C7C7"/>
<path d="M358.727 244.015L352.739 257.21H215.612L209.641 244.015L268.011 203.607H300.356L358.727 244.015Z" fill="#EBEBEB"/>
<path d="M304.412 164.688L300.357 203.607H268.012L263.957 164.688H304.412Z" fill="#DBDBDB"/>
<path d="M358.727 244.031L352.724 257.21H215.613L209.625 244.031H358.727Z" fill="#DBDBDB"/>
<path d="M76.8228 353.771L61.1887 378.972L68.9503 383.724C70.0381 384.432 70.9095 385.426 71.4685 386.597C72.0274 387.768 72.2523 389.07 72.1183 390.361C71.9912 391.799 71.9436 393.242 71.9757 394.685C72.0201 395.999 71.7003 397.299 71.0518 398.443C70.4033 399.586 69.4512 400.528 68.3009 401.164L60.3809 405.457L74.4468 431.656L82.3668 427.363C83.4936 426.759 84.765 426.476 86.0418 426.546C87.3185 426.616 88.5515 427.035 89.6057 427.759C90.8994 428.663 92.2426 429.493 93.629 430.246C94.7551 430.866 95.6865 431.787 96.3188 432.906C96.951 434.025 97.2592 435.298 97.2089 436.582L96.9237 445.658L126.576 446.577L126.845 437.469C126.887 436.182 127.285 434.932 127.996 433.858C128.706 432.784 129.701 431.929 130.869 431.387C131.566 431.054 132.247 430.705 132.928 430.341C133.609 429.977 134.274 429.597 134.924 429.201C136.017 428.528 137.276 428.172 138.559 428.172C139.843 428.172 141.101 428.528 142.194 429.201L149.972 433.953L165.59 408.751L157.813 403.92C156.724 403.214 155.851 402.22 155.292 401.049C154.733 399.877 154.509 398.574 154.645 397.283C154.772 395.851 154.819 394.412 154.787 392.975C154.744 391.659 155.067 390.358 155.718 389.214C156.369 388.071 157.325 387.13 158.478 386.496L166.398 382.203L152.38 356.067L144.365 360.36C143.202 360.968 141.893 361.242 140.584 361.149C139.275 361.057 138.017 360.603 136.951 359.837C135.763 359.014 134.528 358.253 133.277 357.572C132.123 356.971 131.16 356.059 130.497 354.939C129.833 353.82 129.496 352.537 129.522 351.236L129.887 342.144L100.25 341.209L99.965 350.317C99.9115 351.618 99.4982 352.878 98.7711 353.957C98.044 355.037 97.0316 355.893 95.8466 356.432C95.1813 356.733 94.5319 357.065 93.8825 357.414C93.233 357.762 92.5994 358.127 91.9817 358.507C90.8691 359.19 89.5888 359.552 88.283 359.552C86.9772 359.552 85.6969 359.19 84.5844 358.507L76.8228 353.771ZM99.2205 374.173C103.345 371.213 108.294 369.62 113.37 369.617C118.447 369.614 123.397 371.201 127.526 374.156C131.654 377.11 134.754 381.284 136.389 386.09C138.024 390.896 138.112 396.094 136.642 400.953C135.172 405.812 132.217 410.088 128.191 413.182C124.166 416.275 119.273 418.03 114.199 418.201C109.125 418.371 104.125 416.947 99.902 414.13C95.6785 411.313 92.4435 407.244 90.6511 402.494C88.7622 397.489 88.5781 392 90.1276 386.879C91.6771 381.758 94.8734 377.291 99.2205 374.173Z" fill="#EBEBEB"/>
<path d="M727.055 107.712C726.391 107.323 725.848 106.757 725.487 106.077C725.126 105.398 724.961 104.631 725.011 103.863C725.011 103.435 725.011 103.008 725.011 102.58C725.011 102.152 725.011 101.709 725.011 101.281C724.961 100.513 725.126 99.7464 725.487 99.0667C725.848 98.3869 726.391 97.8209 727.055 97.4319L731.696 94.7549L722.984 79.6277L718.279 82.368C717.611 82.7518 716.849 82.9404 716.078 82.9124C715.308 82.8844 714.562 82.6409 713.923 82.2096C713.195 81.7503 712.45 81.3068 711.674 80.9108C710.988 80.5666 710.411 80.04 710.006 79.3887C709.601 78.7375 709.383 77.987 709.377 77.22V71.8186H691.953V77.1567C691.934 77.9166 691.707 78.6567 691.297 79.2964C690.886 79.936 690.308 80.4506 689.625 80.784C688.848 81.18 688.041 81.6236 687.375 82.0829C686.737 82.5142 685.99 82.7576 685.22 82.7857C684.45 82.8137 683.688 82.6251 683.019 82.2413L678.378 79.5644L669.65 94.6916L674.307 97.3844C674.984 97.7721 675.537 98.3442 675.902 99.0341C676.267 99.7239 676.428 100.503 676.367 101.281C676.367 101.709 676.367 102.136 676.367 102.564C676.367 102.992 676.367 103.419 676.367 103.847C676.418 104.619 676.252 105.39 675.888 106.073C675.524 106.756 674.977 107.324 674.307 107.712L669.65 110.389L678.378 125.516L683.003 122.839C683.671 122.457 684.432 122.268 685.202 122.293C685.971 122.318 686.718 122.556 687.359 122.982C688.089 123.463 688.845 123.902 689.625 124.297C690.308 124.641 690.883 125.169 691.286 125.82C691.688 126.471 691.903 127.222 691.906 127.987V133.325H709.33V127.971C709.336 127.204 709.553 126.454 709.958 125.803C710.364 125.151 710.941 124.625 711.626 124.281C712.404 123.883 713.16 123.444 713.891 122.966C714.53 122.54 715.274 122.301 716.041 122.276C716.808 122.251 717.567 122.441 718.232 122.823L722.873 125.5L731.585 110.373L727.055 107.712ZM700.697 116.883C697.877 116.883 695.121 116.047 692.777 114.481C690.432 112.914 688.605 110.688 687.526 108.083C686.447 105.478 686.165 102.612 686.715 99.8462C687.265 97.0808 688.623 94.5406 690.616 92.5469C692.61 90.5532 695.15 89.1954 697.916 88.6453C700.681 88.0953 703.547 88.3776 706.152 89.4566C708.757 90.5356 710.984 92.3628 712.55 94.7072C714.117 97.0516 714.953 99.8078 714.953 102.627C714.951 104.502 714.579 106.358 713.859 108.089C713.138 109.82 712.084 111.392 710.755 112.715C709.426 114.037 707.85 115.085 706.116 115.798C704.382 116.51 702.524 116.874 700.649 116.868L700.697 116.883Z" fill="#EBEBEB"/>
<path d="M334.096 505.074C333.476 504.711 332.96 504.193 332.599 503.571C332.238 502.949 332.045 502.245 332.037 501.526C332.037 500.813 332.037 500.116 332.037 499.404C331.96 498.689 332.003 497.966 332.163 497.265C332.339 496.564 332.7 495.924 333.209 495.412C333.746 494.941 334.343 494.542 334.983 494.224L338.674 492.07V492.149L329.867 477.069H330.073L325.226 479.92C324.333 480.365 323.315 480.488 322.343 480.269C321.427 479.983 320.557 479.567 319.761 479.033L318.557 478.352C318.113 478.12 317.711 477.815 317.369 477.449C316.667 476.719 316.241 475.767 316.165 474.757V469.133L316.529 469.498L299.105 469.656L299.644 469.133V474.772C299.594 475.581 299.337 476.364 298.899 477.046C298.461 477.728 297.856 478.287 297.141 478.669L295.953 479.382L294.765 480.079C294.305 480.367 293.803 480.581 293.276 480.712C292.209 480.947 291.094 480.819 290.108 480.348L285.198 477.544L286.148 477.291L277.484 492.45L277.199 491.389L282.109 494.208C282.8 494.682 283.36 495.322 283.74 496.07C284.119 496.817 284.304 497.647 284.279 498.485V499.879V501.257C284.288 501.793 284.213 502.328 284.057 502.841C283.728 503.91 283.04 504.833 282.109 505.454L277.199 508.274L277.468 507.276L286.117 522.435L285.23 522.197L290.156 519.425C291.144 518.962 292.26 518.845 293.324 519.093C293.832 519.226 294.318 519.434 294.765 519.71L295.969 520.423L297.157 521.12C297.618 521.374 298.035 521.7 298.393 522.086C299.106 522.866 299.531 523.867 299.596 524.922V530.577L299.169 530.149L316.593 530.323L316.339 530.577V524.953C316.414 523.968 316.829 523.039 317.511 522.324C318.23 521.693 319.029 521.161 319.887 520.74C320.679 520.221 321.537 519.81 322.438 519.52C323.382 519.295 324.376 519.413 325.241 519.853L330.104 522.673H329.993L338.769 507.577L334.096 505.074ZM334.096 505.074L338.737 507.735L330.073 522.878V522.958L325.194 520.186C324.367 519.785 323.426 519.684 322.533 519.901C321.618 520.176 320.752 520.593 319.967 521.136C319.141 521.554 318.378 522.088 317.702 522.72C317.087 523.384 316.723 524.241 316.672 525.144V530.751V531.004H316.418L298.994 531.179H298.583V530.64V525.049C298.517 524.224 298.17 523.446 297.601 522.847C297.312 522.551 296.981 522.3 296.618 522.102L295.383 521.405L294.147 520.708C293.8 520.499 293.42 520.349 293.023 520.265C292.227 520.087 291.394 520.188 290.663 520.55L285.911 523.385L285.356 523.718L285.024 523.148L276.232 508.068L275.868 507.434L276.502 507.07L281.254 504.266C281.885 503.832 282.349 503.195 282.568 502.461C282.676 502.09 282.73 501.706 282.727 501.32V499.895V498.469C282.73 498.083 282.676 497.699 282.568 497.329C282.347 496.599 281.876 495.971 281.238 495.554L276.486 492.735L275.805 492.355L276.201 491.689L284.976 476.61L285.34 475.992L285.942 476.341L290.694 479.144C291.401 479.493 292.207 479.588 292.975 479.413C293.363 479.332 293.733 479.182 294.068 478.97L295.304 478.273L296.555 477.576C296.907 477.389 297.228 477.149 297.506 476.863C298.066 476.279 298.403 475.517 298.456 474.709V469.149V468.595H298.979L316.403 468.753H316.799V469.117V474.709C316.857 475.581 317.208 476.407 317.797 477.053C318.462 477.684 319.214 478.217 320.03 478.637C320.776 479.17 321.598 479.587 322.469 479.873C323.336 480.078 324.246 479.983 325.051 479.604L329.946 476.863L330.073 476.784V476.911L338.737 492.07L335.03 494.192C334.393 494.501 333.802 494.895 333.272 495.364C332.765 495.859 332.403 496.484 332.227 497.17C332.06 497.865 332.012 498.582 332.084 499.293C332.084 500.005 332.084 500.718 332.084 501.415C332.068 502.148 332.245 502.873 332.599 503.515C332.952 504.157 333.468 504.695 334.096 505.074Z" fill="#EBEBEB"/>
<path d="M307.738 514.246C305.312 514.236 302.926 513.625 300.793 512.469C298.66 511.312 296.847 509.646 295.514 507.618C294.182 505.591 293.372 503.265 293.157 500.848C292.942 498.431 293.329 495.999 294.283 493.768C295.236 491.537 296.728 489.577 298.623 488.063C300.518 486.548 302.759 485.526 305.146 485.088C307.532 484.65 309.99 484.81 312.299 485.553C314.609 486.295 316.699 487.598 318.383 489.345C321.106 492.192 322.588 496.003 322.501 499.942C322.374 503.759 320.771 507.378 318.029 510.037C315.287 512.696 311.621 514.188 307.802 514.198L307.738 514.246ZM307.738 514.246C309.593 514.244 311.429 513.872 313.137 513.15C314.846 512.428 316.393 511.372 317.687 510.044C318.982 508.716 319.997 507.142 320.675 505.415C321.352 503.688 321.676 501.844 321.63 499.99C321.523 496.371 320.011 492.937 317.415 490.415C314.819 487.893 311.342 486.481 307.722 486.478C304.034 486.478 300.497 487.943 297.888 490.551C295.28 493.16 293.815 496.697 293.815 500.386C293.815 504.074 295.28 507.612 297.888 510.22C300.497 512.828 304.034 514.293 307.722 514.293L307.738 514.246Z" fill="#EBEBEB"/>
<path d="M48.7246 693.412L135.544 693.032L222.363 692.889L396.001 692.636L569.639 692.889L656.458 693.032L743.277 693.412L656.458 693.808L569.639 693.95L396.001 694.204L222.363 693.95L135.544 693.808L48.7246 693.412Z" fill="#263238"/>
<path d="M729.082 142.576H466.455V408.023H729.082V142.576Z" fill="#EBEBEB"/>
<path d="M587.205 126.562C595.964 116.282 610.965 113.811 625.474 116.741C639.983 119.671 657.36 126.989 658.944 151.256C660.243 170.961 654.192 190.175 654.192 212.161C654.192 234.147 679.077 287.702 639.255 313.838C603.472 337.313 530.973 315.755 528.739 267.427C526.981 229.126 572.41 193.708 577.194 178.549C581.977 163.39 577.606 137.808 587.205 126.562Z" fill="#263238"/>
<path d="M580.662 148.183C580.393 159.145 578.809 170.233 574.326 180.576C573.163 183.196 571.644 185.642 569.812 187.847C568.053 190.064 566.184 192.155 564.315 194.183C560.545 198.285 556.823 202.356 553.227 206.585C546.085 214.871 540.184 224.15 535.708 234.131C531.416 244.159 529.057 254.908 528.754 265.811C528.308 260.308 528.473 254.773 529.245 249.306C530.102 243.811 531.519 238.418 533.475 233.212C537.601 222.782 543.448 213.117 550.772 204.621C554.368 200.329 558.185 196.226 561.987 192.171C565.788 188.116 569.637 184.251 571.997 179.499C574.418 174.641 576.263 169.516 577.494 164.229C578.884 158.952 579.942 153.593 580.662 148.183Z" fill="#263238"/>
<path d="M657.946 167.809C657.676 178.992 656.964 190.159 657.265 201.263C657.395 206.793 657.86 212.311 658.659 217.784C659.482 223.17 661.098 228.555 662.444 234.004C663.791 239.453 664.995 244.982 665.882 250.557C666.739 256.159 667.099 261.825 666.959 267.49C666.701 273.183 665.634 278.809 663.791 284.201C661.664 289.501 658.491 294.317 654.461 298.362C657.992 294.021 660.679 289.057 662.381 283.726C663.858 278.425 664.593 272.945 664.567 267.443C664.118 256.366 662.385 245.379 659.403 234.701C658.136 229.268 656.52 223.883 655.744 218.164C655.017 212.562 654.731 206.911 654.889 201.263C655.223 190.06 656.244 178.888 657.946 167.809Z" fill="#263238"/>
<path d="M600.334 261.851C563.902 301.958 534.171 321.22 504.867 321.22C477.004 321.22 417.477 253.567 413.105 244.649C409.336 236.951 458.202 194.832 465.71 200.075C478.382 208.851 519.028 259.65 523.336 259.887C527.645 260.125 543.516 249.639 581.738 231.739C604.96 220.889 625.678 234.052 600.334 261.851Z" fill="#EB9481"/>
<path d="M418.777 251.318C413.423 245.52 390.946 216.58 386.495 207.14C382.044 197.699 371.257 169.599 378.147 165.465C385.038 161.331 388.839 169.298 388.839 169.298C388.839 169.298 386.162 156.721 393.481 153.189C400.799 149.656 406.311 162.249 406.311 162.249C406.311 162.249 404.505 149.134 412.045 146.124C419.585 143.115 423.038 156.737 423.038 156.737C423.038 156.737 420.82 144.809 428.075 144.952C436.803 145.126 438.403 167.571 444.089 177.63C445.372 179.911 473.536 221.982 473.536 221.982L418.777 251.318Z" fill="#EB9481"/>
<path d="M422.738 155.581C423.957 172.07 427.347 179.087 436.994 192.187C437.184 192.44 436.851 192.773 436.629 192.535C425.969 180.56 420.457 172.387 421.898 155.596C422.009 154.773 422.674 154.789 422.738 155.581Z" fill="#263238"/>
<path d="M406.264 160.95C409.021 177.978 412.6 185.613 421.772 200.075C421.898 200.281 421.566 200.519 421.423 200.329C411.27 186.88 405.948 178.596 405.425 161.22C405.393 160.428 406.138 160.158 406.264 160.95Z" fill="#263238"/>
<path d="M389.345 170.027C393.21 186.326 396.806 194.864 407.482 207.758C407.736 208.074 407.308 208.47 407.039 208.185C394.874 196.084 390.312 185.455 388.87 170.169C388.775 169.156 389.108 168.997 389.345 170.027Z" fill="#263238"/>
<path d="M486.096 226.005C486.096 226.005 485.732 205.271 483.562 196.194C481.392 187.118 460.942 156.293 453.957 160.348C445.039 165.576 453.371 185.692 458.709 195.038C458.709 195.038 438.117 207.14 440.921 222.885C443.724 238.63 486.096 226.005 486.096 226.005Z" fill="#EB9481"/>
<path d="M451.977 162.582C447.225 173.226 455.145 185.027 459.659 194.452C459.732 194.588 459.771 194.739 459.773 194.892C459.776 195.046 459.742 195.198 459.673 195.336C459.605 195.474 459.505 195.594 459.381 195.685C459.258 195.776 459.114 195.837 458.962 195.862C450.63 201.517 440.54 211.892 440.414 222.505C440.414 222.568 440.389 222.628 440.344 222.673C440.299 222.717 440.239 222.742 440.176 222.742C440.113 222.742 440.052 222.717 440.008 222.673C439.963 222.628 439.938 222.568 439.938 222.505C438.529 211.1 447.605 200.075 457.109 194.484C452.357 184.869 444.96 172.704 451.882 162.487L451.977 162.582Z" fill="#263238"/>
<path d="M537.514 248.229L566.786 302.845C566.786 302.845 606.481 264.306 612.817 248.229C619.153 232.151 612.326 220.477 584.083 229.078C567.949 233.86 552.345 240.277 537.514 248.229Z" fill="#289CD7"/>
<path d="M573.549 291.456C572.108 288.494 570.84 285.437 569.336 282.491C567.831 279.545 566.326 276.63 564.758 273.747C561.59 267.918 558.422 262.073 555.127 256.323C553.258 253.155 551.294 249.892 549.251 246.819C549.171 246.677 548.902 246.819 548.981 246.93C554.351 258.953 560.861 270.468 567.356 281.905C569.241 285.215 571.379 288.367 573.343 291.631C573.407 291.71 573.628 291.567 573.549 291.456Z" fill="#263238"/>
<path d="M612.816 248.229C606.48 264.306 566.785 302.845 566.785 302.845L547.064 266.112L612.119 230.139C615.858 234.036 615.81 240.641 612.816 248.229Z" fill="#263238"/>
<path d="M544.182 340.18C544.182 340.18 528.089 378.703 533.775 408.007H711.215C705.449 328.348 665.738 259.887 642.279 237.727C623.366 219.859 603.455 221.459 589.595 230.599C586.332 232.769 550.328 282.522 546.431 290.395C530.972 321.457 544.182 340.18 544.182 340.18Z" fill="#289CD7"/>
<path d="M590.831 228.254C590.831 228.254 579.743 260.14 586.174 261.804C602.172 265.922 623.636 239.802 624.919 237.141C625.235 236.46 626.661 218.608 627.722 204.716C628.404 195.782 628.926 188.48 628.926 188.48L589.453 202.023L590.72 226.496L590.831 228.254Z" fill="#EB9481"/>
<path d="M589.391 202.023L590.658 226.496C598.689 225.372 616.35 221.016 627.66 204.716C628.341 195.782 628.864 188.48 628.864 188.48L623.922 190.064L589.391 202.023Z" fill="#263238"/>
<path d="M559.991 167.762C559.516 180.196 560.752 190.254 563.777 196.939C566.369 202.648 570.494 207.527 575.692 211.034C580.89 214.541 586.959 216.537 593.224 216.802C597.976 216.976 611.661 215.725 621.561 208.185C629.26 202.324 633.901 191.759 636.53 173.179C642.549 130.696 623.114 116.408 603.963 114.698C584.813 112.987 561.575 124.899 559.991 167.762Z" fill="#EB9481"/>
<path d="M570.967 158.289C571.965 158.147 572.884 157.862 573.85 157.64C574.901 157.545 575.894 157.118 576.685 156.42C576.884 156.149 576.99 155.822 576.99 155.486C576.99 155.15 576.884 154.822 576.685 154.551C576.192 154.093 575.587 153.773 574.93 153.626C574.273 153.478 573.589 153.508 572.947 153.711C571.581 153.929 570.345 154.646 569.478 155.723C569.274 155.973 569.15 156.279 569.124 156.6C569.098 156.922 569.171 157.243 569.333 157.522C569.495 157.801 569.738 158.024 570.03 158.161C570.322 158.298 570.649 158.343 570.967 158.289Z" fill="#263238"/>
<path d="M598.957 159.35C597.985 159.179 597.023 158.957 596.074 158.685C595.023 158.598 594.031 158.163 593.254 157.45C593.056 157.178 592.949 156.851 592.949 156.515C592.949 156.179 593.056 155.852 593.254 155.581C593.751 155.123 594.361 154.807 595.021 154.665C595.681 154.523 596.367 154.56 597.008 154.773C598.385 154.993 599.629 155.722 600.493 156.816C600.692 157.069 600.808 157.377 600.828 157.698C600.847 158.02 600.768 158.339 600.601 158.614C600.434 158.89 600.187 159.107 599.894 159.239C599.6 159.37 599.273 159.409 598.957 159.35Z" fill="#263238"/>
<path d="M591.956 170.058C591.956 169.948 592.178 170.201 592.178 170.328C591.94 173.226 592.178 176.664 594.76 177.709C594.76 177.709 594.76 177.883 594.76 177.868C591.528 177.266 591.275 172.767 591.956 170.058Z" fill="#263238"/>
<path d="M594.712 167.128C599.464 167.001 599.337 176.426 594.966 176.553C590.594 176.679 590.831 167.239 594.712 167.128Z" fill="#263238"/>
<path d="M596.565 167.651C597.373 168.189 598.149 169.14 599.163 169.235C600.177 169.33 601.191 168.379 601.951 167.429C602.03 167.334 602.109 167.429 602.109 167.54C602.109 169.346 601.412 171.199 599.464 171.452C597.516 171.706 596.454 170.058 596.011 168.284C595.932 167.904 596.233 167.429 596.565 167.651Z" fill="#263238"/>
<path d="M576.352 168.823C576.352 168.712 576.131 168.965 576.131 169.076C576.131 172.007 575.83 175.412 573.184 176.331C573.105 176.331 573.105 176.505 573.184 176.489C576.432 176.046 576.907 171.579 576.352 168.823Z" fill="#263238"/>
<path d="M573.756 165.766C569.004 165.401 568.672 174.826 573.028 175.159C577.384 175.491 577.685 166.082 573.756 165.766Z" fill="#263238"/>
<path d="M571.824 166.32C571.064 166.795 570.24 167.666 569.4 167.698C568.561 167.73 567.642 166.669 567.024 165.671C567.024 165.56 566.882 165.671 566.866 165.766C566.755 167.571 567.262 169.456 568.989 169.884C570.715 170.312 571.776 168.759 572.268 166.985C572.299 166.637 572.062 166.13 571.824 166.32Z" fill="#263238"/>
<path d="M591.67 192.741C590.989 193.454 590.323 194.42 589.278 194.547C588.191 194.555 587.114 194.345 586.11 193.929C586.091 193.913 586.066 193.904 586.041 193.905C586.016 193.907 585.992 193.918 585.975 193.937C585.958 193.956 585.95 193.981 585.951 194.006C585.953 194.031 585.964 194.055 585.983 194.072C586.423 194.631 587.005 195.061 587.668 195.318C588.332 195.574 589.052 195.647 589.753 195.529C590.338 195.346 590.858 194.997 591.249 194.525C591.639 194.053 591.885 193.477 591.955 192.868C591.964 192.832 591.96 192.794 591.943 192.76C591.927 192.727 591.9 192.7 591.865 192.685C591.831 192.67 591.793 192.667 591.757 192.678C591.722 192.688 591.691 192.71 591.67 192.741Z" fill="#263238"/>
<path d="M579.743 181.923C579.743 181.923 579.046 186.279 579.014 188.338C579.014 188.528 579.505 188.623 580.202 188.686C580.202 188.686 580.202 188.686 580.282 188.686C582.03 189.032 583.84 188.893 585.515 188.284C587.19 187.676 588.667 186.621 589.786 185.233C589.928 185.043 589.675 184.821 589.485 184.948C586.823 186.682 583.674 187.515 580.503 187.324C580.377 186.738 581.945 179.911 581.612 179.879C579.991 179.98 578.392 180.305 576.86 180.845C578.048 171.737 580.678 162.899 581.707 153.822C581.707 153.506 581.279 153.395 581.184 153.68C577.763 162.74 576.179 173.195 574.706 182.556C574.579 183.744 578.856 182.271 579.743 181.923Z" fill="#263238"/>
<path d="M581.518 187.609C582.531 189.162 583.928 190.427 585.573 191.284C586.479 191.716 587.496 191.86 588.487 191.696C590.657 191.3 590.863 189.351 590.61 187.657C590.455 186.754 590.2 185.872 589.849 185.027C587.419 186.755 584.499 187.66 581.518 187.609Z" fill="#263238"/>
<path d="M585.572 191.284C586.479 191.716 587.496 191.86 588.487 191.696C590.657 191.3 590.863 189.351 590.609 187.657C589.484 187.606 588.375 187.937 587.461 188.595C586.547 189.253 585.881 190.201 585.572 191.284Z" fill="#FF98B9"/>
<path d="M635.753 169.361C631.08 169.504 617.822 157.846 615.414 135.448C615.414 135.448 618.978 155.406 620.753 158.21C622.527 161.014 613.339 151.636 611.138 133.611C611.138 133.611 601.792 141.752 593.46 144.92C585.128 148.088 579.917 148.5 579.204 147.93C578.491 147.36 590.736 142.259 593.777 138.046C593.777 138.046 572.029 150.718 561.638 152.428C560.434 152.619 562.461 133.911 577.684 121.873C592.906 109.835 613.83 112.844 621.339 118.863C621.339 118.863 629.544 119.291 639.428 130.458C649.312 141.626 640.774 169.203 635.753 169.361Z" fill="#263238"/>
<path d="M629.591 176.204C629.591 176.204 638.287 162.376 644.512 165.417C650.737 168.459 644.671 188.179 637.685 191.173C636.816 191.622 635.864 191.891 634.888 191.962C633.912 192.033 632.932 191.906 632.007 191.587C631.082 191.269 630.23 190.767 629.505 190.11C628.779 189.453 628.194 188.657 627.785 187.767L629.591 176.204Z" fill="#EB9481"/>
<path d="M642.629 171.072C642.755 171.072 642.771 171.215 642.629 171.262C637.734 173.527 635.342 178.295 633.727 183.19C635.136 181.257 637.1 180.148 639.667 181.796C639.793 181.875 639.667 182.097 639.54 182.065C638.658 181.849 637.732 181.907 636.883 182.229C636.035 182.552 635.304 183.124 634.788 183.871C633.934 185.151 633.212 186.515 632.634 187.942C632.428 188.401 631.604 188.211 631.762 187.688C631.755 187.646 631.755 187.603 631.762 187.561C631.319 181.162 635.833 172.007 642.629 171.072Z" fill="#263238"/>
<path d="M656.012 246.423C673.563 266.682 722.762 340.021 711.357 359.837C700.412 378.845 675.591 384.199 661.303 358.665C651.023 340.402 633.741 285.912 629.449 259.776C625.964 238.614 639.792 227.684 656.012 246.423Z" fill="#EB9481"/>
<path d="M639.617 311.351L697.782 289.983C697.782 289.983 665.136 245.298 650.104 236.792C635.071 228.286 622.558 233.418 627.151 262.58C629.624 279.221 633.801 295.564 639.617 311.351Z" fill="#289CD7"/>
<path d="M687.454 281.683C684.286 282.712 681.118 283.536 677.95 284.613C674.782 285.69 671.741 286.783 668.668 287.94C662.443 290.252 656.234 292.565 650.072 295.052C646.619 296.446 643.166 297.951 639.792 299.535C639.633 299.535 639.697 299.867 639.792 299.82C652.464 296.176 664.756 291.329 676.984 286.498C680.532 285.088 683.938 283.33 687.438 281.92C687.676 281.857 687.565 281.635 687.454 281.683Z" fill="#263238"/>
<path d="M642.897 309.989C641.745 310.243 640.616 310.593 639.523 311.034C637.939 307.597 634.185 292.486 633.313 288.605C631.571 280.875 630.145 273.066 628.324 265.336C628.324 265.114 627.896 265.178 627.928 265.336C628.466 269.629 629.132 273.905 629.876 278.15C629.084 276.123 628.292 274.08 627.674 272.005C627.681 271.99 627.683 271.974 627.682 271.959C627.681 271.943 627.675 271.928 627.667 271.915C627.658 271.901 627.646 271.89 627.632 271.883C627.619 271.875 627.603 271.872 627.587 271.872C627.571 271.872 627.556 271.875 627.542 271.883C627.528 271.89 627.516 271.901 627.508 271.915C627.499 271.928 627.494 271.943 627.493 271.959C627.491 271.974 627.494 271.99 627.5 272.005C628.22 274.582 629.104 277.111 630.145 279.576C630.763 287.496 637.97 312.666 638.176 312.571C639.806 311.832 641.392 311.001 642.928 310.084C643.103 310.131 643.103 309.973 642.897 309.989Z" fill="#263238"/>
<path d="M614.132 160.887L597.579 231.549C596.866 233.624 597.928 235.287 599.955 235.256L631.556 241.687C632.663 241.586 633.719 241.171 634.6 240.493C635.48 239.814 636.15 238.899 636.53 237.854L653.083 167.191C653.795 165.116 652.734 163.453 650.707 163.501L619.106 157.054C617.999 157.155 616.943 157.569 616.062 158.248C615.182 158.927 614.512 159.842 614.132 160.887Z" fill="#A6A6A6"/>
<path d="M616.84 161.283L600.335 231.945C599.622 234.02 600.684 235.683 602.711 235.652L634.312 242.083C635.417 241.983 636.472 241.571 637.352 240.895C638.233 240.219 638.903 239.307 639.286 238.265L655.775 167.603C656.488 165.512 655.427 163.865 653.399 163.897L621.814 157.45C620.709 157.557 619.656 157.973 618.776 158.651C617.896 159.329 617.225 160.241 616.84 161.283Z" fill="#DBDBDB"/>
<path d="M626.851 164.324C626.866 164.958 626.691 165.582 626.349 166.115C626.006 166.648 625.511 167.066 624.928 167.315C624.345 167.564 623.701 167.633 623.079 167.512C622.456 167.391 621.885 167.086 621.438 166.636C620.991 166.187 620.689 165.614 620.571 164.991C620.453 164.368 620.525 163.724 620.777 163.143C621.029 162.561 621.449 162.068 621.984 161.728C622.519 161.388 623.144 161.217 623.778 161.236C624.594 161.24 625.376 161.567 625.952 162.146C626.527 162.725 626.851 163.508 626.851 164.324Z" fill="#263238"/>
<path d="M669.746 365.065C680.026 384.073 707.239 373.238 711.357 359.838C721.02 328.395 715.032 276.123 709.267 246.93C707.413 237.537 643.61 246.93 643.99 257.083C644.433 269.359 649.597 327.682 669.746 365.065Z" fill="#EB9481"/>
<path d="M708.553 260.885C711.767 247.033 711.962 232.652 709.124 218.719C705.765 203.528 694.788 171.31 650.658 156.943C640.188 153.521 622.843 156.072 637.986 167.857C648.694 176.236 658.008 178.311 663.33 184.33C663.33 184.33 641.661 190.191 638.651 200.804C636.016 210.093 634.042 219.558 632.743 229.126C634.44 229.762 636.175 230.291 637.939 230.71C637.008 239.95 639.158 249.239 644.053 257.131L708.553 260.885Z" fill="#EB9481"/>
<path d="M703.597 204.732C697.039 199.98 683.005 189.874 668.606 185.724C652.639 180.972 620.658 176.378 617.332 188.179C614.893 196.844 626.947 199.711 626.947 199.711C626.947 199.711 613.325 200.566 612.833 208.866C612.39 216.438 621.846 218.101 621.846 218.101C621.846 218.101 613.673 220.034 614.639 227.415C615.811 236.27 632.776 230.757 641.726 238.709C643.737 240.451 703.597 204.732 703.597 204.732Z" fill="#EB9481"/>
<path d="M666.483 203.354C659.577 199.806 641.804 195.798 627.2 199.426C626.867 199.426 626.756 199.79 627.073 199.79C640.3 199.433 653.523 200.678 666.451 203.497C666.53 203.528 666.562 203.386 666.483 203.354Z" fill="#263238"/>
<path d="M661.319 219.321C654.983 216.881 636.53 213.555 621.862 217.737C621.529 217.832 621.434 218.133 621.751 218.117C634.96 217.062 648.246 217.519 661.351 219.479C661.372 219.475 661.39 219.463 661.402 219.445C661.414 219.427 661.418 219.405 661.414 219.384C661.41 219.363 661.398 219.345 661.38 219.333C661.362 219.321 661.34 219.317 661.319 219.321Z" fill="#263238"/>
<path d="M663.917 351.822C663.442 350.238 662.982 348.654 662.475 347.213C661.43 344.045 660.527 340.877 659.608 337.709C657.739 331.373 655.949 324.942 654.381 318.479C651.251 305.598 648.877 292.544 647.269 279.386C646.825 275.743 646.445 272.1 646.049 268.456C645.653 264.813 645.527 261.027 644.83 257.368C644.83 257.178 642.976 254.39 642.248 253.012C641.491 251.579 640.83 250.097 640.268 248.577C639.084 245.476 638.281 242.242 637.876 238.946C637.868 238.926 637.853 238.908 637.835 238.896C637.817 238.883 637.795 238.877 637.773 238.877C637.751 238.877 637.729 238.883 637.711 238.896C637.692 238.908 637.678 238.926 637.67 238.946C637.464 242.696 637.936 246.452 639.064 250.034C640.04 253.031 641.724 255.748 643.974 257.954C643.974 258.43 644.085 264.29 644.275 267.569C644.465 270.848 644.766 274.127 645.131 277.39C645.875 283.948 646.794 290.49 647.95 297C650.21 310.169 653.354 323.172 657.359 335.919C657.359 336.125 657.502 336.331 657.565 336.537C657.565 337.012 657.565 337.487 657.565 337.962C657.588 339.134 657.684 340.303 657.85 341.463C658.175 343.771 658.743 346.038 659.545 348.227C659.538 348.246 659.535 348.266 659.538 348.287C659.541 348.307 659.548 348.326 659.56 348.343C659.571 348.36 659.587 348.374 659.605 348.383C659.623 348.392 659.643 348.397 659.664 348.397C659.684 348.397 659.704 348.392 659.722 348.383C659.741 348.374 659.756 348.36 659.768 348.343C659.779 348.326 659.787 348.307 659.789 348.287C659.792 348.266 659.79 348.246 659.783 348.227C659.221 345.937 658.839 343.606 658.642 341.257L658.357 338.849C659.228 341.415 660.147 343.981 661.05 346.532C661.683 348.306 662.333 350.032 663.061 351.759C663.79 353.485 664.36 355.165 665.216 356.764C665.216 356.891 665.469 356.764 665.437 356.669C665.041 354.974 664.408 353.422 663.917 351.822Z" fill="#263238"/>
<path d="M466.456 408.007V365.429L418.064 408.007H466.456Z" fill="#EBEBEB"/>
<path d="M217.753 498.279C231.692 558.93 260.521 631.636 272.829 643.437C288.399 658.358 391.407 685.729 396.539 686.284C409.211 687.567 434.761 595.996 421.202 594.016C400.61 591.038 325.592 586.967 321.109 582.358C316.626 577.748 284.788 537.61 252.252 492.513C229.791 461.356 209.088 460.643 217.753 498.279Z" fill="#AD6359"/>
<path d="M386.338 681.342C387.843 682.102 409.369 692.937 422.675 696.786C432.607 699.669 461.404 707.193 465.665 696.564C468.579 689.341 452.153 682.926 440.653 678.126C434.587 675.592 427.11 669.256 428.9 665.359C432.068 658.548 447.639 665.359 457.903 671.347C477.751 682.878 504.188 703.644 516.305 693.523C520.883 689.721 515.561 682.783 507.783 675.988C520.455 683.908 533.888 690.402 539.131 686.379C542.156 684.082 542.299 680.93 540.62 677.35C544.516 678.617 547.954 678.364 550.361 675.766C554.464 671.458 552.468 665.122 547.969 658.611C548.742 658.532 549.484 658.269 550.134 657.844C550.784 657.42 551.324 656.847 551.708 656.172C560.404 642.914 516.86 604.85 501.828 601.286C457.555 590.753 410.89 592.717 410.89 592.717C393.498 606.672 386.291 681.31 386.338 681.342Z" fill="#AD6359"/>
<path d="M451.441 640.585C461.983 642.232 472.053 646.103 480.983 651.943C492.213 659.356 499.658 668.036 509.067 676.764C509.104 676.813 509.123 676.874 509.121 676.936C509.119 676.998 509.095 677.057 509.054 677.104C509.013 677.15 508.958 677.181 508.896 677.192C508.835 677.202 508.772 677.191 508.719 677.16C504.236 673.01 485.64 657.392 480.84 653.843C472.159 647.311 462.106 642.837 451.441 640.76C451.299 640.744 451.33 640.554 451.441 640.585Z" fill="#263238"/>
<path d="M459.694 621.783C471.336 624.951 483.264 628.119 494.067 633.695C505.883 639.714 515.134 649.535 524.163 659.039C529.633 664.71 534.971 670.518 540.177 676.463C540.383 676.716 540.05 677.112 539.828 676.859C530.599 667.102 521.095 657.598 511.316 648.347C502.266 639.757 491.607 633.039 479.953 628.579C473.3 626.028 466.458 624.017 459.615 621.989C459.52 621.958 459.567 621.752 459.694 621.783Z" fill="#263238"/>
<path d="M472.127 605.357C483.437 607.686 493.305 609.666 503.316 615.717C516.574 623.747 529.373 637.259 533.855 642.059C538.813 647.349 543.597 652.798 548.286 658.326C548.476 658.548 548.096 658.896 547.89 658.675C537.144 646.554 525.626 635.141 513.406 624.508C507.657 619.36 501.15 615.128 494.113 611.963C486.979 609.162 479.618 606.979 472.111 605.436C472.111 605.436 472.032 605.341 472.127 605.357Z" fill="#263238"/>
<path d="M403.762 589.074L372.082 689.436C372.082 689.436 286.308 664.947 270.706 648.046C255.104 631.145 226.101 543.866 217.595 501.558C209.088 459.249 230.472 460.374 250.13 486.969C269.787 513.564 318.733 578.287 321.41 579.696C324.087 581.106 403.762 589.074 403.762 589.074Z" fill="#289CD7"/>
<path opacity="0.1" d="M403.762 589.074L372.082 689.436C372.082 689.436 286.308 664.947 270.706 648.046C255.104 631.145 226.101 543.866 217.595 501.558C209.088 459.249 230.472 460.374 250.13 486.969C269.787 513.564 318.733 578.287 321.41 579.696C324.087 581.106 403.762 589.074 403.762 589.074Z" fill="black"/>
<path d="M363.844 644.846C367.693 633.014 371.622 621.213 375.012 609.238C376.944 602.443 378.908 595.631 380.777 588.82C380.856 588.551 380.429 588.408 380.334 588.662C376.009 600.383 371.701 612.153 367.915 624.064C364.129 635.976 360.28 647.824 356.669 659.657C354.625 666.436 352.772 673.247 351.141 680.138C351.141 680.265 351.331 680.344 351.378 680.217C356.099 668.638 359.979 656.758 363.844 644.846Z" fill="#263238"/>
<path d="M328.823 675.639L325.022 674.309C317.878 671.759 310.591 669.018 303.733 666.215C302.846 665.866 301.974 665.502 301.119 665.137C299.741 664.567 298.363 663.981 297.032 663.395L295.037 662.524L294.324 662.207L292.265 661.257C289.54 660.005 286.958 658.754 284.55 657.487L282.966 656.6C279.203 654.664 275.656 652.333 272.385 649.646C272.084 649.377 271.783 649.107 271.514 648.838C271.245 648.569 270.96 648.3 270.722 648.046C255.041 631.145 226.117 543.866 217.611 501.558L217.325 500.101V499.784C216.755 496.616 216.248 492.592 215.837 488.284C214.649 467.233 224.612 463.795 236.92 473.046C267.602 538.893 314.599 647.698 328.823 675.639Z" fill="#263238"/>
<path d="M284.328 692.493L97.416 693.475C97.5744 689.452 124.186 571.761 145.348 528.327C172.482 472.634 186.532 468.135 194.816 465.157C205.508 461.324 224.548 463.225 229.062 465.363C234.194 467.755 250.51 496.235 256.355 517.128C268.044 559.152 286.957 689.927 284.328 692.493Z" fill="#EBEBEB"/>
<path d="M185.233 469.561C185.233 469.561 208.993 557.552 210.181 563.397C211.971 571.887 223.819 693.031 223.819 693.031L93.5352 693.475C93.5352 693.475 121.968 581.328 143.13 532.224C166.225 478.368 185.233 469.561 185.233 469.561Z" fill="#289CD7"/>
<g opacity="0.1">
<path d="M185.233 469.561C185.233 469.561 208.993 557.552 210.181 563.397C211.971 571.887 223.819 693.031 223.819 693.031L93.5352 693.475C93.5352 693.475 121.968 581.328 143.13 532.224C166.225 478.368 185.233 469.561 185.233 469.561Z" fill="black"/>
</g>
<path d="M230.773 466.726C231.47 469.529 253.377 541.015 254.898 558.835C256.593 578.603 271.577 693.475 271.577 693.475H290.585C290.585 693.475 263.071 528.438 255.516 510.998C240.056 475.406 230.773 466.726 230.773 466.726Z" fill="#289CD7"/>
<path opacity="0.1" d="M230.773 466.726C231.47 469.529 253.377 541.015 254.898 558.835C256.593 578.603 271.577 693.475 271.577 693.475H290.585C290.585 693.475 263.071 528.438 255.516 510.998C240.056 475.406 230.773 466.726 230.773 466.726Z" fill="black"/>
<path d="M160.634 490.137C129.334 523.67 53.2384 650.897 77.3786 674.103C101.519 697.308 235.541 666.072 273.177 648.125C284.376 642.803 241.829 572.98 228.666 571.349C217.705 570.002 161.695 595.616 160.063 592.4C158.242 588.757 167.144 561.876 180.655 513.2C196.163 457.095 174.478 475.311 160.634 490.137Z" fill="#AD6359"/>
<path d="M284.297 548.824C311.51 545.023 319.145 548.238 340.355 532.842C354.31 522.736 366.76 527.313 358.792 543.359C345.772 569.622 311.684 581.882 298.6 582.738L284.297 548.824Z" fill="#AD6359"/>
<path d="M212.004 574.992C212.004 574.992 242.591 558.012 271.198 551.105C290.966 546.353 335.16 540.73 377.453 584.369C387.479 594.713 394.433 616.572 371.925 605.627C355.926 597.849 348.165 588.092 338.011 585.256C338.011 585.256 343.555 614.101 332.8 623.747C323.4 632.177 313.411 639.927 302.91 646.937C301.183 645.312 299.564 643.577 298.063 641.742C298.063 641.742 287.165 649.804 266.668 647.84L212.004 574.992Z" fill="#AD6359"/>
<path d="M290.806 549.648C300.31 554.574 320.126 565.361 333.305 579.839C347.957 595.932 371.828 630.844 359.837 641.615C351.061 649.456 340.829 636.863 340.829 636.863C340.829 636.863 347.656 653.384 338.168 658.722C329.535 663.601 322.153 653.432 322.153 653.432C322.153 653.432 324.577 664.155 315.342 667.244C304.254 670.951 300.991 647.856 286.498 641.9C283.187 640.474 290.806 549.648 290.806 549.648Z" fill="#AD6359"/>
<path d="M313.744 592.416C321.87 598.514 336.791 617.095 340.909 636.34C341.004 636.784 340.735 637.085 340.561 636.705C333.406 620.953 324.363 606.129 313.633 592.559C313.506 592.416 313.633 592.416 313.744 592.416Z" fill="#263238"/>
<path d="M297.935 607.67C304.413 613.657 318.939 633.489 322.439 653.146C322.518 653.59 322.217 653.875 322.075 653.479C315.732 637.383 307.586 622.058 297.792 607.797C297.697 607.702 297.792 607.591 297.935 607.67Z" fill="#263238"/>
<path d="M338.011 585.066C346.882 587.68 352.647 592.036 360.187 597.231C363.857 599.854 367.67 602.27 371.608 604.47C375.219 606.418 380.557 609.365 384.391 606.307C386.545 604.613 386.513 601.556 385.975 599.069C384.891 595.469 383.245 592.063 381.096 588.979C381.096 588.852 381.207 588.709 381.302 588.82C383.377 591.631 385.16 594.645 386.624 597.817C387.583 599.991 387.865 602.403 387.432 604.739C386.117 609.618 380.351 610.268 376.344 608.921C373.915 608.029 371.581 606.899 369.374 605.547C367.22 604.312 365.129 602.981 363.038 601.587C358.825 598.736 354.786 595.647 350.604 592.748C346.541 590.021 342.309 587.556 337.932 585.367C337.899 585.351 337.872 585.324 337.856 585.291C337.841 585.257 337.838 585.219 337.847 585.184C337.856 585.148 337.878 585.117 337.908 585.095C337.938 585.074 337.974 585.064 338.011 585.066Z" fill="#263238"/>
<path d="M356.59 616.271C354.293 611.218 341.858 590.151 337.835 585.272C337.82 585.248 337.814 585.219 337.817 585.191C337.821 585.163 337.833 585.136 337.854 585.116C337.874 585.096 337.9 585.083 337.928 585.08C337.956 585.077 337.985 585.083 338.009 585.098C344.931 591.656 356.035 609.064 358.601 614.639C361.167 620.215 364.114 627.2 364.114 633.331C364.114 642.597 357.968 644.419 355.703 644.815C352.992 645.305 350.195 644.847 347.783 643.516C344.961 641.792 342.524 639.506 340.623 636.8C340.528 636.673 340.702 636.499 340.813 636.625C343.981 640.284 349.367 643.88 354.388 643.215C355.502 643.11 356.583 642.782 357.568 642.251C358.553 641.721 359.421 640.998 360.122 640.126C361.494 637.897 362.023 635.25 361.611 632.665C360.87 626.957 359.173 621.415 356.59 616.271Z" fill="#263238"/>
<path d="M212.003 574.992L254.898 665.28C254.898 665.28 87.1205 702.947 72.6427 673.738C58.165 644.53 123.331 530.228 152.682 496.932C186.722 458.346 191.063 471.478 183.57 505.676C175.65 541.474 160.555 593.24 160.555 593.24L212.003 574.992Z" fill="#289CD7"/>
<path opacity="0.1" d="M212.003 574.992L254.898 665.28C254.898 665.28 87.1205 702.947 72.6427 673.738C58.165 644.53 123.331 530.228 152.682 496.932C186.722 458.346 191.063 471.478 183.57 505.676C175.65 541.474 160.555 593.24 160.555 593.24L212.003 574.992Z" fill="black"/>
<path d="M109.566 617.269C125.042 606.521 142.035 598.145 159.985 592.416C165.07 590.832 170.202 589.327 175.334 587.854C175.492 587.854 175.556 588.06 175.334 588.107C166.383 591.004 157.608 594.421 149.055 598.34C140.512 602.142 132.064 606.096 123.711 610.204C118.959 612.533 114.334 615.083 109.677 617.57C109.646 617.563 109.617 617.549 109.593 617.528C109.569 617.507 109.55 617.48 109.539 617.45C109.528 617.42 109.525 617.387 109.529 617.356C109.534 617.324 109.547 617.294 109.566 617.269Z" fill="#263238"/>
<path d="M211.56 574.754C210.72 574.976 164.832 590.135 163.327 590.832C163.517 590.135 171.754 565.741 172.99 562.162C173.1 561.813 173.211 561.449 173.338 561.1C174.162 559.516 175.017 557.932 175.793 556.348C176.775 554.273 177.757 552.167 178.724 550.012H178.629L175.461 556.142C174.97 557.077 174.51 558.043 174.051 559.009C174.859 556.491 175.635 553.956 176.411 551.406C177.647 547.367 178.755 543.28 179.848 539.194C179.848 539.051 179.69 539.019 179.642 539.194C177.203 546.306 174.542 553.339 172.087 560.451C169.631 567.563 160.191 593.715 160.27 593.715C160.349 593.715 210.8 575.879 211.782 575.483C211.83 575.468 211.874 575.445 211.913 575.413C211.951 575.381 211.983 575.342 212.007 575.298C212.03 575.254 212.045 575.205 212.05 575.156C212.055 575.106 212.05 575.056 212.035 575.008C212.021 574.96 211.997 574.915 211.965 574.877C211.933 574.838 211.894 574.806 211.85 574.783C211.806 574.759 211.758 574.745 211.708 574.74C211.658 574.735 211.608 574.74 211.56 574.754Z" fill="#263238"/>
<path d="M214.649 633.6C209.897 623.541 205.288 613.42 200.203 603.504C197.304 597.881 194.437 592.242 191.491 586.65C191.38 586.444 191 586.65 191.095 586.824C195.435 597.12 199.807 607.416 204.623 617.538C209.438 627.66 214.127 637.655 219.021 647.634C221.809 653.305 224.771 658.886 227.907 664.377C227.907 664.488 228.161 664.377 228.113 664.377C224.122 653.891 219.417 643.769 214.649 633.6Z" fill="#263238"/>
<path d="M257.068 666.674C255.389 663.886 253.266 659.894 251.476 657.17C251.001 656.457 250.447 656.6 250.827 657.344C252.11 659.879 253.171 662.714 254.423 665.264C252.078 665.739 249.671 666.151 247.358 666.642C244.633 667.212 241.925 667.799 239.2 668.353C233.857 669.409 228.514 670.465 223.17 671.521C212.336 673.538 201.459 675.312 190.54 676.843C168.665 680.046 146.639 682.114 124.55 683.037C118.373 683.258 112.179 683.369 106.002 683.29C99.9081 683.306 93.8176 683.01 87.7541 682.403C87.5799 682.403 87.5482 682.672 87.7541 682.704C92.9717 683.806 98.2681 684.495 103.594 684.763C109.186 685.032 114.793 685.159 120.4 685.096C131.488 684.969 142.687 684.24 153.791 683.227C175.809 681.199 197.763 678.221 219.527 674.372C225.631 673.316 231.719 672.17 237.791 670.935C240.864 670.317 243.921 669.699 246.978 669.018C250.035 668.337 257.353 667.149 257.068 666.674Z" fill="#263238"/>
<path d="M230.804 499.562C219.716 502.619 199.869 486.225 191.759 472.634C191.204 471.699 192.297 461.625 193.042 449.317C193.469 441.857 193.755 433.477 193.469 425.906C193.469 424.322 241.671 435.758 241.671 435.758C241.671 435.758 237.552 451.884 238.122 465.157C238.173 466.225 238.321 467.285 238.566 468.325C238.61 468.492 238.641 468.661 238.661 468.832C239.849 474.709 241.528 496.6 230.804 499.562Z" fill="#AD6359"/>
<path d="M196.416 426.096C199.109 438.895 208.264 469.703 233.767 469.339C235.402 469.323 237.034 469.175 238.645 468.896C238.665 468.722 238.665 468.547 238.645 468.373C238.41 467.33 238.257 466.271 238.186 465.205C237.632 451.915 241.734 435.774 241.734 435.774C241.734 435.774 206.855 427.537 196.416 426.096Z" fill="#263238"/>
<path d="M247.421 403.049C246.882 414.739 254.77 424.591 265.035 425.066C275.299 425.541 284.043 416.418 284.565 404.728C285.088 393.038 277.2 383.185 266.951 382.726C256.703 382.267 247.943 391.359 247.421 403.049Z" fill="#455A64"/>
<path d="M282.682 405.373C283.27 392.369 274.495 381.409 263.081 380.893C251.668 380.376 241.938 390.5 241.35 403.504C240.762 416.508 249.538 427.468 260.951 427.984C272.365 428.501 282.094 418.377 282.682 405.373Z" fill="#C7C7C7"/>
<path d="M199.758 365.254C191.458 380.904 190.935 430.658 200.693 443.678C214.838 462.528 242.637 469.45 259.776 451.44C276.456 433.921 275.98 369.072 264.655 356.764C248.007 338.596 212.018 342.144 199.758 365.254Z" fill="#AD6359"/>
<path d="M241.133 403.714C241.133 403.587 240.864 403.888 240.88 404.031C241.054 407.373 240.706 411.238 237.712 412.41C237.617 412.41 237.633 412.616 237.712 412.6C241.419 411.998 241.83 406.866 241.133 403.714Z" fill="#263238"/>
<path d="M238.06 400.293C232.659 400.008 232.484 410.826 237.474 411.08C242.464 411.333 242.59 400.53 238.06 400.293Z" fill="#263238"/>
<path d="M259.887 404.126C259.887 403.999 260.141 404.3 260.141 404.427C259.982 407.785 260.362 411.65 263.309 412.806C263.404 412.806 263.309 413.012 263.309 412.996C259.65 412.41 259.19 407.278 259.887 404.126Z" fill="#263238"/>
<path d="M262.945 400.752C268.331 400.419 268.584 411.238 263.579 411.539C258.573 411.84 258.415 400.942 262.945 400.752Z" fill="#263238"/>
<path d="M233.213 391.644C234.797 391.565 236.112 391.232 237.617 391.01C239.204 390.98 240.737 390.423 241.973 389.426C242.304 389.045 242.5 388.564 242.529 388.06C242.557 387.555 242.418 387.055 242.131 386.639C241.439 385.91 240.564 385.379 239.598 385.1C238.632 384.822 237.609 384.806 236.635 385.055C234.571 385.219 232.643 386.151 231.233 387.668C230.938 388.032 230.754 388.473 230.702 388.938C230.651 389.404 230.734 389.874 230.943 390.294C231.152 390.713 231.477 391.063 231.88 391.303C232.282 391.542 232.745 391.661 233.213 391.644Z" fill="#263238"/>
<path d="M268.03 392.832C266.584 392.514 265.156 392.117 263.753 391.644C262.195 391.456 260.742 390.76 259.619 389.664C259.335 389.246 259.198 388.745 259.229 388.24C259.261 387.736 259.459 387.256 259.793 386.876C260.568 386.227 261.501 385.795 262.497 385.625C263.494 385.456 264.518 385.554 265.464 385.91C267.489 386.335 269.284 387.498 270.501 389.173C270.738 389.571 270.857 390.028 270.844 390.491C270.83 390.953 270.686 391.403 270.427 391.787C270.168 392.171 269.805 392.473 269.38 392.658C268.956 392.843 268.487 392.903 268.03 392.832Z" fill="#263238"/>
<path d="M235.018 434.776C235.81 435.568 236.602 436.661 237.806 436.788C239.052 436.777 240.282 436.507 241.418 435.996C241.44 435.991 241.464 435.993 241.486 436C241.508 436.008 241.527 436.022 241.542 436.04C241.557 436.058 241.566 436.079 241.569 436.102C241.573 436.125 241.569 436.149 241.56 436.17C241.074 436.824 240.419 437.333 239.666 437.643C238.912 437.953 238.089 438.052 237.283 437.928C236.602 437.738 235.993 437.351 235.531 436.815C235.069 436.28 234.775 435.62 234.686 434.919C234.638 434.729 234.891 434.649 235.018 434.776Z" fill="#263238"/>
<path d="M238.71 424.797C239.537 426.136 240.633 427.289 241.928 428.183C243.223 429.077 244.689 429.693 246.234 429.992C247.581 430.28 248.963 430.371 250.336 430.262C250.602 430.252 250.866 430.226 251.128 430.183L251.857 430.072C252.036 430.042 252.201 429.955 252.327 429.824C252.453 429.692 252.532 429.524 252.554 429.343C252.562 429.227 252.562 429.111 252.554 428.995V428.694C252.665 426.112 252.554 422.183 252.554 422.183C253.489 422.674 258.272 424.924 258.209 423.577C257.734 412.394 257.195 399.976 254.36 388.967C254.344 388.897 254.305 388.834 254.248 388.79C254.192 388.745 254.123 388.72 254.051 388.72C253.979 388.72 253.909 388.745 253.853 388.79C253.797 388.834 253.758 388.897 253.742 388.967C253.742 399.722 255.706 410.398 255.912 421.201C254.216 420.381 252.414 419.8 250.558 419.475C250.194 419.586 251.049 427.062 250.907 428.218C250.91 428.261 250.91 428.303 250.907 428.345C246.551 428.82 243.303 427.458 239.153 424.48C238.773 424.306 238.504 424.512 238.71 424.797Z" fill="#263238"/>
<path d="M248.831 428.915C247.391 430.739 245.502 432.158 243.35 433.034C242.163 433.473 240.868 433.534 239.644 433.208C236.983 432.448 236.951 430.04 237.474 427.902C237.766 426.8 238.186 425.737 238.725 424.734C241.562 427.168 245.103 428.633 248.831 428.915Z" fill="#263238"/>
<path d="M243.35 433.034C242.163 433.473 240.868 433.534 239.644 433.208C236.983 432.448 236.951 430.04 237.474 427.902C240.341 428.25 243.144 430.246 243.35 433.034Z" fill="#FF98B9"/>
<path opacity="0.2" d="M193.533 400.388C196.796 399.865 204.621 388.825 207.932 384.437C211.242 380.049 213.159 356.527 213.46 351.173C207.651 354.458 202.894 359.325 199.742 365.207C196.036 372.24 193.898 386.068 193.533 400.388Z" fill="#263238"/>
<path d="M253.931 370.656C251.997 372.778 249.553 374.37 246.831 375.282C244.108 376.194 241.198 376.395 238.376 375.867C235.496 375.337 232.8 374.08 230.543 372.214C228.286 370.348 226.544 367.936 225.483 365.207C225.483 365.033 225.166 365.128 225.229 365.286C226.086 368.259 227.738 370.941 230.007 373.043C232.277 375.145 235.078 376.587 238.107 377.214C241.117 377.668 244.193 377.322 247.027 376.21C249.861 375.098 252.351 373.259 254.248 370.878C254.259 370.837 254.257 370.794 254.242 370.754C254.228 370.715 254.202 370.68 254.167 370.656C254.132 370.632 254.091 370.619 254.049 370.619C254.007 370.619 253.966 370.632 253.931 370.656Z" fill="#263238"/>
<path d="M237.837 328.49C228.064 328.395 218.94 333.511 215.154 340.037C213.052 343.756 212.27 348.077 212.937 352.297C212.937 352.472 213.301 352.44 213.285 352.297C213.203 348.578 214.123 344.906 215.949 341.665C217.774 338.423 220.438 335.733 223.661 333.875C227.189 331.713 231.172 330.398 235.295 330.036C239.417 329.673 243.568 330.272 247.421 331.785C251.175 333.174 254.31 335.859 256.259 339.356C256.449 339.72 257.178 339.514 257.035 339.15C254.564 332.941 246.66 328.569 237.837 328.49Z" fill="#263238"/>
<path d="M293.832 351.442C292.383 346.575 289.265 342.374 285.025 339.578C279.148 335.681 272.353 336.014 265.637 336.489C265.599 336.489 265.563 336.504 265.536 336.531C265.509 336.558 265.494 336.594 265.494 336.632C265.494 336.669 265.509 336.706 265.536 336.732C265.563 336.759 265.599 336.774 265.637 336.774C271.371 336.394 277.216 336.331 282.38 339.198C286.678 341.525 290.037 345.269 291.884 349.795C293.642 354.436 293.664 359.556 291.947 364.213C290.23 368.87 286.889 372.75 282.538 375.139C280.001 376.449 277.222 377.228 274.373 377.427C271.524 377.626 268.664 377.241 265.969 376.295C265.748 376.216 265.589 376.517 265.795 376.612C269.435 378.046 273.403 378.44 277.254 377.748C281.105 377.056 284.688 375.306 287.601 372.694C290.514 370.081 292.643 366.71 293.749 362.957C294.855 359.204 294.895 355.217 293.864 351.442H293.832Z" fill="#263238"/>
<path d="M196.227 374.838C196.227 374.838 187.579 357.049 195.689 347.229C200.282 341.669 214.823 342.936 214.823 342.936C214.823 342.936 219.813 334.747 231.978 332.418C244.143 330.09 258.494 337.709 258.494 337.709C258.494 337.709 270.311 331.515 280.924 338.105C295.734 347.292 293.01 370.244 277.518 377.087C266.652 381.839 252.491 371.923 252.491 371.923C251.081 372.066 236.477 380.144 226.149 367.013C226.149 367.013 217.089 374.489 209.406 368.739C208.099 370.984 206.134 372.773 203.777 373.863C201.42 374.954 198.784 375.294 196.227 374.838Z" fill="#263238"/>
<path d="M202.451 406.407C202.451 406.407 194.23 388.983 186.484 391.58C178.738 394.178 183.031 418.287 190.793 422.817C191.75 423.467 192.829 423.916 193.965 424.138C195.101 424.36 196.27 424.35 197.402 424.109C198.534 423.868 199.605 423.401 200.552 422.735C201.498 422.069 202.301 421.219 202.91 420.235L202.451 406.407Z" fill="#AD6359"/>
<path d="M187.878 398.439C187.751 398.439 187.688 398.598 187.878 398.661C193.295 402.019 195.433 407.959 196.606 413.931C195.259 411.476 193.089 409.892 189.858 411.444C189.824 411.466 189.799 411.498 189.785 411.535C189.77 411.573 189.769 411.614 189.779 411.653C189.79 411.691 189.812 411.725 189.843 411.751C189.874 411.776 189.913 411.79 189.953 411.792C191.035 411.646 192.135 411.836 193.105 412.338C194.074 412.84 194.865 413.628 195.37 414.596C196.191 416.224 196.839 417.933 197.303 419.696C197.493 420.267 198.475 420.14 198.38 419.506C198.387 419.459 198.387 419.411 198.38 419.364C199.71 411.967 195.734 400.578 187.878 398.439Z" fill="#263238"/>
<path d="M220.366 441.492L204.764 434.76L192.219 419.142L194.626 417.194L206.697 432.226L221.602 438.657L220.366 441.492Z" fill="#C7C7C7"/>
<path d="M218.703 439.006C220.287 434.46 232.959 436.139 230.662 443.013C228.365 449.888 217.166 443.52 218.703 439.006Z" fill="#37474F"/>
<path d="M186.247 391.105C186.247 391.105 184.552 365.556 192.029 351.505C200.36 335.808 234.892 320.871 258.557 337.74C258.557 337.74 220.113 330.866 202.198 352.63C194.658 361.786 194.848 391.818 194.848 391.818L186.247 391.105Z" fill="#C7C7C7"/>
<path d="M189.733 427.801C201.158 427.687 210.314 417.043 210.185 404.027C210.055 391.01 200.689 380.55 189.264 380.664C177.84 380.777 168.683 391.421 168.813 404.438C168.942 417.455 178.309 427.915 189.733 427.801Z" fill="#C7C7C7"/>
<path d="M204.146 403.35C204.257 415.056 196.036 424.623 185.772 424.718C175.508 424.813 167.081 415.42 166.97 403.714C166.859 392.008 175.08 382.441 185.344 382.346C195.609 382.251 204.035 391.644 204.146 403.35Z" fill="#455A64"/>
<path d="M238.471 468.04L227.304 496.236L192.171 460.786L182.318 472.254C182.318 472.254 216.77 528.66 216.976 526.11L228.46 501.795L245.282 518.602L243.698 476.245L238.471 468.04Z" fill="#EBEBEB"/>
<path d="M245.695 497.613C245.204 490.628 244.919 483.579 244.111 476.625C244.111 476.388 243.699 476.277 243.636 476.625C242.274 483.389 244.286 510.08 244.286 516.495H244.206C243.509 515.766 228.62 501.716 228.477 501.938C225.99 505.803 217.548 523.496 216.977 525.112C211.528 516.146 188.465 480.839 181.971 472.365C181.939 472.31 181.888 472.27 181.827 472.254C181.766 472.237 181.701 472.246 181.646 472.277C181.592 472.309 181.552 472.361 181.535 472.422C181.519 472.483 181.528 472.547 181.559 472.602C186.311 482.106 216.249 528.692 216.661 528.565C221.105 520.212 225.118 511.637 228.683 502.872C231.202 505.93 246.218 521.801 246.266 520.756C246.484 513.037 246.294 505.312 245.695 497.613Z" fill="#263238"/>
<path d="M622.258 393.909H573.265C568.515 393.905 563.96 392.016 560.601 388.657C557.243 385.299 555.354 380.744 555.35 375.994C555.35 371.243 557.237 366.686 560.597 363.326C563.957 359.967 568.513 358.079 573.265 358.079H622.258C627.009 358.079 631.566 359.967 634.926 363.326C638.285 366.686 640.173 371.243 640.173 375.994C640.173 378.347 639.709 380.676 638.809 382.85C637.909 385.023 636.589 386.998 634.926 388.662C633.262 390.326 631.287 391.645 629.114 392.545C626.94 393.446 624.61 393.909 622.258 393.909Z" fill="#455A64"/>
<path d="M583.973 375.677C584.007 375.111 584.193 374.564 584.511 374.093L584.955 373.444L585.889 372.509L586.982 371.717C588.487 370.76 590.167 370.108 591.924 369.801C595.976 368.993 600.148 368.993 604.2 369.801C605.936 370.098 607.595 370.738 609.079 371.686C609.459 371.939 609.839 372.224 610.204 372.493L611.122 373.412C611.363 373.76 611.585 374.119 611.788 374.489C611.943 374.87 612.07 375.262 612.168 375.661H604.137C604.075 375.67 604.011 375.657 603.957 375.626C603.902 375.594 603.86 375.545 603.836 375.487C603.616 375.061 603.289 374.701 602.885 374.442C602.482 374.184 602.018 374.036 601.539 374.014C599.203 373.864 596.859 373.864 594.522 374.014C594.047 374.034 593.586 374.179 593.185 374.435C592.785 374.691 592.459 375.049 592.241 375.471C592.241 375.582 592.13 375.661 591.972 375.661H583.973V375.677Z" fill="white"/>
<path d="M583.973 380.16V377.23H591.893C591.893 377.404 591.893 377.594 591.893 377.8V380.16C591.914 380.298 591.903 380.439 591.86 380.572C591.816 380.705 591.742 380.826 591.644 380.925C591.545 381.024 591.424 381.098 591.291 381.141C591.158 381.184 591.017 381.196 590.879 381.174H584.971C584.833 381.196 584.692 381.186 584.56 381.142C584.427 381.099 584.307 381.025 584.209 380.925C584.112 380.826 584.039 380.705 583.998 380.571C583.957 380.438 583.948 380.297 583.973 380.16Z" fill="white"/>
<path d="M604.201 380.255C604.201 379.257 604.201 378.259 604.201 377.277H612.042V377.451C612.042 378.37 612.042 379.305 612.042 380.223C612.057 380.356 612.042 380.49 611.998 380.616C611.954 380.742 611.882 380.857 611.787 380.951C611.693 381.046 611.579 381.118 611.452 381.162C611.326 381.206 611.192 381.221 611.059 381.205H605.088C604.964 381.211 604.841 381.189 604.727 381.143C604.612 381.096 604.51 381.025 604.425 380.934C604.341 380.844 604.277 380.737 604.239 380.619C604.2 380.502 604.187 380.378 604.201 380.255Z" fill="white"/>
<path d="M421.249 695.376H410.383V702.472H421.249V695.376Z" fill="#455A64"/>
<path d="M435.331 694.901H424.465V701.997H435.331V694.901Z" fill="#455A64"/>
<path d="M449.429 694.426H438.562V701.522H449.429V694.426Z" fill="#455A64"/>
<path d="M463.526 693.966H452.66V701.063H463.526V693.966Z" fill="#455A64"/>
<path d="M477.624 693.491H466.758V700.588H477.624V693.491Z" fill="#455A64"/>
<path d="M491.722 693.032H480.855V700.128H491.722V693.032Z" fill="#455A64"/>
<path d="M505.819 692.557H494.953V699.653H505.819V692.557Z" fill="#455A64"/>
<path d="M519.917 692.081H509.051V699.178H519.917V692.081Z" fill="#455A64"/>
<path d="M533.999 691.622H523.133V698.718H533.999V691.622Z" fill="#455A64"/>
<path d="M536.676 706.543H407.707V697.91L536.676 694.315V706.543Z" fill="#37474F"/>
<path d="M662.54 672.503H449.65L483.5 514.008H696.39L662.54 672.503Z" fill="#455A64"/>
<path d="M670.413 672.503H457.523L491.374 514.008H704.263L670.413 672.503Z" fill="#37474F"/>
<path d="M594.387 592.973C600.163 587.636 601.149 579.309 596.589 574.374C592.03 569.44 583.651 569.767 577.875 575.104C572.098 580.442 571.112 588.769 575.672 593.703C580.232 598.638 588.611 598.311 594.387 592.973Z" fill="#263238"/>
<path d="M610.204 713.893H505.502V705.751L610.204 702.377V713.893Z" fill="#455A64"/>
<path d="M638.67 713.877H582.454L548.588 625.062H604.804L638.67 713.877Z" fill="#455A64"/>
<path d="M647.92 713.877H591.704L557.854 625.062H614.07L647.92 713.877Z" fill="#263238"/>
<path d="M403.73 716.047H295.781C286.578 716.047 299.899 689.816 333.527 679.758C367.156 669.699 414.343 706.211 403.73 716.047Z" fill="#37474F"/>
<path d="M361.375 716.047C361.462 713.058 361.957 710.095 362.848 707.24C363.718 704.362 364.936 701.602 366.475 699.019C368.025 696.425 369.958 694.08 372.21 692.065C374.437 690.044 377.006 688.435 379.797 687.313C378.641 688.264 377.326 688.897 376.265 689.959L374.681 691.369L373.097 692.953C371.095 695.041 369.341 697.353 367.869 699.843C366.375 702.334 365.092 704.946 364.036 707.652C362.961 710.387 362.072 713.192 361.375 716.047Z" fill="#263238"/>
<path d="M374.156 691.083C380.568 693.206 386.635 696.253 392.166 700.128C394.961 702.06 397.491 704.35 399.69 706.939C400.77 708.263 401.7 709.703 402.462 711.232C403.215 712.76 403.646 714.426 403.73 716.127C403.352 714.514 402.692 712.98 401.781 711.596C400.919 710.209 399.91 708.918 398.772 707.747C396.464 705.408 393.945 703.287 391.248 701.411C388.571 699.479 385.735 697.752 382.9 696.041C381.474 695.186 380.017 694.362 378.56 693.57C377.102 692.778 375.629 691.891 374.156 691.083Z" fill="#263238"/>
<path d="M411.461 356.226C410.529 365.06 407.162 373.462 401.734 380.495C396.306 387.527 389.031 392.914 380.721 396.053C372.41 399.192 363.391 399.961 354.669 398.273C345.947 396.586 337.866 392.508 331.326 386.496L307.297 390.076L319.304 369.341C316.303 362.036 315.171 354.099 316.009 346.246C316.624 339.95 318.479 333.838 321.466 328.261C324.453 322.685 328.514 317.755 333.415 313.754C338.316 309.754 343.96 306.762 350.021 304.952C356.083 303.142 362.443 302.549 368.735 303.207C375.027 303.865 381.126 305.762 386.682 308.787C392.238 311.812 397.141 315.907 401.107 320.835C405.074 325.763 408.027 331.427 409.796 337.501C411.565 343.575 412.114 349.938 411.413 356.226H411.461Z" fill="white"/>
<path d="M411.461 356.226C410.539 365.068 407.189 373.483 401.782 380.54C400.439 382.295 398.99 383.967 397.442 385.545C395.838 387.069 394.145 388.497 392.374 389.822C388.844 392.509 384.951 394.679 380.81 396.269C376.671 397.89 372.326 398.925 367.901 399.342C365.684 399.551 363.455 399.593 361.232 399.469C359.005 399.417 356.786 399.189 354.595 398.788C345.74 397.163 337.513 393.104 330.835 387.066L331.405 387.24L307.439 390.931L305.713 391.248L306.584 389.664L318.527 368.866V369.69C315.725 362.876 314.513 355.514 314.985 348.162C315.457 340.81 317.599 333.662 321.249 327.263C324.899 320.864 329.961 315.381 336.049 311.233C342.138 307.085 349.092 304.38 356.383 303.324C363.674 302.268 371.11 302.89 378.124 305.141C385.139 307.392 391.548 311.213 396.863 316.314C402.179 321.415 406.261 327.661 408.799 334.577C411.336 341.493 412.263 348.897 411.508 356.226H411.461ZM411.461 356.226C412.213 349.007 411.301 341.711 408.796 334.9C406.29 328.088 402.258 321.94 397.008 316.929C391.758 311.917 385.43 308.175 378.509 305.989C371.588 303.803 364.258 303.231 357.082 304.318C349.966 305.379 343.187 308.056 337.266 312.143C331.41 316.264 326.515 321.602 322.915 327.793C319.373 334.015 317.283 340.957 316.801 348.1C316.358 355.257 317.522 362.422 320.206 369.072L320.381 369.5L320.143 369.88L308.073 390.583L307.218 389.315L331.231 385.957H331.564L331.801 386.179C338.21 392.179 346.163 396.276 354.769 398.012C356.916 398.443 359.092 398.708 361.28 398.804C363.463 398.954 365.654 398.954 367.837 398.804C372.22 398.469 376.534 397.52 380.652 395.984C384.791 394.488 388.687 392.39 392.215 389.759C393.983 388.445 395.675 387.033 397.284 385.53C398.836 383.968 400.291 382.312 401.64 380.572C407.106 373.523 410.506 365.094 411.461 356.226Z" fill="#263238"/>
<path d="M390.504 352.693C390.507 353.844 390.168 354.969 389.532 355.927C388.895 356.886 387.988 357.633 386.926 358.076C385.864 358.518 384.695 358.635 383.566 358.413C382.437 358.19 381.4 357.638 380.585 356.826C379.771 356.013 379.215 354.977 378.99 353.849C378.764 352.721 378.878 351.551 379.318 350.488C379.757 349.425 380.503 348.516 381.459 347.877C382.415 347.237 383.54 346.896 384.69 346.896C385.453 346.894 386.208 347.042 386.914 347.333C387.619 347.623 388.26 348.05 388.8 348.588C389.34 349.127 389.768 349.767 390.061 350.471C390.353 351.176 390.504 351.931 390.504 352.693Z" fill="#263238"/>
<path d="M369.691 352.693C369.694 353.845 369.355 354.971 368.718 355.929C368.08 356.888 367.173 357.635 366.11 358.077C365.047 358.519 363.877 358.635 362.748 358.412C361.618 358.188 360.581 357.634 359.767 356.82C358.953 356.006 358.399 354.969 358.175 353.84C357.952 352.71 358.068 351.54 358.51 350.477C358.952 349.414 359.7 348.507 360.658 347.869C361.616 347.232 362.742 346.893 363.894 346.896C365.431 346.896 366.906 347.507 367.993 348.594C369.08 349.681 369.691 351.156 369.691 352.693Z" fill="#263238"/>
<path d="M348.892 352.693C348.895 353.844 348.557 354.969 347.92 355.927C347.283 356.885 346.376 357.633 345.315 358.075C344.253 358.518 343.083 358.635 341.955 358.413C340.826 358.19 339.788 357.638 338.974 356.825C338.159 356.013 337.604 354.977 337.378 353.849C337.153 352.721 337.267 351.551 337.707 350.488C338.146 349.425 338.891 348.516 339.848 347.877C340.804 347.237 341.928 346.896 343.079 346.896C344.618 346.896 346.094 347.506 347.184 348.593C348.274 349.68 348.888 351.154 348.892 352.693Z" fill="#263238"/>
<path d="M431.784 107.506C432.716 116.34 436.083 124.742 441.51 131.775C446.936 138.808 454.21 144.196 462.519 147.338C470.828 150.48 479.846 151.253 488.569 149.57C497.291 147.887 505.375 143.815 511.919 137.808L535.901 141.324L523.91 120.59C526.66 113.838 527.834 106.548 527.344 99.2742C526.854 92.0003 524.712 84.9338 521.081 78.6118C517.451 72.2898 512.426 66.8787 506.391 62.7896C500.355 58.7006 493.467 56.0413 486.249 55.0137C479.032 53.9862 471.675 54.6175 464.738 56.8597C457.801 59.1018 451.466 62.8959 446.215 67.9534C440.964 73.011 436.936 79.199 434.435 86.0471C431.934 92.8952 431.028 100.223 431.784 107.474V107.506Z" fill="white"/>
<path d="M446.134 67.8902C451.358 62.7386 457.696 58.8567 464.658 56.5441C471.62 54.2316 479.021 53.5503 486.289 54.5529C493.607 55.5181 500.608 58.146 506.754 62.2353C516.065 68.4502 522.941 77.6926 526.217 88.3967C529.494 99.1007 528.969 110.608 524.732 120.97V120.146L536.644 140.976L537.515 142.56L535.789 142.291L511.807 138.616L512.377 138.442C505.7 144.479 497.472 148.538 488.617 150.163C486.426 150.565 484.207 150.792 481.98 150.844C479.763 150.96 477.539 150.918 475.327 150.718C466.444 149.87 457.968 146.581 450.839 141.214C449.067 139.888 447.375 138.46 445.77 136.937C444.227 135.355 442.777 133.683 441.43 131.931C434.25 122.55 430.759 110.861 431.621 99.0784C432.482 87.296 437.635 76.2387 446.103 68.001L446.134 67.8902ZM441.604 131.71C442.954 133.444 444.408 135.095 445.96 136.652C447.561 138.164 449.254 139.577 451.029 140.881C454.556 143.527 458.459 145.63 462.608 147.122C466.723 148.65 471.03 149.599 475.407 149.941C477.595 150.092 479.792 150.092 481.98 149.941C484.162 149.845 486.333 149.58 488.475 149.149C497.081 147.414 505.034 143.317 511.443 137.317L511.68 137.095H512.013L536.026 140.453L535.171 141.72L523.101 121.018L522.863 120.622L523.038 120.194C525.727 113.57 526.88 106.424 526.411 99.2909C525.942 92.158 523.862 85.224 520.329 79.0099C516.734 72.8162 511.838 67.4767 505.978 63.3599C500.061 59.2758 493.288 56.5993 486.178 55.535C476.779 54.0838 467.162 55.4918 458.574 59.5759C449.985 63.6601 442.823 70.2319 438.018 78.4381C433.212 86.6442 430.984 96.1057 431.624 105.594C432.263 115.082 435.741 124.159 441.604 131.646V131.71Z" fill="#263238"/>
<path d="M483.754 108.377V114.365C483.767 114.961 483.659 115.554 483.436 116.108C483.214 116.661 482.882 117.164 482.46 117.586C482.038 118.008 481.536 118.34 480.982 118.562C480.428 118.784 479.836 118.892 479.239 118.879C478.043 118.875 476.897 118.398 476.052 117.552C475.206 116.707 474.729 115.561 474.725 114.365V104.861C474.725 104.766 474.82 104.766 474.82 104.671C474.82 104.576 474.725 104.576 474.725 104.497C474.757 103.309 475.243 102.18 476.082 101.34C476.922 100.5 478.052 100.014 479.239 99.9821C480.659 100.094 482.087 99.9101 483.433 99.4433C484.778 98.9764 486.013 98.2363 487.059 97.2693C488.105 96.3023 488.939 95.1295 489.51 93.8245C490.081 92.5195 490.375 91.1105 490.375 89.6861C490.375 88.2618 490.081 86.8528 489.51 85.5478C488.939 84.2428 488.105 83.0699 487.059 82.103C486.013 81.136 484.778 80.3958 483.433 79.929C482.087 79.4621 480.659 79.2786 479.239 79.3901C477.45 79.3829 475.691 79.8478 474.139 80.7377C472.587 81.6277 471.298 82.9113 470.4 84.4589C470.092 84.983 469.683 85.4405 469.196 85.8046C468.709 86.1687 468.154 86.4322 467.565 86.5796C466.975 86.7271 466.362 86.7556 465.761 86.6634C465.16 86.5713 464.583 86.3603 464.064 86.0429C463.554 85.7423 463.107 85.3438 462.751 84.8702C462.395 84.3967 462.136 83.8574 461.989 83.2833C461.841 82.7093 461.809 82.1118 461.894 81.5252C461.978 80.9387 462.177 80.3746 462.48 79.8653C464.083 77.0838 466.352 74.7446 469.084 73.0583C471.816 71.372 474.924 70.3915 478.129 70.2052C481.334 70.0189 484.534 70.6326 487.443 71.9911C490.352 73.3495 492.877 75.4101 494.791 77.9872C496.705 80.5642 497.948 83.5769 498.409 86.754C498.869 89.931 498.532 93.1727 497.427 96.187C496.323 99.2013 494.487 101.894 492.083 104.022C489.68 106.15 486.784 107.647 483.659 108.377H483.754ZM483.754 128.542V130.126C483.769 130.723 483.662 131.316 483.441 131.871C483.219 132.426 482.888 132.929 482.465 133.352C482.043 133.774 481.539 134.106 480.985 134.327C480.43 134.549 479.836 134.655 479.239 134.64C478.042 134.64 476.894 134.164 476.047 133.318C475.2 132.471 474.725 131.323 474.725 130.126V128.542C474.741 127.349 475.222 126.211 476.065 125.368C476.908 124.525 478.047 124.044 479.239 124.027C479.834 124.021 480.424 124.133 480.974 124.358C481.525 124.583 482.025 124.915 482.446 125.335C482.866 125.756 483.198 126.256 483.423 126.807C483.648 127.357 483.76 127.947 483.754 128.542Z" fill="#289CD7"/>
</svg>
