<svg width="257" height="221" viewBox="0 0 257 221" fill="none" xmlns="http://www.w3.org/2000/svg">
<g style="mix-blend-mode:multiply">
<path d="M175.388 40.9515C131.241 45.9555 108.85 11.4265 79.0697 10.4525C49.8612 9.50279 32.9741 34.9369 43.3475 75.9431C55.1331 122.55 32.9985 146.231 35.0561 184.193C35.9206 200.155 51.8458 222.85 71.5819 220.67C97.5152 217.821 108.01 187.992 130.924 167.44C151.488 148.995 187.295 136.211 208.858 122.757C229.982 109.571 254.941 99.9771 256.914 71.6331C258.216 52.8589 241.585 33.4515 175.4 40.9515H175.388Z" fill="#58C7FF"/>
</g>
<g style="mix-blend-mode:multiply">
<path d="M224.442 139.121C210.709 161.645 183.753 152.44 160.973 150.431C116.302 146.487 86.0218 205.829 39.1228 175.159C-12.8047 141.203 -13.0847 79.4985 38.5505 55.7933C183.046 -10.5497 236.91 118.666 224.442 139.121Z" fill="#289CD7"/>
</g>
<path d="M18.4006 212.647C18.1571 212.647 17.9258 212.562 17.7432 212.379C17.3779 212.014 17.3779 211.417 17.7432 211.052L68.587 160.208C68.9523 159.843 69.5489 159.843 69.902 160.208C70.2672 160.574 70.2672 161.17 69.902 161.523L19.0703 212.379C18.8877 212.562 18.6442 212.647 18.4128 212.647H18.4006Z" fill="white"/>
<path d="M93.4975 56.4262C93.254 56.4262 93.0227 56.341 92.84 56.1583C92.4748 55.7931 92.4748 55.1965 92.84 54.8434L147.385 0.273943C147.75 -0.0913144 148.347 -0.0913144 148.712 0.273943C149.078 0.639201 149.078 1.23579 148.712 1.58887L94.155 56.1462C93.9723 56.3288 93.7288 56.414 93.4975 56.414V56.4262Z" fill="white"/>
<path d="M21.14 52.7005C25.8402 52.7005 29.6505 49.5062 29.6505 45.5658C29.6505 41.6255 25.8402 38.4312 21.14 38.4312C16.4397 38.4312 12.6295 41.6255 12.6295 45.5658C12.6295 49.5062 16.4397 52.7005 21.14 52.7005Z" fill="#0E7AD7"/>
<path d="M37.9295 25.7811C37.9295 27.9361 36.3832 29.6893 34.4839 29.6893C32.5845 29.6893 31.0383 27.9361 31.0383 25.7811C31.0383 23.626 32.5845 21.8728 34.4839 21.8728C36.3832 21.8728 37.9295 23.626 37.9295 25.7811Z" fill="#0E7AD7"/>
<path d="M163.103 173.26C163.103 177.326 158.988 180.626 153.899 180.626C148.81 180.626 144.694 177.326 144.694 173.26C144.694 169.193 148.81 165.894 153.899 165.894C158.988 165.894 163.103 169.193 163.103 173.26Z" fill="#0E7AD7"/>
<path d="M179.662 164.688C179.662 166.88 177.47 168.658 174.767 168.658C172.064 168.658 169.873 166.88 169.873 164.688C169.873 162.497 172.064 160.719 174.767 160.719C177.47 160.719 179.662 162.497 179.662 164.688Z" fill="#0E7AD7"/>
</svg>
