<svg width="257" height="221" viewBox="0 0 257 221" fill="none" xmlns="http://www.w3.org/2000/svg">
<path d="M83.218 123.703C72.7623 117.874 59.6008 117.539 47.8963 115.502C36.9998 113.599 17.1413 105.277 9.20765 96.2584C-4.51702 80.6731 -3.68448 46.6349 17.0433 35.7667C40.8197 23.2905 70.6932 34.7349 96.4652 38.4469C136.231 44.1691 144.777 10.5463 183.453 4.77048C198.243 2.55933 219.351 7.41045 226.599 23.8936C235.793 44.8257 223.599 68.8669 237.385 88.7137C242.539 96.1378 275.914 127.375 241.854 139.677C229.659 144.086 217.147 146.941 204.683 150.197C192.685 153.333 181.029 157.085 170.255 163.759C155.882 172.657 140.076 185.937 123.523 176.972C102.232 165.434 102.648 134.545 83.2302 123.717L83.218 123.703Z" fill="#81D1A6"/>
<g style="mix-blend-mode:multiply">
<path d="M30.731 98.1616C-10.3695 167.082 68.1586 198.802 117.829 198.802C167.5 198.802 221.872 178.634 221.872 116.655C221.872 -42.8962 101.289 -20.1415 30.731 98.1616V98.1616Z" fill="#04A44D"/>
</g>
<path d="M19.2348 181.716C18.99 181.716 18.7573 181.622 18.5737 181.421C18.2064 181.019 18.2064 180.363 18.5737 179.974L55.8543 139.168C56.2216 138.766 56.8216 138.766 57.1766 139.168C57.5439 139.57 57.5439 140.227 57.1766 140.616L19.896 181.421C19.7123 181.622 19.4674 181.716 19.2348 181.716V181.716Z" fill="white"/>
<path d="M190.028 57.7844C189.795 57.7844 189.55 57.6906 189.367 57.4896C188.999 57.0875 188.987 56.4443 189.354 56.0423C190.934 54.2599 228.08 12.5028 231.312 10.1442C231.741 9.83598 232.328 9.95659 232.61 10.4256C232.891 10.8947 232.781 11.5379 232.353 11.8461C229.794 13.7088 201.414 45.4154 190.689 57.4762C190.505 57.6772 190.26 57.7844 190.016 57.7844H190.028Z" fill="white"/>
<path d="M84.5771 19.753C84.5771 24.2289 80.2308 27.8606 74.856 27.8606C69.4812 27.8606 65.1349 24.2289 65.1349 19.753C65.1349 15.2772 69.4812 11.6455 74.856 11.6455C80.2308 11.6455 84.5771 15.2772 84.5771 19.753V19.753Z" fill="#04A44D"/>
<path d="M96.6121 4.04707C96.6121 6.28502 94.7511 8.09414 92.4494 8.09414C90.1477 8.09414 88.2867 6.28502 88.2867 4.04707C88.2867 1.80912 90.1477 0 92.4494 0C94.7511 0 96.6121 1.80912 96.6121 4.04707Z" fill="#04A44D"/>
<path d="M164.403 220.82C168.872 220.82 172.496 216.854 172.496 211.962C172.496 207.07 168.872 203.104 164.403 203.104C159.933 203.104 156.31 207.07 156.31 211.962C156.31 216.854 159.933 220.82 164.403 220.82Z" fill="#04A44D"/>
<path d="M230.798 167.136C230.798 170.915 227.688 173.971 223.856 173.971C220.024 173.971 216.914 170.915 216.914 167.136C216.914 163.357 220.024 160.302 223.856 160.302C227.688 160.302 230.798 163.357 230.798 167.136Z" fill="#04A44D"/>
<path d="M213.682 176.771C213.682 178.165 212.335 179.304 210.67 179.304C209.005 179.304 207.658 178.165 207.658 176.771C207.658 175.378 209.005 174.239 210.67 174.239C212.335 174.239 213.682 175.378 213.682 176.771Z" fill="#04A44D"/>
</svg>
