<svg width="257" height="221" viewBox="0 0 257 221" fill="none" xmlns="http://www.w3.org/2000/svg">
<path d="M184.878 213.675C156.241 222.226 121.083 170.231 104.869 163.388C73.0453 149.953 18.4127 154.272 39.8349 123.296C49.7494 108.97 70.3602 89.5582 78.1206 78.3204C93.8037 55.6064 63.0866 14.8617 90.8087 2.97107C118.413 -8.86936 141.901 17.9129 168.929 26.7398C186.84 32.591 206.02 29.7031 224.285 32.7417C236.855 34.8385 247.846 46.8547 240.529 58.4692C195.235 130.366 233.447 199.186 184.878 213.688V213.675Z" fill="#FFE489"/>
<g style="mix-blend-mode:multiply">
<path d="M221.644 162.233C271.305 128.306 265.344 91.1529 224.152 98.2094C192.402 103.646 185.955 88.1519 167.896 64.1572C149.381 39.5597 107.687 57.6405 80.5107 43.5274C34.5384 19.6582 33.6237 58.3688 33.1811 84.2721C32.7384 109.987 -6.7275 124.113 1.0034 157.173C7.27369 184.043 56.0344 160.5 103.453 183.453C167.793 214.58 176.557 193.033 221.644 162.233Z" fill="#FAC514"/>
</g>
<path d="M8.92617 169.352C8.6311 169.352 8.35078 169.264 8.12947 169.076C7.68686 168.699 7.68686 168.084 8.12947 167.72L43.7447 137.41C44.1873 137.033 44.9103 137.033 45.3529 137.41C45.7955 137.786 45.7955 138.402 45.3529 138.766L9.73762 169.076C9.51631 169.264 9.22124 169.352 8.94092 169.352H8.92617Z" fill="white"/>
<path d="M159.472 84.297C159.177 84.297 158.897 84.2091 158.676 84.0207C158.233 83.644 158.233 83.0288 158.676 82.6646L233.447 19.0176C233.89 18.6409 234.613 18.6409 235.04 19.0176C235.483 19.3943 235.483 20.0096 235.04 20.3737L160.269 84.0082C160.048 84.1965 159.753 84.2844 159.472 84.2844V84.297Z" fill="white"/>
<path d="M65.8014 23.8772C65.8014 27.0163 62.6736 29.5777 58.8377 29.5777C55.0018 29.5777 51.874 27.0288 51.874 23.8772C51.874 20.7257 55.0018 18.1768 58.8377 18.1768C62.6736 18.1768 65.8014 20.7257 65.8014 23.8772Z" fill="#FAC514"/>
<path d="M73.0454 5.84638C73.0454 7.15221 72.0422 8.21948 70.8176 8.21948C69.5931 8.21948 68.5898 7.15221 68.5898 5.84638C68.5898 4.54054 69.5931 3.47327 70.8176 3.47327C72.0422 3.47327 73.0454 4.54054 73.0454 5.84638Z" fill="#FAC514"/>
<path d="M236.427 177.865C236.427 180.615 233.432 182.85 229.729 182.85C226.026 182.85 223.031 180.615 223.031 177.865C223.031 175.116 226.026 172.881 229.729 172.881C233.432 172.881 236.427 175.116 236.427 177.865Z" fill="#FAC514"/>
<path d="M151.668 213.939C151.668 217.744 147.419 220.82 142.181 220.82C136.944 220.82 132.694 217.744 132.694 213.939C132.694 210.135 136.944 207.058 142.181 207.058C147.419 207.058 151.668 210.135 151.668 213.939Z" fill="#FAC514"/>
<path d="M123.237 207.536C123.237 209.896 120.744 211.805 117.661 211.805C114.577 211.805 112.084 209.896 112.084 207.536C112.084 205.175 114.577 203.266 117.661 203.266C120.744 203.266 123.237 205.175 123.237 207.536Z" fill="#FAC514"/>
</svg>
