<svg xmlns="http://www.w3.org/2000/svg" enable-background="new 0 0 78 78" viewBox="0 0 78 78" id="ProductiveAnalysis"><path d="M13.5595703 66.328125c.4822474-.2884064.6128378-1.0676117.1494141-1.5297852-.3701172-.3701172-1.0400391-.3701172-1.4199219 0-.3958111.3968887-.3752823 1.0338516 0 1.4101563C12.6010075 66.5196381 13.1289253 66.6129074 13.5595703 66.328125zM18.5603771 66.328125c.4822483-.2884064.6128387-1.0676117.1494141-1.5297852-.3701172-.3701172-1.0400391-.3701172-1.4199219 0-.3958111.3968887-.3752823 1.0338516 0 1.4101563C17.6018143 66.5196381 18.1297321 66.6129074 18.5603771 66.328125zM23.5603771 66.328125c.4822483-.2884064.6128387-1.0676117.1494141-1.5297852-.3701172-.3701172-1.0400391-.3701172-1.4199219 0-.3958111.3968887-.3752823 1.0338516 0 1.4101563C22.6018143 66.5196381 23.1297321 66.6129074 23.5603771 66.328125z" fill="#04a44d" class="color000000 svgShape"></path><path d="M11,71h56c2.2060547,0,4-1.7729492,4-3.9526367v-6.0424805c0-0.5522461-0.4472656-1-1-1h-2.5507813V29.0317383
		c0-2.1791992-1.7939453-3.9521484-4-3.9521484h-5.6777344v-2.2075195c0-0.5522461-0.4472656-1-1-1h-2.8847656
		c-0.3681641-1.4892578-0.9570313-2.8876953-1.7578125-4.1738281l2.0253906-2.0048828
		c0.3951225-0.3900585,0.3962822-1.0291443,0-1.4223633l-3.7597656-3.7148438
		c-0.390625-0.3842773-1.015625-0.3847656-1.4042969-0.0014648l-2.0556641,2.0224609
		c-1.3115234-0.7944336-2.7392578-1.378418-4.2607422-1.7426758V8c0-0.5522461-0.4472656-1-1-1h-5.3359375
		c-0.5527344,0-1,0.4477539-1,1v2.8344727c-1.5224609,0.3642578-2.9492188,0.9482422-4.2607422,1.7426758l-2.0546875-2.0224609
		c-0.3886719-0.3828125-1.0136719-0.3828125-1.4023438,0l-3.7744141,3.7148438
		c-0.3980904,0.3909817-0.3985271,1.0343704,0,1.4257813l2.0371094,2.0048828
		c-0.7998047,1.2841797-1.3886719,2.6816406-1.7578125,4.171875h-2.8984375c-0.5527344,0-1,0.4477539-1,1v2.2075195h-5.6777344
		c-2.2060547,0-4,1.7729492-4,3.9521484v30.9731445H8c-0.5527344,0-1,0.4477539-1,1v6.0424805C7,69.2270508,8.7939453,71,11,71z
		 M22.2265625,23.8720703h2.703125c0.4804688,0,0.8925781-0.3413086,0.9824219-0.8129883
		c0.3417969-1.7993164,1.0410156-3.453125,2.0761719-4.9150391c0.2832031-0.4003906,0.234375-0.9467773-0.1152344-1.2910156
		l-1.9003906-1.8706055l2.3486328-2.3115234l1.9238281,1.8930664c0.3398438,0.3349609,0.8710938,0.3813477,1.2666016,0.1118164
		c1.4892578-1.0209961,3.1738281-1.7099609,5.0078125-2.0478516c0.4736328-0.0874023,0.8183594-0.5009766,0.8183594-0.9833984V9
		h3.3359375v2.6445313c0,0.4824219,0.3447266,0.8959961,0.8193359,0.9833984
		C43.3251953,12.965332,45.0107422,13.6542969,46.5,14.6757813c0.3955078,0.2700195,0.9257813,0.2241211,1.2666016-0.1118164
		l1.9228516-1.8920898l2.3398438,2.3110352l-1.8916016,1.8720703c-0.3476563,0.3442383-0.3955078,0.8891602-0.1132813,1.2885742
		c1.0361328,1.4643555,1.734375,3.1181641,2.0751953,4.9150391c0.0898438,0.4716797,0.5019531,0.8134766,0.9824219,0.8134766
		h2.6894531v1.2075195H48.177002c-0.2212524-4.8052368-4.2442017-8.6503906-9.1721191-8.6503906
		c-4.9345703,0-8.9631958,3.8451538-9.1848145,8.6503906h-7.5935059V23.8720703z M12.5488281,29.0317383
		c0-1.0766602,0.8974609-1.9521484,2-1.9521484h21.8828125c0.5527344,0,1-0.4477539,1-1s-0.4472656-1-1-1h-4.6114502
		c0.2200317-3.7023926,3.3533325-6.6503906,7.1846924-6.6503906c3.8247681,0,6.9524536,2.947998,7.1720581,6.6503906h-3.7296753
		c-0.5527344,0-1,0.4477539-1,1s0.4472656,1,1,1h21.0019531c1.1025391,0,2,0.8754883,2,1.9521484v30.9731445H45.5966797
		c-0.4726563,0-0.8798828,0.3305664-0.9785156,0.7924805l-0.328125,1.5449219
		c-0.1914063,0.9008789-1.0146484,1.5551758-1.9580078,1.5551758h-6.6630859c-0.9433594,0-1.7666016-0.6542969-1.9580078-1.5546875
		l-0.328125-1.5454102c-0.0986328-0.4619141-0.5058594-0.7924805-0.9785156-0.7924805H12.5488281V29.0317383z M9,62.0048828
		c4.7054739,0,17.2187271,0,22.5947266,0l0.1591797,0.753418c0.3876953,1.8188477,2.0341797,3.1391602,3.9150391,3.1391602
		h6.6630859c1.8808594,0,3.5273438-1.3203125,3.9150391-3.1396484l0.1591797-0.7529297c6.3421059,0,17.2137489,0,22.59375,0
		v5.0424805C69,68.1240234,68.1025391,69,67,69H11c-1.1025391,0-2-0.8759766-2-1.9526367V62.0048828z" fill="#04a44d" class="color000000 svgShape"></path><path d="M58.8496094,57.4863281c0.5527344,0,1-0.4477539,1-1s-0.4472656-1-1-1h-1.4990234V40.0302734c0-0.5522461-0.4472656-1-1-1
		h-4.8134766c-0.5527344,0-1,0.4477539-1,1v15.4560547h-3.1484375v-9.0927734c0-0.5522461-0.4472656-1-1-1h-4.8134766
		c-0.5527344,0-1,0.4477539-1,1v9.0927734h-3.1494141V39.7119141c0-0.5522461-0.4472656-1-1-1h-4.8134766
		c-0.5527344,0-1,0.4477539-1,1v15.7744141h-3.1484375v-7.4111328c0-0.5522461-0.4472656-1-1-1h-4.8134766
		c-0.5527344,0-1,0.4477539-1,1v7.4111328h-1.4990234c-0.5527344,0-1,0.4477539-1,1s0.4472656,1,1,1
		C32.3645897,57.4863281,45.6020851,57.4863281,58.8496094,57.4863281z M52.5371094,41.0302734h2.8134766v14.4560547h-2.8134766
		V41.0302734z M42.5751953,47.3935547h2.8134766v8.0927734h-2.8134766V47.3935547z M22.6503906,55.4863281v-6.4111328h2.8134766
		v6.4111328H22.6503906z M32.6123047,55.4863281V40.7119141h2.8134766v14.7744141H32.6123047z" fill="#04a44d" class="color000000 svgShape"></path><path d="M24.7646484 42.0048828l8.9951172-8.9960938 9.5341797 9.015625c.398262.3761368 1.0245285.3628159 1.40625-.03125l8.2431641-8.5211182v1.1182861c0 .5522461.4472656 1 1 1s1-.4477539 1-1c-.0000343-.0728035.0002937.5923157-.00177-3.5991211C54.937355 30.5091019 54.5463066 30 53.9433594 30h-3.5898438c-.5527344 0-1 .4477539-1 1s.4472656 1 1 1h1.2311401l-7.6344604 7.8920898-9.5224609-9.0043945c-.3935547-.3720703-1.0107422-.3637695-1.3945313.0195313l-9.6826172 9.6835938c-.390625.390625-.390625 1.0234375 0 1.4140625S24.3740234 42.3955078 24.7646484 42.0048828zM55.5599747 66.3243256c.4822464-.2883987.6128349-1.0676117.1494141-1.5297852-.3701172-.3701172-1.0400391-.3701172-1.4199219 0-.395813.3968887-.3752823 1.0338593 0 1.4101563C54.6014099 66.5158463 55.1293297 66.609108 55.5599747 66.3243256zM60.5607834 66.3243256c.4822464-.2883987.6128349-1.0676117.1494141-1.5297852-.3701172-.3701172-1.0400391-.3701172-1.4199219 0-.395813.3968887-.3752823 1.0338593 0 1.4101563C59.6022186 66.5158463 60.1301346 66.609108 60.5607834 66.3243256zM65.5607834 66.3243256c.4822464-.2883987.6128387-1.0676117.1494141-1.5297852-.3701172-.3701172-1.0400391-.3701172-1.4199219 0-.395813.3968887-.3752823 1.0338593 0 1.4101563C64.6022186 66.5158463 65.1301346 66.609108 65.5607834 66.3243256z" fill="#04a44d" class="color000000 svgShape"></path></svg>