<svg id="SvgjsSvg1065" width="288" height="288" xmlns="http://www.w3.org/2000/svg" version="1.1" xmlns:xlink="http://www.w3.org/1999/xlink" xmlns:svgjs="http://svgjs.com/svgjs"><defs id="SvgjsDefs1066"></defs><g id="SvgjsG1067"><svg xmlns="http://www.w3.org/2000/svg" enable-background="new 0 0 256 256" viewBox="0 0 256 256" width="288" height="288"><path fill="#04a44d" d="M128,196.634c-21.312,0-42.049-7.494-58.386-21.101c-20.95-17.393-32.98-43.013-32.98-70.265
				C36.633,54.887,77.62,13.9,128,13.9s91.367,40.987,91.367,91.367c0,27.253-12.031,52.872-33.008,70.288
				C170.049,189.139,149.312,196.634,128,196.634z" class="color5FCDFF svgShape"></path><path fill="#f9cc35" d="M128,173.579c-16.599,0-31.803-5.909-43.633-15.762v79.81c0,3.47,3.786,5.606,6.758,3.822l34.569-20.87
				c1.42-0.849,3.191-0.849,4.611,0l2.669,1.614l31.9,19.256c2.973,1.784,6.758-0.352,6.758-3.822v-76.582v-3.228
				C159.802,167.67,144.599,173.579,128,173.579z" class="colorF9D335 svgShape"></path><path fill="#f9cc35" d="M128,36.954c-37.724,0-68.313,30.577-68.313,68.313c0,21.137,9.598,40.029,24.68,52.551
				c11.83,9.853,27.034,15.762,43.633,15.762s31.802-5.909,43.633-15.762c15.082-12.522,24.68-31.414,24.68-52.551
				C196.313,67.531,165.724,36.954,128,36.954z" class="colorF9D335 svgShape"></path><path fill="#ffe798" d="M144.746,86.355h0.427c9.588,0,17.361,7.773,17.361,17.361v24.965c0,9.588-7.773,17.361-17.361,17.361
				h-13.949c-7.986,0-15.229-3.139-20.583-8.243c-0.715-0.687-1.674-1.056-2.66-1.056H95.058c-3.835,0-6.944-3.109-6.944-6.944
				v-29.18c0-3.835,3.109-6.944,6.944-6.944h15.09c0.958,0,1.896-0.347,2.611-0.993c6.989-6.332,17.478-22.397,22.722-30.218
				c1.069-1.597,3.222-2.021,4.819-0.958c6.742,4.544,7.336,11.014,4.322,15.79l-2.6,4.12
				C140.669,83.56,142.21,86.355,144.746,86.355z" class="colorFFBB98 svgShape"></path><path fill="#f9dc7d" d="M102.568,157.818c9.634,8.021,21.501,13.432,34.533,15.167c-2.973,0.388-6.018,0.595-9.1,0.595
				c-16.599,0-31.803-5.909-43.633-15.762c-15.082-12.522-24.68-31.414-24.68-52.551c0-37.736,30.589-68.313,68.313-68.313
				c3.082,0,6.127,0.206,9.1,0.607c-33.428,4.441-59.213,33.052-59.213,67.706C77.888,126.404,87.485,145.296,102.568,157.818z" class="colorF9E27D svgShape"></path><path fill="#fac514" d="M196.313,105.267c0,21.137-9.598,40.029-24.68,52.551c-11.83,9.853-27.034,15.762-43.633,15.762
				c-3.082,0-6.128-0.206-9.1-0.595c13.032-1.735,24.898-7.147,34.533-15.167c15.082-12.522,24.68-31.414,24.68-52.551
				c0-34.654-25.784-63.265-59.212-67.706c2.973-0.401,6.018-0.607,9.1-0.607C165.724,36.954,196.313,67.531,196.313,105.267z" class="colorF2C300 svgShape"></path><path fill="#f9dc7d" d="M102.568,168.69v65.856l-11.442,6.904c-2.973,1.784-6.758-0.352-6.758-3.822v-79.81
				C89.779,162.332,95.918,166.02,102.568,168.69z" class="colorF9E27D svgShape"></path><path fill="#fac514" d="M171.633,157.818v79.81c0,3.47-3.786,5.606-6.759,3.822l-11.442-6.904V168.69
				C160.082,166.02,166.221,162.332,171.633,157.818z" class="colorF2C300 svgShape"></path><path fill="#1717dd" d="M128,9.896c-52.59,0-95.37,42.79-95.37,95.37c0,34.415,18.393,65.742,47.74,82.61v49.75
			c0,6.573,7.151,10.639,12.82,7.25l34.56-20.86c0.15-0.1,0.35-0.1,0.49-0.01l34.58,20.87c5.579,3.389,12.81-0.634,12.81-7.25
			v-49.74c28.951-16.712,47.74-47.733,47.74-82.62C223.37,52.686,180.59,9.896,128,9.896z M167.63,237.626
			c0,0.357-0.352,0.569-0.69,0.4l-34.58-20.88c-2.636-1.574-5.998-1.629-8.73,0.01l-34.56,20.86c-0.323,0.184-0.7-0.02-0.7-0.39
			c0-16.886,0-57.129,0-71.87c11.583,7.616,25.86,12.09,41.21,11.8c12.738-0.202,26.491-4.199,38.05-11.8
			C167.63,200.708,167.63,204.257,167.63,237.626z M128,169.576c-35.394,0-64.31-28.707-64.31-64.31
			c0-35.46,28.85-64.31,64.31-64.31s64.31,28.85,64.31,64.31C192.31,140.897,163.383,169.576,128,169.576z M175.63,178.496v-18.82
			c15.71-13.76,24.68-33.47,24.68-54.41c0-39.87-32.44-72.31-72.31-72.31s-72.31,32.44-72.31,72.31c0,20.94,8.97,40.65,24.68,54.41
			v18.82c-24.347-15.775-39.74-43.06-39.74-73.23c0-48.17,39.2-87.37,87.37-87.37s87.37,39.2,87.37,87.37
			C215.37,135.875,199.542,163.033,175.63,178.496z" class="color5F266D svgShape"></path><path fill="#1717dd" d="M146.15 82.376l1.85-2.95c3.75-5.93 3.63-15.11-5.48-21.25-3.43-2.28-8.08-1.35-10.36 2.06-4.919 7.344-15.536 23.55-22.01 29.44H95.06c-6.04 0-10.95 4.91-10.95 10.94v29.18c0 6.04 4.91 10.95 10.95 10.95h12.87c6.32 5.99 14.59 9.3 23.29 9.3h13.95c11.78 0 21.36-9.59 21.36-21.36v-24.97C166.53 92.266 157.47 82.886 146.15 82.376zM158.53 128.686c0 7.36-5.99 13.36-13.36 13.36h-13.95c-6.66 0-12.99-2.54-17.81-7.13-1.45-1.4-3.38-2.17-5.43-2.17H95.06c-1.63 0-2.95-1.32-2.95-2.95v-29.18c0-1.62 1.32-2.94 2.95-2.94h15.09c1.97 0 3.84-.72 5.29-2.03 7.231-6.551 17.578-22.298 23.07-30.51 3.9 2.83 4.92 6.55 2.73 10.02l-2.6 4.12c-3.036 4.836.446 11.08 6.11 11.08h.42c7.37 0 13.36 5.99 13.36 13.36V128.686zM153.43 208.806c-2.21 0-4 1.79-4 4v2.23c0 2.21 1.79 4 4 4 2.21 0 4-1.79 4-4v-2.23C157.43 210.596 155.64 208.806 153.43 208.806zM153.43 179.806c-2.21 0-4 1.79-4 4 0 5.338 0 8.72 0 14 0 2.193 1.779 4 4 4 2.21 0 4-1.79 4-4 0-2.229 0-12.326 0-14C157.43 181.596 155.64 179.806 153.43 179.806z" class="color5F266D svgShape"></path></svg></g></svg>