<svg xmlns="http://www.w3.org/2000/svg" data-name="Layer 1" viewBox="0 0 64 64" id="Parties"><rect width="6" height="2" x="29" y="55" fill="#04a44d" class="color000000 svgShape"></rect><path d="M32,1A29.95658,29.95658,0,0,0,3.04761,38.80957a5.618,5.618,0,0,0-.7522,1.95459,1.049,1.049,0,0,0-.01514.14111l-.27978,8.06006A1.00009,1.00009,0,0,0,3,50H4.99512l-.99024,9.90039A.99991.99991,0,0,0,5,61H9a.99982.99982,0,0,0,.98633-.835l1.01416-6.06543,1.01318,6.06494A.9998.9998,0,0,0,13,61h4a1.00038,1.00038,0,0,0,.99463-1.10449L17.7312,57.3927a30.024,30.024,0,0,0,28.5376,0l-.26343,2.50281A1.00038,1.00038,0,0,0,47,61h4a.99987.99987,0,0,0,.98633-.83545L53,54.08252l1.01367,6.082A.99987.99987,0,0,0,55,61h4a.99991.99991,0,0,0,.99512-1.09961L59.00488,50H61a1.00009,1.00009,0,0,0,.99951-1.03467l-.27978-8.06006a1.06633,1.06633,0,0,0-.01612-.147,5.80254,5.80254,0,0,0-.75067-1.951A29.95632,29.95632,0,0,0,32,1ZM13.84668,59,11.98633,47.83643A.99951.99951,0,0,0,11,47h-.00049a1.00037,1.00037,0,0,0-.98633.8374L8.15332,59H6.105l.99023-9.90039v-.001l.40967-4.12988.00293-.03906.48731-4.8291-1.99024-.20118L5.19434,48H4.03516l.24121-6.94971a3.67323,3.67323,0,0,1,.65039-1.46875c.01758-.02392.03369-.04883.04883-.07422a4.065,4.065,0,0,1,.59961-.623A3.76286,3.76286,0,0,1,8,38h.37988a1.00029,1.00029,0,0,0,.65625-1.75488,2.99878,2.99878,0,1,1,3.92432.00342A.99982.99982,0,0,0,13.62012,38H13.853L23,40.74414v1.00928l-7.7832-1.72949a1.00025,1.00025,0,0,0-1.21143,1.08056L15.88916,59Zm32.68207-4.07684A27.744,27.744,0,0,1,33,58.965V58H31v.965a27.744,27.744,0,0,1-13.52875-4.04187L16.14014,42.27783l7.06805,1.5705a8.9484,8.9484,0,0,0,1.97394,4.01837A6.96341,6.96341,0,0,1,27,52.42041V53a1,1,0,0,0,1,1h8a1,1,0,0,0,1-1v-.58252a6.91779,6.91779,0,0,1,1.78467-4.51221,8.96641,8.96641,0,0,0,2.01587-4.0589l7.05932-1.56854ZM25.08838,40.87109a7.04808,7.04808,0,0,1,6.1084-5.82617,6.99522,6.99522,0,0,1,6.08105,11.54492A8.986,8.986,0,0,0,35.01074,52H28.98926a9.01215,9.01215,0,0,0-2.29346-5.43994A6.93911,6.93911,0,0,1,25.08838,40.87109ZM58.80469,48l-.80957-8.09961-1.99024.19922.89991,9,.00048.00391L57.895,59H55.84717L53.98633,47.83545a1,1,0,0,0-1.97266,0L50.15283,59h-2.042l1.88379-17.89551a1.00025,1.00025,0,0,0-1.21143-1.08056L41,41.75342V40.74414L50.147,38h.23291a.99982.99982,0,0,0,.65967-1.75146,3.00036,3.00036,0,1,1,3.92432-.00342A1.00029,1.00029,0,0,0,55.62012,38H56a3.76818,3.76818,0,0,1,2.43018.88867,3.81452,3.81452,0,0,1,1.29345,2.16455L59.96484,48ZM59.328,37.0647a5.75041,5.75041,0,0,0-1.84411-.87036,4.97493,4.97493,0,0,0-1.373-6.10889A4.994,4.994,0,0,0,48.60645,36.374l-8.19617,2.45874a8.96213,8.96213,0,0,0-9.43323-5.77612,9.107,9.107,0,0,0-7.39642,5.77344L15.39355,36.374a5.00147,5.00147,0,1,0-8.87744-.17968,5.73514,5.73514,0,0,0-1.84417.87011A28,28,0,1,1,59.328,37.0647Z" fill="#04a44d" class="color000000 svgShape"></path><path d="M32 39V37a5.00588 5.00588 0 0 0-5 5h2A3.00328 3.00328 0 0 1 32 39zM31.2002 11h1.5996A2.20245 2.20245 0 0 1 35 13.2002h2a4.19536 4.19536 0 0 0-4-4.17994V6H31V9.02026a4.19536 4.19536 0 0 0-4 4.17994v1.5996A4.20506 4.20506 0 0 0 31.2002 19h1.5996A2.20245 2.20245 0 0 1 35 21.2002v1.5996A2.20245 2.20245 0 0 1 32.7998 25H31.2002A2.20245 2.20245 0 0 1 29 22.7998V22H27v.7998a4.19536 4.19536 0 0 0 4 4.17994V30h2V26.97974a4.19536 4.19536 0 0 0 4-4.17994V21.2002A4.20506 4.20506 0 0 0 32.7998 17H31.2002A2.20245 2.20245 0 0 1 29 14.7998V13.2002A2.20245 2.20245 0 0 1 31.2002 11zM2.73389 6.96387c2.32177.64111 2.66113.98047 3.30224 3.30224a.9999.9999 0 0 0 1.92774 0C8.605 7.94434 8.94434 7.605 11.26611 6.96387a.9999.9999 0 0 0 0-1.92774C8.94434 4.395 8.605 4.05566 7.96387 1.73389a.9999.9999 0 0 0-1.92774 0C5.395 4.05566 5.05566 4.395 2.73389 5.03613a.9999.9999 0 0 0 0 1.92774zM7 4.70215A3.94457 3.94457 0 0 0 8.29785 6 3.94457 3.94457 0 0 0 7 7.29785 3.94457 3.94457 0 0 0 5.70215 6 3.94457 3.94457 0 0 0 7 4.70215zM61.26611 5.03613C58.94434 4.395 58.605 4.05566 57.96387 1.73389a.9999.9999 0 0 0-1.92774 0C55.395 4.05566 55.05566 4.395 52.73389 5.03613a.9999.9999 0 0 0 0 1.92774c2.32177.64111 2.66113.98047 3.30224 3.30224a.9999.9999 0 0 0 1.92774 0c.64111-2.32177.98047-2.66113 3.30224-3.30224a.9999.9999 0 0 0 0-1.92774zM57 7.29785A3.94457 3.94457 0 0 0 55.70215 6 3.94457 3.94457 0 0 0 57 4.70215 3.94457 3.94457 0 0 0 58.29785 6 3.94457 3.94457 0 0 0 57 7.29785zM6.18506 27.88135l1.98633.2373A24.05152 24.05152 0 0 1 22.5791 8.91943L21.793 7.08057A26.05735 26.05735 0 0 0 6.18506 27.88135zM41.35986 6.73584l-.71972 1.86621a23.92939 23.92939 0 0 1 15.18847 19.5166l1.98633-.2373A25.92677 25.92677 0 0 0 41.35986 6.73584z" fill="#04a44d" class="color000000 svgShape"></path></svg>