<svg width="500" height="500" viewBox="0 0 500 500" fill="none" xmlns="http://www.w3.org/2000/svg">
<path d="M114 116.4L43.25 116.29C43.25 116.29 46.77 111.72 50.65 111.15C50.65 111.15 58.23 88.71 70.86 88.57C82.6 88.44 87.28 102.4 87.28 102.4C87.28 102.4 92.77 96.15 98 99C103.23 101.85 106.13 110.07 106.13 110.07C106.13 110.07 111.93 113.25 114 116.4Z" fill="#EBEBEB"/>
<path d="M367.24 136.4L456.71 136.53C456.71 136.53 456.71 130.82 444.4 129.68C444.4 129.68 433.18 104.68 415.99 108.01C405.29 110.08 399.8 124.76 399.8 124.76C399.8 124.76 391.73 113.19 385.26 115.42C378.79 117.65 374.93 130 374.93 130C374.93 130 368.26 133.17 367.24 136.4Z" fill="#EBEBEB"/>
<path d="M352.5 222L413.34 222.09C413.34 222.09 407.61 216.74 405.05 216.74C402.49 216.74 395.05 198.74 385.57 199.53C376.09 200.32 371 213.59 371 213.59C371 213.59 359.42 210 352.5 222Z" fill="#EBEBEB"/>
<path d="M343.44 67.47L395.44 67.55C395.44 67.55 392.86 64.17 390.01 63.75C390.01 63.75 384.49 47.23 375.2 47.1C366.57 46.97 363.09 57.23 363.09 57.23C363.09 57.23 359.09 52.62 355.28 54.72C351.47 56.82 349.28 62.84 349.28 62.84C349.28 62.84 345 65.15 343.44 67.47Z" fill="#EBEBEB"/>
<path d="M77.8101 193.38L129.81 193.46C129.81 193.46 127.23 190.09 124.37 189.66C124.37 189.66 118.85 173.14 109.57 173.01C100.93 172.89 97.4601 183.15 97.4601 183.15C97.4601 183.15 93.4601 178.54 89.6401 180.64C85.8201 182.74 83.6401 188.76 83.6401 188.76C83.6401 188.76 79.3701 191.07 77.8101 193.38Z" fill="#EBEBEB"/>
<path d="M48.1699 199.17V390.18H451.83V279.36H416.81V321.89H407.79V297.82H363.27V335.94H357.37V185.47H318.67V271.02H298.83V301.58H292.82V282.37H257.64V339.7H247.35V293.1H215.17V257.68H193.3V237.52H167.99V326.96H159.47V228.62H117.78V282.05H112.02V238.44H69.7399V199.17H48.1699Z" fill="#EBEBEB"/>
<path d="M441.61 292.84H447.53V284.71H441.61V292.84Z" fill="white"/>
<path d="M431.34 292.84H437.26V284.71H431.34V292.84Z" fill="white"/>
<path d="M421.08 292.84H427V284.71H421.08V292.84Z" fill="white"/>
<path d="M441.61 305.08H447.53V296.95H441.61V305.08Z" fill="white"/>
<path d="M431.34 305.08H437.26V296.95H431.34V305.08Z" fill="white"/>
<path d="M421.08 305.08H427V296.95H421.08V305.08Z" fill="white"/>
<path d="M441.61 317.31H447.53V309.18H441.61V317.31Z" fill="white"/>
<path d="M431.34 317.31H437.26V309.18H431.34V317.31Z" fill="white"/>
<path d="M421.08 317.31H427V309.18H421.08V317.31Z" fill="white"/>
<path d="M441.61 329.54H447.53V321.41H441.61V329.54Z" fill="white"/>
<path d="M431.34 329.54H437.26V321.41H431.34V329.54Z" fill="white"/>
<path d="M421.08 329.54H427V321.41H421.08V329.54Z" fill="white"/>
<path d="M236.49 305.69H242.41V298.91H236.49V305.69Z" fill="white"/>
<path d="M226.22 305.69H232.14V298.91H226.22V305.69Z" fill="white"/>
<path d="M215.95 305.69H221.87V298.91H215.95V305.69Z" fill="white"/>
<path d="M236.49 315.89H242.41V309.11H236.49V315.89Z" fill="white"/>
<path d="M226.22 315.89H232.14V309.11H226.22V315.89Z" fill="white"/>
<path d="M215.95 315.89H221.87V309.11H215.95V315.89Z" fill="white"/>
<path d="M236.49 326.1H242.41V319.32H236.49V326.1Z" fill="white"/>
<path d="M226.22 326.1H232.14V319.32H226.22V326.1Z" fill="white"/>
<path d="M215.95 326.1H221.87V319.32H215.95V326.1Z" fill="white"/>
<path d="M236.49 336.3H242.41V329.52H236.49V336.3Z" fill="white"/>
<path d="M226.22 336.3H232.14V329.52H226.22V336.3Z" fill="white"/>
<path d="M215.95 336.3H221.87V329.52H215.95V336.3Z" fill="white"/>
<path d="M236.49 346.76H242.41V339.98H236.49V346.76Z" fill="white"/>
<path d="M226.22 346.76H232.14V339.98H226.22V346.76Z" fill="white"/>
<path d="M215.95 346.76H221.87V339.98H215.95V346.76Z" fill="white"/>
<path d="M236.49 357.22H242.41V350.44H236.49V357.22Z" fill="white"/>
<path d="M226.22 357.22H232.14V350.44H226.22V357.22Z" fill="white"/>
<path d="M215.95 357.22H221.87V350.44H215.95V357.22Z" fill="white"/>
<path d="M236.49 367.68H242.41V360.9H236.49V367.68Z" fill="white"/>
<path d="M226.22 367.68H232.14V360.9H226.22V367.68Z" fill="white"/>
<path d="M215.95 367.68H221.87V360.9H215.95V367.68Z" fill="white"/>
<path d="M236.49 378.14H242.41V371.36H236.49V378.14Z" fill="white"/>
<path d="M226.22 378.14H232.14V371.36H226.22V378.14Z" fill="white"/>
<path d="M215.95 378.14H221.87V371.36H215.95V378.14Z" fill="white"/>
<path d="M368.63 308.11H402.74V303.02H368.63V308.11Z" fill="white"/>
<path d="M368.63 317.98H402.74V312.89H368.63V317.98Z" fill="white"/>
<path d="M368.63 327.85H402.74V322.76H368.63V327.85Z" fill="white"/>
<path d="M368.63 337.71H402.74V332.62H368.63V337.71Z" fill="white"/>
<path d="M368.63 347.58H402.74V342.5H368.63V347.58Z" fill="white"/>
<path d="M368.63 357.45H402.74V352.36H368.63V357.45Z" fill="white"/>
<path d="M368.63 367.31H402.74V362.22H368.63V367.31Z" fill="white"/>
<path d="M368.63 377.18H402.74V372.09H368.63V377.18Z" fill="white"/>
<path d="M123.07 238.45H154.43V233.36H123.07V238.45Z" fill="white"/>
<path d="M123.07 248.32H154.43V243.23H123.07V248.32Z" fill="white"/>
<path d="M123.07 258.19H154.43V253.11H123.07V258.19Z" fill="white"/>
<path d="M123.07 268.05H154.43V262.97H123.07V268.05Z" fill="white"/>
<path d="M154.43 272.84H123.07V277.93H154.43V272.84Z" fill="white"/>
<path d="M123.07 287.79H154.43V282.7H123.07V287.79Z" fill="white"/>
<path d="M123.07 297.65H154.43V292.56H123.07V297.65Z" fill="white"/>
<path d="M123.07 307.52H154.43V302.43H123.07V307.52Z" fill="white"/>
<path d="M123.07 316.9H154.43V311.81H123.07V316.9Z" fill="white"/>
<path d="M123.07 326.27H154.43V321.18H123.07V326.27Z" fill="white"/>
<path d="M123.07 335.65H154.43V330.56H123.07V335.65Z" fill="white"/>
<path d="M123.07 345.02H154.43V339.94H123.07V345.02Z" fill="white"/>
<path d="M72.36 250.37H105.49V245.29H72.36V250.37Z" fill="white"/>
<path d="M72.36 260.24H105.49V255.15H72.36V260.24Z" fill="white"/>
<path d="M72.36 270.11H105.49V265.03H72.36V270.11Z" fill="white"/>
<path d="M72.36 279.97H105.49V274.88H72.36V279.97Z" fill="white"/>
<path d="M72.36 289.84H105.49V284.75H72.36V289.84Z" fill="white"/>
<path d="M72.36 299.71H105.49V294.63H72.36V299.71Z" fill="white"/>
<path d="M72.36 309.57H105.49V304.49H72.36V309.57Z" fill="white"/>
<path d="M72.36 319.44H105.49V314.35H72.36V319.44Z" fill="white"/>
<path d="M72.36 328.27H105.49V323.18H72.36V328.27Z" fill="white"/>
<path d="M72.36 337.11H105.49V332.02H72.36V337.11Z" fill="white"/>
<path d="M72.36 345.93H105.49V340.84H72.36V345.93Z" fill="white"/>
<path d="M272 291.88H282.53V286.97H272V291.88Z" fill="white"/>
<path d="M272 301.41H282.53V296.5H272V301.41Z" fill="white"/>
<path d="M272 310.93H282.53V306.02H272V310.93Z" fill="white"/>
<path d="M272 320.46H282.53V315.55H272V320.46Z" fill="white"/>
<path d="M272 330H282.53V325.09H272V330Z" fill="white"/>
<path d="M272 339.52H282.53V334.61H272V339.52Z" fill="white"/>
<path d="M272 349.05H282.53V344.14H272V349.05Z" fill="white"/>
<path d="M272 358.58H282.53V353.67H272V358.58Z" fill="white"/>
<path d="M257.67 291.88H268.2V286.97H257.67V291.88Z" fill="white"/>
<path d="M257.67 301.41H268.2V296.5H257.67V301.41Z" fill="white"/>
<path d="M257.67 310.93H268.2V306.02H257.67V310.93Z" fill="white"/>
<path d="M257.67 320.46H268.2V315.55H257.67V320.46Z" fill="white"/>
<path d="M257.67 330H268.2V325.09H257.67V330Z" fill="white"/>
<path d="M257.67 339.52H268.2V334.61H257.67V339.52Z" fill="white"/>
<path d="M257.67 349.05H268.2V344.14H257.67V349.05Z" fill="white"/>
<path d="M257.67 358.58H268.2V353.67H257.67V358.58Z" fill="white"/>
<path d="M340.53 198.36H351.5V190.62H340.53V198.36Z" fill="white"/>
<path d="M324.17 198.36H335.14V190.62H324.17V198.36Z" fill="white"/>
<path d="M340.53 209.73H351.5V201.99H340.53V209.73Z" fill="white"/>
<path d="M324.17 209.73H335.14V201.99H324.17V209.73Z" fill="white"/>
<path d="M340.53 221.11H351.5V213.37H340.53V221.11Z" fill="white"/>
<path d="M324.17 221.11H335.14V213.37H324.17V221.11Z" fill="white"/>
<path d="M340.53 232.49H351.5V224.75H340.53V232.49Z" fill="white"/>
<path d="M324.17 232.49H335.14V224.75H324.17V232.49Z" fill="white"/>
<path d="M340.53 243.86H351.5V236.12H340.53V243.86Z" fill="white"/>
<path d="M324.17 243.86H335.14V236.12H324.17V243.86Z" fill="white"/>
<path d="M340.53 255.24H351.5V247.5H340.53V255.24Z" fill="white"/>
<path d="M324.17 255.24H335.14V247.5H324.17V255.24Z" fill="white"/>
<path d="M340.53 266.62H351.5V258.88H340.53V266.62Z" fill="white"/>
<path d="M324.17 266.62H335.14V258.88H324.17V266.62Z" fill="white"/>
<path d="M340.53 277.99H351.5V270.25H340.53V277.99Z" fill="white"/>
<path d="M324.17 277.99H335.14V270.25H324.17V277.99Z" fill="white"/>
<path d="M303.9 282.12H314.87V274.38H303.9V282.12Z" fill="white"/>
<path d="M303.9 293.49H314.87V285.75H303.9V293.49Z" fill="white"/>
<path d="M303.9 304.87H314.87V297.13H303.9V304.87Z" fill="white"/>
<path d="M303.9 316.25H314.87V308.51H303.9V316.25Z" fill="white"/>
<path d="M303.9 327.62H314.87V319.88H303.9V327.62Z" fill="white"/>
<path d="M303.9 339H314.87V331.26H303.9V339Z" fill="white"/>
<path d="M340.53 289.23H351.5V281.49H340.53V289.23Z" fill="white"/>
<path d="M324.17 289.23H335.14V281.49H324.17V289.23Z" fill="white"/>
<path d="M303.9 350.23H314.87V342.49H303.9V350.23Z" fill="white"/>
<path d="M340.53 300.47H351.5V292.73H340.53V300.47Z" fill="white"/>
<path d="M324.17 300.47H335.14V292.73H324.17V300.47Z" fill="white"/>
<path d="M303.9 361.48H314.87V353.74H303.9V361.48Z" fill="white"/>
<path d="M340.53 311.71H351.5V303.97H340.53V311.71Z" fill="white"/>
<path d="M324.17 311.71H335.14V303.97H324.17V311.71Z" fill="white"/>
<path d="M303.9 372.72H314.87V364.98H303.9V372.72Z" fill="white"/>
<path d="M340.53 322.95H351.5V315.21H340.53V322.95Z" fill="white"/>
<path d="M324.17 322.95H335.14V315.21H324.17V322.95Z" fill="white"/>
<path d="M340.53 334.19H351.5V326.45H340.53V334.19Z" fill="white"/>
<path d="M324.17 334.19H335.14V326.45H324.17V334.19Z" fill="white"/>
<path d="M204.78 269.46H210.7V262.68H204.78V269.46Z" fill="white"/>
<path d="M194.51 269.46H200.43V262.68H194.51V269.46Z" fill="white"/>
<path d="M204.78 279.66H210.7V272.88H204.78V279.66Z" fill="white"/>
<path d="M194.51 279.66H200.43V272.88H194.51V279.66Z" fill="white"/>
<path d="M204.78 289.87H210.7V283.09H204.78V289.87Z" fill="white"/>
<path d="M194.51 289.87H200.43V283.09H194.51V289.87Z" fill="white"/>
<path d="M204.78 300.08H210.7V293.3H204.78V300.08Z" fill="white"/>
<path d="M194.51 300.08H200.43V293.3H194.51V300.08Z" fill="white"/>
<path d="M204.78 310.54H210.7V303.76H204.78V310.54Z" fill="white"/>
<path d="M194.51 310.54H200.43V303.76H194.51V310.54Z" fill="white"/>
<path d="M204.78 320.99H210.7V314.21H204.78V320.99Z" fill="white"/>
<path d="M194.51 320.99H200.43V314.21H194.51V320.99Z" fill="white"/>
<path d="M204.78 331.45H210.7V324.67H204.78V331.45Z" fill="white"/>
<path d="M194.51 331.45H200.43V324.67H194.51V331.45Z" fill="white"/>
<path d="M204.78 341.91H210.7V335.13H204.78V341.91Z" fill="white"/>
<path d="M194.51 341.91H200.43V335.13H194.51V341.91Z" fill="white"/>
<path d="M204.78 352.48H210.7V345.7H204.78V352.48Z" fill="white"/>
<path d="M194.51 352.48H200.43V345.7H194.51V352.48Z" fill="white"/>
<path d="M204.78 363.05H210.7V356.27H204.78V363.05Z" fill="white"/>
<path d="M194.51 363.05H200.43V356.27H194.51V363.05Z" fill="white"/>
<path d="M204.78 373.62H210.7V366.84H204.78V373.62Z" fill="white"/>
<path d="M194.51 373.62H200.43V366.84H194.51V373.62Z" fill="white"/>
<path d="M60.1 210.76H66.02V202.77H60.1V210.76Z" fill="white"/>
<path d="M49.82 210.76H55.75V202.77H49.82V210.76Z" fill="white"/>
<path d="M60.1 222.79H66.02V214.8H60.1V222.79Z" fill="white"/>
<path d="M49.82 222.79H55.75V214.8H49.82V222.79Z" fill="white"/>
<path d="M60.1 234.81H66.02V226.82H60.1V234.81Z" fill="white"/>
<path d="M49.82 234.81H55.75V226.82H49.82V234.81Z" fill="white"/>
<path d="M60.1 246.83H66.02V238.84H60.1V246.83Z" fill="white"/>
<path d="M49.82 246.83H55.75V238.84H49.82V246.83Z" fill="white"/>
<path d="M60.1 259.16H66.02V251.17H60.1V259.16Z" fill="white"/>
<path d="M49.82 259.16H55.75V251.17H49.82V259.16Z" fill="white"/>
<path d="M60.1 271.47H66.02V263.48H60.1V271.47Z" fill="white"/>
<path d="M49.82 271.47H55.75V263.48H49.82V271.47Z" fill="white"/>
<path d="M60.1 283.8H66.02V275.81H60.1V283.8Z" fill="white"/>
<path d="M49.82 283.8H55.75V275.81H49.82V283.8Z" fill="white"/>
<path d="M60.1 296.12H66.02V288.13H60.1V296.12Z" fill="white"/>
<path d="M49.82 296.12H55.75V288.13H49.82V296.12Z" fill="white"/>
<path d="M60.1 308.57H66.02V300.58H60.1V308.57Z" fill="white"/>
<path d="M49.82 308.57H55.75V300.58H49.82V308.57Z" fill="white"/>
<path d="M60.1 321.03H66.02V313.04H60.1V321.03Z" fill="white"/>
<path d="M49.82 321.03H55.75V313.04H49.82V321.03Z" fill="white"/>
<path d="M60.1 333.48H66.02V325.49H60.1V333.48Z" fill="white"/>
<path d="M49.82 333.48H55.75V325.49H49.82V333.48Z" fill="white"/>
<path d="M60.1 345.93H66.02V337.94H60.1V345.93Z" fill="white"/>
<path d="M49.82 345.93H55.75V337.94H49.82V345.93Z" fill="white"/>
<path d="M182.82 269.46H188.74V262.68H182.82V269.46Z" fill="white"/>
<path d="M172.55 269.46H178.47V262.68H172.55V269.46Z" fill="white"/>
<path d="M182.82 258.99H188.74V252.21H182.82V258.99Z" fill="white"/>
<path d="M172.55 258.99H178.47V252.21H172.55V258.99Z" fill="white"/>
<path d="M182.82 248.53H188.74V241.75H182.82V248.53Z" fill="white"/>
<path d="M172.55 248.53H178.47V241.75H172.55V248.53Z" fill="white"/>
<path d="M182.82 279.66H188.74V272.88H182.82V279.66Z" fill="white"/>
<path d="M172.55 279.66H178.47V272.88H172.55V279.66Z" fill="white"/>
<path d="M182.82 289.87H188.74V283.09H182.82V289.87Z" fill="white"/>
<path d="M172.55 289.87H178.47V283.09H172.55V289.87Z" fill="white"/>
<path d="M182.82 300.08H188.74V293.3H182.82V300.08Z" fill="white"/>
<path d="M172.55 300.08H178.47V293.3H172.55V300.08Z" fill="white"/>
<path d="M182.82 310.54H188.74V303.76H182.82V310.54Z" fill="white"/>
<path d="M172.55 310.54H178.47V303.76H172.55V310.54Z" fill="white"/>
<path d="M182.82 320.99H188.74V314.21H182.82V320.99Z" fill="white"/>
<path d="M172.55 320.99H178.47V314.21H172.55V320.99Z" fill="white"/>
<path d="M182.82 331.45H188.74V324.67H182.82V331.45Z" fill="white"/>
<path d="M172.55 331.45H178.47V324.67H172.55V331.45Z" fill="white"/>
<path d="M182.82 341.91H188.74V335.13H182.82V341.91Z" fill="white"/>
<path d="M172.55 341.91H178.47V335.13H172.55V341.91Z" fill="white"/>
<path d="M182.82 352.48H188.74V345.7H182.82V352.48Z" fill="white"/>
<path d="M172.55 352.48H178.47V345.7H172.55V352.48Z" fill="white"/>
<path d="M182.82 363.05H188.74V356.27H182.82V363.05Z" fill="white"/>
<path d="M172.55 363.05H178.47V356.27H172.55V363.05Z" fill="white"/>
<path d="M182.82 373.62H188.74V366.84H182.82V373.62Z" fill="white"/>
<path d="M172.55 373.62H178.47V366.84H172.55V373.62Z" fill="white"/>
<path d="M250 469.22C365.046 469.22 458.31 459.352 458.31 447.18C458.31 435.008 365.046 425.14 250 425.14C134.954 425.14 41.6899 435.008 41.6899 447.18C41.6899 459.352 134.954 469.22 250 469.22Z" fill="#EBEBEB"/>
<path d="M458.63 382.91H41.3601V390.18H458.63V382.91Z" fill="#C7C7C7"/>
<path d="M70.6202 382.91C71.2734 385.289 71.2734 387.801 70.6202 390.18C70.2677 389 70.099 387.772 70.1202 386.54C70.1044 385.312 70.2729 384.088 70.6202 382.91Z" fill="#263238"/>
<path d="M103.23 382.91C103.577 384.088 103.746 385.312 103.73 386.54C103.751 387.772 103.583 389 103.23 390.18C102.577 387.801 102.577 385.289 103.23 382.91Z" fill="#263238"/>
<path d="M135.85 382.91C136.503 385.289 136.503 387.801 135.85 390.18C135.498 389 135.329 387.772 135.35 386.54C135.334 385.312 135.503 384.088 135.85 382.91Z" fill="#263238"/>
<path d="M168.46 382.91C168.807 384.088 168.976 385.312 168.96 386.54C168.981 387.772 168.813 389 168.46 390.18C167.807 387.801 167.807 385.289 168.46 382.91Z" fill="#263238"/>
<path d="M201.08 382.91C201.733 385.289 201.733 387.801 201.08 390.18C200.728 389 200.559 387.772 200.58 386.54C200.564 385.312 200.733 384.088 201.08 382.91Z" fill="#263238"/>
<path d="M233.69 382.91C234.037 384.088 234.206 385.312 234.19 386.54C234.211 387.772 234.043 389 233.69 390.18C233.037 387.801 233.037 385.289 233.69 382.91Z" fill="#263238"/>
<path d="M266.31 382.91C266.963 385.289 266.963 387.801 266.31 390.18C265.958 389 265.789 387.772 265.81 386.54C265.794 385.312 265.963 384.088 266.31 382.91Z" fill="#263238"/>
<path d="M298.92 382.91C299.267 384.088 299.436 385.312 299.42 386.54C299.441 387.772 299.273 389 298.92 390.18C298.267 387.801 298.267 385.289 298.92 382.91Z" fill="#263238"/>
<path d="M331.54 382.91C332.193 385.289 332.193 387.801 331.54 390.18C331.188 389 331.019 387.772 331.04 386.54C331.024 385.312 331.193 384.088 331.54 382.91Z" fill="#263238"/>
<path d="M364.15 382.91C364.497 384.088 364.666 385.312 364.65 386.54C364.671 387.772 364.503 389 364.15 390.18C363.497 387.801 363.497 385.289 364.15 382.91Z" fill="#263238"/>
<path d="M396.77 382.91C397.423 385.289 397.423 387.801 396.77 390.18C396.418 389 396.249 387.772 396.27 386.54C396.254 385.312 396.423 384.088 396.77 382.91Z" fill="#263238"/>
<path d="M429.38 382.91C429.727 384.088 429.896 385.312 429.88 386.54C429.901 387.772 429.733 389 429.38 390.18C428.727 387.801 428.727 385.289 429.38 382.91Z" fill="#263238"/>
<path d="M41.3601 390.18L93.5201 389.94L145.68 389.85L250 389.68L354.32 389.85L406.48 389.93L458.64 390.18L406.48 390.42L354.32 390.51L250 390.68L145.68 390.51L93.5201 390.42L41.3601 390.18Z" fill="#263238"/>
<path d="M420.68 317.48C426.17 306.2 435.78 300.4 446.6 303.6C457.42 306.8 459.1 321.9 451.02 325.71C442.94 329.52 434.86 318.39 430.59 316.11C426.32 313.83 420.68 317.48 420.68 317.48Z" fill="#FAC514"/>
<path d="M415.37 347.51C415.37 346.15 415.45 344.79 415.5 343.43C415.6 340.71 415.69 338 415.79 335.28C415.97 330.28 416.51 325.44 418.57 320.86C420.391 316.723 423.424 313.235 427.27 310.86C428.697 309.986 430.239 309.313 431.85 308.86C433.309 307.385 435.164 306.364 437.19 305.92C439.696 305.412 442.272 305.348 444.8 305.73C444.89 305.73 444.89 305.88 444.8 305.87C442.389 305.566 439.942 305.743 437.6 306.39C436.592 306.661 435.617 307.04 434.69 307.52C434.108 307.831 433.549 308.185 433.02 308.58C436.003 307.918 439.118 308.205 441.93 309.4C442.521 309.271 443.126 309.22 443.73 309.25C444.52 309.274 445.305 309.385 446.07 309.58C447.639 310.024 449.139 310.68 450.53 311.53C450.61 311.53 450.53 311.69 450.45 311.65C449.086 310.906 447.625 310.354 446.11 310.01C445.373 309.845 444.624 309.735 443.87 309.68C443.46 309.68 443.04 309.68 442.63 309.68C445.717 311.113 448.197 313.593 449.63 316.68C449.63 316.76 449.54 316.83 449.5 316.75C448.649 314.962 447.405 313.391 445.86 312.152C444.315 310.914 442.51 310.042 440.58 309.6C440.34 309.54 440.1 309.5 439.86 309.46C439.916 309.821 439.953 310.185 439.97 310.55C440.05 311.1 440.14 311.64 440.25 312.19C440.479 313.306 440.773 314.408 441.13 315.49C441.496 316.584 441.934 317.653 442.44 318.69C442.926 319.788 443.541 320.826 444.27 321.78C444.278 321.787 444.285 321.795 444.289 321.805C444.293 321.815 444.295 321.825 444.295 321.836C444.295 321.847 444.292 321.857 444.287 321.866C444.282 321.876 444.275 321.884 444.266 321.89C444.258 321.896 444.248 321.9 444.237 321.902C444.227 321.904 444.216 321.904 444.206 321.901C444.196 321.898 444.186 321.893 444.178 321.886C444.17 321.879 444.164 321.87 444.16 321.86C443.51 320.86 442.75 319.86 442.16 318.86C441.586 317.851 441.094 316.798 440.69 315.71C440.267 314.612 439.933 313.481 439.69 312.33C439.58 311.72 439.48 311.11 439.41 310.49C439.337 310.121 439.313 309.745 439.34 309.37C438.069 309.179 436.778 309.152 435.5 309.29C435.98 311.98 436.5 314.79 438 317.13C438.05 317.2 437.92 317.28 437.88 317.2C437.172 315.961 436.551 314.675 436.02 313.35C435.524 312.067 435.21 310.72 435.09 309.35C432.854 309.65 430.696 310.373 428.73 311.48C425.036 313.636 422.085 316.866 420.27 320.74C418.375 324.913 417.322 329.419 417.17 334C416.81 339.77 416.73 345.57 416.17 351.32C416.17 351.69 415.53 351.82 415.46 351.4C415.303 350.109 415.273 348.807 415.37 347.51Z" fill="#263238"/>
<path d="M428.06 309.93C428.421 309.491 428.838 309.101 429.3 308.77C429.75 308.4 430.21 308.04 430.7 307.71C431.649 307.059 432.7 306.572 433.81 306.27C433.9 306.27 433.94 306.39 433.81 306.41C432.689 306.691 431.639 307.205 430.73 307.92C430.27 308.26 429.83 308.62 429.4 308.99C429.023 309.394 428.6 309.753 428.14 310.06C428.125 310.06 428.11 310.056 428.097 310.048C428.083 310.041 428.072 310.03 428.064 310.017C428.056 310.004 428.052 309.989 428.051 309.974C428.05 309.959 428.053 309.944 428.06 309.93Z" fill="#263238"/>
<path d="M445.57 314C446.476 315.059 447.317 316.171 448.09 317.33C448.836 318.505 449.462 319.751 449.96 321.05C449.96 321.05 449.96 321.11 449.9 321.05C448.641 318.586 447.158 316.243 445.47 314.05C445.41 314 445.51 313.94 445.57 314Z" fill="#263238"/>
<path d="M416.14 317.76C416.14 317.76 408.37 307.99 393.37 311.45C379.11 314.74 372.53 340.88 386.94 344.01C401.35 347.14 398.8 323 404.05 318.84C407.91 315.83 413.44 316.48 416.14 317.76Z" fill="#FAC514"/>
<path d="M381.78 325.73C382.757 324.873 383.789 324.081 384.87 323.36C385.89 322.663 387 322.107 388.17 321.71C388.754 320.824 389.406 319.985 390.12 319.2C391.444 317.776 392.974 316.559 394.66 315.59H394.21C393.414 315.55 392.616 315.55 391.82 315.59C390.223 315.694 388.657 316.087 387.2 316.75C387.11 316.75 387.05 316.65 387.13 316.62C388.615 315.979 390.169 315.51 391.76 315.22C392.532 315.083 393.316 315.016 394.1 315.02C394.52 315.02 394.94 315.02 395.36 315.1H395.6C396.976 314.41 398.425 313.876 399.92 313.51L399.51 313.4C398.775 313.235 398.03 313.115 397.28 313.04C395.787 312.868 394.277 312.892 392.79 313.11C392.775 313.104 392.762 313.094 392.752 313.081C392.743 313.067 392.738 313.051 392.738 313.035C392.738 313.019 392.743 313.003 392.752 312.989C392.762 312.976 392.775 312.966 392.79 312.96C394.293 312.78 395.808 312.72 397.32 312.78C398.593 312.819 399.859 312.983 401.1 313.27C402.002 313.106 402.914 313.003 403.83 312.96C409.06 312.74 414.76 314.69 417.98 318.96C421.2 323.23 421.83 328.96 422.4 334.19C423.29 341.425 423.491 348.727 423 356C423 356.43 422.36 356.35 422.35 356C422.15 349.83 421.93 343.67 421.35 337.52C421.08 334.68 420.78 331.83 420.3 329.01C419.957 326.589 419.263 324.231 418.24 322.01C417.12 319.739 415.357 317.847 413.17 316.57C410.974 315.311 408.524 314.556 406 314.36C403.737 314.178 401.46 314.391 399.27 314.99C399.34 315.431 399.34 315.879 399.27 316.32C399.226 316.878 399.115 317.428 398.94 317.96C398.777 318.464 398.57 318.953 398.32 319.42C398.04 319.93 397.69 320.42 397.38 320.88C397.33 320.96 397.21 320.88 397.26 320.8C397.884 319.908 398.285 318.879 398.43 317.8C398.521 317.294 398.581 316.783 398.61 316.27C398.61 315.89 398.61 315.5 398.61 315.11C396.23 315.845 394.009 317.019 392.06 318.57C391.7 318.86 391.34 319.17 391 319.49C391.495 319.948 391.922 320.473 392.27 321.05C392.786 321.802 393.235 322.599 393.61 323.43C394.304 325.1 394.768 326.856 394.99 328.65C394.99 328.74 394.86 328.76 394.85 328.65C394.577 326.917 394.001 325.245 393.15 323.71C392.753 322.949 392.309 322.215 391.82 321.51C391.56 321.15 391.3 320.79 391.03 320.45C390.88 320.26 390.72 320.07 390.58 319.87C388.817 321.601 387.378 323.633 386.33 325.87C387.041 326.614 387.632 327.464 388.08 328.39C388.618 329.356 389.09 330.359 389.49 331.39C390.215 333.39 390.813 335.434 391.28 337.51C391.28 337.519 391.278 337.528 391.275 337.537C391.271 337.545 391.266 337.553 391.26 337.56C391.253 337.566 391.245 337.571 391.237 337.575C391.228 337.578 391.219 337.58 391.21 337.58C391.201 337.58 391.192 337.578 391.183 337.575C391.175 337.571 391.167 337.566 391.161 337.56C391.154 337.553 391.149 337.545 391.145 337.537C391.142 337.528 391.14 337.519 391.14 337.51C390.68 335.43 389.965 333.415 389.01 331.51C388.56 330.57 388.09 329.65 387.59 328.73C387.071 327.884 386.601 327.009 386.18 326.11C385.181 328.299 384.601 330.657 384.47 333.06C384.47 333.079 384.463 333.096 384.45 333.109C384.436 333.123 384.419 333.13 384.4 333.13C384.382 333.13 384.364 333.123 384.351 333.109C384.337 333.096 384.33 333.079 384.33 333.06C384.61 329.294 385.76 325.645 387.69 322.4C386.78 322.79 385.86 323.17 384.97 323.65C383.841 324.244 382.793 324.98 381.85 325.84C381.81 325.9 381.71 325.79 381.78 325.73Z" fill="#263238"/>
<path d="M392.78 326.28C393.23 327.76 393.78 329.2 394.2 330.7C394.618 332.134 394.843 333.617 394.87 335.11H394.8C394.396 332.112 393.676 329.166 392.65 326.32C392.645 326.311 392.641 326.301 392.64 326.29C392.639 326.28 392.641 326.269 392.645 326.259C392.649 326.249 392.655 326.24 392.662 326.233C392.67 326.226 392.679 326.22 392.69 326.217C392.7 326.214 392.71 326.213 392.721 326.215C392.731 326.217 392.741 326.221 392.75 326.227C392.759 326.233 392.766 326.241 392.771 326.25C392.776 326.259 392.779 326.269 392.78 326.28Z" fill="#263238"/>
<path d="M383.28 322.61C383.872 322.039 384.546 321.561 385.28 321.19C386.022 320.852 386.791 320.577 387.58 320.37C387.66 320.37 387.69 320.5 387.58 320.52C386.804 320.718 386.06 321.024 385.37 321.43C384.674 321.798 384.006 322.216 383.37 322.68L383.28 322.61Z" fill="#263238"/>
<path d="M408.75 304.71C408.75 304.71 407.32 287.16 394.27 281.48C383.38 276.73 377.14 288.97 384.84 296.48C391.07 302.52 401.06 299.79 408.75 304.71Z" fill="#FAC514"/>
<path d="M387.26 284.88C389.245 285.679 391.182 286.594 393.06 287.62C394.619 288.529 396.121 289.531 397.56 290.62C397.35 290.18 397.16 289.71 396.94 289.28C396.6 288.613 396.23 287.947 395.83 287.28C395.028 285.952 394.064 284.73 392.96 283.64C392.89 283.58 392.96 283.48 393.06 283.54C394.15 284.634 395.153 285.811 396.06 287.06C396.506 287.703 396.917 288.371 397.29 289.06C397.676 289.682 397.973 290.355 398.17 291.06L398.32 291.16C400.594 292.981 402.681 295.025 404.55 297.26C404.55 297.09 404.47 296.91 404.43 296.76C404.18 295.9 403.92 295.05 403.64 294.21C403.082 292.407 402.289 290.685 401.28 289.09C401.23 289.01 401.36 288.94 401.41 289.02C402.429 290.625 403.341 292.295 404.14 294.02C404.499 294.862 404.8 295.727 405.04 296.61C405.231 297.187 405.372 297.779 405.46 298.38C406.03 299.1 406.59 299.82 407.12 300.57C412.72 308.57 415.53 318.19 416.2 327.84C416.395 330.716 416.445 333.599 416.35 336.48C416.329 339.386 416.072 342.286 415.58 345.15C415.58 345.34 415.26 345.28 415.27 345.1C415.33 342.57 415.6 340.04 415.64 337.51C415.68 334.98 415.64 332.42 415.4 329.89C414.995 324.84 414.05 319.848 412.58 315C411.064 310.035 408.83 305.319 405.95 301C405.4 300.89 404.86 300.74 404.32 300.61L402.32 300.09C401.069 299.768 399.853 299.323 398.69 298.76C398.673 298.751 398.66 298.735 398.654 298.716C398.649 298.697 398.651 298.677 398.66 298.66C398.669 298.643 398.685 298.63 398.704 298.624C398.723 298.619 398.743 298.621 398.76 298.63C399.911 299.258 401.158 299.691 402.45 299.91C403.45 300.11 404.53 300.24 405.56 300.48C404.628 299.097 403.627 297.762 402.56 296.48C400.073 296.703 397.567 296.517 395.14 295.93C393.848 295.618 392.579 295.221 391.34 294.74C390.04 294.24 388.8 293.59 387.51 293.06C387.41 293.01 387.51 292.87 387.57 292.93C389.906 294.201 392.454 295.035 395.09 295.39C397.406 295.756 399.746 295.95 402.09 295.97C401.16 294.91 400.2 293.87 399.18 292.9C395.777 289.472 391.688 286.804 387.18 285.07C387.13 285 387.17 284.84 387.26 284.88Z" fill="#263238"/>
<path d="M397.87 284.93C398.459 285.671 398.993 286.453 399.47 287.27C399.959 288.128 400.345 289.041 400.62 289.99C400.62 289.99 400.62 290.04 400.57 289.99C400.13 289.13 399.77 288.24 399.33 287.38C398.898 286.535 398.375 285.74 397.77 285.01C397.71 285 397.81 284.86 397.87 284.93Z" fill="#263238"/>
<path d="M385.74 290.77C386.591 291.237 387.49 291.613 388.42 291.89C389.313 292.184 390.221 292.427 391.14 292.62V292.7C390.181 292.595 389.235 292.387 388.32 292.08C387.416 291.739 386.534 291.341 385.68 290.89C385.59 290.85 385.66 290.72 385.74 290.77Z" fill="#263238"/>
<path d="M418.89 301.55C418.97 302.31 420.89 295.18 431.89 288.85C441.89 283.11 453.89 268.16 444.05 258.72C436.12 251.09 415.23 267.71 418.89 301.55Z" fill="#FAC514"/>
<path d="M411.3 342.42C411.458 334.999 412.042 327.594 413.05 320.24C413.919 313.481 415.481 306.83 417.71 300.39C418.53 298.07 419.47 295.79 420.49 293.55C420.415 292.675 420.415 291.795 420.49 290.92C420.54 289.8 420.65 288.68 420.75 287.56C420.85 286.44 420.97 285.32 421.1 284.2C421.23 283.08 421.47 281.97 421.52 280.86C421.52 280.851 421.522 280.842 421.525 280.833C421.529 280.825 421.534 280.817 421.541 280.811C421.547 280.804 421.555 280.799 421.563 280.795C421.572 280.792 421.581 280.79 421.59 280.79C421.599 280.79 421.608 280.792 421.617 280.795C421.625 280.799 421.633 280.804 421.64 280.811C421.646 280.817 421.651 280.825 421.655 280.833C421.658 280.842 421.66 280.851 421.66 280.86C421.436 282.031 421.303 283.218 421.26 284.41C421.18 285.49 421.11 286.57 421.08 287.66C421.05 288.75 421.08 289.83 421.08 290.91C421.08 291.31 421.08 291.72 421.08 292.14C422.08 289.95 423.23 287.79 424.43 285.69C423.68 281.12 424.65 276.34 425.59 271.86C425.59 271.77 425.74 271.86 425.72 271.91C425.266 274.243 425.025 276.613 425 278.99C425 280.87 425 282.75 425.05 284.63L425.85 283.28C427.28 280.95 428.85 278.66 430.43 276.44C430.301 275.354 430.339 274.255 430.54 273.18C430.721 271.976 430.989 270.786 431.34 269.62C431.687 268.45 432.094 267.298 432.56 266.17C433.04 265.01 433.67 263.92 434.13 262.75C434.13 262.66 434.32 262.75 434.26 262.81C433.679 263.911 433.216 265.071 432.88 266.27C432.516 267.395 432.215 268.541 431.98 269.7C431.75 270.86 431.56 272.03 431.39 273.2C431.29 273.98 431.22 274.78 431.08 275.56C433.444 272.383 436.027 269.376 438.81 266.56C438.87 266.49 438.97 266.56 438.9 266.66C434.712 271.416 430.976 276.552 427.74 282L427.39 282.61C427.99 282.23 428.69 281.93 429.26 281.61C430.33 281.01 431.4 280.42 432.48 279.84C433.56 279.26 434.57 278.71 435.6 278.13C436.14 277.84 436.67 277.53 437.21 277.25C437.859 276.968 438.485 276.633 439.08 276.25C439.16 276.19 439.25 276.32 439.16 276.37C438.1 276.95 437.16 277.82 436.16 278.47C435.16 279.12 434.08 279.76 433.01 280.36C431.01 281.45 428.92 282.24 427.01 283.36C425.67 285.71 424.44 288.11 423.3 290.56C424.47 289.81 425.67 289.1 426.88 288.42C427.66 287.98 428.45 287.55 429.24 287.13C430.027 286.765 430.771 286.316 431.46 285.79C431.53 285.73 431.63 285.79 431.56 285.89C430.272 287.043 428.849 288.033 427.32 288.84C425.9 289.67 424.47 290.47 423 291.19C421.82 293.77 420.75 296.41 419.81 299.08C415.16 312.23 413.46 326.18 412.64 340.08C412.4 344.21 412.28 348.34 412.22 352.48C412.16 356.62 412.39 360.74 412.38 364.87C412.38 364.99 412.18 365.02 412.16 364.87C411.67 361.2 411.58 357.48 411.42 353.79C411.26 350.1 411.22 346.18 411.3 342.42Z" fill="#263238"/>
<path d="M431.34 282.91C433.354 282.034 435.312 281.032 437.2 279.91C439.116 278.835 440.972 277.656 442.76 276.38C442.76 276.38 442.83 276.38 442.76 276.38C441.071 277.751 439.286 279.001 437.42 280.12C435.482 281.209 433.478 282.177 431.42 283.02C431.32 283.07 431.25 283 431.34 282.91Z" fill="#263238"/>
<path d="M428.14 268.05C428.31 267.41 428.51 266.78 428.72 266.15V266.08C428.86 265.73 429 265.37 429.15 265.02C429.15 265.02 429.15 264.93 429.2 264.89C429.25 264.85 429.25 264.76 429.28 264.69C429.31 264.62 429.33 264.69 429.28 264.69C429.23 264.69 429.21 264.94 429.17 265.06C429.155 265.128 429.135 265.195 429.11 265.26C428.383 267.713 427.838 270.217 427.48 272.75C427.48 272.83 427.34 272.83 427.35 272.75C427.463 271.162 427.727 269.588 428.14 268.05Z" fill="#263238"/>
<path d="M399.65 345.09L400.43 354.42L402.84 382.87H428.65L431.06 354.42L431.85 345.09H399.65Z" fill="#455A64"/>
<path d="M399.65 345.09L400.43 354.42H431.06L431.85 345.09H399.65Z" fill="#263238"/>
<path d="M397.11 350.3H434.38V341.35H397.11V350.3Z" fill="#455A64"/>
<path d="M362.4 59.66H137.77C132.131 59.66 127.56 64.2312 127.56 69.87V415.91C127.56 421.549 132.131 426.12 137.77 426.12H362.4C368.039 426.12 372.61 421.549 372.61 415.91V69.87C372.61 64.2312 368.039 59.66 362.4 59.66Z" fill="#455A64"/>
<path d="M362.26 85.54H138.03V400.96H362.26V85.54Z" fill="white"/>
<path d="M276.68 75.42V74.11C276.68 73.4197 276.121 72.86 275.43 72.86H224.57C223.88 72.86 223.32 73.4197 223.32 74.11V75.42C223.32 76.1104 223.88 76.67 224.57 76.67H275.43C276.121 76.67 276.68 76.1104 276.68 75.42Z" fill="#37474F"/>
<path d="M250 421.68C248.633 421.682 247.296 421.278 246.158 420.52C245.021 419.762 244.133 418.684 243.609 417.421C243.084 416.159 242.946 414.769 243.212 413.428C243.477 412.087 244.134 410.855 245.1 409.887C246.066 408.92 247.298 408.261 248.638 407.993C249.979 407.726 251.369 407.862 252.632 408.385C253.895 408.908 254.975 409.793 255.735 410.93C256.495 412.067 256.9 413.403 256.9 414.77C256.9 416.601 256.173 418.357 254.88 419.653C253.586 420.948 251.831 421.677 250 421.68Z" fill="#37474F"/>
<path opacity="0.6" d="M172.51 366.16C172.51 367.313 172.168 368.44 171.528 369.399C170.887 370.358 169.976 371.105 168.911 371.546C167.846 371.987 166.674 372.103 165.543 371.878C164.412 371.653 163.373 371.098 162.558 370.282C161.742 369.467 161.187 368.428 160.962 367.297C160.737 366.166 160.853 364.994 161.294 363.929C161.735 362.864 162.482 361.953 163.441 361.312C164.4 360.672 165.527 360.33 166.68 360.33C168.226 360.33 169.709 360.944 170.803 362.038C171.896 363.131 172.51 364.614 172.51 366.16Z" fill="#FAC514"/>
<path opacity="0.6" d="M179.59 355C179.59 355.562 179.424 356.111 179.112 356.578C178.799 357.045 178.356 357.409 177.837 357.624C177.318 357.839 176.747 357.895 176.196 357.785C175.645 357.676 175.139 357.405 174.742 357.008C174.345 356.611 174.074 356.105 173.965 355.554C173.855 355.003 173.911 354.432 174.126 353.913C174.341 353.394 174.705 352.951 175.172 352.639C175.639 352.327 176.188 352.16 176.75 352.16C177.503 352.16 178.226 352.459 178.758 352.992C179.291 353.524 179.59 354.247 179.59 355Z" fill="#FAC514"/>
<path opacity="0.6" d="M304.28 363.34C304.28 363.902 304.114 364.451 303.801 364.918C303.489 365.385 303.046 365.749 302.527 365.964C302.008 366.179 301.437 366.235 300.886 366.125C300.335 366.016 299.829 365.745 299.432 365.348C299.035 364.951 298.764 364.445 298.655 363.894C298.545 363.343 298.601 362.772 298.816 362.253C299.031 361.734 299.395 361.291 299.862 360.979C300.329 360.667 300.878 360.5 301.44 360.5C302.193 360.5 302.916 360.799 303.448 361.332C303.981 361.864 304.28 362.587 304.28 363.34Z" fill="#FAC514"/>
<path opacity="0.6" d="M361.15 389.27C361.15 389.832 360.983 390.381 360.671 390.848C360.359 391.315 359.916 391.679 359.397 391.894C358.878 392.109 358.307 392.165 357.756 392.055C357.205 391.946 356.699 391.675 356.302 391.278C355.905 390.881 355.634 390.375 355.525 389.824C355.415 389.273 355.471 388.702 355.686 388.183C355.901 387.664 356.265 387.221 356.732 386.909C357.199 386.597 357.748 386.43 358.31 386.43C359.063 386.43 359.786 386.729 360.318 387.262C360.851 387.794 361.15 388.517 361.15 389.27Z" fill="#FAC514"/>
<path opacity="0.6" d="M356.8 397.57C356.8 398.469 356.443 399.331 355.807 399.967C355.171 400.603 354.309 400.96 353.41 400.96H142.25C141.79 400.985 141.33 400.916 140.897 400.757C140.465 400.598 140.069 400.353 139.735 400.036C139.4 399.72 139.134 399.338 138.952 398.915C138.77 398.492 138.676 398.036 138.676 397.575C138.676 397.114 138.77 396.658 138.952 396.235C139.134 395.812 139.4 395.43 139.735 395.114C140.069 394.797 140.465 394.552 140.897 394.393C141.33 394.234 141.79 394.165 142.25 394.19C142.519 394.19 142.788 394.22 143.05 394.28C143.053 392.955 143.451 391.66 144.192 390.561C144.933 389.462 145.984 388.609 147.212 388.109C148.44 387.61 149.788 387.486 151.086 387.756C152.384 388.025 153.572 388.674 154.5 389.62H154.56C154.56 389.21 154.5 388.79 154.5 388.37C154.495 386.226 155.036 384.116 156.072 382.239C157.108 380.362 158.606 378.78 160.423 377.643C162.24 376.505 164.317 375.849 166.458 375.736C168.599 375.624 170.734 376.059 172.66 377C172.801 374.965 173.628 373.039 175.007 371.536C176.386 370.033 178.234 369.043 180.249 368.728C182.264 368.413 184.326 368.792 186.098 369.802C187.87 370.813 189.245 372.395 190 374.29C191.132 372.482 192.705 370.992 194.572 369.96C196.438 368.928 198.537 368.387 200.67 368.39C201.479 368.395 202.285 368.472 203.08 368.62C202.907 367.653 202.82 366.672 202.82 365.69C202.818 362.422 203.755 359.223 205.519 356.472C207.283 353.721 209.799 351.535 212.77 350.173C215.74 348.811 219.039 348.331 222.274 348.79C225.51 349.248 228.545 350.626 231.02 352.76C231.304 352.208 231.734 351.745 232.263 351.42C232.792 351.096 233.4 350.923 234.02 350.92C234.466 350.923 234.907 351.011 235.32 351.18L238.49 224.55H257.09L260.26 351.18C260.673 351.011 261.114 350.923 261.56 350.92C262.18 350.924 262.788 351.097 263.317 351.422C263.845 351.746 264.275 352.209 264.56 352.76C267.035 350.626 270.07 349.248 273.306 348.79C276.541 348.331 279.84 348.811 282.81 350.173C285.781 351.535 288.298 353.721 290.061 356.472C291.825 359.223 292.762 362.422 292.76 365.69C292.76 366.672 292.673 367.653 292.5 368.62C293.295 368.472 294.102 368.395 294.91 368.39C297.043 368.388 299.141 368.929 301.008 369.961C302.874 370.993 304.448 372.483 305.58 374.29C306.305 372.349 307.677 370.718 309.465 369.672C311.253 368.626 313.347 368.228 315.394 368.547C317.441 368.865 319.316 369.88 320.701 371.42C322.087 372.96 322.899 374.931 323 377C324.923 376.061 327.052 375.626 329.189 375.736C331.326 375.846 333.4 376.497 335.216 377.629C337.032 378.761 338.53 380.336 339.57 382.206C340.61 384.076 341.157 386.18 341.16 388.32C341.16 388.74 341.16 389.16 341.1 389.57H341.16C342.088 388.624 343.276 387.975 344.574 387.705C345.872 387.436 347.221 387.56 348.448 388.059C349.676 388.559 350.727 389.412 351.468 390.511C352.209 391.61 352.607 392.905 352.61 394.23C352.872 394.169 353.141 394.139 353.41 394.14C353.859 394.14 354.303 394.229 354.717 394.402C355.131 394.575 355.506 394.828 355.821 395.147C356.137 395.466 356.386 395.844 356.554 396.26C356.722 396.676 356.805 397.121 356.8 397.57Z" fill="#FAC514"/>
<path d="M214.17 144.23L178.68 182.93C178.68 182.93 214.2 264.17 214.17 264.73L209.17 197.05L220.17 185.72L214.17 144.23Z" fill="#FAC514"/>
<path opacity="0.1" d="M214.17 144.23L178.68 182.93C178.68 182.93 214.2 264.17 214.17 264.73L209.17 197.05L220.17 185.72L214.17 144.23Z" fill="black"/>
<path opacity="0.1" d="M220.09 185.71L212.6 193.46L198.41 161.4L214.17 144.22L220.09 185.71Z" fill="black"/>
<path d="M281.75 144.23L317.24 182.93C317.24 182.93 281.71 264.17 281.75 264.73L286.8 197.05L275.8 185.72L281.75 144.23Z" fill="#FAC514"/>
<path opacity="0.1" d="M281.75 144.23L317.24 182.93C317.24 182.93 281.71 264.17 281.75 264.73L286.8 197.05L275.8 185.72L281.75 144.23Z" fill="black"/>
<path opacity="0.1" d="M275.82 185.71L283.32 193.46L297.51 161.4L281.75 144.22L275.82 185.71Z" fill="black"/>
<path d="M268.49 212.19H227.33C227.33 212.19 207.94 177.53 210.24 136.19C211.4 115.56 216.79 94.79 223.24 77.6C232.21 53.83 243.25 37 248 37C252.75 37 263.8 53.85 272.71 77.61C279.16 94.8 284.52 115.61 285.65 136.22C287.92 177.55 268.49 212.19 268.49 212.19Z" fill="#EBEBEB"/>
<path opacity="0.2" d="M272.6 130.87C272.598 135.566 271.204 140.155 268.593 144.059C265.982 147.962 262.273 151.003 257.933 152.798C253.594 154.592 248.82 155.06 244.215 154.141C239.61 153.222 235.381 150.959 232.063 147.636C228.745 144.314 226.486 140.082 225.573 135.475C224.66 130.869 225.134 126.096 226.934 121.759C228.734 117.422 231.78 113.716 235.686 111.11C239.593 108.505 244.184 107.116 248.88 107.12C251.998 107.12 255.084 107.735 257.964 108.928C260.844 110.122 263.46 111.872 265.663 114.078C267.866 116.284 269.613 118.902 270.803 121.784C271.993 124.665 272.604 127.753 272.6 130.87Z" fill="black"/>
<path d="M271.76 128.45C271.758 133.144 270.365 137.732 267.756 141.634C265.147 145.537 261.44 148.578 257.103 150.374C252.766 152.17 247.994 152.64 243.39 151.724C238.786 150.809 234.557 148.549 231.237 145.23C227.917 141.912 225.655 137.684 224.738 133.08C223.82 128.476 224.288 123.704 226.082 119.367C227.876 115.029 230.916 111.32 234.817 108.71C238.718 106.099 243.306 104.704 248 104.7C251.12 104.697 254.21 105.31 257.093 106.502C259.977 107.695 262.597 109.444 264.803 111.65C267.01 113.856 268.76 116.475 269.954 119.357C271.148 122.24 271.761 125.33 271.76 128.45Z" fill="#FAC514"/>
<path opacity="0.1" d="M271.76 128.45C271.758 133.144 270.365 137.732 267.756 141.634C265.147 145.537 261.44 148.578 257.103 150.374C252.766 152.17 247.994 152.64 243.39 151.724C238.786 150.809 234.557 148.549 231.237 145.23C227.917 141.912 225.655 137.684 224.738 133.08C223.82 128.476 224.288 123.704 226.082 119.367C227.876 115.029 230.916 111.32 234.817 108.71C238.718 106.099 243.306 104.704 248 104.7C251.12 104.697 254.21 105.31 257.093 106.502C259.977 107.695 262.597 109.444 264.803 111.65C267.01 113.856 268.76 116.475 269.954 119.357C271.148 122.24 271.761 125.33 271.76 128.45Z" fill="black"/>
<path d="M264.48 128.43C264.486 131.686 263.526 134.87 261.722 137.581C259.918 140.291 257.35 142.406 254.344 143.657C251.338 144.908 248.029 145.239 244.835 144.609C241.64 143.979 238.705 142.415 236.399 140.117C234.093 137.818 232.521 134.887 231.881 131.694C231.241 128.502 231.563 125.192 232.804 122.182C234.046 119.172 236.153 116.598 238.858 114.786C241.563 112.973 244.744 112.004 248 112C252.364 111.995 256.551 113.722 259.641 116.803C262.732 119.884 264.472 124.066 264.48 128.43Z" fill="#455A64"/>
<g opacity="0.4">
<path d="M264.49 128.43C264.494 130.482 264.114 132.517 263.37 134.43L254 143.78C252.087 144.523 250.052 144.9 248 144.89C246.512 144.892 245.031 144.687 243.6 144.28L263.88 124C264.285 125.442 264.491 126.932 264.49 128.43Z" fill="white"/>
<path d="M250.44 112.15L231.74 130.85C231.625 130.052 231.565 129.247 231.56 128.44C231.568 124.082 233.303 119.905 236.384 116.824C239.465 113.743 243.642 112.008 248 112C248.816 111.993 249.631 112.043 250.44 112.15Z" fill="white"/>
<path d="M262.43 120.46L240.06 142.83C239.625 142.598 239.204 142.341 238.8 142.06L261.65 119.2C261.93 119.6 262.18 120 262.43 120.46Z" fill="white"/>
</g>
<path d="M272.75 77.61H223.28C232.21 53.83 243.25 37 248 37C252.75 37 263.84 53.85 272.75 77.61Z" fill="#FAC514"/>
<g opacity="0.1">
<path d="M231.8 72.47C231.8 72.7449 231.719 73.0136 231.566 73.2422C231.413 73.4708 231.196 73.649 230.942 73.7542C230.688 73.8594 230.408 73.8869 230.139 73.8333C229.869 73.7796 229.622 73.6473 229.427 73.4529C229.233 73.2585 229.1 73.0108 229.047 72.7412C228.993 72.4715 229.021 72.1921 229.126 71.9381C229.231 71.6841 229.409 71.467 229.638 71.3142C229.866 71.1615 230.135 71.08 230.41 71.08C230.593 71.0787 230.774 71.1137 230.944 71.1831C231.113 71.2525 231.267 71.3548 231.396 71.4841C231.525 71.6135 231.628 71.7672 231.697 71.9365C231.766 72.1057 231.801 72.2871 231.8 72.47Z" fill="black"/>
<path d="M240.6 72.47C240.602 72.7458 240.522 73.0159 240.37 73.246C240.218 73.4761 240.001 73.6558 239.747 73.7623C239.492 73.8687 239.212 73.8971 238.941 73.8437C238.671 73.7904 238.422 73.6578 238.227 73.4629C238.032 73.2679 237.9 73.0193 237.846 72.7487C237.793 72.4781 237.821 72.1978 237.928 71.9434C238.034 71.689 238.214 71.4721 238.444 71.3201C238.674 71.1681 238.944 71.088 239.22 71.09C239.585 71.0926 239.935 71.2389 240.193 71.4971C240.451 71.7553 240.597 72.1048 240.6 72.47Z" fill="black"/>
<path d="M249.4 72.48C249.401 72.6638 249.366 72.8459 249.296 73.0158C249.226 73.1857 249.123 73.34 248.992 73.4694C248.862 73.5989 248.707 73.701 248.537 73.7698C248.366 73.8386 248.184 73.8727 248 73.87C247.725 73.872 247.455 73.7921 247.225 73.6406C246.995 73.4891 246.816 73.2727 246.709 73.0189C246.602 72.7651 246.573 72.4853 246.626 72.215C246.678 71.9447 246.81 71.6961 247.004 71.5007C247.198 71.3053 247.445 71.1719 247.715 71.1175C247.985 71.063 248.265 71.09 248.52 71.1949C248.774 71.2998 248.992 71.4779 249.145 71.7067C249.298 71.9355 249.38 72.2047 249.38 72.48H249.4Z" fill="black"/>
<path d="M258.2 72.49C258.2 72.7653 258.118 73.0345 257.965 73.2633C257.812 73.4921 257.594 73.6702 257.34 73.7751C257.085 73.88 256.805 73.9069 256.535 73.8525C256.265 73.798 256.017 73.6647 255.824 73.4693C255.63 73.2739 255.498 73.0253 255.445 72.755C255.393 72.4847 255.422 72.2049 255.529 71.9511C255.635 71.6973 255.815 71.4809 256.045 71.3294C256.275 71.1778 256.545 71.098 256.82 71.1C257.002 71.1 257.182 71.136 257.35 71.206C257.518 71.276 257.671 71.3785 257.799 71.5077C257.928 71.6369 258.029 71.7902 258.098 71.9588C258.167 72.1274 258.201 72.3079 258.2 72.49Z" fill="black"/>
<path d="M267 72.49C267.002 72.7657 266.922 73.0359 266.77 73.266C266.618 73.4961 266.401 73.6758 266.147 73.7822C265.892 73.8887 265.612 73.917 265.341 73.8637C265.071 73.8104 264.822 73.6778 264.627 73.4828C264.432 73.2878 264.3 73.0393 264.246 72.7687C264.193 72.4981 264.221 72.2178 264.328 71.9634C264.434 71.709 264.614 71.492 264.844 71.3401C265.074 71.1881 265.344 71.108 265.62 71.11C265.986 71.11 266.337 71.2554 266.596 71.5142C266.855 71.773 267 72.124 267 72.49Z" fill="black"/>
</g>
<path d="M231.74 205.84C231.74 206.115 231.658 206.384 231.505 206.613C231.352 206.842 231.134 207.02 230.88 207.125C230.625 207.23 230.345 207.257 230.075 207.203C229.805 207.148 229.558 207.015 229.364 206.819C229.17 206.624 229.038 206.375 228.985 206.105C228.933 205.835 228.962 205.555 229.069 205.301C229.175 205.047 229.355 204.831 229.585 204.679C229.815 204.528 230.085 204.448 230.36 204.45C230.542 204.45 230.722 204.486 230.89 204.556C231.058 204.626 231.211 204.729 231.339 204.858C231.468 204.987 231.569 205.14 231.638 205.309C231.707 205.477 231.741 205.658 231.74 205.84Z" fill="#FAC514"/>
<path d="M240.54 205.84C240.542 206.116 240.462 206.386 240.31 206.616C240.158 206.846 239.941 207.026 239.687 207.132C239.432 207.239 239.152 207.267 238.881 207.214C238.611 207.16 238.362 207.028 238.167 206.833C237.972 206.638 237.84 206.389 237.786 206.119C237.733 205.848 237.761 205.568 237.868 205.313C237.974 205.059 238.154 204.842 238.384 204.69C238.614 204.538 238.884 204.458 239.16 204.46C239.526 204.46 239.877 204.605 240.136 204.864C240.395 205.123 240.54 205.474 240.54 205.84Z" fill="#FAC514"/>
<path d="M249.34 205.85C249.34 206.125 249.258 206.394 249.105 206.623C248.952 206.852 248.734 207.03 248.48 207.135C248.225 207.24 247.945 207.267 247.675 207.212C247.405 207.158 247.158 207.025 246.964 206.829C246.77 206.634 246.638 206.385 246.586 206.115C246.533 205.845 246.562 205.565 246.669 205.311C246.776 205.057 246.955 204.841 247.185 204.689C247.415 204.538 247.685 204.458 247.96 204.46C248.142 204.46 248.322 204.496 248.49 204.566C248.659 204.636 248.811 204.739 248.939 204.868C249.068 204.997 249.169 205.15 249.238 205.319C249.307 205.487 249.341 205.668 249.34 205.85Z" fill="#FAC514"/>
<path d="M258.15 205.85C258.152 206.125 258.072 206.395 257.921 206.625C257.769 206.855 257.553 207.035 257.299 207.141C257.045 207.248 256.765 207.277 256.495 207.224C256.225 207.172 255.976 207.04 255.781 206.846C255.585 206.652 255.452 206.405 255.398 206.135C255.343 205.865 255.37 205.585 255.475 205.33C255.58 205.076 255.758 204.858 255.987 204.705C256.216 204.552 256.485 204.47 256.76 204.47C257.127 204.47 257.479 204.615 257.739 204.874C258 205.132 258.147 205.483 258.15 205.85Z" fill="#FAC514"/>
<path d="M267 205.86C267.016 206.052 266.993 206.245 266.931 206.427C266.868 206.609 266.769 206.776 266.639 206.918C266.509 207.06 266.35 207.173 266.174 207.25C265.998 207.328 265.808 207.368 265.615 207.368C265.423 207.368 265.232 207.328 265.056 207.25C264.88 207.173 264.722 207.06 264.591 206.918C264.461 206.776 264.362 206.609 264.3 206.427C264.237 206.245 264.214 206.052 264.23 205.86C264.229 205.678 264.264 205.498 264.332 205.33C264.401 205.162 264.503 205.01 264.631 204.881C264.76 204.753 264.912 204.651 265.08 204.582C265.248 204.513 265.428 204.479 265.61 204.48C265.792 204.479 265.973 204.513 266.141 204.582C266.31 204.651 266.463 204.752 266.592 204.881C266.722 205.009 266.824 205.162 266.894 205.33C266.964 205.498 267 205.678 267 205.86Z" fill="#FAC514"/>
<path d="M264.69 224.56L231.22 224.54L229.66 212.17L266.27 212.2L264.69 224.56Z" fill="#FAC514"/>
<path opacity="0.1" d="M264.69 224.56L231.22 224.54L229.66 212.17L266.27 212.2L264.69 224.56Z" fill="black"/>
<path opacity="0.1" d="M266.27 212.2L265.49 218.22L230.25 216.9L229.66 212.17L266.27 212.2Z" fill="black"/>
<path d="M300.31 371.43L296.16 372.2L295.23 376.57L294.3 372.2L290.16 371.43L294.29 370.42L295.23 366.29L296.18 370.42L300.31 371.43Z" fill="#FCFCFC"/>
<path d="M259.96 336.37L255.81 337.13L254.89 341.51L253.96 337.13L249.81 336.37L253.94 335.36L254.89 331.23L255.83 335.36L259.96 336.37Z" fill="#FCFCFC"/>
<path d="M246.08 232.38L241.93 233.15L241 237.52L240.07 233.15L235.93 232.38L240.06 231.37L241 227.24L241.95 231.37L246.08 232.38Z" fill="#FCFCFC"/>
<path d="M199.68 379.76L197.37 380.19L196.85 382.63L196.33 380.19L194.01 379.76L196.32 379.19L196.85 376.88L197.38 379.19L199.68 379.76Z" fill="#FCFCFC"/>
<path d="M324.42 387.05L322.1 387.48L321.59 389.92L321.07 387.48L318.75 387.05L321.06 386.48L321.59 384.17L322.11 386.48L324.42 387.05Z" fill="#FCFCFC"/>
<path d="M167.78 395.61L165.46 396.04L164.94 398.49L164.43 396.04L162.11 395.61L164.41 395.05L164.94 392.74L165.47 395.05L167.78 395.61Z" fill="#FCFCFC"/>
<path d="M268.62 393.58L266.3 394.01L265.79 396.45L265.27 394.01L262.95 393.58L265.26 393.01L265.79 390.71L266.31 393.01L268.62 393.58Z" fill="#FCFCFC"/>
<path d="M251.65 329.72L249.33 330.15L248.81 332.59L248.29 330.15L245.98 329.72L248.28 329.16L248.81 326.85L249.34 329.16L251.65 329.72Z" fill="#FCFCFC"/>
<path d="M257.88 266.44L255.56 266.87L255.04 269.31L254.52 266.87L252.21 266.44L254.51 265.88L255.04 263.57L255.57 265.88L257.88 266.44Z" fill="#FCFCFC"/>
<path d="M329.91 392.33C329.745 392.35 329.594 392.43 329.483 392.554C329.373 392.679 329.312 392.839 329.312 393.005C329.312 393.171 329.373 393.331 329.483 393.456C329.594 393.58 329.745 393.66 329.91 393.68C330.075 393.66 330.227 393.58 330.337 393.456C330.447 393.331 330.508 393.171 330.508 393.005C330.508 392.839 330.447 392.679 330.337 392.554C330.227 392.43 330.075 392.35 329.91 392.33Z" fill="#FCFCFC"/>
<path d="M242.68 321.24C242.515 321.26 242.363 321.34 242.253 321.464C242.143 321.589 242.082 321.749 242.082 321.915C242.082 322.081 242.143 322.241 242.253 322.366C242.363 322.49 242.515 322.57 242.68 322.59C242.845 322.57 242.997 322.49 243.107 322.366C243.217 322.241 243.278 322.081 243.278 321.915C243.278 321.749 243.217 321.589 243.107 321.464C242.997 321.34 242.845 321.26 242.68 321.24Z" fill="#FCFCFC"/>
<path d="M253.87 236.85C253.692 236.85 253.522 236.921 253.396 237.046C253.271 237.172 253.2 237.342 253.2 237.52C253.2 237.698 253.271 237.868 253.396 237.994C253.522 238.119 253.692 238.19 253.87 238.19C254.048 238.19 254.218 238.119 254.344 237.994C254.47 237.868 254.54 237.698 254.54 237.52C254.54 237.342 254.47 237.172 254.344 237.046C254.218 236.921 254.048 236.85 253.87 236.85Z" fill="#FCFCFC"/>
<path d="M185.34 395.61C185.175 395.63 185.023 395.71 184.913 395.834C184.803 395.959 184.742 396.119 184.742 396.285C184.742 396.451 184.803 396.611 184.913 396.736C185.023 396.86 185.175 396.94 185.34 396.96C185.505 396.94 185.657 396.86 185.767 396.736C185.877 396.611 185.938 396.451 185.938 396.285C185.938 396.119 185.877 395.959 185.767 395.834C185.657 395.71 185.505 395.63 185.34 395.61Z" fill="#FCFCFC"/>
<path d="M227.93 386.38C227.752 386.38 227.582 386.451 227.456 386.576C227.331 386.702 227.26 386.872 227.26 387.05C227.26 387.228 227.331 387.398 227.456 387.524C227.582 387.649 227.752 387.72 227.93 387.72C228.108 387.72 228.278 387.649 228.404 387.524C228.529 387.398 228.6 387.228 228.6 387.05C228.6 386.872 228.529 386.702 228.404 386.576C228.278 386.451 228.108 386.38 227.93 386.38Z" fill="#FCFCFC"/>
<path d="M313.07 380.25C312.956 380.267 312.852 380.324 312.776 380.411C312.701 380.498 312.659 380.61 312.659 380.725C312.659 380.84 312.701 380.952 312.776 381.039C312.852 381.126 312.956 381.183 313.07 381.2C313.184 381.183 313.289 381.126 313.364 381.039C313.439 380.952 313.481 380.84 313.481 380.725C313.481 380.61 313.439 380.498 313.364 380.411C313.289 380.324 313.184 380.267 313.07 380.25Z" fill="#FCFCFC"/>
<path d="M254.33 373.12C254.216 373.137 254.112 373.194 254.036 373.281C253.961 373.368 253.919 373.48 253.919 373.595C253.919 373.71 253.961 373.822 254.036 373.909C254.112 373.996 254.216 374.053 254.33 374.07C254.444 374.053 254.549 373.996 254.624 373.909C254.699 373.822 254.741 373.71 254.741 373.595C254.741 373.48 254.699 373.368 254.624 373.281C254.549 373.194 254.444 373.137 254.33 373.12Z" fill="#FCFCFC"/>
<path d="M246 252.53C245.886 252.547 245.782 252.604 245.706 252.691C245.631 252.778 245.589 252.89 245.589 253.005C245.589 253.12 245.631 253.232 245.706 253.319C245.782 253.406 245.886 253.463 246 253.48C246.114 253.463 246.218 253.406 246.294 253.319C246.369 253.232 246.411 253.12 246.411 253.005C246.411 252.89 246.369 252.778 246.294 252.691C246.218 252.604 246.114 252.547 246 252.53Z" fill="#FCFCFC"/>
<path d="M211.33 363.83C211.216 363.847 211.112 363.904 211.036 363.991C210.961 364.078 210.919 364.19 210.919 364.305C210.919 364.42 210.961 364.532 211.036 364.619C211.112 364.706 211.216 364.763 211.33 364.78C211.444 364.763 211.549 364.706 211.624 364.619C211.699 364.532 211.741 364.42 211.741 364.305C211.741 364.19 211.699 364.078 211.624 363.991C211.549 363.904 211.444 363.847 211.33 363.83Z" fill="#FCFCFC"/>
<path d="M284.9 365.77C284.558 365.77 284.23 365.906 283.988 366.148C283.746 366.39 283.61 366.718 283.61 367.06C283.61 367.402 283.746 367.73 283.988 367.972C284.23 368.214 284.558 368.35 284.9 368.35C285.242 368.35 285.57 368.214 285.812 367.972C286.054 367.73 286.19 367.402 286.19 367.06C286.19 366.718 286.054 366.39 285.812 366.148C285.57 365.906 285.242 365.77 284.9 365.77Z" fill="#FCFCFC"/>
<path d="M217.42 359.46C217.078 359.46 216.75 359.596 216.508 359.838C216.266 360.08 216.13 360.408 216.13 360.75C216.13 361.092 216.266 361.42 216.508 361.662C216.75 361.904 217.078 362.04 217.42 362.04C217.762 362.04 218.09 361.904 218.332 361.662C218.574 361.42 218.71 361.092 218.71 360.75C218.71 360.408 218.574 360.08 218.332 359.838C218.09 359.596 217.762 359.46 217.42 359.46Z" fill="#FCFCFC"/>
<path d="M248.81 281.69C248.468 281.69 248.14 281.826 247.898 282.068C247.656 282.31 247.52 282.638 247.52 282.98C247.52 283.322 247.656 283.65 247.898 283.892C248.14 284.134 248.468 284.27 248.81 284.27C249.152 284.27 249.48 284.134 249.722 283.892C249.964 283.65 250.1 283.322 250.1 282.98C250.1 282.638 249.964 282.31 249.722 282.068C249.48 281.826 249.152 281.69 248.81 281.69Z" fill="#FCFCFC"/>
<path d="M293.78 337.54H206.24V364.53H293.78V337.54Z" fill="#37474F"/>
<path d="M231 347.87C230.853 347.718 230.688 347.584 230.51 347.47C230.273 347.316 230.022 347.185 229.76 347.08C229.456 346.952 229.142 346.852 228.82 346.78C228.492 346.703 228.157 346.663 227.82 346.66C227.201 346.613 226.584 346.768 226.06 347.1C225.878 347.241 225.731 347.423 225.634 347.632C225.537 347.841 225.491 348.07 225.5 348.3C225.491 348.552 225.553 348.802 225.68 349.02C225.819 349.221 226.004 349.386 226.22 349.5C226.514 349.661 226.826 349.785 227.15 349.87C227.51 349.98 227.94 350.09 228.44 350.22C228.993 350.345 229.538 350.505 230.07 350.7C230.514 350.856 230.932 351.079 231.31 351.36C231.638 351.61 231.904 351.932 232.09 352.3C232.281 352.731 232.373 353.199 232.36 353.67C232.377 354.21 232.261 354.746 232.02 355.23C231.799 355.658 231.476 356.026 231.08 356.3C230.659 356.579 230.192 356.782 229.7 356.9C229.143 357.031 228.572 357.095 228 357.09C227.11 357.096 226.225 356.958 225.38 356.68C224.551 356.42 223.775 356.014 223.09 355.48L223.94 353.87C224.134 354.053 224.345 354.217 224.57 354.36C224.886 354.558 225.221 354.722 225.57 354.85C225.952 355.013 226.347 355.143 226.75 355.24C227.182 355.349 227.625 355.403 228.07 355.4C228.669 355.434 229.265 355.299 229.79 355.01C229.984 354.892 230.143 354.724 230.248 354.523C230.354 354.322 230.403 354.097 230.39 353.87C230.398 353.602 230.317 353.338 230.16 353.12C229.988 352.899 229.77 352.718 229.52 352.59C229.201 352.42 228.866 352.283 228.52 352.18L227.15 351.79C226.624 351.658 226.107 351.494 225.6 351.3C225.201 351.153 224.829 350.94 224.5 350.67C224.222 350.431 223.994 350.139 223.83 349.81C223.672 349.43 223.597 349.021 223.61 348.61C223.6 348.072 223.713 347.538 223.94 347.05C224.161 346.608 224.474 346.219 224.86 345.91C225.267 345.592 225.733 345.358 226.23 345.22C226.785 345.055 227.361 344.974 227.94 344.98C228.701 344.973 229.457 345.105 230.17 345.37C230.807 345.603 231.41 345.923 231.96 346.32L231 347.87Z" fill="white"/>
<path d="M243.55 346.73H239.55V357H237.65V346.73H233.65V345.07H243.48L243.55 346.73Z" fill="white"/>
<path d="M248.14 345.07H249.79L254.48 357H252.48L251.22 353.76H246.62L245.41 357H243.41L248.14 345.07ZM250.88 352.35L249 347.23L247 352.35H250.88Z" fill="white"/>
<path d="M256.63 357V345.07H261.82C262.332 345.065 262.838 345.178 263.3 345.4C263.74 345.621 264.136 345.919 264.47 346.28C264.792 346.647 265.049 347.066 265.23 347.52C265.41 347.972 265.505 348.453 265.51 348.94C265.51 349.333 265.452 349.724 265.34 350.1C265.23 350.454 265.072 350.79 264.87 351.1C264.67 351.412 264.42 351.689 264.13 351.92C263.832 352.151 263.492 352.324 263.13 352.43L266 357H263.87L261.28 352.85H258.53V357H256.63ZM258.51 351.19H261.8C262.053 351.192 262.303 351.134 262.53 351.02C262.75 350.899 262.941 350.732 263.09 350.53C263.252 350.316 263.377 350.076 263.46 349.82C263.549 349.542 263.593 349.252 263.59 348.96C263.585 348.388 263.38 347.836 263.01 347.4C262.843 347.203 262.639 347.04 262.41 346.92C262.189 346.811 261.946 346.753 261.7 346.75H258.51V351.19Z" fill="white"/>
<path d="M277 346.73H273V357H271.1V346.73H267.1V345.07H277V346.73Z" fill="white"/>
<path d="M290.08 366.75H209.94L206.24 364.53H293.77L290.08 366.75Z" fill="#263238"/>
<path d="M430.36 443.65C430.53 445.87 424.18 446.51 421.53 445.07C419.389 443.536 417.348 441.866 415.42 440.07C409.05 434.44 400.25 426.2 400.25 426.2L393.73 429.14L361.88 439.74L348.45 405C348.45 405 363.86 398.48 378.51 392.64C380.77 391.74 382.99 390.87 385.15 390.03L385.55 389.87C395.38 386.09 403.55 383.23 404.36 383.87C406.62 385.35 430.19 441.41 430.36 443.65Z" fill="#D3766A"/>
<path d="M430.36 443.65C430.53 445.88 424.18 446.51 421.53 445.08C419.387 443.548 417.346 441.878 415.42 440.08C409.05 434.46 400.25 426.22 400.25 426.22L393.73 429.15L392.67 429.5L378 392.8L378.47 392.61L385.11 390.01L385.51 389.85C395.34 386.07 403.51 383.2 404.33 383.79C406.62 385.36 430.19 441.42 430.36 443.65Z" fill="#EBEBEB"/>
<path d="M430.92 444.47C430.79 442.19 407.49 384.81 405.22 383.19C404.37 382.56 395.81 385.47 385.57 389.28L385.25 389.4L399.86 426.58L400.48 426.32C400.48 426.32 419.22 444.32 421.91 445.81C424.6 447.3 431.07 446.74 430.92 444.47Z" fill="#FAC514"/>
<path d="M428.44 444.72C424.27 435.15 408.38 396.13 404.99 386.35C404.99 386.27 404.99 386.25 405.05 386.35C409.39 395.75 424.96 434.9 428.59 444.69C428.67 444.86 428.52 444.92 428.44 444.72Z" fill="#263238"/>
<path d="M401.64 430.66C399.38 427.14 398.08 422.25 399.64 418.24C399.7 418.09 399.92 418.17 399.93 418.31C400.23 422.424 400.971 426.494 402.14 430.45C402.168 430.516 402.168 430.591 402.141 430.658C402.114 430.724 402.061 430.777 401.995 430.805C401.929 430.833 401.854 430.833 401.788 430.806C401.721 430.779 401.668 430.726 401.64 430.66Z" fill="#263238"/>
<path d="M404.41 432.74C402.15 429.22 400.85 424.33 402.41 420.32C402.47 420.16 402.69 420.25 402.7 420.39C403.006 424.503 403.747 428.573 404.91 432.53C404.938 432.596 404.938 432.671 404.911 432.737C404.884 432.804 404.831 432.857 404.765 432.885C404.699 432.913 404.624 432.913 404.557 432.886C404.491 432.859 404.438 432.806 404.41 432.74Z" fill="#263238"/>
<path d="M407.18 434.81C404.93 431.29 403.62 426.4 405.18 422.39C405.24 422.24 405.46 422.32 405.47 422.46C405.774 426.574 406.518 430.644 407.69 434.6C407.718 434.668 407.718 434.744 407.69 434.811C407.661 434.879 407.608 434.932 407.54 434.96C407.472 434.988 407.397 434.988 407.329 434.96C407.261 434.931 407.208 434.878 407.18 434.81Z" fill="#263238"/>
<path d="M400.08 435.08C401.08 431.53 400.51 427.68 400.4 424.08C400.39 424 400.361 423.924 400.316 423.858C400.271 423.791 400.212 423.736 400.142 423.696C400.072 423.656 399.994 423.633 399.914 423.629C399.834 423.624 399.754 423.638 399.68 423.67C399.68 423.62 399.57 423.58 399.51 423.67C396.607 426.191 394.42 429.434 393.17 433.07C392.48 435.2 392.68 438.36 395.35 439.07C397.87 439.61 399.49 437.14 400.08 435.08ZM397.41 437.29C393.5 439.65 393.88 434.29 394.41 432.73C394.792 431.731 395.247 430.762 395.77 429.83C396.866 427.912 398.061 426.053 399.35 424.26C399.29 426.04 399.35 427.8 399.41 429.58C399.46 431.7 399.56 436 397.41 437.29Z" fill="#263238"/>
<path d="M388.55 413.28C386.55 415.16 387.92 418.02 389.55 419.53C392.424 422.085 395.922 423.838 399.69 424.61C399.706 424.613 399.722 424.612 399.738 424.608C399.754 424.604 399.769 424.596 399.781 424.586C399.793 424.575 399.803 424.562 399.81 424.547C399.817 424.532 399.82 424.516 399.82 424.5C399.9 424.492 399.977 424.465 400.045 424.422C400.113 424.379 400.17 424.321 400.212 424.252C400.253 424.183 400.279 424.106 400.285 424.025C400.292 423.945 400.28 423.865 400.25 423.79C398.57 420.59 397.17 416.95 394.56 414.36C393.06 412.84 390.44 411.5 388.55 413.28ZM396.73 419.45C397.59 421.01 398.38 422.6 399.3 424.12C397.296 423.189 395.34 422.158 393.44 421.03C392.531 420.466 391.66 419.845 390.83 419.17C389.57 418.1 386.61 413.6 391.17 413.74C393.69 413.82 395.7 417.6 396.73 419.45Z" fill="#263238"/>
<path opacity="0.1" d="M430.92 444.47C431.07 446.75 424.59 447.32 421.92 445.81C419.25 444.3 400.49 426.32 400.49 426.32L399.87 426.59L388.31 397.2L411.06 395.15C418.68 412.52 430.83 442.83 430.92 444.47Z" fill="black"/>
<path d="M387.94 435.54C387.94 435.54 318.7 451.44 293.23 446.85C281.05 444.65 272.23 428.97 278.11 416.96C283.57 405.75 316.99 394.37 326.43 387.77C329.43 385.71 329.09 377.51 329.09 377.51L353.89 377.18C353.89 377.18 362.73 391.23 358.99 398.07C358.93 398.18 358.86 398.29 358.78 398.41L370 394.15L387.94 435.54Z" fill="#37474F"/>
<path d="M372.61 416.82C369.85 410.82 366.82 404.96 364.01 398.99C363.96 398.88 363.78 398.94 363.83 399.06C366.48 405.06 368.92 411.18 371.68 417.15C374.44 423.12 377.43 429.02 380.33 434.95C380.4 435.11 380.65 435.02 380.58 434.86C377.91 428.86 375.36 422.8 372.61 416.82Z" fill="#263238"/>
<path d="M358.94 398.69C357.23 399.69 355.6 400.84 353.94 401.92C352.28 403 350.65 404.02 348.94 405.02C345.55 407.02 342.09 408.91 338.58 410.7C331.516 414.323 324.216 417.466 316.73 420.11C312.55 421.58 308.33 423.01 304.04 424.11C303.94 424.11 303.99 424.27 304.04 424.25C307.17 423.5 310.3 422.77 313.39 421.89C311.75 422.89 310.14 424 308.51 425.05C308.499 425.063 308.492 425.079 308.491 425.096C308.489 425.113 308.494 425.13 308.502 425.144C308.511 425.159 308.525 425.17 308.54 425.177C308.556 425.183 308.574 425.184 308.59 425.18C310.37 424.1 312.18 423.07 313.95 421.97C313.971 421.958 313.989 421.941 314.003 421.922C314.017 421.902 314.027 421.88 314.032 421.856C314.036 421.833 314.036 421.808 314.031 421.785C314.025 421.761 314.015 421.739 314 421.72L315.58 421.26C319.41 420.07 323.19 418.74 326.9 417.26C334.248 414.3 341.33 410.721 348.07 406.56C349.97 405.38 351.847 404.167 353.7 402.92C355.565 401.703 357.348 400.367 359.04 398.92C359.25 398.8 359.08 398.61 358.94 398.69Z" fill="#263238"/>
<path d="M456.93 452.16C457.1 454.38 450.75 455.01 448.1 453.58C445.958 452.046 443.917 450.376 441.99 448.58C435.63 442.95 426.82 434.71 426.82 434.71L420.31 437.64L389.41 448.21L375 413.47C375 413.47 390.41 406.95 405.07 401.11L411.7 398.51L412.1 398.35C421.94 394.57 430.1 391.71 430.92 392.29C433.19 393.86 456.76 449.92 456.93 452.16Z" fill="#D3766A"/>
<path d="M456.93 452.16C457.1 454.38 450.75 455.02 448.1 453.58C445.958 452.046 443.917 450.376 441.99 448.58C435.63 442.95 426.82 434.71 426.82 434.71L420.31 437.65L419.44 437.95L404.25 401.47L405.09 401.14C407.34 400.24 409.56 399.37 411.72 398.53L412.12 398.37C421.96 394.59 430.12 391.73 430.94 392.32C433.19 393.86 456.76 449.92 456.93 452.16Z" fill="#EBEBEB"/>
<path d="M457.51 452.66C457.34 450.38 433.26 393.33 430.96 391.74C430.1 391.12 421.58 394.15 411.4 398.1L411.08 398.22L426.2 435.22L426.82 434.95C426.82 434.95 445.82 452.66 448.52 454.14C451.22 455.62 457.69 454.93 457.51 452.66Z" fill="#FAC514"/>
<path d="M455 452.94C450.7 443.43 434.27 404.63 430.75 394.94C430.75 394.86 430.75 394.84 430.81 394.94C435.28 404.28 451.39 443.21 455.15 452.94C455.26 453.08 455.12 453.14 455 452.94Z" fill="#263238"/>
<path d="M428 439.26C425.69 435.77 424.32 430.9 425.8 426.87C425.85 426.71 426.08 426.79 426.09 426.93C426.463 431.028 427.274 435.075 428.51 439C428.544 439.068 428.551 439.146 428.527 439.218C428.504 439.291 428.453 439.351 428.385 439.385C428.317 439.419 428.239 439.426 428.167 439.402C428.094 439.379 428.034 439.328 428 439.26Z" fill="#263238"/>
<path d="M430.84 441.29C428.53 437.81 427.16 432.93 428.64 428.9C428.69 428.75 428.92 428.83 428.93 428.97C429.287 433.08 430.085 437.14 431.31 441.08C431.327 441.14 431.322 441.205 431.296 441.261C431.269 441.318 431.223 441.363 431.166 441.389C431.109 441.414 431.045 441.418 430.985 441.4C430.925 441.382 430.873 441.343 430.84 441.29Z" fill="#263238"/>
<path d="M433.64 443.33C431.33 439.84 429.96 434.97 431.44 430.94C431.49 430.78 431.71 430.87 431.73 431.01C432.087 435.117 432.885 439.174 434.11 443.11C434.134 443.171 434.134 443.24 434.11 443.301C434.085 443.363 434.038 443.412 433.978 443.44C433.918 443.468 433.85 443.473 433.787 443.452C433.725 443.432 433.672 443.388 433.64 443.33Z" fill="#263238"/>
<path d="M426.54 443.69C427.49 440.13 426.87 436.29 426.7 432.69C426.69 432.61 426.662 432.534 426.617 432.468C426.572 432.401 426.512 432.346 426.442 432.307C426.371 432.268 426.293 432.246 426.213 432.243C426.133 432.24 426.053 432.256 425.98 432.29C425.98 432.29 425.87 432.2 425.81 432.29C422.943 434.853 420.801 438.126 419.6 441.78C418.94 443.92 419.19 447.08 421.86 447.7C424.53 448.32 426 445.77 426.54 443.69ZM423.9 445.94C420.03 448.36 420.33 442.94 420.9 441.42C421.279 440.42 421.719 439.445 422.22 438.5C423.22 436.5 424.52 434.74 425.73 432.88C425.73 434.66 425.82 436.43 425.86 438.21C425.87 440.33 426 444.6 423.9 445.94Z" fill="#263238"/>
<path d="M414.71 422.05C412.71 423.96 414.15 426.8 415.82 428.29C418.727 430.804 422.245 432.508 426.02 433.23C426.11 433.23 426.15 433.18 426.16 433.11C426.239 433.101 426.315 433.073 426.382 433.03C426.449 432.986 426.504 432.927 426.544 432.858C426.584 432.789 426.607 432.712 426.612 432.632C426.616 432.553 426.602 432.473 426.57 432.4C424.85 429.22 423.41 425.61 420.76 423.05C419.21 421.56 416.57 420.25 414.71 422.05ZM422.98 428.12C423.86 429.66 424.66 431.24 425.61 432.75C423.594 431.85 421.625 430.849 419.71 429.75C418.788 429.207 417.906 428.599 417.07 427.93C415.8 426.88 412.78 422.42 417.34 422.5C419.86 422.53 421.92 426.28 423 428.12H422.98Z" fill="#263238"/>
<path d="M337.62 377.35L380.27 376.71C380.27 376.71 389.27 399.71 385.57 406.58C381.87 413.45 342.57 423.21 342.57 423.21L396.57 402.66L414.57 444.04C414.57 444.04 348.85 458.35 314 454.8C300.93 453.47 292.73 436.4 300.39 423.28C308.44 409.48 337.66 390.6 337.66 390.6L337.62 377.35Z" fill="#37474F"/>
<path d="M395.13 402.56C378.61 410.11 361.93 417.33 344.88 423.62C342.507 424.5 340.133 425.367 337.76 426.22C335.3 427.1 332.85 428.12 330.33 428.83C330.21 428.83 330.27 429.06 330.39 429.02C332.56 428.2 334.82 427.62 337.03 426.9C339.24 426.18 341.34 425.47 343.48 424.73L346.26 423.73L345.7 424.12C344.85 424.68 344 425.25 343.16 425.84C341.44 427.06 339.83 428.5 338.02 429.58C337.91 429.64 338.02 429.82 338.13 429.74C339.85 428.52 341.79 427.61 343.56 426.46C344.41 425.9 345.25 425.31 346.09 424.72C346.875 424.208 347.618 423.632 348.31 423C351.03 422 353.74 421 356.43 420C364.93 416.773 373.32 413.287 381.6 409.54C386.23 407.44 390.81 405.26 395.34 402.96C395.57 402.86 395.38 402.44 395.13 402.56Z" fill="#263238"/>
<path d="M400.14 425C397.38 419 394.35 413.14 391.54 407.17C391.49 407.06 391.3 407.12 391.35 407.24C394 413.24 396.45 419.36 399.21 425.33C401.97 431.3 404.96 437.21 407.85 443.14C407.93 443.29 408.18 443.21 408.1 443.05C405.43 437 402.89 430.94 400.14 425Z" fill="#263238"/>
<path d="M336.92 391.05C332.227 393.716 327.726 396.707 323.45 400C319.17 403.17 315.03 406.52 311.08 410.1C309.08 411.9 307.16 413.78 305.3 415.72C303.495 417.545 301.855 419.526 300.4 421.64C297.815 425.463 296.57 430.034 296.86 434.64C297.032 437.087 297.607 439.489 298.56 441.75C299.585 443.958 300.914 446.012 302.51 447.85C302.57 447.93 302.68 447.85 302.61 447.74C301.113 446.045 299.979 444.061 299.28 441.91C298.149 438.854 297.712 435.584 297.999 432.338C298.286 429.092 299.29 425.95 300.94 423.14C303.56 418.79 307.41 415.19 311.07 411.73C314.851 408.166 318.809 404.795 322.93 401.63C325.237 399.85 327.57 398.113 329.93 396.42C332.3 394.72 334.72 393.09 337.04 391.31C337.064 391.289 337.08 391.26 337.086 391.229C337.093 391.197 337.089 391.165 337.076 391.136C337.062 391.107 337.04 391.083 337.012 391.067C336.984 391.052 336.952 391.046 336.92 391.05Z" fill="#263238"/>
<path d="M349.32 392.77C345.775 391.674 342.119 390.973 338.42 390.68C334.79 390.28 331.15 390.08 327.49 390.03C327.39 390.03 327.4 390.17 327.49 390.18C331.2 390.51 334.9 390.98 338.57 391.53C342.24 392.08 345.69 392.83 349.28 393.12C349.49 393.13 349.49 392.83 349.32 392.77Z" fill="#263238"/>
<path d="M378.32 393.27C376.046 393.217 373.777 393.013 371.53 392.66C369.641 392.569 367.807 391.998 366.2 391C363.2 388.73 361.94 384.74 361.3 381.18C361.3 381.1 361.14 381.12 361.15 381.18C361.67 385.05 361.84 389.5 365.25 392.1C366.954 393.273 368.972 393.904 371.04 393.91C373.476 394.01 375.915 393.859 378.32 393.46C378.333 393.46 378.345 393.458 378.356 393.453C378.368 393.448 378.378 393.441 378.387 393.432C378.396 393.423 378.403 393.413 378.408 393.401C378.413 393.39 378.415 393.377 378.415 393.365C378.415 393.352 378.413 393.34 378.408 393.329C378.403 393.317 378.396 393.307 378.387 393.298C378.378 393.289 378.368 393.282 378.356 393.277C378.345 393.272 378.333 393.27 378.32 393.27Z" fill="#263238"/>
<path d="M383 399.42C382.766 397.173 382.364 394.947 381.8 392.76C381.27 390.51 380.63 388.29 379.92 386.09C379.11 383.6 378.17 381.14 377.19 378.71C377.19 378.62 377.01 378.71 377.04 378.71C378.45 382.83 379.74 387 380.81 391.22C381.343 393.313 381.817 395.413 382.23 397.52C382.725 399.557 382.725 401.683 382.23 403.72C381.645 405.789 380.458 407.637 378.82 409.03C378.82 409.03 378.82 409.08 378.82 409.03C380.252 407.894 381.382 406.423 382.111 404.747C382.84 403.071 383.145 401.242 383 399.42Z" fill="#263238"/>
<path d="M390.31 412.07C387.43 412.82 384.61 413.81 381.78 414.73C378.95 415.65 376.12 416.56 373.29 417.5C367.64 419.39 362.01 421.34 356.38 423.28C353.18 424.39 350.01 425.57 346.83 426.73C346.74 426.73 346.78 426.9 346.83 426.87C358.21 423.337 369.517 419.59 380.75 415.63C383.94 414.51 387.18 413.47 390.3 412.17C390.4 412.14 390.37 412.05 390.31 412.07Z" fill="#263238"/>
<path d="M307.8 345.15L315 346.69C317.912 343.019 319.604 338.53 319.84 333.85C319.91 332.78 321.24 339.25 318.66 347.48C326.26 349.12 336.61 351.33 345.66 353.19C346.51 349.67 347.45 346.46 347.45 346.46C347.298 348.837 347.359 351.223 347.63 353.59C348.86 353.86 350.08 354.09 351.24 354.33C352.145 349.269 353.327 344.262 354.78 339.33C354.434 344.716 354.978 350.121 356.39 355.33C362.15 356.45 365.96 357.07 365.77 356.75C358.95 345.1 366.43 340.56 365.62 331.29C364.62 320.17 355.87 316.77 357.62 308.9C359.05 302.49 362.07 290.95 354.4 286.9C352.603 284.33 350.091 282.345 347.175 281.191C344.259 280.037 341.069 279.766 338 280.41C324.19 282.89 325.51 303.74 323.86 307.62C321.52 313.16 318.38 314.67 315.08 320.87C311.78 327.07 313.91 332.14 313.4 336.72C312.89 341.3 306.36 344.86 307.8 345.15Z" fill="#263238"/>
<path d="M366.3 355.4C365.433 353.432 364.851 351.352 364.57 349.22C364.427 347.136 364.83 345.05 365.74 343.17C366.603 341.155 367.357 339.095 368 337C368.661 334.812 368.875 332.513 368.63 330.24C368.33 327.961 367.516 325.779 366.25 323.86C365.006 322.039 363.618 320.32 362.1 318.72C360.626 317.186 359.355 315.469 358.32 313.61C357.357 311.693 356.938 309.548 357.11 307.41C356.609 309.583 356.78 311.857 357.6 313.93C358.482 315.969 359.665 317.863 361.11 319.55C362.482 321.181 363.748 322.897 364.9 324.69C365.973 326.44 366.655 328.402 366.9 330.44C367.102 332.495 366.922 334.57 366.37 336.56C365.86 338.56 365.08 340.56 364.37 342.69C364.014 343.751 363.736 344.838 363.54 345.94C363.376 347.074 363.414 348.229 363.65 349.35C364.163 351.509 365.061 353.559 366.3 355.4Z" fill="#263238"/>
<path d="M329.34 286.44C327.974 288.753 326.896 291.225 326.13 293.8C325.31 296.35 324.61 298.94 323.94 301.52L322.94 305.37C322.629 306.617 322.194 307.83 321.64 308.99C320.429 311.264 318.812 313.297 316.87 314.99C315.88 315.923 314.958 316.926 314.11 317.99C313.258 319.098 312.533 320.299 311.95 321.57C311.407 322.837 310.962 324.144 310.62 325.48C310.267 326.825 310.082 328.209 310.07 329.6C310.07 330.99 310.18 332.33 310.26 333.6C310.349 334.9 310.312 336.206 310.15 337.5C309.945 338.788 309.436 340.008 308.666 341.06C307.896 342.112 306.886 342.966 305.72 343.55C307.014 343.078 308.17 342.291 309.085 341.262C310 340.232 310.644 338.991 310.96 337.65C311.242 336.312 311.386 334.948 311.39 333.58C311.39 332.22 311.32 330.9 311.39 329.58C311.605 327.016 312.283 324.512 313.39 322.19C313.941 321.049 314.611 319.969 315.39 318.97C316.203 317.957 317.085 317.001 318.03 316.11C319.011 315.158 319.942 314.157 320.82 313.11C321.721 312.033 322.478 310.843 323.07 309.57C323.627 308.302 324.059 306.982 324.36 305.63C324.68 304.33 324.95 303.02 325.22 301.71C325.78 299.1 326.29 296.49 326.91 293.91C327.466 291.344 328.28 288.842 329.34 286.44Z" fill="#263238"/>
<path d="M346.86 324.61C339.37 336.5 324.74 352.61 314.61 358.24C310.24 360.67 291.14 361.57 279.51 360.56C275.17 360.18 279.75 337.17 284.51 337.06C287.75 336.99 304.63 339.77 307.04 338.95C311.48 337.45 327.93 325.03 339.22 318.77C345.52 315.28 351.52 317.21 346.86 324.61Z" fill="#D3766A"/>
<path d="M291.87 338.85C284.03 335.92 274.44 331.8 265.14 333.44C264.103 333.596 263.149 334.096 262.43 334.86C258.25 335.52 257.31 337.69 257.31 337.69C253.6 339.5 252.94 341.86 252.94 341.86C252.94 341.86 248.04 342.69 248.05 345.73C248.05 349.15 254.93 347.32 259.33 348.62C269.42 351.62 284.4 359.14 287.23 360.29L291.87 338.85Z" fill="#D3766A"/>
<path d="M272.09 344.34C269.141 343.434 266.134 342.725 263.09 342.22C259.737 341.897 256.364 341.824 253 342C252.982 341.994 252.967 341.982 252.956 341.967C252.946 341.952 252.94 341.934 252.94 341.915C252.94 341.896 252.946 341.878 252.956 341.863C252.967 341.848 252.982 341.836 253 341.83C259.482 340.871 266.103 341.712 272.14 344.26C272.27 344.27 272.24 344.38 272.09 344.34Z" fill="#263238"/>
<path d="M274.78 338.52C271.83 337.88 266.64 336.79 257.3 337.81C257.3 337.81 257.25 337.76 257.3 337.75C263.088 336.323 269.159 336.541 274.83 338.38C275 338.43 275 338.56 274.78 338.52Z" fill="#263238"/>
<path d="M276.17 335.36C271.633 334.579 267.01 334.421 262.43 334.89V334.84C268.49 333.84 270.81 334.11 276.22 335.19C276.41 335.23 276.37 335.4 276.17 335.36Z" fill="#263238"/>
<path d="M271.26 353C272.42 353.91 271.95 354.52 269.33 354.52C266.71 354.52 256.33 352.31 255.87 355.99C255.41 359.67 270.08 361.88 274.44 362.25C278.802 362.63 283.192 361.944 287.23 360.25C284.48 359.15 276.61 355.3 271.26 353Z" fill="#D3766A"/>
<path d="M319.88 328.9L332.15 347.48C332.15 347.48 344.33 334.18 347.92 324.9C351.51 315.62 346.68 315.25 339.92 318.12C333.16 320.99 319.88 328.9 319.88 328.9Z" fill="#FAC514"/>
<path d="M323.92 328.27C323.84 328.14 323.73 328.16 323.8 328.27C326.929 333.668 330.393 338.864 334.17 343.83C334.17 343.83 334.25 343.83 334.23 343.83C332.86 341 324.78 329.62 323.92 328.27Z" fill="#263238"/>
<path opacity="0.1" d="M347.93 324.9C344.34 334.18 332.15 347.48 332.15 347.48L323.84 334.89L347 316.63C349.26 317.13 350 319.52 347.93 324.9Z" fill="black"/>
<path d="M328.63 361.5L327.28 384.57C327.28 384.57 372 382 384.33 381.08C384.33 381.08 371.66 335.65 358.33 321.22C351.68 314 343.87 314.54 338.9 319.58C337.64 320.86 325.31 340.25 323.73 347.84C322.39 354.53 328.63 361.5 328.63 361.5Z" fill="#FAC514"/>
<path d="M345.52 357.88C343.123 357.665 340.713 357.625 338.31 357.76C337.12 357.85 335.94 357.99 334.76 358.15C334.17 358.23 333.58 358.3 332.99 358.35C332.369 358.43 331.741 358.43 331.12 358.35C331.07 358.35 331.06 358.42 331.12 358.43C331.693 358.564 332.274 358.657 332.86 358.71C333.429 358.755 334.001 358.755 334.57 358.71C335.78 358.64 336.99 358.51 338.2 358.42C340.64 358.25 343.07 358.07 345.52 358.07C345.62 358.08 345.63 357.89 345.52 357.88Z" fill="#263238"/>
<path d="M351 361C349.097 360.442 347.164 359.991 345.21 359.65C344.21 359.49 343.21 359.38 342.26 359.3L340.84 359.2C340.32 359.2 339.79 359.2 339.28 359.2C339.22 359.2 339.21 359.28 339.28 359.29C339.77 359.29 340.28 359.46 340.74 359.54L342.2 359.77L345.14 360.23C347.09 360.52 349.04 360.82 350.99 361.18C351.014 361.181 351.037 361.173 351.055 361.157C351.073 361.141 351.084 361.119 351.085 361.095C351.086 361.071 351.078 361.048 351.062 361.03C351.046 361.012 351.024 361.001 351 361Z" fill="#263238"/>
<path opacity="0.3" d="M353.8 317.52L340.32 318.35L340.8 317.99L353.25 317.23C353.43 317.32 353.62 317.41 353.8 317.52ZM356.24 319.21L338.37 320.31C338.3 320.42 338.21 320.53 338.13 320.66L356.61 319.52C356.494 319.408 356.37 319.305 356.24 319.21ZM358.39 321.21L336.84 322.53C336.78 322.64 336.7 322.76 336.62 322.88L358.62 321.52C358.548 321.423 358.471 321.33 358.39 321.24V321.21ZM360.11 323.27L335.4 324.79C335.33 324.9 335.26 325.02 335.18 325.13L360.36 323.59C360.282 323.489 360.199 323.392 360.11 323.3V323.27ZM361.63 325.33L334 327.06C333.94 327.18 333.87 327.29 333.8 327.41L361.8 325.68L361.63 325.33ZM362.99 327.42L332.66 329.28C332.6 329.4 332.53 329.51 332.46 329.63L363.19 327.74C363.132 327.64 363.068 327.543 363 327.45L362.99 327.42ZM364.25 329.5L331.36 331.5C331.291 331.613 331.227 331.73 331.17 331.85L364.44 329.85L364.25 329.5ZM365.44 331.59L330.08 333.77C330.023 333.887 329.959 334 329.89 334.11L365.61 331.91C365.56 331.83 365.5 331.73 365.44 331.62V331.59ZM366.55 333.68L328.87 336C328.802 336.109 328.742 336.223 328.69 336.34L366.69 334L366.55 333.68ZM367.62 335.79L327.69 338.24L327.52 338.58L367.78 336.11L367.62 335.79ZM368.62 337.88L326.57 340.47L326.41 340.81L368.77 338.2L368.62 337.88ZM369.62 339.99L325.56 342.7C325.51 342.82 325.46 342.93 325.42 343.04L369.76 340.31C369.71 340.23 369.66 340.13 369.62 340V339.99ZM370.55 342.09L324.66 344.91C324.61 345.03 324.57 345.14 324.53 345.25L370.69 342.41C370.648 342.311 370.602 342.214 370.55 342.12V342.09ZM371.46 344.2L323.93 347.13C323.93 347.24 323.87 347.35 323.85 347.46L371.6 344.52C371.559 344.421 371.512 344.324 371.46 344.23V344.2ZM372.35 346.31L323.58 349.31C323.58 349.42 323.58 349.53 323.58 349.64L372.5 346.64L372.35 346.31ZM373.22 348.42L323.7 351.5C323.7 351.61 323.7 351.72 323.75 351.83L373.35 348.77C373.3 348.66 373.26 348.56 373.22 348.45V348.42ZM374.05 350.53L324.17 353.6C324.17 353.7 324.24 353.81 324.28 353.92L374.18 350.85C374.142 350.751 374.098 350.654 374.05 350.56V350.53ZM374.87 352.64L325 355.75L325.15 356.07L375 353L374.87 352.64ZM375.67 354.75L326.05 357.81L326.24 358.13L375.79 355.13C375.76 355 375.71 354.9 375.67 354.78V354.75ZM376.46 356.87L327.4 359.87L327.62 360.19L376.57 357.19C376.54 357.12 376.5 357 376.46 356.9V356.87ZM377.23 358.98L328.6 361.98V362.31L377.36 359.31C377.312 359.209 377.268 359.105 377.23 359V358.98ZM377.97 361.11L328.47 364.11V364.45L378.1 361.39C378.05 361.36 378 361.25 378 361.14L377.97 361.11ZM378.7 363.22L328.35 366.32V366.66L378.84 363.55L378.7 363.22ZM379.43 365.34L328.22 368.49V368.83L379.56 365.67C379.5 365.59 379.46 365.48 379.43 365.37V365.34ZM380.13 367.46L328.13 370.66V371L380.31 367.79L380.13 367.46ZM380.82 369.58L328 372.87V373.2L381 369.94C380.9 369.83 380.86 369.72 380.82 369.61V369.58ZM381.5 371.7L327.84 375V375.34L381.63 372.04C381.58 372 381.54 371.84 381.5 371.73V371.7ZM382.17 373.83L327.71 377.18V377.51L382.29 374.15C382.24 374.07 382.21 374 382.17 373.86V373.83ZM382.82 375.95L327.58 379.34V379.69L382.94 376.28C382.89 376.2 382.86 376.09 382.82 376V375.95ZM383.47 378.07L327.47 381.52V381.85L383.59 378.4C383.53 378.33 383.5 378.21 383.47 378.1V378.07ZM384.09 380.19L327.33 383.69V384.03L384.2 380.53C384.15 380.46 384.12 380.35 384.09 380.22V380.19Z" fill="#37474F"/>
<path d="M363.63 328.84C369.92 342.84 380 370.2 377.18 377.06C371.51 390.87 348.75 403.24 342.13 406.06C339.02 407.36 324.47 387.87 326.94 385.27C329.64 382.42 353.43 368.27 353.84 365.07C354.18 362.41 352.56 345.49 351.56 332.5C350.31 316.07 358.31 317 363.63 328.84Z" fill="#D3766A"/>
<path d="M333.84 380.67C333.84 380.67 323.58 382.42 316.92 383.88C313.21 384.69 306.97 386.66 304.51 388.5C300.84 391.27 287.25 405.16 290.51 408.5C293.51 411.55 303.66 398.13 303.66 398.13C303.66 398.13 292.21 410.76 296.48 413.78C300.75 416.8 310.22 400.09 310.22 400.09C310.22 400.09 298.74 413.34 303.63 415.75C307.33 417.57 316.76 402.94 316.76 402.94C316.76 402.94 306.97 414.39 310.7 416.43C314.81 418.67 324.36 405.71 324.36 405.71C334.69 409.29 341.08 406.77 345.41 404.43C346.49 403.9 333.84 380.67 333.84 380.67Z" fill="#D3766A"/>
<path d="M306.85 394.15C297.7 402.81 295.85 409.86 295.96 409.69C298.01 405.49 302.45 399.86 303.72 398.3C304.99 396.74 305.65 395.75 306.91 394.19C306.94 394.16 306.88 394.12 306.85 394.15Z" fill="#263238"/>
<path d="M313.07 398C309.215 401.34 305.985 405.339 303.53 409.81C303.44 409.99 303.53 409.98 303.66 409.81C305.21 407.81 311.47 399.97 313.12 398.03C313.15 398 313.1 398 313.07 398Z" fill="#263238"/>
<path d="M318.65 401C315.72 403.655 313.307 406.828 311.53 410.36C311.44 410.53 311.59 410.52 311.71 410.36C314.01 407.2 315.8 404.71 318.71 401.1C318.8 401 318.71 400.91 318.65 401Z" fill="#263238"/>
<path d="M350.39 349.25L372.53 346.9C372.53 346.9 366.33 329.96 359.74 322.5C353.15 315.04 350.6 319.17 350.06 326.5C349.52 333.83 350.39 349.25 350.39 349.25Z" fill="#FAC514"/>
<path d="M351.69 345.37C351.54 345.37 351.51 345.49 351.69 345.48C357.92 345.186 364.126 344.502 370.27 343.43V343.35C367.14 343.31 353.29 345.23 351.69 345.37Z" fill="#263238"/>
<path d="M349.77 332.14C349.77 337.88 350.02 343.9 350.23 349.5C350.23 349.6 351.16 349.34 351.54 349.27C351.69 349.27 351.61 349.09 351.47 349.11C351.197 349.135 350.923 349.135 350.65 349.11C350.44 343.45 350.22 337.79 349.84 332.11C349.84 332.1 349.77 332.1 349.77 332.14Z" fill="#263238"/>
<path d="M350 319.51C349.76 320.51 345 326.88 340.44 326.63C338.97 326.54 339.08 318.47 339.08 318.47L338.95 317.88L337.16 309.51L347.03 303.32L348.45 302.5C348.45 302.5 348.79 304.82 349.18 307.71L349.24 308.12C349.24 308.29 349.24 308.44 349.31 308.59C349.37 309.03 349.44 309.47 349.49 309.91C349.54 310.35 349.58 310.57 349.61 310.91C349.64 311.25 349.68 311.61 349.72 311.96C349.988 314.467 350.081 316.99 350 319.51Z" fill="#D3766A"/>
<path d="M349.17 307.71C348.307 310.047 346.944 312.167 345.177 313.924C343.41 315.68 341.282 317.03 338.94 317.88L337.15 309.51L347.02 303.32L348.44 302.5C348.44 302.5 348.78 304.82 349.17 307.71Z" fill="#263238"/>
<path d="M327.41 290.05C319.41 302.74 326.07 308.98 328.81 310.7C331.29 312.27 339.95 317.3 349.25 305.51C358.55 293.72 355.18 285.99 349.69 282.1C344.2 278.21 335.44 277.37 327.41 290.05Z" fill="#D3766A"/>
<path d="M330.69 289.43C331.017 289.546 331.351 289.643 331.69 289.72C332.024 289.875 332.401 289.914 332.76 289.83C332.867 289.781 332.954 289.699 333.01 289.597C333.066 289.494 333.087 289.376 333.07 289.26C332.998 289.035 332.868 288.832 332.692 288.674C332.516 288.516 332.302 288.408 332.07 288.36C331.62 288.185 331.12 288.185 330.67 288.36C330.561 288.402 330.468 288.477 330.403 288.574C330.338 288.671 330.304 288.785 330.306 288.902C330.309 289.019 330.347 289.132 330.415 289.226C330.484 289.321 330.58 289.392 330.69 289.43Z" fill="#263238"/>
<path d="M339.14 294.3C338.863 294.093 338.599 293.869 338.35 293.63C338.036 293.439 337.796 293.146 337.67 292.8C337.651 292.683 337.671 292.562 337.727 292.457C337.783 292.352 337.872 292.269 337.98 292.22C338.207 292.157 338.446 292.156 338.673 292.218C338.9 292.28 339.106 292.401 339.27 292.57C339.659 292.856 339.926 293.277 340.02 293.75C340.039 293.86 340.025 293.973 339.98 294.074C339.934 294.176 339.86 294.262 339.765 294.321C339.671 294.38 339.561 294.41 339.449 294.406C339.338 294.402 339.23 294.365 339.14 294.3Z" fill="#263238"/>
<path d="M335.58 296.69C335.58 296.69 335.63 296.77 335.58 296.8C335.05 297.68 334.58 298.8 335.22 299.52C335.22 299.52 335.22 299.58 335.22 299.52C334.3 298.87 334.93 297.43 335.58 296.69Z" fill="#263238"/>
<path d="M336.9 296.21C338.39 296.92 336.9 299.84 335.49 299.21C334.08 298.58 335.65 295.62 336.9 296.21Z" fill="#263238"/>
<path d="M337.4 296.66C337.57 296.96 337.66 297.39 337.96 297.58C338.26 297.77 338.72 297.63 339.11 297.46C339.11 297.46 339.16 297.46 339.11 297.52C339.015 297.811 338.814 298.054 338.547 298.203C338.28 298.351 337.967 298.393 337.67 298.32C337.08 298.11 336.95 297.41 337.1 296.77C337.16 296.65 337.33 296.54 337.4 296.66Z" fill="#263238"/>
<path d="M330.66 293.66C330.66 293.66 330.57 293.66 330.55 293.66C330.11 294.58 329.46 295.57 328.48 295.45C328.48 295.45 328.43 295.5 328.48 295.51C329.54 295.93 330.4 294.61 330.66 293.66Z" fill="#263238"/>
<path d="M330.33 292.3C328.92 291.44 327.33 294.3 328.62 295.11C329.91 295.92 331.51 293 330.33 292.3Z" fill="#263238"/>
<path d="M329.62 292.15C329.31 292.15 328.93 292.33 328.62 292.15C328.31 291.97 328.23 291.56 328.2 291.15C328.2 291.1 328.2 291.15 328.14 291.15C327.946 291.375 327.839 291.663 327.839 291.96C327.839 292.257 327.946 292.545 328.14 292.77C328.56 293.14 329.14 292.86 329.62 292.39C329.74 292.34 329.75 292.14 329.62 292.15Z" fill="#263238"/>
<path d="M332.07 303.75C331.767 303.923 331.415 303.99 331.07 303.94C330.728 303.77 330.425 303.532 330.18 303.24C330.18 303.24 330.11 303.24 330.12 303.24C330.166 303.484 330.278 303.711 330.444 303.896C330.609 304.081 330.822 304.218 331.06 304.29C331.272 304.327 331.49 304.302 331.687 304.216C331.884 304.131 332.052 303.99 332.17 303.81C332.17 303.81 332.12 303.74 332.07 303.75Z" fill="#263238"/>
<path d="M330 298.48C330 298.48 329.1 299.73 328.76 300.36C328.76 300.42 328.86 300.53 329.07 300.66C329.561 301.051 330.151 301.297 330.774 301.373C331.397 301.449 332.029 301.351 332.6 301.09C332.68 301.09 332.6 300.95 332.55 300.96C331.444 301.076 330.329 300.834 329.37 300.27C329.42 300.07 331 298.19 330.9 298.13C330.384 297.905 329.838 297.754 329.28 297.68C331.09 295.03 333.28 292.68 335.08 290.02C335.14 289.93 335.01 289.82 334.93 289.89C332.473 292.331 330.266 295.011 328.34 297.89C328.17 298.23 329.73 298.45 330 298.48Z" fill="#263238"/>
<path d="M329.33 300.47C329.417 301.195 329.693 301.885 330.13 302.47C330.388 302.781 330.738 303.002 331.13 303.1C331.95 303.33 332.35 302.68 332.54 302.04C332.639 301.698 332.7 301.346 332.72 300.99C331.564 301.191 330.373 301.008 329.33 300.47Z" fill="#263238"/>
<path d="M330.13 302.44C330.388 302.752 330.738 302.972 331.13 303.07C331.95 303.3 332.35 302.65 332.54 302.01C332.15 301.794 331.698 301.719 331.259 301.797C330.82 301.875 330.421 302.102 330.13 302.44Z" fill="#FF99BA"/>
<path d="M347.72 305.49C344.51 303.67 348.8 293.13 349.34 291.84C348.96 292.63 346.92 296.84 346.52 296.84C346.41 296.84 346.09 296.57 345.59 296.11C345.85 295.614 346.07 295.1 346.25 294.57C346.34 294.33 345.9 295.03 345.31 295.85L344.79 295.37C345.378 294.33 345.825 293.217 346.12 292.06C346.23 291.62 345.21 293.33 344.03 294.67C341.669 292.389 339.063 290.377 336.26 288.67C335.46 288.21 334.75 287.86 334.11 287.56C334.74 286.34 335.56 285.11 335.33 285.34C334.7 285.95 334.13 286.62 333.63 287.34L332.63 286.92C333.44 285.15 335.7 282.83 335.2 283.1C333.708 283.975 332.392 285.122 331.32 286.48C330.02 286.1 329.58 286.16 329.71 285.84C331.829 282.63 335.018 280.277 338.71 279.2C344.8 277.48 353.46 280.76 354.97 289.09C354.97 289.09 357.47 293.53 355.97 297.82C354.47 302.11 349.58 306.54 347.72 305.49Z" fill="#263238"/>
<path d="M345.93 304.45C345.93 304.45 350.99 301.8 352.34 303.81C353.69 305.82 348.34 310.73 345.74 310.4C345.399 310.383 345.064 310.296 344.757 310.146C344.45 309.996 344.176 309.785 343.953 309.526C343.729 309.267 343.561 308.966 343.457 308.64C343.354 308.314 343.317 307.97 343.35 307.63L345.93 304.45Z" fill="#D3766A"/>
<path d="M350.78 305.18C350.78 305.18 350.78 305.25 350.78 305.24C349.887 305.223 348.999 305.393 348.175 305.737C347.35 306.081 346.606 306.593 345.99 307.24C346.16 307.138 346.349 307.073 346.546 307.05C346.743 307.026 346.943 307.045 347.132 307.105C347.321 307.164 347.495 307.263 347.643 307.395C347.791 307.527 347.909 307.689 347.99 307.87C347.99 307.87 347.99 307.96 347.91 307.93C347.681 307.701 347.388 307.549 347.069 307.493C346.75 307.438 346.422 307.482 346.13 307.62C345.647 307.862 345.188 308.15 344.76 308.48C344.62 308.58 344.4 308.38 344.54 308.24C345.58 306.25 348.55 304.28 350.78 305.18Z" fill="#263238"/>
</svg>
